<?xml version="1.0" encoding="UTF-8" standalone="no"?>
<!-- Generator: Adobe Illustrator 19.0.0, SVG Export Plug-In . SVG Version: 6.00 Build 0)  -->

<svg
   version="1.1"
   id="Layer_1"
   x="0px"
   y="0px"
   viewBox="0 0 288 288"
   style="enable-background:new 0 0 288 288;"
   xml:space="preserve"
   sodipodi:docname="B3.svgz"
   xmlns:inkscape="http://www.inkscape.org/namespaces/inkscape"
   xmlns:sodipodi="http://sodipodi.sourceforge.net/DTD/sodipodi-0.dtd"
   xmlns="http://www.w3.org/2000/svg"
   xmlns:svg="http://www.w3.org/2000/svg"><defs
   id="defs167" /><sodipodi:namedview
   id="namedview165"
   pagecolor="#ffffff"
   bordercolor="#000000"
   borderopacity="0.25"
   inkscape:showpageshadow="2"
   inkscape:pageopacity="0.0"
   inkscape:pagecheckerboard="0"
   inkscape:deskcolor="#d1d1d1" />
<style
   type="text/css"
   id="style2">
	.st0{fill:#D32028;}
	.st1{fill:#E6E7E8;}
	.st2{fill:#575A5A;}
	.st3{fill:#B12024;}
	.st4{fill:#2F3333;}
	.st5{fill:#1B1D1D;}
	.st6{fill:#FAAF40;}
	.st7{fill:#232323;}
	.st8{fill:#161616;}
	.st9{fill:#212323;}
	.st10{fill:none;stroke:#262828;stroke-miterlimit:10;}
	.st11{fill:#DDDDDC;}
	.st12{fill:#EDEDEF;}
	.st13{fill:#F4ECDE;}
	.st14{fill:#EEDDB8;}
	.st15{fill:#F4F3F2;}
	.st16{fill:#F9F8F7;}
	.st17{fill:#FFFFFF;}
	.st18{fill:#F89F2A;}
	.st19{fill:#231F20;}
	.st20{fill:#231F20;stroke:#231F20;stroke-width:0.15;}
	.st21{fill:#231F20;stroke:#231F20;stroke-width:0.15;stroke-miterlimit:10;}
	.st22{fill:#9D1D20;}
	.st23{fill:#F05A28;}
</style>
<g
   id="XMLID_197_">
	<path
   id="XMLID_71_"
   class="st0"
   d="M211.3,184.2H76.7V82.6c0-8.6,7-15.6,15.6-15.6h103.3c8.6,0,15.6,7,15.6,15.6V184.2z" />
	<g
   id="XMLID_70_">
		<path
   id="XMLID_209_"
   class="st1"
   d="M204.8,127H83.2c-1.9,0-3.5-1.6-3.5-3.5V87.8C79.7,81.3,85,76,91.5,76h105    c6.5,0,11.8,5.3,11.8,11.8v35.6C208.3,125.4,206.8,127,204.8,127z" />
	</g>
	<g
   id="XMLID_242_">
		<path
   id="XMLID_232_"
   class="st2"
   d="M208.3,87.8V90c0-6.5-5.3-11.8-11.9-11.8h-105c-6.5,0-11.9,5.3-11.9,11.8v-2.1    C79.7,81.3,85,76,91.5,76h105C203,76,208.3,81.3,208.3,87.8z" />
	</g>
	<g
   id="XMLID_239_">
		<path
   id="XMLID_247_"
   class="st2"
   d="M208.3,121v2.5c0,1.9-1.6,3.5-3.5,3.5H83.2c-1.9,0-3.5-1.6-3.5-3.5V121    c0,1.9,1.6,3.5,3.5,3.5h121.6C206.8,124.5,208.3,122.9,208.3,121z" />
	</g>
	<path
   id="XMLID_243_"
   class="st3"
   d="M195.6,67H92.4c-8.6,0-15.6,7-15.6,15.6V127h134.5V82.6C211.3,74,204.3,67,195.6,67z    M208.3,123.5c0,1.9-1.6,3.5-3.5,3.5H83.2c-1.9,0-3.5-1.6-3.5-3.5V87.8C79.7,81.3,85,76,91.5,76h105c6.5,0,11.8,5.3,11.8,11.8   V123.5z" />
	<path
   id="XMLID_69_"
   class="st4"
   d="M212.7,197H75.3c-1.7,0-3-1.4-3-3V183c0-1.7,1.4-3,3-3h137.4c1.7,0,3,1.4,3,3V194   C215.8,195.6,214.4,197,212.7,197z" />
	<g
   id="XMLID_63_">
		<path
   id="XMLID_204_"
   class="st5"
   d="M125.9,176.3c-4.8,0-8.7-3.9-8.7-8.7c0-3.8-3.1-6.9-6.9-6.9H86.6c-1.9,0-3.5-1.6-3.5-3.5    v-17.8c0-1.9,1.6-3.5,3.5-3.5h114.7c1.9,0,3.5,1.6,3.5,3.5v17.8c0,1.9-1.6,3.5-3.5,3.5h-23.7c-3.8,0-6.9,3.1-6.9,6.9    c0,4.8-3.9,8.7-8.7,8.7H125.9z" />
		<path
   id="XMLID_125_"
   class="st4"
   d="M201.4,136.9c1.4,0,2.5,1.1,2.5,2.5v17.8c0,1.4-1.1,2.5-2.5,2.5h-23.7    c-4.4,0-7.9,3.5-7.9,7.9c0,4.2-3.4,7.7-7.7,7.7h-36.2c-4.2,0-7.7-3.4-7.7-7.7c0-4.4-3.5-7.9-7.9-7.9H86.6c-1.4,0-2.5-1.1-2.5-2.5    v-17.8c0-1.4,1.1-2.5,2.5-2.5H201.4 M201.4,134.9H86.6c-2.5,0-4.5,2-4.5,4.5v17.8c0,2.5,2,4.5,4.5,4.5h23.7c3.3,0,5.9,2.6,5.9,5.9    v0c0,5.3,4.3,9.7,9.7,9.7h36.2c5.3,0,9.7-4.3,9.7-9.7v0c0-3.3,2.6-5.9,5.9-5.9h23.7c2.5,0,4.5-2,4.5-4.5v-17.8    C205.9,136.9,203.9,134.9,201.4,134.9L201.4,134.9z" />
	</g>
	<rect
   id="XMLID_62_"
   x="82.1"
   y="167.8"
   class="st5"
   width="13.5"
   height="12.3" />
	<rect
   id="XMLID_61_"
   x="95.6"
   y="167.8"
   class="st6"
   width="19.9"
   height="12.3" />
	<rect
   id="XMLID_59_"
   x="192.4"
   y="167.8"
   class="st5"
   width="13.5"
   height="12.3" />
	<rect
   id="XMLID_52_"
   x="176.9"
   y="134.9"
   class="st4"
   width="2.6"
   height="26.9" />
	<rect
   id="XMLID_51_"
   x="108.5"
   y="134.9"
   class="st4"
   width="2.6"
   height="26.9" />
	<rect
   id="XMLID_50_"
   x="83.8"
   y="140.7"
   class="st4"
   width="120.1"
   height="1.2" />
	<rect
   id="XMLID_49_"
   x="83.8"
   y="145.8"
   class="st4"
   width="120.1"
   height="1.2" />
	<rect
   id="XMLID_48_"
   x="83.8"
   y="150.9"
   class="st4"
   width="120.1"
   height="1.2" />
	<rect
   id="XMLID_47_"
   x="83.8"
   y="156"
   class="st4"
   width="120.1"
   height="1.2" />
	<polygon
   id="XMLID_42_"
   class="st4"
   points="113,162 112.1,161.1 175.7,161.1 174.9,162.1  " />
	<rect
   id="XMLID_3_"
   x="117.9"
   y="166.2"
   class="st4"
   width="52.1"
   height="1.2" />
	<rect
   id="XMLID_2_"
   x="117.9"
   y="171.3"
   class="st4"
   width="52.1"
   height="1.2" />
	<circle
   id="XMLID_1_"
   class="st4"
   cx="143.9"
   cy="141.4"
   r="4.5" />
	<polygon
   id="XMLID_79_"
   class="st7"
   points="94.6,202.8 94.6,221 96.9,221 96.9,202.3  " />
	<path
   id="XMLID_80_"
   class="st7"
   d="M81.9,205.5v0.8v13c0,0.9,0.8,1.7,1.7,1.7h0.5v-16L81.9,205.5z" />
	<polygon
   id="XMLID_81_"
   class="st7"
   points="88.2,204.2 88.2,221 90.5,221 90.5,203.7  " />
	<polygon
   id="XMLID_82_"
   class="st7"
   points="85,204.8 85,221 87.4,221 87.4,204.4  " />
	<polygon
   id="XMLID_83_"
   class="st7"
   points="91.4,203.5 91.4,221 93.7,221 93.7,203  " />
	<path
   id="XMLID_84_"
   class="st7"
   d="M100.9,221h0.5c0.9,0,1.7-0.8,1.7-1.7V201l-2.2,0.5V221z" />
	<polygon
   id="XMLID_85_"
   class="st7"
   points="97.8,202.1 97.8,221 100.1,221 100.1,201.7  " />
	<g
   id="XMLID_56_">
		<polygon
   id="XMLID_86_"
   class="st8"
   points="93.7,203 93.7,197 91.4,197 91.4,203.5   " />
		<polygon
   id="XMLID_87_"
   class="st8"
   points="84.2,197 81.9,197 81.9,205.5 84.2,205   " />
		<polygon
   id="XMLID_88_"
   class="st8"
   points="100.1,201.7 100.1,197 97.8,197 97.8,202.1   " />
		<polygon
   id="XMLID_89_"
   class="st8"
   points="87.4,204.4 87.4,197 85,197 85,204.8   " />
		<polygon
   id="XMLID_90_"
   class="st8"
   points="90.5,203.7 90.5,197 88.2,197 88.2,204.2   " />
		<polygon
   id="XMLID_91_"
   class="st8"
   points="96.9,202.3 96.9,197 94.6,197 94.6,202.8   " />
		<polygon
   id="XMLID_92_"
   class="st8"
   points="100.9,197 100.9,201.5 103.2,201 103.2,197   " />
	</g>
	<polygon
   id="XMLID_93_"
   class="st4"
   points="84.2,205 84.2,221 85,221 85,204.8  " />
	<polygon
   id="XMLID_95_"
   class="st4"
   points="87.4,204.4 87.4,221 88.2,221 88.2,204.2  " />
	<polygon
   id="XMLID_97_"
   class="st4"
   points="90.5,203.7 90.5,221 91.4,221 91.4,203.5  " />
	<polygon
   id="XMLID_99_"
   class="st4"
   points="93.7,203 93.7,221 94.6,221 94.6,202.8  " />
	<polygon
   id="XMLID_101_"
   class="st4"
   points="96.9,202.3 96.9,221 97.8,221 97.8,202.1  " />
	<polygon
   id="XMLID_103_"
   class="st4"
   points="100.1,201.7 100.1,221 100.9,221 100.9,201.5  " />
	<g
   id="XMLID_54_">
		<polygon
   id="XMLID_94_"
   class="st9"
   points="85,204.8 85,197 84.2,197 84.2,205   " />
		<polygon
   id="XMLID_96_"
   class="st9"
   points="88.2,204.2 88.2,197 87.4,197 87.4,204.4   " />
		<polygon
   id="XMLID_98_"
   class="st9"
   points="91.4,203.5 91.4,197 90.5,197 90.5,203.7   " />
		<polygon
   id="XMLID_100_"
   class="st9"
   points="94.6,202.8 94.6,197 93.7,197 93.7,203   " />
		<polygon
   id="XMLID_102_"
   class="st9"
   points="97.8,202.1 97.8,197 96.9,197 96.9,202.3   " />
		<polygon
   id="XMLID_104_"
   class="st9"
   points="100.9,201.5 100.9,197 100.1,197 100.1,201.7   " />
	</g>
	<polygon
   id="XMLID_124_"
   class="st7"
   points="197.3,202.8 197.3,221 199.7,221 199.7,202.3  " />
	<path
   id="XMLID_123_"
   class="st7"
   d="M184.7,205.5v0.8v13c0,0.9,0.8,1.7,1.7,1.7h0.5v-16L184.7,205.5z" />
	<polygon
   id="XMLID_122_"
   class="st7"
   points="190.9,204.2 190.9,221 193.3,221 193.3,203.7  " />
	<polygon
   id="XMLID_121_"
   class="st7"
   points="187.7,204.8 187.7,221 190.1,221 190.1,204.4  " />
	<polygon
   id="XMLID_120_"
   class="st7"
   points="194.1,203.5 194.1,221 196.5,221 196.5,203  " />
	<path
   id="XMLID_119_"
   class="st7"
   d="M203.7,221h0.5c0.9,0,1.7-0.8,1.7-1.7V201l-2.2,0.5V221z" />
	<polygon
   id="XMLID_118_"
   class="st7"
   points="200.5,202.1 200.5,221 202.9,221 202.9,201.7  " />
	<g
   id="XMLID_110_">
		<polygon
   id="XMLID_117_"
   class="st8"
   points="196.5,203 196.5,197 194.1,197 194.1,203.5   " />
		<polygon
   id="XMLID_116_"
   class="st8"
   points="186.9,197 184.7,197 184.7,205.5 186.9,205   " />
		<polygon
   id="XMLID_115_"
   class="st8"
   points="202.9,201.7 202.9,197 200.5,197 200.5,202.1   " />
		<polygon
   id="XMLID_114_"
   class="st8"
   points="190.1,204.4 190.1,197 187.7,197 187.7,204.8   " />
		<polygon
   id="XMLID_113_"
   class="st8"
   points="193.3,203.7 193.3,197 190.9,197 190.9,204.2   " />
		<polygon
   id="XMLID_112_"
   class="st8"
   points="199.7,202.3 199.7,197 197.3,197 197.3,202.8   " />
		<polygon
   id="XMLID_111_"
   class="st8"
   points="203.7,197 203.7,201.5 205.9,201 205.9,197   " />
	</g>
	<polygon
   id="XMLID_109_"
   class="st4"
   points="186.9,205 186.9,221 187.7,221 187.7,204.8  " />
	<polygon
   id="XMLID_108_"
   class="st4"
   points="190.1,204.4 190.1,221 190.9,221 190.9,204.2  " />
	<polygon
   id="XMLID_107_"
   class="st4"
   points="193.3,203.7 193.3,221 194.1,221 194.1,203.5  " />
	<polygon
   id="XMLID_106_"
   class="st4"
   points="196.5,203 196.5,221 197.3,221 197.3,202.8  " />
	<polygon
   id="XMLID_105_"
   class="st4"
   points="199.7,202.3 199.7,221 200.5,221 200.5,202.1  " />
	<polygon
   id="XMLID_78_"
   class="st4"
   points="202.9,201.7 202.9,221 203.7,221 203.7,201.5  " />
	<g
   id="XMLID_55_">
		<polygon
   id="XMLID_77_"
   class="st9"
   points="187.7,204.8 187.7,197 186.9,197 186.9,205   " />
		<polygon
   id="XMLID_76_"
   class="st9"
   points="190.9,204.2 190.9,197 190.1,197 190.1,204.4   " />
		<polygon
   id="XMLID_75_"
   class="st9"
   points="194.1,203.5 194.1,197 193.3,197 193.3,203.7   " />
		<polygon
   id="XMLID_74_"
   class="st9"
   points="197.3,202.8 197.3,197 196.5,197 196.5,203   " />
		<polygon
   id="XMLID_73_"
   class="st9"
   points="200.5,202.1 200.5,197 199.7,197 199.7,202.3   " />
		<polygon
   id="XMLID_72_"
   class="st9"
   points="203.7,201.5 203.7,197 202.9,197 202.9,201.7   " />
	</g>
	<g
   id="XMLID_128_">
		<rect
   id="XMLID_53_"
   x="214"
   y="90.7"
   class="st4"
   width="9.6"
   height="21" />
		<path
   id="XMLID_127_"
   class="st4"
   d="M221.4,120.5h-5.3c-1.2,0-2.1-1-2.1-2.1V116c0-1.2,1-2.1,2.1-2.1h5.3c1.2,0,2.1,1,2.1,2.1    v2.4C223.5,119.5,222.6,120.5,221.4,120.5z" />
		<path
   id="XMLID_126_"
   class="st10"
   d="M211.3,85.6h5.5c0,0,1.8-0.1,2,2.7v26.4v6.1c0,0-0.2,1.8-1.7,1.9h-5.8" />
	</g>
	<g
   id="XMLID_135_">
		<rect
   id="XMLID_139_"
   x="64.5"
   y="90.7"
   class="st4"
   width="9.6"
   height="21" />
		<path
   id="XMLID_138_"
   class="st4"
   d="M66.6,120.5h5.3c1.2,0,2.1-1,2.1-2.1V116c0-1.2-1-2.1-2.1-2.1h-5.3c-1.2,0-2.1,1-2.1,2.1v2.4    C64.5,119.5,65.4,120.5,66.6,120.5z" />
		<path
   id="XMLID_136_"
   class="st10"
   d="M76.7,85.6h-5.5c0,0-1.8-0.1-2,2.7v26.4v6.1c0,0,0.2,1.8,1.7,1.9h5.8" />
	</g>
	<rect
   id="XMLID_225_"
   x="172.5"
   y="167.8"
   class="st6"
   width="19.9"
   height="12.3" />
	<path
   id="XMLID_195_"
   class="st11"
   d="M115.5,80.7h81.9c3.9,0,7,3.2,7,7v3.1c0,5-5,8.4-9.6,6.5l-14.4-5.7c-1.3-0.5-2.7-0.6-4-0.3   l-18.9,4c-2,0.4-4,0-5.6-1.2C146.3,90,131.6,80.7,115.5,80.7z" />
	<path
   id="XMLID_196_"
   class="st11"
   d="M82.7,96v22.3c0,2.4,2,4.4,4.4,4.4H134c2.8,0,4.9-2.6,4.3-5.3l-0.8-3.7   c-0.3-1.3-1.1-2.3-2.2-2.9l-23.7-12.8c-0.1-0.1-0.2-0.1-0.3-0.1l-8.5-3.8l-13.9-5.8c-2.9-1.2-6.1,0.9-6.1,4.1V96z" />
	<polygon
   id="XMLID_198_"
   class="st12"
   points="180.1,80.7 151.9,122.7 171.4,122.7 197,80.7  " />
	<path
   id="XMLID_200_"
   class="st12"
   d="M204.4,89.3l-17.3,33.4h7.1h6.7c1.9,0,3.5-1.6,3.5-3.5V89.3z" />
	<g
   id="XMLID_201_">
		<g
   id="XMLID_60_">
			<path
   id="XMLID_67_"
   class="st13"
   d="M88.8,179.5c-3.1,0-5.6-2.5-5.6-5.6s2.5-5.6,5.6-5.6s5.6,2.5,5.6,5.6S91.9,179.5,88.8,179.5     z" />
			<path
   id="XMLID_64_"
   class="st14"
   d="M88.8,168.8c2.8,0,5.1,2.3,5.1,5.1s-2.3,5.1-5.1,5.1s-5.1-2.3-5.1-5.1S86,168.8,88.8,168.8      M88.8,167.8c-3.4,0-6.1,2.7-6.1,6.1s2.7,6.1,6.1,6.1c3.4,0,6.1-2.7,6.1-6.1S92.2,167.8,88.8,167.8L88.8,167.8z" />
		</g>
		
			<ellipse
   id="XMLID_137_"
   transform="matrix(0.7071 0.7071 -0.7071 0.7071 148.5474 -12.9986)"
   class="st15"
   cx="90"
   cy="172.8"
   rx="0.5"
   ry="1.6" />
		
			<ellipse
   id="XMLID_199_"
   transform="matrix(0.7071 -0.7071 0.7071 0.7071 -96.6529 112.2857)"
   class="st15"
   cx="87.2"
   cy="172.8"
   rx="0.5"
   ry="1.6" />
		
			<ellipse
   id="XMLID_134_"
   transform="matrix(0.7071 0.7071 -0.7071 0.7071 149.4878 -10.7281)"
   class="st16"
   cx="87.7"
   cy="175.1"
   rx="0.5"
   ry="1.6" />
		
			<ellipse
   id="XMLID_132_"
   transform="matrix(-0.9585 0.2851 -0.2851 -0.9585 219.8422 319.0892)"
   class="st14"
   cx="86.7"
   cy="175.5"
   rx="2.5"
   ry="2" />
		<ellipse
   id="XMLID_131_"
   class="st15"
   cx="88.8"
   cy="171.5"
   rx="0.8"
   ry="2.5" />
		<ellipse
   id="XMLID_133_"
   class="st15"
   cx="88.8"
   cy="176.4"
   rx="0.8"
   ry="2.5" />
		<ellipse
   id="XMLID_130_"
   class="st17"
   cx="91.3"
   cy="175.5"
   rx="2.2"
   ry="1.8" />
	</g>
	<g
   id="XMLID_203_">
		<g
   id="XMLID_217_">
			<path
   id="XMLID_207_"
   class="st13"
   d="M199,179.5c-3.1,0-5.6-2.5-5.6-5.6s2.5-5.6,5.6-5.6s5.6,2.5,5.6,5.6S202.1,179.5,199,179.5     z" />
			<path
   id="XMLID_46_"
   class="st14"
   d="M199,168.8c2.8,0,5.1,2.3,5.1,5.1s-2.3,5.1-5.1,5.1s-5.1-2.3-5.1-5.1S196.2,168.8,199,168.8      M199,167.8c-3.4,0-6.1,2.7-6.1,6.1s2.7,6.1,6.1,6.1s6.1-2.7,6.1-6.1S202.4,167.8,199,167.8L199,167.8z" />
		</g>
		
			<ellipse
   id="XMLID_216_"
   transform="matrix(0.7071 0.7071 -0.7071 0.7071 180.8116 -90.8913)"
   class="st15"
   cx="200.1"
   cy="172.8"
   rx="0.5"
   ry="1.6" />
		
			<ellipse
   id="XMLID_215_"
   transform="matrix(0.7071 -0.7071 0.7071 0.7071 -64.3887 190.1784)"
   class="st15"
   cx="197.4"
   cy="172.8"
   rx="0.5"
   ry="1.6" />
		
			<ellipse
   id="XMLID_214_"
   transform="matrix(0.7071 0.7071 -0.7071 0.7071 181.752 -88.6208)"
   class="st16"
   cx="197.9"
   cy="175.1"
   rx="0.5"
   ry="1.6" />
		
			<ellipse
   id="XMLID_213_"
   transform="matrix(-0.9585 0.2851 -0.2851 -0.9585 435.5848 287.6859)"
   class="st14"
   cx="196.9"
   cy="175.5"
   rx="2.5"
   ry="2" />
		<ellipse
   id="XMLID_212_"
   class="st15"
   cx="199"
   cy="171.5"
   rx="0.8"
   ry="2.5" />
		<ellipse
   id="XMLID_206_"
   class="st15"
   cx="199"
   cy="176.4"
   rx="0.8"
   ry="2.5" />
		<ellipse
   id="XMLID_205_"
   class="st17"
   cx="201.4"
   cy="175.5"
   rx="2.2"
   ry="1.8" />
	</g>
	<path
   id="XMLID_224_"
   class="st18"
   d="M187.6,167.8c-1.7,3-4.6,8.1-6.9,12.3h5.7c2-4.1,4.5-9.3,6-12.3H187.6z" />
	<path
   id="XMLID_223_"
   class="st18"
   d="M110.4,167.8c-1.7,3-4.6,8.1-6.9,12.3h5.7c2-4.1,4.5-9.3,6-12.3H110.4z" />
	<g
   id="XMLID_169_">
		<path
   id="XMLID_171_"
   class="st19"
   d="M176.1,172.3l0.9-2.3h1.4v0.1h-0.1c-0.1,0-0.2,0-0.2,0.1c0,0-0.1,0.1-0.1,0.1    c0,0,0,0.1,0,0.3v2.3c0,0.2,0,0.3,0,0.3c0,0,0.1,0.1,0.1,0.1c0.1,0,0.1,0,0.2,0h0.1v0.1h-1.8v-0.1h0.1c0.1,0,0.2,0,0.2-0.1    c0,0,0.1-0.1,0.1-0.1c0,0,0-0.1,0-0.3v-2.5l-1.3,3.1h-0.1l-1.3-3.1v2.4c0,0.2,0,0.3,0,0.3c0,0.1,0.1,0.2,0.1,0.2    c0.1,0.1,0.2,0.1,0.3,0.1v0.1h-1.2v-0.1h0c0.1,0,0.1,0,0.2,0c0.1,0,0.1-0.1,0.1-0.1s0.1-0.1,0.1-0.2c0,0,0-0.1,0-0.3v-2.2    c0-0.2,0-0.3,0-0.3s-0.1-0.1-0.1-0.1c-0.1,0-0.1,0-0.2,0h-0.1v-0.1h1.4L176.1,172.3z" />
		<path
   id="XMLID_173_"
   class="st19"
   d="M179.9,171.8v1.1c0,0.2,0,0.3,0,0.3c0,0,0.1,0.1,0.1,0.1c0.1,0,0.1,0,0.2,0h0.1v0.1h-1.8    v-0.1h0.1c0.1,0,0.2,0,0.2-0.1c0,0,0.1-0.1,0.1-0.1c0,0,0-0.1,0-0.3v-2.2c0-0.2,0-0.3,0-0.3c0,0-0.1-0.1-0.1-0.1    c-0.1,0-0.1,0-0.2,0h-0.1v-0.1h1.8v0.1h-0.1c-0.1,0-0.2,0-0.2,0.1c0,0-0.1,0.1-0.1,0.1c0,0,0,0.1,0,0.3v1h1.2v-1    c0-0.2,0-0.3,0-0.3c0,0-0.1-0.1-0.1-0.1c-0.1,0-0.1,0-0.2,0h-0.1v-0.1h1.8v0.1h-0.1c-0.1,0-0.2,0-0.2,0.1c0,0-0.1,0.1-0.1,0.1    c0,0,0,0.1,0,0.3v2.2c0,0.2,0,0.3,0,0.3s0.1,0.1,0.1,0.1c0.1,0,0.1,0,0.2,0h0.1v0.1h-1.8v-0.1h0.1c0.1,0,0.2,0,0.2-0.1    c0,0,0.1-0.1,0.1-0.1c0,0,0-0.1,0-0.3v-1.1H179.9z" />
		<path
   id="XMLID_175_"
   class="st19"
   d="M184.1,172.6h-1.5V172h1.5V172.6z" />
		<path
   id="XMLID_177_"
   class="st19"
   d="M186.6,171.8c0,0.3,0,0.7-0.1,1c-0.1,0.2-0.1,0.3-0.2,0.4s-0.2,0.2-0.3,0.3    c-0.1,0.1-0.3,0.1-0.4,0.1c-0.2,0-0.3,0-0.4-0.1c-0.1-0.1-0.3-0.2-0.4-0.4c-0.1-0.1-0.1-0.3-0.2-0.5c-0.1-0.3-0.1-0.5-0.1-0.8    c0-0.4,0.1-0.7,0.2-1c0.1-0.3,0.2-0.5,0.4-0.6c0.2-0.1,0.4-0.2,0.6-0.2c0.2,0,0.4,0.1,0.6,0.2c0.2,0.1,0.3,0.3,0.4,0.5    C186.5,171.1,186.6,171.4,186.6,171.8z M185.8,171.8c0-0.6,0-0.9,0-1c0-0.2-0.1-0.4-0.1-0.5c0-0.1-0.1-0.1-0.2-0.1    c-0.1,0-0.1,0-0.2,0.1c-0.1,0.1-0.1,0.2-0.1,0.3c0,0.1,0,0.7,0,1.6c0,0.5,0,0.8,0.1,1c0,0.1,0.1,0.2,0.1,0.2c0,0,0.1,0.1,0.2,0.1    c0.1,0,0.1,0,0.2-0.1c0.1-0.1,0.1-0.2,0.1-0.4L185.8,171.8z" />
		<path
   id="XMLID_180_"
   class="st19"
   d="M187.7,173.6l0.9-2.8h-0.7c-0.3,0-0.5,0-0.6,0.1c-0.1,0.1-0.2,0.1-0.2,0.3H187l0.2-1.1h2    l-1.1,3.5H187.7z" />
		<path
   id="XMLID_182_"
   class="st19"
   d="M177.3,174.3L177.3,174.3c-0.1,0.1-0.2,0.1-0.3,0.2c-0.1,0.1-0.2,0.3-0.4,0.6l-0.7,1.2v0.8    c0,0.2,0,0.3,0,0.3c0,0,0.1,0.1,0.1,0.1s0.1,0,0.2,0h0.2v0.1h-1.9v-0.1h0.2c0.1,0,0.2,0,0.2-0.1c0,0,0.1-0.1,0.1-0.1    c0,0,0-0.1,0-0.3v-0.7l-0.8-1.5c-0.2-0.3-0.3-0.5-0.3-0.5c-0.1-0.1-0.2-0.1-0.3-0.1v-0.1h1.6v0.1h-0.1c-0.1,0-0.2,0-0.2,0    c0,0-0.1,0.1-0.1,0.1c0,0.1,0.1,0.2,0.2,0.5l0.6,1.1l0.6-1c0.2-0.3,0.2-0.4,0.2-0.5c0,0,0-0.1-0.1-0.1c-0.1,0-0.2-0.1-0.3-0.1    v-0.1H177.3z" />
		<path
   id="XMLID_184_"
   class="st19"
   d="M178.7,176.1v1c0,0.2,0,0.3,0,0.3c0,0,0.1,0.1,0.1,0.1c0.1,0,0.2,0,0.3,0v0.1h-1.7v-0.1    c0.2,0,0.3,0,0.3,0c0.1,0,0.1-0.1,0.1-0.1c0,0,0-0.2,0-0.3v-2.2c0-0.2,0-0.3,0-0.3c0,0-0.1-0.1-0.1-0.1c-0.1,0-0.2,0-0.3,0v-0.1    h1.6c0.4,0,0.7,0,0.9,0.1s0.3,0.2,0.5,0.3s0.2,0.3,0.2,0.5c0,0.3-0.1,0.5-0.3,0.6c-0.1,0.1-0.3,0.2-0.5,0.2l0.8,1.2    c0.1,0.1,0.2,0.2,0.2,0.3c0.1,0.1,0.1,0.1,0.2,0.1v0.1H180l-1.1-1.6H178.7z M178.7,174.5v1.5h0.1c0.2,0,0.4,0,0.5-0.1    s0.2-0.1,0.3-0.2c0.1-0.1,0.1-0.3,0.1-0.4c0-0.3-0.1-0.5-0.2-0.6c-0.1-0.1-0.3-0.2-0.6-0.2H178.7z" />
		<path
   id="XMLID_187_"
   class="st19"
   d="M182.7,174.2v2.8c0,0.2,0,0.3,0,0.4s0.1,0.1,0.1,0.1c0.1,0,0.2,0.1,0.3,0.1h0.1v0.1h-1.8    v-0.1h0.1c0.1,0,0.3,0,0.3-0.1c0.1,0,0.1-0.1,0.1-0.1s0-0.2,0-0.4v-1.8c0-0.2,0-0.3,0-0.3c0,0,0-0.1-0.1-0.1c0,0-0.1,0-0.1,0    c-0.1,0-0.2,0-0.3,0.1l0-0.1L182.7,174.2L182.7,174.2z" />
		<path
   id="XMLID_189_"
   class="st19"
   d="M184.4,176L184.4,176c0.2-0.1,0.3-0.2,0.4-0.2s0.1-0.1,0.2-0.2s0.1-0.2,0.1-0.3    c0-0.1-0.1-0.3-0.2-0.4s-0.2-0.1-0.4-0.1c-0.2,0-0.4,0.1-0.6,0.4l-0.1,0c0.1-0.3,0.3-0.5,0.5-0.6c0.2-0.1,0.4-0.2,0.6-0.2    c0.2,0,0.4,0.1,0.6,0.2s0.2,0.3,0.2,0.5c0,0.1,0,0.2-0.1,0.4c-0.1,0.1-0.2,0.2-0.3,0.3c0.2,0.1,0.3,0.2,0.4,0.4    c0.1,0.1,0.2,0.3,0.2,0.5c0,0.4-0.1,0.7-0.4,0.9s-0.6,0.4-1,0.4c-0.3,0-0.5,0-0.6-0.1c-0.1-0.1-0.1-0.2-0.1-0.3    c0-0.1,0-0.1,0.1-0.2s0.1-0.1,0.2-0.1c0.1,0,0.1,0,0.2,0c0,0,0.1,0.1,0.3,0.2c0.2,0.1,0.3,0.2,0.5,0.2c0.1,0,0.2,0,0.3-0.1    s0.1-0.2,0.1-0.4c0-0.2-0.1-0.4-0.2-0.6C184.9,176.2,184.7,176,184.4,176z" />
		<path
   id="XMLID_191_"
   class="st19"
   d="M187,174.3h1.6l-0.3,0.6H187l-0.1,0.3c0.6,0,1,0.2,1.3,0.4c0.3,0.2,0.4,0.5,0.4,0.8    c0,0.2-0.1,0.4-0.2,0.6c-0.1,0.2-0.3,0.4-0.5,0.5c-0.2,0.1-0.5,0.2-0.7,0.2c-0.3,0-0.5-0.1-0.6-0.2c-0.1-0.1-0.2-0.2-0.2-0.3    c0-0.1,0-0.1,0.1-0.2s0.1-0.1,0.2-0.1c0.1,0,0.1,0,0.2,0c0.1,0,0.2,0.1,0.3,0.2c0.1,0.1,0.2,0.1,0.3,0.1c0.1,0,0.1,0,0.2,0    c0.1,0,0.3-0.1,0.4-0.2s0.1-0.2,0.1-0.4c0-0.3-0.1-0.5-0.4-0.7c-0.3-0.2-0.7-0.3-1.1-0.3c0,0-0.1,0-0.2,0L187,174.3z" />
		<path
   id="XMLID_193_"
   class="st19"
   d="M189.7,177.8l0.9-2.8h-0.7c-0.3,0-0.5,0-0.6,0.1c-0.1,0.1-0.2,0.1-0.2,0.3H189l0.2-1.1h2    l-1.1,3.5H189.7z" />
	</g>
	<g
   id="XMLID_140_">
		<path
   id="XMLID_156_"
   class="st20"
   d="M99.7,177.2c-0.2,0.1-0.4,0.2-0.6,0.2c-0.5,0-0.8-0.3-1.1-1l-0.1-0.3l0.7-0.2    c0.1,0,0.1-0.1,0.1-0.2c0-0.1,0-0.2-0.1-0.2c-0.1-0.1-0.1-0.1-0.2-0.1h-0.7l-0.3-0.5h3l0.3,0.5h-0.6v2.7l-0.5-0.3V177.2z     M98.7,175.3c0.1,0.1,0.2,0.2,0.3,0.3c0.1,0.1,0.1,0.3,0.1,0.4c0,0.1-0.1,0.2-0.2,0.2c-0.1,0-0.2,0.1-0.4,0.1    c-0.1,0-0.2,0.1-0.2,0.2c0,0.2,0.1,0.3,0.4,0.3c0.3,0,0.5-0.1,0.8-0.3v-1.2H98.7z" />
		<path
   id="XMLID_154_"
   class="st20"
   d="M102.8,175.3H102v1c0,0.2,0,0.3-0.1,0.4c0,0.1-0.1,0.2-0.3,0.2l0.8,0.9l-0.2,0.2l-1.3-1.4    c-0.1-0.1-0.1-0.2-0.1-0.3c0-0.2,0.1-0.3,0.3-0.3c0.2,0,0.3,0,0.3,0.1v-0.9h-0.9l-0.3-0.5h2.2L102.8,175.3z" />
		<path
   id="XMLID_142_"
   class="st20"
   d="M98.6,169.9v1.1h1v0.5h-1v0.2c0,0.1,0,0.2-0.1,0.2c0,0-0.1,0-0.1-0.1l-0.6-0.6    c0,0,0-0.1,0-0.1c0-0.1,0.1-0.1,0.2-0.1h0.1v-1.1h-0.5l-0.3-0.5h3.2l0.3,0.5h-0.6v2.7l-0.5-0.3v-2.3H98.6z" />
		<path
   id="XMLID_144_"
   class="st20"
   d="M103.2,169.9h-0.5v0.7c0,0,0,0.1,0,0.1c0,0-0.1,0-0.1,0h-0.8c-0.3,0-0.5,0.1-0.5,0.3    c0,0,0,0.1,0,0.1c0.2-0.1,0.4-0.2,0.7-0.2c0.2,0,0.4,0.1,0.6,0.2c0.2,0.2,0.3,0.4,0.3,0.6c0,0.3-0.2,0.5-0.6,0.6l-0.3-0.5    c0.1,0,0.2-0.1,0.3-0.2c0.1-0.1,0.1-0.2,0.1-0.3c0-0.1,0-0.1,0-0.1c-0.2,0-0.4,0.1-0.6,0.2c-0.2,0.1-0.3,0.3-0.3,0.6    c0,0.2,0.2,0.3,0.5,0.5c0.2,0.1,0.4,0.2,0.7,0.3l-0.1,0.2c-0.4-0.1-0.7-0.2-1-0.4c-0.5-0.3-0.7-0.5-0.7-0.9c0-0.2,0.1-0.4,0.3-0.5    c-0.2-0.2-0.3-0.5-0.3-0.6c0-0.2,0.2-0.4,0.5-0.4h0.8v-0.4h-1.5l-0.3-0.5h2.6L103.2,169.9z" />
		<path
   id="XMLID_146_"
   class="st20"
   d="M104.5,169.9h-0.6v2.7l-0.5-0.3v-2.3H103l-0.3-0.5h1.6L104.5,169.9z" />
		<path
   id="XMLID_148_"
   class="st20"
   d="M109.1,171.1c0,0.3-0.1,0.6-0.4,0.8c-0.2,0.2-0.5,0.3-0.7,0.3c-0.3,0-0.5-0.1-0.6-0.2    c-0.2-0.2-0.3-0.4-0.3-0.7c0-0.3,0.1-0.6,0.3-0.8c0.2-0.2,0.5-0.3,0.7-0.3c0.3,0,0.5,0.1,0.7,0.2    C109,170.5,109.1,170.7,109.1,171.1z M108.6,171.3c0-0.2-0.1-0.4-0.2-0.6c-0.1-0.2-0.3-0.2-0.5-0.2c-0.1,0-0.2,0-0.2,0.1    c-0.1,0.1-0.1,0.2-0.1,0.3c0,0.2,0.1,0.4,0.2,0.6c0.1,0.2,0.3,0.2,0.5,0.2C108.5,171.7,108.6,171.6,108.6,171.3z" />
		<path
   id="XMLID_151_"
   class="st20"
   d="M111.9,171.1c0,0.4-0.1,0.8-0.3,1c-0.2,0.2-0.5,0.3-0.8,0.3c-0.5,0-1-0.3-1.2-1    c-0.2-0.5-0.3-1.1-0.3-1.9l0.3-0.1c0,0.6,0.1,1.1,0.2,1.6c0.2,0.6,0.5,0.9,1,0.9c0.2,0,0.3,0,0.5-0.1c0.1-0.1,0.2-0.3,0.3-0.5    c-0.1,0.1-0.3,0.1-0.4,0.1c-0.2,0-0.4-0.1-0.6-0.2c-0.2-0.2-0.3-0.4-0.3-0.6c0-0.5,0.2-0.7,0.5-0.7c0.3,0,0.6,0.1,0.8,0.3    C111.8,170.4,111.9,170.7,111.9,171.1z M111.4,170.5c0-0.2-0.1-0.3-0.3-0.3c-0.1,0-0.2,0.1-0.3,0.2c-0.1,0.1-0.2,0.2-0.2,0.4    c0,0.1,0,0.1,0.1,0.2c0.1,0.1,0.1,0.1,0.2,0.1c0.1,0,0.2-0.1,0.3-0.2C111.3,170.8,111.4,170.6,111.4,170.5z" />
		<path
   id="XMLID_159_"
   class="st20"
   d="M105.2,177.6c0.1,0.1,0.2,0.2,0.2,0.4c0,0.1,0,0.2-0.1,0.2c-0.1,0.1-0.1,0.1-0.2,0.1    l-0.4-0.3c0,0,0.1,0,0.1-0.1c0,0,0.1-0.1,0.1-0.2c0-0.1,0-0.2-0.1-0.2l-0.9-0.9l0.5-0.5l-0.3-0.3c-0.3-0.3-0.4-0.5-0.4-0.7    c0-0.2,0.1-0.4,0.3-0.5c0.1-0.1,0.3-0.1,0.5-0.1c0.1,0,0.3,0,0.4,0.1c0.1,0.1,0.2,0.1,0.2,0.2c0.2,0.2,0.3,0.5,0.3,0.7    c0,0.2-0.1,0.5-0.4,0.7l-0.5,0.5L105.2,177.6z M104.8,175.3c0-0.2-0.1-0.3-0.2-0.3c-0.2,0-0.3,0-0.3,0.1c-0.1,0.1-0.1,0.2-0.1,0.4    c0,0.1,0,0.2,0.1,0.3c0.1,0.1,0.1,0.2,0.2,0.2c0.1,0,0.2-0.1,0.2-0.3C104.8,175.6,104.8,175.4,104.8,175.3z" />
		<path
   id="XMLID_162_"
   class="st20"
   d="M107.8,176.7c0,0.2-0.1,0.4-0.2,0.5c-0.1,0.1-0.3,0.2-0.5,0.2l0.4,0.7l-0.3,0.2l-0.4-0.8    c-0.2,0-0.3,0-0.4-0.1c-0.2-0.1-0.3-0.2-0.3-0.4c0-0.1,0-0.2,0.1-0.3c0,0,0.1,0,0.1,0c0.1,0,0.3,0.1,0.3,0.2    c0.1,0.1,0.2,0.2,0.3,0.2c0.1,0,0.2,0,0.3-0.1c0.1-0.1,0.2-0.2,0.2-0.3c0-0.1,0-0.2-0.1-0.3c-0.1-0.1-0.2-0.1-0.2-0.1c0,0,0,0,0,0    c-0.2,0-0.4,0.1-0.5,0.1c-0.3,0-0.5-0.1-0.5-0.4c0-0.2,0.1-0.3,0.4-0.3c0.1,0,0.1,0,0.3,0c0.1,0,0.2,0,0.3,0c0.1,0,0.2,0,0.2-0.1    c0.1-0.1,0.1-0.1,0.1-0.2c0-0.1,0-0.2-0.1-0.2c-0.1,0-0.1-0.1-0.2-0.1h-1l-0.2-0.5h1.1c0.2,0,0.4,0.1,0.6,0.3    c0.2,0.2,0.2,0.4,0.2,0.7c0,0.1,0,0.2,0,0.3c0,0.1-0.1,0.2-0.1,0.2C107.7,176.2,107.8,176.4,107.8,176.7z" />
		<path
   id="XMLID_164_"
   class="st20"
   d="M110.8,178l-0.3,0.1l-0.5-1.2c-0.1,0-0.2,0.1-0.3,0.1c-0.3,0-0.6-0.1-0.8-0.3    c-0.3-0.3-0.4-0.6-0.4-1c0-0.3,0.1-0.7,0.2-1.1l0.5,0.5c-0.1,0.3-0.2,0.5-0.2,0.7c0,0.2,0,0.4,0.1,0.5c0.1,0.2,0.2,0.3,0.4,0.3    c0.2,0,0.3-0.1,0.3-0.3c-0.1-0.1-0.1-0.1-0.1-0.2c0-0.1,0-0.2,0.1-0.3c0.1-0.1,0.1-0.1,0.2-0.1c0.1,0,0.3,0.1,0.3,0.2    c0.1,0.1,0.1,0.2,0.1,0.4c0,0.2-0.1,0.3-0.2,0.4L110.8,178z" />
		<path
   id="XMLID_166_"
   class="st20"
   d="M113.6,176.2c0,0.4-0.1,0.8-0.3,1c-0.2,0.2-0.5,0.3-0.8,0.3c-0.5,0-1-0.3-1.2-1    c-0.2-0.5-0.3-1.1-0.3-1.9l0.3-0.1c0,0.6,0.1,1.1,0.2,1.6c0.2,0.6,0.5,0.9,1,0.9c0.2,0,0.3,0,0.5-0.1c0.1-0.1,0.2-0.3,0.3-0.5    c-0.1,0.1-0.3,0.1-0.4,0.1c-0.2,0-0.4-0.1-0.6-0.2c-0.2-0.2-0.3-0.4-0.3-0.6c0-0.5,0.2-0.7,0.5-0.7c0.3,0,0.6,0.1,0.8,0.3    C113.5,175.5,113.6,175.8,113.6,176.2z M113.1,175.6c0-0.2-0.1-0.3-0.3-0.3c-0.1,0-0.2,0.1-0.3,0.2c-0.1,0.1-0.2,0.2-0.2,0.4    c0,0.1,0,0.1,0.1,0.2c0.1,0.1,0.1,0.1,0.2,0.1c0.1,0,0.2-0.1,0.3-0.2C113,175.9,113.1,175.8,113.1,175.6z" />
		<polygon
   id="XMLID_129_"
   class="st21"
   points="105.1,171.1 104.8,171.5 106.3,171.5 106.6,171.1   " />
	</g>
	<path
   id="XMLID_57_"
   class="st8"
   d="M153.6,186h-19.4c-0.9,0-1.5,0.7-1.5,1.5v1.9c0,0.9,0.7,1.5,1.5,1.5h19.4   c0.9,0,1.5-0.7,1.5-1.5v-1.9C155.2,186.7,154.5,186,153.6,186z" />
	<rect
   id="XMLID_226_"
   x="72.3"
   y="187.8"
   class="st15"
   width="57.7"
   height="1.3" />
	<rect
   id="XMLID_228_"
   x="158"
   y="187.8"
   class="st15"
   width="57.7"
   height="1.3" />
	<path
   id="XMLID_238_"
   class="st0"
   d="M211.3,82.6v3h-3.2c-1-5.5-5.8-9.6-11.6-9.6h-105c-5.8,0-10.6,4.1-11.6,9.6h-3.2v-3   c0-8.6,7-15.6,15.6-15.6h103.3C204.3,67,211.3,74,211.3,82.6z" />
	<circle
   id="XMLID_227_"
   class="st14"
   cx="95.6"
   cy="130.7"
   r="2" />
	<circle
   id="XMLID_231_"
   class="st14"
   cx="192.4"
   cy="130.7"
   r="2" />
	<g
   id="XMLID_234_">
		<path
   id="XMLID_233_"
   class="st22"
   d="M104,133h-2.1c-0.3,0-0.6-0.2-0.6-0.6v-0.9c0-0.3,0.2-0.6,0.6-0.6h2.1    c0.3,0,0.6,0.2,0.6,0.6v0.9C104.6,132.7,104.3,133,104,133z" />
		<path
   id="XMLID_235_"
   class="st22"
   d="M120.3,133h-2.1c-0.3,0-0.6-0.2-0.6-0.6v-0.9c0-0.3,0.2-0.6,0.6-0.6h2.1    c0.3,0,0.6,0.2,0.6,0.6v0.9C120.8,132.7,120.6,133,120.3,133z" />
		<rect
   id="XMLID_229_"
   x="102.9"
   y="130.1"
   class="st3"
   width="16.3"
   height="2.1" />
	</g>
	<g
   id="XMLID_237_">
		<path
   id="XMLID_246_"
   class="st22"
   d="M169.8,133h-2.1c-0.3,0-0.6-0.2-0.6-0.6v-0.9c0-0.3,0.2-0.6,0.6-0.6h2.1    c0.3,0,0.6,0.2,0.6,0.6v0.9C170.4,132.7,170.1,133,169.8,133z" />
		<path
   id="XMLID_245_"
   class="st22"
   d="M186.1,133H184c-0.3,0-0.6-0.2-0.6-0.6v-0.9c0-0.3,0.2-0.6,0.6-0.6h2.1    c0.3,0,0.6,0.2,0.6,0.6v0.9C186.6,132.7,186.4,133,186.1,133z" />
		<rect
   id="XMLID_244_"
   x="168.7"
   y="130.1"
   class="st3"
   width="16.3"
   height="2.1" />
	</g>
	<rect
   id="XMLID_170_"
   x="208.6"
   y="167.8"
   class="st23"
   width="2.6"
   height="9.6" />
	<rect
   id="XMLID_236_"
   x="76.7"
   y="167.8"
   class="st23"
   width="2.6"
   height="9.6" />
</g>
</svg>
