<?xml version="1.0" standalone="no"?>
<!DOCTYPE svg PUBLIC "-//W3C//DTD SVG 20010904//EN"
 "http://www.w3.org/TR/2001/REC-SVG-20010904/DTD/svg10.dtd">
<svg version="1.0" xmlns="http://www.w3.org/2000/svg"
 width="663.000000pt" height="642.000000pt" viewBox="0 0 663.000000 642.000000"
 preserveAspectRatio="xMidYMid meet">

<g transform="translate(0.000000,642.000000) scale(0.100000,-0.100000)"
fill="#000000" stroke="none">
<path d="M992 6400 c-230 -60 -412 -249 -467 -483 -8 -34 -15 -106 -15 -159
l0 -98 -132 0 c-89 -1 -138 -5 -148 -13 -36 -29 -45 -52 -50 -131 l-5 -81 -87
-3 -88 -3 0 -434 0 -435 90 0 90 0 0 -44 0 -44 -66 -4 c-58 -4 -70 -8 -90 -32
-21 -24 -24 -37 -24 -107 0 -76 2 -82 29 -110 26 -26 37 -29 89 -29 58 0 60
-1 66 -30 3 -17 18 -42 32 -55 26 -24 32 -25 160 -25 l134 0 0 -1185 0 -1185
-49 0 c-61 0 -111 -32 -128 -80 -7 -19 -12 -81 -12 -137 l-1 -103 1205 0 1205
0 0 -30 0 -30 -1205 0 -1205 0 0 -105 c0 -119 16 -173 58 -202 23 -15 53 -19
190 -21 l162 -4 0 -478 0 -479 26 -20 c26 -20 37 -21 414 -21 377 0 388 1 414
21 l26 20 0 480 0 479 1700 0 1700 0 0 -479 0 -480 26 -20 c26 -20 37 -21 411
-21 381 0 414 3 435 34 4 6 8 226 8 489 l0 477 150 0 c165 0 202 8 238 55 20
25 22 40 22 151 l0 124 -1200 0 -1200 0 0 30 0 30 1200 0 1200 0 0 115 c0 130
-11 165 -60 190 -16 8 -49 15 -75 15 l-45 0 0 1185 0 1185 129 0 c124 0 131 1
159 25 17 14 33 39 37 55 6 29 8 30 65 30 48 0 64 5 87 24 24 21 28 32 31 95
7 119 -26 161 -128 161 l-50 0 0 45 0 45 90 0 90 0 0 435 0 435 -90 0 -90 0 0
58 c0 71 -13 118 -42 149 -20 22 -28 23 -153 23 l-132 0 -6 118 c-6 131 -27
212 -79 305 -91 161 -246 281 -419 322 -56 13 -340 15 -2309 14 -2178 0 -2247
-1 -2318 -19z m4586 -450 c132 -22 245 -93 323 -204 92 -131 89 -96 89 -910 0
-688 -1 -712 -20 -743 -10 -18 -34 -40 -52 -50 -32 -17 -148 -18 -2610 -18
l-2577 0 -27 21 c-15 11 -37 33 -48 48 -21 27 -21 39 -24 669 -3 747 0 807 54
917 68 137 211 246 354 269 80 13 4459 13 4538 1z m-5068 -1080 l0 -750 -123
0 c-130 0 -149 6 -162 48 -6 21 -4 22 55 22 55 0 65 3 91 29 27 28 29 34 29
110 0 70 -3 83 -24 107 -20 24 -32 28 -90 32 l-66 4 0 44 0 44 90 0 90 0 0
435 0 435 -90 0 -90 0 0 69 c0 54 4 74 21 95 20 26 22 26 145 26 l124 0 0
-750z m5875 730 c14 -16 19 -37 19 -93 l1 -72 -87 -3 -88 -3 0 -434 0 -435 90
0 90 0 0 -45 0 -45 -61 0 c-54 0 -64 -3 -90 -29 -27 -28 -29 -34 -29 -113 1
-114 23 -138 124 -138 31 0 56 -4 56 -9 0 -4 -9 -20 -21 -35 -20 -26 -22 -26
-145 -26 l-124 0 0 750 0 750 123 0 c112 0 126 -2 142 -20z m-5030 -1775 c46
-45 24 -125 -40 -141 -82 -20 -140 82 -80 141 33 34 87 34 120 0z m4035 5 c44
-44 34 -108 -21 -139 -79 -44 -160 69 -97 136 28 30 89 32 118 3z m-4259
-1638 c182 -95 186 -349 7 -447 -44 -25 -64 -30 -123 -30 -59 0 -79 5 -123 30
-179 98 -175 352 7 447 42 22 67 28 116 28 49 0 74 -6 116 -28z m999 -227 l0
-255 -415 0 -415 0 0 255 0 255 415 0 415 0 0 -255z m3200 0 l0 -255 -415 0
-415 0 0 255 0 255 415 0 415 0 0 -255z m388 229 c189 -94 188 -357 -2 -457
-64 -34 -165 -31 -234 7 -179 100 -176 353 7 448 73 38 155 39 229 2z"/>
<path d="M1360 2149 c0 -6 9 -13 20 -16 21 -6 27 -37 9 -48 -7 -5 -4 -14 7
-26 12 -13 21 -16 28 -9 16 16 33 12 39 -10 11 -41 27 -20 27 35 l0 55 38 -1
c32 -1 33 -2 12 -8 -21 -6 -25 -14 -27 -48 -2 -34 2 -45 19 -58 29 -20 59 -20
52 0 -4 8 -1 15 5 15 13 0 15 36 2 44 -12 8 -1 58 13 53 6 -2 13 -25 16 -52 7
-70 30 -72 30 -2 0 34 5 57 12 59 6 2 8 10 4 16 -10 16 -306 17 -306 1z m100
-39 c0 -11 -7 -20 -15 -20 -8 0 -15 9 -15 20 0 11 7 20 15 20 8 0 15 -9 15
-20z m106 -69 c0 -15 -3 -17 -13 -9 -7 6 -10 14 -7 19 9 15 20 10 20 -10z"/>
<path d="M1865 2143 c-6 -18 -13 -21 -34 -17 -36 7 -66 -25 -57 -61 6 -22 11
-26 39 -23 21 2 35 11 43 27 12 23 12 23 19 2 3 -12 17 -29 31 -37 22 -15 26
-15 49 0 28 18 35 72 13 94 -19 19 -56 14 -63 -8 -8 -24 0 -39 29 -50 20 -8
19 -9 -6 -9 -26 -1 -35 13 -51 84 -5 19 -5 19 -12 -2z m85 -37 c0 -3 -4 -8
-10 -11 -5 -3 -10 -1 -10 4 0 6 5 11 10 11 6 0 10 -2 10 -4z m-121 -32 c3 -16
1 -17 -13 -5 -19 16 -21 34 -3 29 6 -3 14 -13 16 -24z"/>
<path d="M1687 2083 c-16 -16 -4 -24 30 -21 48 4 57 28 11 28 -19 0 -38 -3
-41 -7z"/>
<path d="M1633 1924 c-3 -9 -1 -25 5 -35 7 -10 9 -24 6 -32 -3 -8 2 -20 11
-27 8 -7 15 -18 15 -26 0 -18 20 -28 31 -17 6 6 3 19 -10 34 -19 24 -19 24 1
46 20 21 20 24 4 48 -19 28 -53 33 -63 9z"/>
<path d="M1716 1925 c4 -8 18 -15 33 -16 24 -1 22 -2 -18 -15 -10 -3 -11 -7
-1 -19 6 -8 9 -19 5 -25 -7 -11 41 -70 56 -70 14 0 13 129 -2 146 -16 20 -80
19 -73 -1z m64 -75 c0 -5 -7 -7 -15 -4 -8 4 -15 8 -15 10 0 2 7 4 15 4 8 0 15
-4 15 -10z"/>
<path d="M1826 1914 c-9 -33 20 -77 51 -82 12 -2 23 -12 26 -23 3 -10 11 -19
17 -19 8 0 10 8 5 23 -4 12 -8 33 -8 47 -2 27 -37 43 -37 16 0 -33 -19 -15
-22 21 -4 44 -23 54 -32 17z"/>
<path d="M1934 1900 c12 -74 49 -105 95 -80 43 23 11 124 -34 106 -28 -10 -30
-38 -5 -58 24 -20 22 -35 -5 -25 -8 4 -20 27 -27 52 -15 56 -33 60 -24 5z m86
-10 c0 -5 -5 -10 -11 -10 -5 0 -7 5 -4 10 3 6 8 10 11 10 2 0 4 -4 4 -10z"/>
<path d="M1376 1915 c3 -8 16 -15 28 -15 20 -1 20 -1 2 -15 -18 -13 -18 -16
-2 -40 9 -14 24 -25 33 -25 9 0 25 -7 35 -17 17 -15 18 -14 18 40 0 54 1 57
25 57 29 0 30 -3 13 -30 -11 -17 -9 -24 19 -52 18 -18 36 -29 40 -25 4 4 0 14
-8 22 -19 20 -13 85 8 85 8 0 13 6 11 13 -3 8 -38 13 -116 15 -97 2 -111 1
-106 -13z m84 -40 c0 -15 -6 -25 -14 -25 -11 0 -12 5 -3 25 15 31 17 31 17 0z"/>
<path d="M4558 2123 c8 -3 12 -27 12 -68 0 -41 -4 -65 -12 -68 -7 -3 1 -5 17
-5 17 0 24 2 18 5 -8 3 -13 24 -12 56 l1 52 26 -59 26 -59 27 59 27 59 1 -52
c1 -32 -4 -53 -11 -56 -7 -3 3 -6 22 -6 l35 -1 -3 70 c-3 66 -2 70 18 70 20 0
21 -4 18 -70 l-3 -70 35 1 c19 0 29 3 23 6 -7 2 -13 18 -13 34 0 24 4 29 25
29 19 0 25 -5 25 -23 0 -13 -5 -28 -12 -35 -9 -9 -4 -12 23 -12 l34 0 0 75 0
75 -34 0 c-27 0 -32 -3 -23 -12 7 -7 12 -22 12 -35 0 -18 -6 -23 -25 -23 -21
0 -25 5 -25 29 0 16 6 32 13 34 6 3 -21 6 -61 6 l-73 1 -17 -40 c-9 -22 -20
-40 -23 -40 -4 0 -14 18 -23 40 -14 36 -19 40 -48 39 -18 0 -27 -3 -20 -6z"/>
<path d="M5015 2116 c-22 -16 -26 -96 -5 -120 30 -37 80 -1 80 59 0 34 -24 75
-44 75 -7 0 -21 -6 -31 -14z m35 -62 c0 -41 -4 -63 -10 -59 -18 11 -12 125 7
125 2 0 3 -30 3 -66z"/>
<path d="M5110 2121 c0 -5 -3 -16 -6 -25 -5 -13 -1 -13 25 -3 17 6 33 9 36 6
3 -3 -4 -32 -15 -63 -12 -36 -15 -56 -8 -54 10 4 25 40 52 126 7 21 4 22 -38
22 -25 0 -46 -4 -46 -9z"/>
<path d="M4920 2036 c0 -12 10 -16 36 -16 45 0 42 24 -4 28 -24 2 -32 -1 -32
-12z"/>
<path d="M4575 1913 c14 -21 25 -52 25 -70 0 -28 4 -33 24 -33 19 0 22 4 19
25 -5 23 28 91 51 107 6 4 0 8 -13 8 -13 0 -22 -3 -18 -6 3 -4 -1 -21 -10 -38
l-17 -31 -15 37 c-13 31 -21 38 -44 38 l-28 0 26 -37z"/>
<path d="M4715 1880 c0 -69 1 -70 26 -70 23 0 25 3 22 33 l-4 32 28 -33 c18
-20 37 -32 53 -32 14 0 20 4 14 8 -5 4 -18 18 -27 31 -15 23 -15 25 0 37 15
10 15 16 5 38 -10 23 -17 26 -64 26 l-53 0 0 -70z m83 36 c4 -17 -12 -35 -30
-36 -5 0 -8 14 -8 31 0 24 4 30 17 27 10 -2 19 -12 21 -22z"/>
<path d="M4884 1934 c-10 -8 -13 -12 -6 -9 11 6 13 -5 10 -54 -3 -59 -2 -61
22 -61 25 0 25 1 22 70 -4 74 -12 83 -48 54z"/>
<path d="M4979 1934 c-12 -15 -12 -16 9 -10 16 5 24 3 29 -9 3 -10 1 -20 -6
-24 -9 -6 -8 -11 4 -21 8 -7 15 -21 15 -32 0 -17 -5 -19 -31 -13 -24 6 -30 4
-27 -6 12 -37 88 -7 88 35 0 12 -3 26 -7 30 -4 4 -7 19 -8 34 0 21 -5 28 -26
30 -15 2 -32 -4 -40 -14z"/>
<path d="M5091 1918 c-6 -17 -10 -32 -9 -33 2 -1 18 -7 36 -15 21 -8 32 -18
30 -29 -4 -15 -16 -18 -47 -10 -23 6 -24 -19 -1 -26 13 -4 31 0 46 10 37 24
30 65 -15 87 l-33 17 33 3 c46 4 51 28 6 28 -30 0 -37 -4 -46 -32z"/>
<path d="M5190 1932 c0 -15 6 -18 30 -14 34 5 36 0 15 -58 -18 -50 -19 -68 -5
-54 9 9 50 119 50 136 0 4 -20 8 -45 8 -37 0 -45 -3 -45 -18z"/>
</g>
</svg>
