<svg id="Layer_1" data-name="Layer 1" xmlns="http://www.w3.org/2000/svg" viewBox="0 0 200.11 200.03"><defs><style>.cls-1{fill:#fcb353;}.cls-2{fill:#2075bc;}.cls-3{fill:#f0b972;}.cls-4{fill:#ed1b30;}</style></defs><title>1-SVG</title><g id="_Group_" data-name="&lt;Group&gt;"><path id="_Path_" data-name="&lt;Path&gt;" class="cls-1" d="M30.16,81.84c14.66.68,31.06,1.67,44.74,7.3a15.8,15.8,0,0,1,6.57,4.38,3.12,3.12,0,0,1,.78,1.57,3,3,0,0,1-.45,1.65c-3.69,7-13.06,9.32-19.91,11.88a104,104,0,0,0-26.6,14.32c-8.22,6.3-18.72,17.34-14.39,28.77,2.27,6,7.57,11.28,12.33,15.37,21.37,18.38,51,25.24,77.05,34.09,0,.68,11.07,3.72,12.08,4.05q6.69,2.21,13.41,4.29c9.11,2.82,18.29,5.46,27.54,7.77,1.16.29,11.73,1.93,11.91,2.62,0,0-9.36-35.83-9.8-36.27l-28.1-27.8c-1.31-1.28-6.72-1.69-8.67-2.22q-4.75-1.26-9.46-2.67-9.63-2.85-19.06-6.3c-8.3-3-17.2-6.18-25-10.43-3.91-2.14-10.1-6.34-8.21-11.64,1.45-4,6.57-6.21,10.22-7.69,5.74-2.31,41.64-12.34,31.38-23.63-2.87-3.16-8-4.72-12-5.84a102.72,102.72,0,0,0-17.75-3.09S47.91,79.45,28,80.5C25.52,80.63,27.88,80.78,30.16,81.84Z" transform="translate(-19.89 -19.86)"/><path id="_Compound_Path_" data-name="&lt;Compound Path&gt;" class="cls-2" d="M220,134.61a44.78,44.78,0,1,0-87,14.8h0a1.51,1.51,0,0,1,.08.21c.49,1.37,1,2.72,1.65,4,4.62,10.81,18.39,40.5,40.54,66.26,22.15-25.77,35.93-55.46,40.54-66.26q.92-2,1.65-4l.08-.21h0A44.53,44.53,0,0,0,220,134.61Zm-44.78,23.12a22.54,22.54,0,1,1,22.54-22.53A22.53,22.53,0,0,1,175.22,157.73Z" transform="translate(-19.89 -19.86)"/><path id="_Rectangle_" data-name="&lt;Rectangle&gt;" class="cls-3" d="M6.48,0h3.79a0,0,0,0,1,0,0V62a0,0,0,0,1,0,0H.08a0,0,0,0,1,0,0V6.4A6.4,6.4,0,0,1,6.48,0Z"/><polygon id="_Path_2" data-name="&lt;Path&gt;" class="cls-4" points="58.13 25.87 10.27 25.87 10.27 0 58.13 0 47.5 12.93 58.13 25.87"/></g></svg>