<svg id="Layer_1" data-name="Layer 1" xmlns="http://www.w3.org/2000/svg" viewBox="0 0 176.55 189.72"><defs><style>.cls-1{fill:#ffd38e;}.cls-2{fill:#fcb353;}.cls-3{fill:#017842;}.cls-4{fill:#2a3c90;}.cls-5{fill:#ed1b30;}</style></defs><title>3-SVG</title><path id="_Path_" data-name="&lt;Path&gt;" class="cls-1" d="M62.71,101.74l-.44-6.15H31.67A102.44,102.44,0,0,0,134.1,198h39.55l-1.51-1.36A102.45,102.45,0,0,1,62.71,101.74Z" transform="translate(-31.67 -25.02)"/><path id="_Path_2" data-name="&lt;Path&gt;" class="cls-2" d="M105.79,95.59H62.27l.44,6.15a102.45,102.45,0,0,0,109.43,94.92l1.51,1.36h34.57A102.43,102.43,0,0,0,105.79,95.59Z" transform="translate(-31.67 -25.02)"/><path id="_Path_3" data-name="&lt;Path&gt;" class="cls-3" d="M206.9,53.76c-2.18-8.85-6.43-16.4-14.44-21.33-1.62-1-3.4-1.72-5.1-2.56l-4-.94A28.49,28.49,0,0,0,169.65,31c-9.19,4.13-15.78,11-20.16,19.89a57,57,0,0,0-6.3,24.6,102.6,102.6,0,0,1,54.74,21.84C206.64,84.83,210.45,68.1,206.9,53.76Z" transform="translate(-31.67 -25.02)"/><path id="_Path_4" data-name="&lt;Path&gt;" class="cls-4" d="M136.08,173.84q-2.76,9.9-5.51,19.78c-2.4,8.57.76,15.6,8.88,19.57a4.92,4.92,0,0,1,.58.44l4.69,1.11a3.37,3.37,0,0,1,.67-.19,15.8,15.8,0,0,0,15.54-12.81c1.25-6,2.42-12.1,3.6-18.16l2.55-13.06-5.18,1.11A101.93,101.93,0,0,1,136.08,173.84Z" transform="translate(-31.67 -25.02)"/><path id="_Path_5" data-name="&lt;Path&gt;" class="cls-4" d="M179.44,113.22c2.35-1.45,4.95-2.55,7.18-4.16a48.25,48.25,0,0,0,11.31-11.7,102.6,102.6,0,0,0-54.74-21.84,52.21,52.21,0,0,0,7.21,26.77,23.53,23.53,0,0,0,2.7,4,3.76,3.76,0,0,1,.72,4q-8.9,31.77-17.74,63.55a101.93,101.93,0,0,0,25.82-2.21l5.18-1.11q5.43-27.74,10.89-55.47A3.31,3.31,0,0,1,179.44,113.22Z" transform="translate(-31.67 -25.02)"/><path id="_Path_6" data-name="&lt;Path&gt;" class="cls-4" d="M84.09,181.78c-.23,6-.59,12-.47,17.95a15,15,0,0,0,12.08,14.5l2.33.51h2.6c1.3-.33,2.63-.57,3.91-1,6.7-2.22,10.7-8.41,10.4-16q-.54-13.67-1.09-27.35A102.6,102.6,0,0,1,85,157.65Q84.57,169.72,84.09,181.78Z" transform="translate(-31.67 -25.02)"/><path id="_Path_7" data-name="&lt;Path&gt;" class="cls-4" d="M126.61,75.45q-1-22.19-2-44.35c-.11-2.63-.66-4.86-3.25-6.08h-2.6c-2.43,1.35-3.12,3.42-3,6.15.67,12.4,1.17,24.79,1.75,37.19.15,3.15-1.31,4.5-4.37,4-2-.34-2.62-1.15-2.62-3.35,0-12.71,0-25.43,0-38.16,0-2.69-.78-4.68-3.3-5.8h-2.23c-2.51,1.15-3.3,3.16-3.29,5.82,0,12.47,0,24.93,0,37.39a16.39,16.39,0,0,1,0,1.85,2.31,2.31,0,0,1-2.36,2.16,2.41,2.41,0,0,1-2.74-2,8.58,8.58,0,0,1-.09-1.83c0-12.58,0-25.18,0-37.76,0-2.7-.76-4.67-3.37-5.67H91.36c-2.75,1-3.52,3-3.51,5.79.09,12.59,0,25.2,0,37.79,0,2.84-1.1,3.93-3.75,3.79-2.39-.13-3.31-1.08-3.2-3.5.52-12.65,1-25.31,1.66-37.95.14-2.88-.59-5-3.46-5.92H77.28c-2.59,1-3.35,3-3.46,5.65Q72.71,58.5,71.39,86.3l41.34-8.87A102.84,102.84,0,0,1,126.61,75.45Z" transform="translate(-31.67 -25.02)"/><path id="_Path_8" data-name="&lt;Path&gt;" class="cls-5" d="M112.58,107.39c4-3.92,8.13-7.75,12.27-11.55a7.1,7.1,0,0,0,2.41-5.92c-.23-4.82-.43-9.65-.65-14.47a102.84,102.84,0,0,0-13.88,2L71.39,86.3c0,1.19-.1,2.37-.16,3.55a7.26,7.26,0,0,0,2.54,6.21c4.09,3.67,8.09,7.44,12,11.26a3.75,3.75,0,0,1,1.08,2.5c-.16,6.23-.44,12.46-.69,18.7Q85.6,143.08,85,157.65a102.6,102.6,0,0,0,28.82,12.75q-1.18-30.17-2.35-60.34A4,4,0,0,1,112.58,107.39Z" transform="translate(-31.67 -25.02)"/></svg>