<svg id="Layer_1" data-name="Layer 1" xmlns="http://www.w3.org/2000/svg" viewBox="0 0 196.11 163.35"><defs><style>.cls-1{fill:none;}.cls-2{fill:#fcb353;}.cls-3{fill:#ffd38e;}.cls-4{fill:#ed1b30;}.cls-5{fill:#2a3c90;}.cls-6{fill:#017842;}</style></defs><title>4-SVG</title><path id="_Path_" data-name="&lt;Path&gt;" class="cls-1" d="M42.92,144.72A9.3,9.3,0,0,0,49,149.2c4,.9,8,1.64,12,2.3-4-.66-8.06-1.4-12-2.3A9.32,9.32,0,0,1,42.92,144.72Z" transform="translate(-21.89 -38.21)"/><path id="_Path_2" data-name="&lt;Path&gt;" class="cls-1" d="M186.48,150l-1.1.21Z" transform="translate(-21.89 -38.21)"/><path id="_Path_3" data-name="&lt;Path&gt;" class="cls-1" d="M140.84,153q-.65.09-1.29.12Q140.2,153.06,140.84,153Z" transform="translate(-21.89 -38.21)"/><path id="_Path_4" data-name="&lt;Path&gt;" class="cls-1" d="M197.36,136.19c-1.19-3.87-4.28-5.23-9.75-4.38-1.2.18-2.4.4-3.6.62,1.2-.22,2.4-.43,3.61-.62C193.09,131,196.17,132.31,197.36,136.19Z" transform="translate(-21.89 -38.21)"/><path id="_Path_5" data-name="&lt;Path&gt;" class="cls-1" d="M45.88,132.46A6.25,6.25,0,0,0,44,133.64,6.52,6.52,0,0,1,45.88,132.46Z" transform="translate(-21.89 -38.21)"/><path id="_Path_6" data-name="&lt;Path&gt;" class="cls-1" d="M168.26,153.07c-3.58.49-5.35-2-4.44-5.64A17.24,17.24,0,0,1,172.45,136a17.28,17.28,0,0,0-8.64,11.47C162.91,151.08,164.67,153.57,168.26,153.07Z" transform="translate(-21.89 -38.21)"/><path id="_Path_7" data-name="&lt;Path&gt;" class="cls-1" d="M146.93,67.92c-4.39-.23-8.79-.5-13.18-.46q-4.94,0-9.85.12,4.92-.08,9.84-.12C138.14,67.42,142.54,67.69,146.93,67.92Z" transform="translate(-21.89 -38.21)"/><path id="_Path_8" data-name="&lt;Path&gt;" class="cls-1" d="M83.34,68.38l21.26-.46-21.26.45A13.93,13.93,0,0,0,72,74,13.92,13.92,0,0,1,83.34,68.38Z" transform="translate(-21.89 -38.21)"/><path id="_Path_9" data-name="&lt;Path&gt;" class="cls-1" d="M49.71,130.9h0l.8.2Z" transform="translate(-21.89 -38.21)"/><path id="_Path_10" data-name="&lt;Path&gt;" class="cls-1" d="M57.86,132.91l.09,0Z" transform="translate(-21.89 -38.21)"/><path id="_Path_11" data-name="&lt;Path&gt;" class="cls-1" d="M76.3,149.56a8.3,8.3,0,0,0-.41-3c-.15-.5-.32-1-.5-1.45.17.48.35.95.5,1.44A8.35,8.35,0,0,1,76.3,149.56Z" transform="translate(-21.89 -38.21)"/><path id="_Path_12" data-name="&lt;Path&gt;" class="cls-1" d="M154.76,68.21c-1.73,0-3.46-.08-5.19-.16,1.73.08,3.46.14,5.19.16,7,.08,12.17,2.89,15.39,9.17q2.5,4.92,5,9.83h0l-5-9.82C166.93,71.09,161.77,68.29,154.76,68.21Z" transform="translate(-21.89 -38.21)"/><path id="_Path_13" data-name="&lt;Path&gt;" class="cls-1" d="M83.35,139.31c-.15-2.05.47-3.29,2-3.78-1.53.49-2.15,1.73-2,3.78.48,6.48,8.61,13.95,15.2,14.1C92,153.25,83.83,145.79,83.35,139.31Z" transform="translate(-21.89 -38.21)"/><path id="_Path_14" data-name="&lt;Path&gt;" class="cls-1" d="M87.19,135.28a6.07,6.07,0,0,0-1.71.22,6.12,6.12,0,0,1,1.71-.22c10.89,0,21.78,0,32.66,0q16,0,31.91,0c4.28,0,5.85,2.17,4.22,6.21a17.63,17.63,0,0,1-12.76,11,17.67,17.67,0,0,0,12.77-11c1.62-4,0-6.2-4.23-6.22H119.85Q103.53,135.26,87.19,135.28Z" transform="translate(-21.89 -38.21)"/><path id="_Path_15" data-name="&lt;Path&gt;" class="cls-2" d="M209.58,119.4a11.53,11.53,0,0,0,4-1.87,72.67,72.67,0,0,1-7.26,2.77Z" transform="translate(-21.89 -38.21)"/><path id="_Path_16" data-name="&lt;Path&gt;" class="cls-3" d="M71,75.5A17.76,17.76,0,0,1,72,74a13.93,13.93,0,0,1,11.38-5.63l21.26-.45q9.65-.19,19.3-.34,4.92-.08,9.85-.12c4.39,0,8.79.23,13.18.46.88,0,1.76.1,2.64.13,1.73.08,3.46.14,5.19.16,7,.08,12.17,2.88,15.39,9.18l5,9.82c4.78.67,9.3,1.42,13.52,2.25A122.22,122.22,0,0,0,178.22,69.9c-3.5-5.23-8.09-8.8-14.48-9.63-3.6-.46-7.21-1-10.84-1.12a665.22,665.22,0,0,0-71.17.36C72,60.15,64.8,64,59.83,72.61a167.56,167.56,0,0,0-8.57,16.84c4-.79,8.35-1.51,12.9-2.16C66.36,83.33,68.65,79.4,71,75.5Z" transform="translate(-21.89 -38.21)"/><path id="_Path_17" data-name="&lt;Path&gt;" class="cls-2" d="M28.89,118.85c1.85.7,3.76,1.19,5.35,1.65a75.14,75.14,0,0,1-7.45-2.78A9.66,9.66,0,0,0,28.89,118.85Z" transform="translate(-21.89 -38.21)"/><path id="_Compound_Path_" data-name="&lt;Compound Path&gt;" class="cls-2" d="M204.49,121.19s0-.14.14-.38c-19,5.87-49.84,9.7-84.68,9.7-35.06,0-66.07-3.86-85-9.79-1.1,4.71-2.83,9.16-3,13.66-.43,11-.17,22-.12,33a13,13,0,0,0,6.93,11.85A2.69,2.69,0,0,1,40.3,182c-.08,4.38-.06,8.79,0,13.17,0,4.17,2.26,6.36,6.48,6.39,3.71,0,7.43,0,11.14,0,8.42,0,9.42-1,9.42-9.5V181H172.57c0,4.82,0,9.52,0,14.24,0,4.05,2.22,6.27,6.25,6.32,4.82,0,9.65,0,14.45,0,4.14,0,6.25-2.13,6.29-6.26.05-4.39-.07-8.79.08-13.18a3.86,3.86,0,0,1,1.52-2.7c4.52-3,7-6.93,6.94-12.42q-.09-11.18,0-22.31C208.18,136.61,208.64,128.56,204.49,121.19ZM76.19,150.36a4.92,4.92,0,0,1-.23.71h0a3.68,3.68,0,0,1-.3.5s0,.06-.06.09v0a5.47,5.47,0,0,1-.47.5,2.63,2.63,0,0,1-.59.39,3.89,3.89,0,0,1-.69.3,4.86,4.86,0,0,1-.83.17,6.65,6.65,0,0,1-.94.06,9.28,9.28,0,0,1-1.42-.11c-3.2-.48-6.41-1-9.61-1.5-4-.67-8.06-1.4-12-2.31a9.3,9.3,0,0,1-6.09-4.46c-.15-.27-.29-.55-.42-.83s-.23-.58-.34-.87a5.25,5.25,0,0,1-.17-.6s0-.11-.05-.15-.06-.27-.08-.41a3.21,3.21,0,0,1-.08-.36c0-.12,0-.25,0-.39a2.28,2.28,0,0,1-.06-.39v-.15a3.39,3.39,0,0,1,0-.63,9.43,9.43,0,0,1,.5-3c.08-.25.18-.5.28-.75h0l.09-.22a1.58,1.58,0,0,1,.11-.23,2.42,2.42,0,0,1,.24-.45,4.88,4.88,0,0,1,.31-.55c.14-.23.31-.47.48-.7a3.28,3.28,0,0,1,.36-.38,6.84,6.84,0,0,1,1.84-1.18c.3-.14.63-.27.94-.39l2-.75c.31-.14.64-.27.93-.42l.8.2c2.5.64,5,1.22,7.35,1.81l.1,0,2.92.76c1,.27,1.9.55,2.85.84.64.21,1.27.41,1.89.63l.88.34h0v0c.28.11.56.25.84.37a10.08,10.08,0,0,1,1,.56c.11.07.21.11.3.18.34.21.67.43,1,.67A15.71,15.71,0,0,1,71,138.42a7.49,7.49,0,0,1,.63.63,15.74,15.74,0,0,1,1.15,1.32l.52.72a4.13,4.13,0,0,0,.25.38c.23.37.47.76.68,1.15s.43.81.61,1.23.38.86.53,1.3.35.95.5,1.44a8.61,8.61,0,0,1,.41,3A4.85,4.85,0,0,1,76.19,150.36Zm80.42-11.64a5.48,5.48,0,0,1-.15,1.28h0a12.31,12.31,0,0,1-.47,1.47c-.16.38-.31.73-.47,1.09h0a.27.27,0,0,0,0,.11,5.28,5.28,0,0,1-.3.58,1.8,1.8,0,0,1-.17.34h0a1.92,1.92,0,0,1-.18.35,1.13,1.13,0,0,1-.14.22c-.2.35-.42.71-.65,1l-.06.08c-.25.37-.52.73-.8,1.08a16.65,16.65,0,0,1-1.44,1.57c-.29.28-.59.55-.89.8s-.56.45-.86.67-.48.34-.73.5a4.31,4.31,0,0,1-.61.37,6.49,6.49,0,0,1-.76.44c-.28.16-.56.3-.86.44-.58.26-1.17.51-1.78.72a6.89,6.89,0,0,1-.91.29c-.36.11-.71.22-1.09.32-.61.15-1.23.31-1.87.42-.17,0-.35,0-.52.06-.42.06-.86.09-1.28.12-.92.07-1.84.07-2.74.08l-19,.13q-9.48.06-19,.14l-.3,0a5.62,5.62,0,0,1-.7,0c-.23,0-.47-.05-.7-.09l-.5-.1c-.17,0-.33-.08-.48-.12a2.31,2.31,0,0,1-.46-.13c-.22-.06-.43-.14-.65-.22a7.29,7.29,0,0,1-1-.35c-.43-.19-.85-.41-1.27-.63s-.84-.47-1.25-.73a21.22,21.22,0,0,1-4-3.31c-.33-.36-.65-.72-1-1.11L86.2,146h0s0,0,0,0l-.42-.58c-.27-.39-.52-.79-.75-1.18s-.45-.81-.64-1.24c-.09-.2-.17-.4-.27-.6a10.06,10.06,0,0,1-.42-1.24,11.25,11.25,0,0,1-.26-1.23c0-.2,0-.41-.06-.61a5.41,5.41,0,0,1,.1-1.7.08.08,0,0,1,0-.08,1.3,1.3,0,0,1,.11-.37s0,0,0,0a1.18,1.18,0,0,1,.19-.39,2.46,2.46,0,0,1,1.08-1c.16-.06.31-.14.48-.19l.13,0a6.1,6.1,0,0,1,1.72-.22c10.88,0,21.77,0,32.65,0h31.91a5.23,5.23,0,0,1,.69,0,2.5,2.5,0,0,1,.4,0c.17,0,.36,0,.53.06a3.57,3.57,0,0,1,.47.11.51.51,0,0,1,.22.05.49.49,0,0,1,.22.08,1.36,1.36,0,0,1,.4.14,2,2,0,0,1,.39.2l.15.08.07.06a1.93,1.93,0,0,1,.36.28s.06,0,.08.06a.8.8,0,0,1,.13.13l0,.06a2,2,0,0,1,.28.39s0,0,0,.05,0,0,0,.08a.21.21,0,0,1,0,.07c0,.11.1.22.14.33a4.56,4.56,0,0,1,.13.53v0a3.69,3.69,0,0,1,0,.58Zm35.58,10.05c-1.9.41-3.81.8-5.71,1.17l-1.1.22c-2.06.41-4.13.78-6.19,1.14a2.5,2.5,0,0,1-.38.06c-2.07.38-4.13.72-6.21,1l-4.28.65h-.06a4.08,4.08,0,0,1-3.68-1l-.24-.28a3.41,3.41,0,0,1-.33-.53,4.81,4.81,0,0,1-.37-1.2c0-.05,0-.11,0-.19a4.22,4.22,0,0,1,0-.64,7.45,7.45,0,0,1,.23-1.79c.08-.33.17-.66.27-1,0-.06,0-.11,0-.16a.32.32,0,0,0,0-.09l.11-.31c.11-.36.24-.72.38-1.06s.3-.74.47-1.1a.35.35,0,0,1,.07-.15c0-.08.08-.16.13-.24.12-.26.25-.51.39-.76l.08-.14c.2-.35.42-.69.64-1s.47-.67.72-1,.5-.6.76-.9.58-.63.89-.91.89-.79,1.36-1.15h0v0c.49-.36,1-.7,1.5-1l.8-.47a21.7,21.7,0,0,1,4.07-1.75c1.22-.37,2.45-.7,3.7-1s2.52-.54,3.78-.79,2.4-.44,3.61-.63c.51-.08,1-.14,1.48-.17a13.93,13.93,0,0,1,1.4-.06c.29,0,.55,0,.82,0a4.78,4.78,0,0,1,.76.08h0a4.81,4.81,0,0,1,.68.14,3.68,3.68,0,0,1,.69.19,3.52,3.52,0,0,1,.52.2s0,0,0,0a4.22,4.22,0,0,1,.91.5,4.1,4.1,0,0,1,.79.64,3.24,3.24,0,0,1,.46.53.05.05,0,0,1,0,.05,4.42,4.42,0,0,1,.46.67,8.55,8.55,0,0,1,.46,1v0h0c.06.17.13.36.19.56s.15.53.22.81a1.55,1.55,0,0,1,0,.17c0,.16.06.31.08.47a5.58,5.58,0,0,1,.1.73.47.47,0,0,1,0,.16c0,.05,0,.11,0,.16,0,.28,0,.57.06.89s0,.87,0,1.34C197.92,145,196.2,147.91,192.19,148.77Z" transform="translate(-21.89 -38.21)"/><path id="_Path_18" data-name="&lt;Path&gt;" class="cls-4" d="M147,53.84a7.71,7.71,0,0,0-.33-1.32q-1.69-5-3.52-10c-1.15-3.17-2.71-4.26-6.08-4.28q-17.75,0-35.48,0c-3.34,0-5,1.17-6.12,4.26-1.17,3.25-2.3,6.51-3.42,9.78a8.92,8.92,0,0,0-.4,1.58C110.11,53,128.55,53.16,147,53.84Z" transform="translate(-21.89 -38.21)"/><path id="_Path_19" data-name="&lt;Path&gt;" class="cls-5" d="M64.19,87.29a404.49,404.49,0,0,1,55.75-3.61,408.19,408.19,0,0,1,55.24,3.53q-2.52-4.9-5-9.83c-3.22-6.28-8.38-9.09-15.39-9.17-1.73,0-3.46-.08-5.19-.16-.88,0-1.76-.08-2.64-.13-4.39-.23-8.79-.5-13.19-.46q-4.92,0-9.84.12-9.66.14-19.3.34l-21.26.46A13.92,13.92,0,0,0,72,74a16.12,16.12,0,0,0-1,1.49Q67.5,81.34,64.19,87.29Z" transform="translate(-21.89 -38.21)"/><path id="_Path_20" data-name="&lt;Path&gt;" class="cls-5" d="M71,75.49A16.12,16.12,0,0,1,72,74a17.76,17.76,0,0,0-1,1.5c-2.31,3.9-4.6,7.83-6.8,11.79h0Q67.51,81.35,71,75.49Z" transform="translate(-21.89 -38.21)"/><path id="_Path_21" data-name="&lt;Path&gt;" class="cls-5" d="M104.6,67.92q9.65-.19,19.3-.34Q114.24,67.72,104.6,67.92Z" transform="translate(-21.89 -38.21)"/><path id="_Path_22" data-name="&lt;Path&gt;" class="cls-5" d="M146.93,67.92c.88,0,1.76.1,2.64.13C148.69,68,147.81,68,146.93,67.92Z" transform="translate(-21.89 -38.21)"/><path id="_Path_23" data-name="&lt;Path&gt;" class="cls-6" d="M85.35,135.53a.61.61,0,0,1,.13,0A.61.61,0,0,0,85.35,135.53Z" transform="translate(-21.89 -38.21)"/><path id="_Path_24" data-name="&lt;Path&gt;" class="cls-6" d="M98.84,153.43l-.29,0,.29,0c12.66-.1,25.31-.16,38-.26.91,0,1.82,0,2.74-.08-.91.06-1.83.06-2.74.07C124.15,153.27,111.5,153.33,98.84,153.43Z" transform="translate(-21.89 -38.21)"/><path id="_Path_25" data-name="&lt;Path&gt;" class="cls-6" d="M140.84,153l.51-.07c.64-.11,1.26-.26,1.87-.42-.61.16-1.23.31-1.87.42Z" transform="translate(-21.89 -38.21)"/><path id="_Path_26" data-name="&lt;Path&gt;" class="cls-6" d="M163.82,147.43c-.91,3.65.86,6.13,4.44,5.64h.07q8.55-1.27,17-2.91l1.1-.21q2.86-.57,5.71-1.18c4-.86,5.73-3.73,5.74-7.86a15.83,15.83,0,0,0-.57-4.72c-1.19-3.88-4.27-5.23-9.74-4.38-1.21.19-2.41.4-3.61.62a67.33,67.33,0,0,0-7.48,1.8,22.34,22.34,0,0,0-4.08,1.73A17.24,17.24,0,0,0,163.82,147.43Z" transform="translate(-21.89 -38.21)"/><path id="_Path_27" data-name="&lt;Path&gt;" class="cls-6" d="M168.26,153.07h.07q8.55-1.27,17-2.91-8.49,1.65-17,2.91Z" transform="translate(-21.89 -38.21)"/><path id="_Path_28" data-name="&lt;Path&gt;" class="cls-6" d="M192.19,148.77q-2.85.61-5.71,1.18,2.86-.57,5.71-1.17c4-.87,5.73-3.73,5.75-7.86a16.17,16.17,0,0,0-.58-4.73,15.83,15.83,0,0,1,.57,4.72C197.92,145,196.2,147.91,192.19,148.77Z" transform="translate(-21.89 -38.21)"/><path id="_Path_29" data-name="&lt;Path&gt;" class="cls-6" d="M184,132.43a65.84,65.84,0,0,0-7.49,1.8,21.56,21.56,0,0,0-4.07,1.73,22.34,22.34,0,0,1,4.08-1.73A67.33,67.33,0,0,1,184,132.43Z" transform="translate(-21.89 -38.21)"/><path id="_Path_30" data-name="&lt;Path&gt;" class="cls-6" d="M76.3,149.56a8.35,8.35,0,0,0-.41-3c-.15-.49-.33-1-.5-1.44a16,16,0,0,0-9.77-10A79.81,79.81,0,0,0,58,132.93l-.09,0c-2.39-.6-4.85-1.17-7.35-1.81l-.8-.2c-1.22.6-2.62,1-3.83,1.56A6.52,6.52,0,0,0,44,133.64a3.15,3.15,0,0,0-.35.38,9.67,9.67,0,0,0-.76,10.7A9.32,9.32,0,0,0,49,149.2c4,.9,8,1.64,12,2.3,3.2.53,6.4,1,9.61,1.5C74.19,153.52,76.14,152.21,76.3,149.56Z" transform="translate(-21.89 -38.21)"/><path id="_Path_31" data-name="&lt;Path&gt;" class="cls-6" d="M50.51,131.1c2.5.64,5,1.21,7.35,1.81C55.47,132.31,53,131.74,50.51,131.1Z" transform="translate(-21.89 -38.21)"/><path id="_Path_32" data-name="&lt;Path&gt;" class="cls-6" d="M70.66,153c-3.21-.48-6.41-1-9.61-1.5,3.2.53,6.41,1,9.61,1.5,3.53.52,5.49-.79,5.64-3.44C76.14,152.21,74.19,153.52,70.66,153Z" transform="translate(-21.89 -38.21)"/><path id="_Path_33" data-name="&lt;Path&gt;" class="cls-6" d="M49.71,130.9c-1.22.6-2.62,1-3.83,1.56,1.21-.55,2.61-1,3.83-1.56Z" transform="translate(-21.89 -38.21)"/><path id="_Path_34" data-name="&lt;Path&gt;" class="cls-6" d="M75.39,145.15a16,16,0,0,0-9.77-10A79.81,79.81,0,0,0,58,132.93a79.81,79.81,0,0,1,7.67,2.24A16,16,0,0,1,75.39,145.15Z" transform="translate(-21.89 -38.21)"/><path id="_Path_35" data-name="&lt;Path&gt;" class="cls-6" d="M43.68,134a3.15,3.15,0,0,1,.35-.38,4.35,4.35,0,0,0-.36.38,9.67,9.67,0,0,0-.75,10.7A9.67,9.67,0,0,1,43.68,134Z" transform="translate(-21.89 -38.21)"/><path id="_Path_36" data-name="&lt;Path&gt;" class="cls-3" d="M56.59,103.41h0a547.2,547.2,0,0,0,126.56,0l0-.11,0,.1A546.56,546.56,0,0,1,56.59,103.41Z" transform="translate(-21.89 -38.21)"/><path id="_Path_37" data-name="&lt;Path&gt;" class="cls-3" d="M34.24,120.5l.68.21h0Z" transform="translate(-21.89 -38.21)"/><path id="_Path_38" data-name="&lt;Path&gt;" class="cls-3" d="M204.64,120.82l1.64-.52-1.61.45Z" transform="translate(-21.89 -38.21)"/><path id="_Path_39" data-name="&lt;Path&gt;" class="cls-3" d="M175.81,88.44l-.63-1.23h0Z" transform="translate(-21.89 -38.21)"/><path id="_Path_40" data-name="&lt;Path&gt;" class="cls-3" d="M217.73,110.65a11.35,11.35,0,0,1-4.2,6.88,70.83,70.83,0,0,1-7.26,2.77l-1.59.45s0,0-.05.06C185.63,126.68,154.79,139,120,139c-35.06,0-66.07-12.39-85-18.32v0l-.67-.2a74.06,74.06,0,0,1-7.47-2.78,11.3,11.3,0,0,1-4.85-10.11c.28-3.17,2.57-5.42,6.15-5.55,5.15-.17,10.32-.18,15.45-.06,2.09.06,3.09-.54,3.81-2.6q1.78-5.07,3.92-10c4-.79,8.35-1.51,12.89-2.15L63,89.36c-.61,1.09-1.22,2.2-1.79,3.31-.3.56-.58,1.14-.86,1.71l-1,2.21c-.39.88-.75,1.79-1.12,2.7-.55,1.35-1.11,2.73-1.69,4.12,2.08.23,4.16.47,6.22.68,1.59.18,3.18.33,4.76.47l2.18.21c1.69.17,3.37.31,5.06.45l.36,0c1.94.15,3.86.31,5.78.44,1.63.12,3.26.23,4.9.32a5.64,5.64,0,0,0,.82,0c1.22.09,2.46.16,3.67.22,2.63.15,5.25.26,7.87.37l3.67.13,1,0c2.47.08,4.94.15,7.41.19h1.4c.22,0,.46,0,.69,0l1.9,0c.82,0,1.63,0,2.42,0q3.3,0,6.62,0c.89,0,1.78,0,2.66,0,.64,0,1.26,0,1.9,0l2,0,4.92-.11.95,0c1.31,0,2.61-.07,3.92-.13h.17c1.26,0,2.53-.09,3.79-.15l.74,0c2-.09,4.07-.2,6.12-.33.34,0,.7,0,1-.06.64,0,1.28-.06,1.92-.11,2-.11,4-.25,6-.39h0c5.26-.39,10.5-.84,15.78-1.37,2.62-.27,5.26-.57,7.9-.86a1,1,0,0,1,0-.11c-.13-.38-.24-.75-.35-1.11a8.33,8.33,0,0,0-.4-1q-3.26-6.39-6.54-12.78l-.64-1.22c4.79.65,9.3,1.42,13.51,2.25q1.08,2.46,2.08,5c1,2.42,1.28,5.81,3.06,7s5.2.49,7.9.52c3.2.06,6.41-.06,9.61.08C216.43,102.24,218.85,105.67,217.73,110.65Z" transform="translate(-21.89 -38.21)"/><path id="_Path_41" data-name="&lt;Path&gt;" class="cls-5" d="M119.94,83.68a404.49,404.49,0,0,0-55.75,3.61c-1,1.79-2,3.57-3,5.38-1.79,3.4-3.08,7.06-4.64,10.74a546.56,546.56,0,0,0,126.55,0l0-.1a15.26,15.26,0,0,0-.76-2.11q-3.25-6.39-6.54-12.78l-.63-1.23A408.19,408.19,0,0,0,119.94,83.68Z" transform="translate(-21.89 -38.21)"/><path id="_Path_42" data-name="&lt;Path&gt;" class="cls-3" d="M183.11,103.33a16.7,16.7,0,0,0-.75-2.11q-3.27-6.39-6.55-12.78,3.27,6.39,6.54,12.78A15.26,15.26,0,0,1,183.11,103.33Z" transform="translate(-21.89 -38.21)"/><path id="_Path_43" data-name="&lt;Path&gt;" class="cls-3" d="M64.19,87.29h0q-1.5,2.68-2.93,5.38c-1.79,3.4-3.08,7.06-4.65,10.74h0c1.56-3.68,2.85-7.34,4.64-10.74C62.19,90.86,63.2,89.08,64.19,87.29Z" transform="translate(-21.89 -38.21)"/><path id="_Path_44" data-name="&lt;Path&gt;" class="cls-6" d="M156,141.48c1.63-4,.06-6.21-4.22-6.21q-16,0-31.91,0c-10.88,0-21.77,0-32.66,0a6.12,6.12,0,0,0-1.71.22.61.61,0,0,0-.13,0c-1.53.49-2.15,1.73-2,3.78.48,6.48,8.61,13.94,15.2,14.1l.29,0c12.66-.1,25.31-.16,38-.27.91,0,1.83,0,2.74-.07q.64,0,1.29-.12l.51-.07c.64-.11,1.26-.26,1.87-.42A17.63,17.63,0,0,0,156,141.48Z" transform="translate(-21.89 -38.21)"/></svg>