<svg id="Layer_1" data-name="Layer 1" xmlns="http://www.w3.org/2000/svg" viewBox="0 0 198.11 172.78"><defs><style>.cls-1{fill:#2075bc;}.cls-2{fill:#fcb353;}.cls-3{fill:#ffd38e;}.cls-4{fill:#12b57b;}.cls-5{fill:#017842;}.cls-6{fill:#fbad3b;}</style></defs><title>5-SVG</title><g id="_Group_" data-name="&lt;Group&gt;"><path id="_Path_" data-name="&lt;Path&gt;" class="cls-1" d="M211.2,135.11a105.71,105.71,0,0,1-14,15.33c-3.21,3-6.4,6.07-9.77,8.9a69.16,69.16,0,0,1-8.62,6.22c-15.28,9.14-32.62,12.87-50.17,13.94A255.91,255.91,0,0,1,95.31,179a114.55,114.55,0,0,0-13.51-.16c-20.55.9-41.65,6.94-56.44,16.71a33.69,33.69,0,0,0-4.47,3.51V135.11Z" transform="translate(-20.89 -33.49)"/><path id="_Path_2" data-name="&lt;Path&gt;" class="cls-2" d="M219,151.14v47.91a7.22,7.22,0,0,1-7.22,7.22H42c13.1-8.79,28.79-11.45,44.45-12.31,6-.32,11.95-.39,17.77-.42,28-.19,58.46,1.51,83.44-13.42,6.88-4.11,12.6-9.67,18.39-15.11A114.91,114.91,0,0,0,219,151.14Z" transform="translate(-20.89 -33.49)"/><path id="_Path_3" data-name="&lt;Path&gt;" class="cls-3" d="M219,135.11v16A114.91,114.91,0,0,1,206,165c-5.79,5.44-11.51,11-18.39,15.11-25,14.93-55.42,13.23-83.44,13.42-5.82,0-11.8.1-17.77.42-15.53.85-31.1,3.47-44.14,12.09l-.31.22H28.11a7.22,7.22,0,0,1-7.22-7.22h0a33.69,33.69,0,0,1,4.47-3.51c14.79-9.77,35.89-15.81,56.44-16.71a114.55,114.55,0,0,1,13.51.16,255.91,255.91,0,0,0,33.28.51c17.55-1.07,34.89-4.8,50.17-13.94a69.16,69.16,0,0,0,8.62-6.22c3.37-2.83,6.56-5.88,9.77-8.9a105.71,105.71,0,0,0,14-15.33Z" transform="translate(-20.89 -33.49)"/><path id="_Path_4" data-name="&lt;Path&gt;" class="cls-4" d="M186.09,109.44c-3.24-8.5-12.83-9.21-13.77-9.26h-.08c-.94,0-10.53.76-13.76,9.26,0,0-10.21,20.5-25.12,25.67H211.2C196.3,129.94,186.09,109.44,186.09,109.44Z" transform="translate(-20.89 -33.49)"/><path id="_Path_5" data-name="&lt;Path&gt;" class="cls-5" d="M117.51,90.05C111.58,75.12,94,73.88,92.29,73.8h-.15c-1.71.08-19.29,1.32-25.22,16.25,0,0-18.71,36-46,45.06H163.54C136.22,126,117.51,90.05,117.51,90.05Z" transform="translate(-20.89 -33.49)"/><circle id="_Path_6" data-name="&lt;Path&gt;" class="cls-6" cx="151.39" cy="18.79" r="18.79"/></g></svg>