<svg id="Layer_1" data-name="Layer 1" xmlns="http://www.w3.org/2000/svg" viewBox="0 0 196.79 177.72"><defs><style>.cls-1{fill:#ffd38e;}.cls-2{fill:#ed1b30;}.cls-3{fill:#b31f24;}.cls-4{fill:#f26522;}.cls-5{fill:#12b57b;}.cls-6{fill:#2075bc;}.cls-7{fill:#017842;}</style></defs><title>7-SVG</title><g id="_Group_" data-name="&lt;Group&gt;"><path class="cls-1" d="M29.49,170.48a1.93,1.93,0,0,1-1.67-2.89L102.65,38A1.93,1.93,0,0,1,106,38l74.83,129.61a1.93,1.93,0,0,1-1.67,2.89Z" transform="translate(-21.55 -31.02)"/><path class="cls-2" d="M107.84,41h0m-3.52,6.11,33.89,58.69,33.89,58.7H36.54l33.89-58.7,33.89-58.69m0-16.07a7.87,7.87,0,0,0-6.87,4L60,99.78,22.62,164.59a7.93,7.93,0,0,0,6.87,11.89H179.15A7.92,7.92,0,0,0,186,164.59L148.6,99.78,111.19,35a7.87,7.87,0,0,0-6.87-4Z" transform="translate(-21.55 -31.02)"/></g><path id="_Path_" data-name="&lt;Path&gt;" class="cls-2" d="M166.35,137.56h0V114.75h0a37.19,37.19,0,0,0-37.18,37.19v23.88h22.61V152.13A14.57,14.57,0,0,1,166.35,137.56Z" transform="translate(-21.55 -31.02)"/><path id="_Path_2" data-name="&lt;Path&gt;" class="cls-3" d="M166.36,114.75v22.81a14.58,14.58,0,0,1,14.58,14.57v23.69h22.61V151.94A37.19,37.19,0,0,0,166.36,114.75Z" transform="translate(-21.55 -31.02)"/><path id="_Path_3" data-name="&lt;Path&gt;" class="cls-4" d="M166.35,137.56a14.57,14.57,0,0,0-14.57,14.57v23.69h14.58V137.56Z" transform="translate(-21.55 -31.02)"/><path id="_Path_4" data-name="&lt;Path&gt;" class="cls-2" d="M166.36,137.56v38.26h14.58V152.13A14.58,14.58,0,0,0,166.36,137.56Z" transform="translate(-21.55 -31.02)"/><path id="_Path_5" data-name="&lt;Path&gt;" class="cls-5" d="M124.28,180.24v7.17h42.08V175.82H128.7A4.42,4.42,0,0,0,124.28,180.24Z" transform="translate(-21.55 -31.02)"/><path id="_Path_6" data-name="&lt;Path&gt;" class="cls-6" d="M204,175.82H166.36v11.59h42.08v-7.17A4.42,4.42,0,0,0,204,175.82Z" transform="translate(-21.55 -31.02)"/><path id="_Path_7" data-name="&lt;Path&gt;" class="cls-6" d="M114.38,197.86v10.88h52V187.41H124.83A10.45,10.45,0,0,0,114.38,197.86Z" transform="translate(-21.55 -31.02)"/><path id="_Path_8" data-name="&lt;Path&gt;" class="cls-7" d="M207.89,187.41H166.36v21.33h52V197.86A10.45,10.45,0,0,0,207.89,187.41Z" transform="translate(-21.55 -31.02)"/><g id="_Group_2" data-name="&lt;Group&gt;"><path id="_Compound_Path_" data-name="&lt;Compound Path&gt;" class="cls-7" d="M96.2,149.45a9.68,9.68,0,0,1-3.13-7.29,9.31,9.31,0,0,1,3.13-7.23,11.45,11.45,0,0,1,8-2.83,11.31,11.31,0,0,1,8,2.83,9.4,9.4,0,0,1,3.08,7.23,9.71,9.71,0,0,1-3.13,7.29,12.13,12.13,0,0,1-15.93,0ZM98,83.13h12.33A4.49,4.49,0,0,1,114.84,88l-2.67,31.28a8,8,0,0,1-8,7.35h0a8,8,0,0,1-8-7.37L93.57,88A4.5,4.5,0,0,1,98,83.13Z" transform="translate(-21.55 -31.02)"/></g></svg>