<svg id="Layer_1" data-name="Layer 1" xmlns="http://www.w3.org/2000/svg" viewBox="0 0 177.11 175.79"><defs><style>.cls-1{fill:#ffd38e;}.cls-2{fill:#fcb353;}.cls-3{fill:#12b57b;}.cls-4{fill:#2075bc;}</style></defs><title>8-SVG</title><rect id="_Rectangle_" data-name="&lt;Rectangle&gt;" class="cls-1" x="0.7" y="66.04" width="175.72" height="10.1" rx="2.66" ry="2.66"/><rect id="_Rectangle_2" data-name="&lt;Rectangle&gt;" class="cls-1" x="0.09" y="154.72" width="176.93" height="21.07"/><path id="_Rectangle_3" data-name="&lt;Rectangle&gt;" class="cls-2" d="M6.32,145.83H170.79a6.22,6.22,0,0,1,6.22,6.22v2.67a0,0,0,0,1,0,0H.09a0,0,0,0,1,0,0v-2.67A6.22,6.22,0,0,1,6.32,145.83Z"/><rect id="_Rectangle_4" data-name="&lt;Rectangle&gt;" class="cls-1" x="17.28" y="76.14" width="32.82" height="54.54"/><polygon id="_Path_" data-name="&lt;Path&gt;" class="cls-3" points="54.15 145.83 13.24 145.83 17.29 130.68 50.11 130.68 54.15 145.83"/><rect id="_Rectangle_5" data-name="&lt;Rectangle&gt;" class="cls-2" x="127" y="76.14" width="32.82" height="54.54"/><polygon id="_Path_2" data-name="&lt;Path&gt;" class="cls-4" points="163.87 145.83 122.96 145.83 127 130.68 159.82 130.68 163.87 145.83"/><path id="_Path_3" data-name="&lt;Path&gt;" class="cls-1" d="M35.83,86.58H204.06a4.43,4.43,0,0,0,2.09-8.34L120,32,33.74,78.24A4.43,4.43,0,0,0,35.83,86.58Z" transform="translate(-31.39 -31.99)"/><rect id="_Rectangle_6" data-name="&lt;Rectangle&gt;" class="cls-2" x="50.11" y="54.6" width="76.9" height="11.45"/><rect id="_Rectangle_7" data-name="&lt;Rectangle&gt;" class="cls-4" x="127" y="54.6" width="42.59" height="11.45"/><rect id="_Rectangle_8" data-name="&lt;Rectangle&gt;" class="cls-3" x="7.52" y="54.6" width="42.59" height="11.45"/><polygon id="_Path_4" data-name="&lt;Path&gt;" class="cls-3" points="72.14 130.68 68.1 145.83 88.56 145.83 88.56 130.68 72.14 130.68"/><polygon id="_Path_5" data-name="&lt;Path&gt;" class="cls-4" points="104.97 130.68 88.56 130.68 88.56 145.83 109.01 145.83 104.97 130.68"/><path id="_Path_6" data-name="&lt;Path&gt;" class="cls-3" d="M109.34,65.85a10.6,10.6,0,0,0,10.6,10.6V55.24A10.61,10.61,0,0,0,109.34,65.85Z" transform="translate(-31.39 -31.99)"/><path id="_Path_7" data-name="&lt;Path&gt;" class="cls-4" d="M119.94,55.24V76.45a10.61,10.61,0,1,0,0-21.21Z" transform="translate(-31.39 -31.99)"/><rect id="_Path_8" data-name="&lt;Path&gt;" class="cls-1" x="72.14" y="76.14" width="16.41" height="54.54"/><rect id="_Path_9" data-name="&lt;Path&gt;" class="cls-2" x="88.55" y="76.14" width="16.41" height="54.54"/><path id="_Path_10" data-name="&lt;Path&gt;" class="cls-2" d="M48.67,108.13h0c0,8.62,14.37,15.66,21.42,15.83l11.41.49V108.13Z" transform="translate(-31.39 -31.99)"/></svg>