<?xml version="1.0" encoding="utf-8"?>
<!-- Generator: Adobe Illustrator 19.0.0, SVG Export Plug-In . SVG Version: 6.00 Build 0)  -->
<svg version="1.1" id="Layer_1" xmlns="http://www.w3.org/2000/svg" xmlns:xlink="http://www.w3.org/1999/xlink" x="0px" y="0px"
	 viewBox="-161 253 288 288" style="enable-background:new -161 253 288 288;" xml:space="preserve">
<style type="text/css">
	.st0{fill:#232323;}
	.st1{fill:#161616;}
	.st2{fill:#2F3333;}
	.st3{fill:#212323;}
	.st4{fill:#60A0CD;}
	.st5{fill:#6CBCFF;}
	.st6{fill:#68737F;}
	.st7{fill:#B0C5DA;}
	.st8{fill:#57586A;}
	.st9{fill:#02030B;}
	.st10{fill:#CCCCCC;}
	.st11{fill:#B2B2B2;}
	.st12{fill:#AAAAAA;}
	.st13{fill:#D6D6D6;}
	.st14{fill:#6B6B6B;}
	.st15{fill:#919191;}
	.st16{opacity:0.44;fill:none;stroke:#939393;stroke-linecap:round;stroke-miterlimit:10;}
	.st17{fill:#8E8E8E;}
	.st18{fill:#484949;}
	.st19{fill:#323333;}
	.st20{fill:#636868;}
	.st21{fill:#4B4C4C;}
	.st22{fill:url(#SVGID_1_);}
	.st23{fill:#727272;}
	.st24{fill:url(#SVGID_2_);}
	.st25{fill:#C1C1C1;}
	.st26{fill:#EFEDF2;}
	.st27{fill:#D1E0EC;}
	.st28{fill:#819499;}
	.st29{fill:#EEDDB8;}
	.st30{fill:#FCC63F;}
	.st31{fill:#A6A8A9;}
	.st32{fill:#231F20;}
	.st33{fill:#6DB9F4;}
	.st34{fill:#4391C5;}
	.st35{fill:#1A1E29;}
	.st36{fill:#DAD6D5;}
	.st37{fill:#76828C;}
	.st38{fill:#43434F;}
	.st39{fill:#899196;}
	.st40{fill:#596875;}
	.st41{opacity:0.55;fill:#65727C;}
</style>
<g>
	<polygon id="XMLID_210_" class="st0" points="-66.3,468.1 -66.3,486.3 -63.9,486.3 -63.9,467.6 	"/>
	<path id="XMLID_209_" class="st0" d="M-78.9,470.8v0.8v13c0,0.9,0.8,1.7,1.7,1.7h0.5v-16L-78.9,470.8z"/>
	<polygon id="XMLID_208_" class="st0" points="-72.7,469.4 -72.7,486.3 -70.3,486.3 -70.3,469 	"/>
	<polygon id="XMLID_207_" class="st0" points="-75.9,470.1 -75.9,486.3 -73.5,486.3 -73.5,469.6 	"/>
	<polygon id="XMLID_204_" class="st0" points="-69.5,468.8 -69.5,486.3 -67.1,486.3 -67.1,468.3 	"/>
	<path id="XMLID_202_" class="st0" d="M-59.9,486.3h0.5c0.9,0,1.7-0.8,1.7-1.7v-18.3l-2.2,0.5V486.3z"/>
	<polygon id="XMLID_197_" class="st0" points="-63.1,467.4 -63.1,486.3 -60.8,486.3 -60.8,466.9 	"/>
	<g id="XMLID_63_">
		<polygon id="XMLID_141_" class="st1" points="-67.1,468.3 -67.1,462.3 -69.5,462.3 -69.5,468.8 		"/>
		<polygon id="XMLID_125_" class="st1" points="-76.7,462.3 -78.9,462.3 -78.9,470.8 -76.7,470.3 		"/>
		<polygon id="XMLID_68_" class="st1" points="-60.8,466.9 -60.8,462.3 -63.1,462.3 -63.1,467.4 		"/>
		<polygon id="XMLID_67_" class="st1" points="-73.5,469.6 -73.5,462.3 -75.9,462.3 -75.9,470.1 		"/>
		<polygon id="XMLID_66_" class="st1" points="-70.3,469 -70.3,462.3 -72.7,462.3 -72.7,469.4 		"/>
		<polygon id="XMLID_65_" class="st1" points="-63.9,467.6 -63.9,462.3 -66.3,462.3 -66.3,468.1 		"/>
		<polygon id="XMLID_64_" class="st1" points="-59.9,462.3 -59.9,466.7 -57.7,466.3 -57.7,462.3 		"/>
	</g>
	<polygon id="XMLID_58_" class="st2" points="-76.7,470.3 -76.7,486.3 -75.9,486.3 -75.9,470.1 	"/>
	<polygon id="XMLID_52_" class="st2" points="-73.5,469.6 -73.5,486.3 -72.7,486.3 -72.7,469.4 	"/>
	<polygon id="XMLID_51_" class="st2" points="-70.3,469 -70.3,486.3 -69.5,486.3 -69.5,468.8 	"/>
	<polygon id="XMLID_50_" class="st2" points="-67.1,468.3 -67.1,486.3 -66.3,486.3 -66.3,468.1 	"/>
	<polygon id="XMLID_49_" class="st2" points="-63.9,467.6 -63.9,486.3 -63.1,486.3 -63.1,467.4 	"/>
	<polygon id="XMLID_48_" class="st2" points="-60.8,466.9 -60.8,486.3 -59.9,486.3 -59.9,466.7 	"/>
	<g id="XMLID_41_">
		<polygon id="XMLID_47_" class="st3" points="-75.9,470.1 -75.9,462.3 -76.7,462.3 -76.7,470.3 		"/>
		<polygon id="XMLID_46_" class="st3" points="-72.7,469.4 -72.7,462.3 -73.5,462.3 -73.5,469.6 		"/>
		<polygon id="XMLID_45_" class="st3" points="-69.5,468.8 -69.5,462.3 -70.3,462.3 -70.3,469 		"/>
		<polygon id="XMLID_44_" class="st3" points="-66.3,468.1 -66.3,462.3 -67.1,462.3 -67.1,468.3 		"/>
		<polygon id="XMLID_43_" class="st3" points="-63.1,467.4 -63.1,462.3 -63.9,462.3 -63.9,467.6 		"/>
		<polygon id="XMLID_42_" class="st3" points="-59.9,466.7 -59.9,462.3 -60.8,462.3 -60.8,466.9 		"/>
	</g>
	<polygon id="XMLID_40_" class="st0" points="36.4,468.1 36.4,486.3 38.8,486.3 38.8,467.6 	"/>
	<path id="XMLID_39_" class="st0" d="M23.8,470.8v0.8v13c0,0.9,0.8,1.7,1.7,1.7H26v-16L23.8,470.8z"/>
	<polygon id="XMLID_38_" class="st0" points="30.1,469.4 30.1,486.3 32.4,486.3 32.4,469 	"/>
	<polygon id="XMLID_37_" class="st0" points="26.9,470.1 26.9,486.3 29.2,486.3 29.2,469.6 	"/>
	<polygon id="XMLID_36_" class="st0" points="33.3,468.8 33.3,486.3 35.6,486.3 35.6,468.3 	"/>
	<path id="XMLID_35_" class="st0" d="M42.8,486.3h0.5c0.9,0,1.7-0.8,1.7-1.7v-18.3l-2.2,0.5V486.3z"/>
	<polygon id="XMLID_34_" class="st0" points="39.6,467.4 39.6,486.3 42,486.3 42,466.9 	"/>
	<g id="XMLID_26_">
		<polygon id="XMLID_33_" class="st1" points="35.6,468.3 35.6,462.3 33.3,462.3 33.3,468.8 		"/>
		<polygon id="XMLID_32_" class="st1" points="26,462.3 23.8,462.3 23.8,470.8 26,470.3 		"/>
		<polygon id="XMLID_31_" class="st1" points="42,466.9 42,462.3 39.6,462.3 39.6,467.4 		"/>
		<polygon id="XMLID_30_" class="st1" points="29.2,469.6 29.2,462.3 26.9,462.3 26.9,470.1 		"/>
		<polygon id="XMLID_29_" class="st1" points="32.4,469 32.4,462.3 30.1,462.3 30.1,469.4 		"/>
		<polygon id="XMLID_28_" class="st1" points="38.8,467.6 38.8,462.3 36.4,462.3 36.4,468.1 		"/>
		<polygon id="XMLID_27_" class="st1" points="42.8,462.3 42.8,466.7 45.1,466.3 45.1,462.3 		"/>
	</g>
	<polygon id="XMLID_25_" class="st2" points="26,470.3 26,486.3 26.9,486.3 26.9,470.1 	"/>
	<polygon id="XMLID_24_" class="st2" points="29.2,469.6 29.2,486.3 30.1,486.3 30.1,469.4 	"/>
	<polygon id="XMLID_23_" class="st2" points="32.4,469 32.4,486.3 33.3,486.3 33.3,468.8 	"/>
	<polygon id="XMLID_22_" class="st2" points="35.6,468.3 35.6,486.3 36.4,486.3 36.4,468.1 	"/>
	<polygon id="XMLID_21_" class="st2" points="38.8,467.6 38.8,486.3 39.6,486.3 39.6,467.4 	"/>
	<polygon id="XMLID_20_" class="st2" points="42,466.9 42,486.3 42.8,486.3 42.8,466.7 	"/>
	<g id="XMLID_13_">
		<polygon id="XMLID_19_" class="st3" points="26.9,470.1 26.9,462.3 26,462.3 26,470.3 		"/>
		<polygon id="XMLID_18_" class="st3" points="30.1,469.4 30.1,462.3 29.2,462.3 29.2,469.6 		"/>
		<polygon id="XMLID_17_" class="st3" points="33.3,468.8 33.3,462.3 32.4,462.3 32.4,469 		"/>
		<polygon id="XMLID_16_" class="st3" points="36.4,468.1 36.4,462.3 35.6,462.3 35.6,468.3 		"/>
		<polygon id="XMLID_15_" class="st3" points="39.6,467.4 39.6,462.3 38.8,462.3 38.8,467.6 		"/>
		<polygon id="XMLID_14_" class="st3" points="42.8,466.7 42.8,462.3 42,462.3 42,466.9 		"/>
	</g>
	<path class="st4" d="M50.5,446.9H-84.3c0.1-6.9,0.2-14.8,0.3-23.4h0.1V415h0.1l133.9-1l0,2.1v0l0,1.8l0,1v0l0.1,8
		c0.1,5.7,0.1,11.1,0.2,16.1c0,0,0,0.1,0,0.1c0,0.3,0,0.6,0,0.8C50.5,445,50.5,446,50.5,446.9z"/>
	<path class="st5" d="M13.2,312.4L13.2,312.4H-47l0,0c0-2.6,8.2-4.7,12-4.7H0.1C4,307.7,13.2,309.8,13.2,312.4z"/>
	<path class="st6" d="M49.9,404.6H-83.7c0.5-27.4,0.2-57.9,1.3-81l19-3.7l85.1-0.8l26.9,4.4C49.7,346.8,49.4,377.2,49.9,404.6z"/>
	<path class="st7" d="M50.6,451c0-1.3,0-2.5-0.1-3.9l-1.2,3.9l-0.5,1.7c0,0-21.3,3.3-21.7,3.3s-9.9-5-9.9-5H-83.1l-1.3-4.1
		c0,1.4,0,2.8,0,4.1c-0.1,11.4,0.4,19.5,0.7,22.3c0,0.5,0.1,0.8,0.1,1c0.4-0.1,0.8-0.3,1.1-0.4c3.4-1.3,8.4-2.4,15.6-3.1
		c4.9-0.5,10.9-0.8,18.2-0.8h63.5c6.6,0,12.2,0.3,16.9,0.7c8.8,0.8,14.4,2.1,18.1,3.6c0-0.1,0-0.5,0.1-1
		C50.1,470.5,50.7,462.4,50.6,451z"/>
	<path class="st4" d="M48.8,330.7c-0.1-0.5-0.4-0.9-0.6-1.4c-2.3-3.7-9.3-6.3-13.4-6.3H-66.6c-4.1,0-12.5,2.7-15.3,6.3
		c-0.4,0.5-0.7,1-0.8,1.6l0-1.7l0.1-5.6c0.3-6.2,11.3-11.1,16.2-11.1h101c4.9,0,13.9,4.9,14.2,11.1c0,0.6,0.1,3,0.1,5.4
		C48.8,329.5,48.8,330.1,48.8,330.7z"/>
	<path class="st8" d="M48.9,330.2l0-1.1c-0.4-1-1.1-1.9-2-2.8c-3.1-3-8.7-5.1-12.1-5.1H-66.6c-3.6,0-10.6,2.2-14.1,5.5
		c-0.9,0.9-1.6,1.8-1.9,2.8c0,0,0,0.1,0,0.1c0,0,0,0,0,0.1v0.6c0,0,0,0.2,0,0.2c-0.1,5.1-0.2,10.2-0.3,15.3
		c-0.1,5.2-0.2,10.4-0.2,15.6s-0.1,10.4-0.2,15.6s-0.1,10.4-0.1,15.6c0,4.1,0,8.1-0.1,12.2c0.6,0,1.2,0,1.8,0
		c0.2-24.3,0.4-48.5,0.8-72.8c0-3,2.2-5,4.7-6.2c1.8-0.9,3.6-1.5,5.6-2c1.3-0.3,2.7-0.6,4.1-0.6c0,0,101.3,0,101.3,0
		c2.2,0,4.4,0.5,6.4,1.4c1,0.4,2,1,2.9,1.6c0.8,0.5,1.7,1.2,2.3,2c0.6,0.9,0.7,2,0.8,3.1c0,1.2,0.1,2.4,0.1,3.5
		c0.1,2.3,0.1,4.6,0.2,6.9c0.1,4.6,0.2,9.2,0.2,13.8c0.1,4.8,0.1,9.6,0.1,14.4c0,4.9,0.1,9.7,0.1,14.6c0,4.8,0.1,9.7,0.2,14.5
		c0,1.9,0.1,3.9,0.1,5.8c0,0,1.8,0,1.8,0C49.5,379.8,49.6,352.4,48.9,330.2z"/>
	<path class="st9" d="M47.6,331.3l0-1.1c-0.4-0.9-0.9-2.1-1.8-2.9c-3-3-8.6-4.8-12-4.8h-99.4c-3.6,0-10.6,2.1-13.9,5.4
		c-0.9,0.9-1.6,1.8-1.9,2.8c0,0,0,0,0,0.1c0,0,0,0,0,0.1v0.6c0,0,0,0.2,0,0.2c-0.1,5-0.2,10-0.3,15.1c-0.1,5.1-0.2,10.2-0.2,15.4
		c-0.1,5.1-0.1,10.2-0.2,15.4s-0.1,10.2-0.1,15.4c0,4,0,8-0.1,12c0.6,0,1.2,0,1.8,0c0.2-23.9,0.4-47.8,0.8-71.7c0-3,2.1-4.9,4.6-6.1
		c1.7-0.8,3.6-1.5,5.4-2c1.3-0.3,2.7-0.6,4.1-0.6c0,0,99.4,0,99.4,0c2.2,0,4.3,0.5,6.3,1.4c1,0.4,1.9,1,2.8,1.5
		c0.8,0.5,1.6,1.1,2.2,2c0.6,0.9,0.7,2,0.7,3c0,1.2,0.1,2.3,0.1,3.5c0.1,2.3,0.1,4.5,0.2,6.8c0.1,4.5,0.2,9.1,0.2,13.6
		c0.1,4.7,0.1,9.5,0.1,14.2c0,4.8,0.1,9.6,0.1,14.4c0,4.8,0.1,9.5,0.2,14.3c0,1.9,0.1,3.8,0.1,5.7c0,0,1.8,0,1.8,0
		C48.2,380.1,48.4,353.1,47.6,331.3z"/>
	<path class="st9" d="M50.1,419.1C50.1,419.1,50.1,419.1,50.1,419.1c-3.6,1.5-9.3,3-18.3,3.8c-4.7,0.4-10.3,0.7-16.9,0.7h-63.5
		c-6.7,0-12.3-0.3-17-0.7c-9-0.8-14.7-2.2-18.4-3.8v0h0c0-0.5,0-1.1,0-1.6c0-0.4,0-0.9,0-1.3c0-0.4,0-0.7,0-1.1c0-0.8,0-1.6,0-2.4
		c0-2.6,0.1-5.3,0.1-8h1.8c0-1,0.1-8.5,0.1-8.5c0,0,0,0,0,0.1c0.1,0.3,0.9,0.9,1.1,1.1c0,0,0.1,0.1,0.1,0.1c1.1,1,2.3,1.8,3.5,2.5
		c3.8,2.1,8.2,3,12.6,3.3c4.6,0.4,9.2,0.5,13.8,0.8c3.8,0.2,7.5,0.6,11.3,0.7H5.5c3.8-0.1,7.6-0.5,11.3-0.7
		c4.6-0.3,9.2-0.4,13.8-0.8c4.3-0.4,8.7-1.2,12.6-3.3c1.3-0.7,2.5-1.5,3.5-2.5c0,0,0.1-0.1,0.1-0.1c0.2-0.2,1.1-0.8,1.1-1.1
		c0,0,0,0.6,0,1.5c0,2.3,0.1,6.3,0.1,7h1.8v0.1c0,2.7,0.1,5.3,0.1,7.9l0,1.4l0,2.1v0h0l0,1.8L50.1,419.1z"/>
	<path class="st2" d="M50.1,419.1L50.1,419.1c-3.6,1.5-9.3,3-18.3,3.8c-4.7,0.4-10.3,0.7-16.9,0.7h-63.5c-6.7,0-12.3-0.3-17-0.7
		c-9-0.8-14.7-2.2-18.3-3.8c0-0.6,0-1.3,0-1.9c0-0.3,0-0.7,0-1c0,0,0,0,0,0c3.6,1.5,9.3,3,18.3,3.8c4.7,0.4,10.3,0.7,16.9,0.7h63.5
		c7.3,0,13.3-0.3,18.2-0.8c8.2-0.8,13.6-2.2,17-3.6h0l0,1.8L50.1,419.1z"/>
	<path class="st8" d="M50.1,419.1C50.1,419.1,50.1,419.1,50.1,419.1l0-1.9c-0.4,0.2-0.9,0.4-1.4,0.6c-5.8,2.1-16,3.9-33.8,3.9h-63.5
		c-19.4,0-29.7-2.1-35.2-4.4c0,0,0,0,0,0c0,0.6,0,1.3,0,1.9v0l0,0c0-1,0-1.9,0-2.9c0,0,0,0,0.1,0c3.6,1.5,9.3,3,18.3,3.7
		c4.7,0.4,10.3,0.7,16.9,0.7h63.5c7.3,0,13.3-0.3,18.2-0.8c7.2-0.7,12.2-1.8,15.6-3.1c0.5-0.2,1-0.4,1.4-0.5c0,0,0,0,0,0v0l0,1.8
		L50.1,419.1z"/>
	<path class="st8" d="M49.9,473.3c0,0.5-0.1,0.8-0.1,1c-3.6-1.5-9.3-2.9-18.1-3.6c-4.7-0.4-10.3-0.7-16.9-0.7h-63.5
		c-7.3,0-13.3,0.3-18.2,0.8c-7.2,0.7-12.2,1.8-15.6,3.1c-0.4,0.1-0.8,0.3-1.1,0.4c0-0.2,0-0.5-0.1-1c0.4-0.2,0.8-0.3,1.2-0.5
		c5.8-2.1,16-3.9,33.8-3.9h63.5C34,469,44.3,471,49.9,473.3z"/>
	<path class="st8" d="M50.1,417.2c-0.4,0.2-0.9,0.4-1.4,0.6v-13.2l1.2,0.1l0.2,11.5L50.1,417.2z"/>
	<path class="st8" d="M-82.3,404.6L-82.3,404.6l-0.2,13.1c-0.5-0.1-0.9-0.2-1.4-0.3c0-0.4,0-0.9,0-1.3c0-0.4,0-0.7,0-1.1
		c0-0.8,0-1.6,0-2.4c0-2.6,0.1-5.3,0.1-8H-82.3z"/>
	<path class="st2" d="M28.5,474.3h21.4c-0.4-0.2-0.8-0.3-1.1-0.4c-3.4-1.3-8.4-2.4-15.6-3.1c-4.9-0.5-10.9-0.8-18.2-0.8h-31.8h-31.8
		c-7.3,0-13.3,0.3-18.2,0.8c-7.2,0.7-12.2,1.8-15.6,3.1c-0.4,0.1-0.8,0.3-1.1,0.4h21.4c0,0,18.9-0.6,32.5-1.1H-4
		C9.6,473.7,28.5,474.3,28.5,474.3z"/>
	<path class="st10" d="M-62,446.9h-4.4l-17.9-3.8l0,3.8v0.1l1.3,4.1l0.5,1.7c0,0,21.3,3.3,21.7,3.3c0.2,0,3.4-1.6,6.1-3
		c0.4-0.2,0.7-0.4,1.1-0.5l-6.8-2.9L-62,446.9z"/>
	<path class="st11" d="M-53.6,452.6c-0.4,0.2-0.7,0.3-1.1,0.5c-1.5,0.8-3.2,1.6-4.4,2.2l-1.3-0.6L-62,452h-4.4l-17.5-3.7l-0.4-1.3
		V447l0-3.8l17.9,3.8h4.4l1.6,2.7L-53.6,452.6z"/>
	<path class="st12" d="M-45.5,451h-1.1c-2.4,0-4.8,0.5-7,1.4l-6.8-2.9l-0.6-1l-1-1.7h15l0.2,1.7L-45.5,451z"/>
	<polygon class="st13" points="-46.8,448.5 -61,448.5 -62,446.9 -47,446.9 	"/>
	<path class="st12" d="M11.6,451h1.1c2.4,0,4.8,0.5,7,1.4l6.8-2.9l0.6-1l1-1.7h-15l-0.2,1.7L11.6,451z"/>
	<polygon class="st13" points="12.9,448.5 27.1,448.5 28.1,446.9 13.1,446.9 	"/>
	<path class="st14" d="M-60.5,449.5l2.7,1.2h-3.1l-17.9-3.8l0,3.8v0.1l0.8,2.7c-2.7-0.4-4.6-0.7-4.6-0.7l-0.5-1.7l-1.3-4.1v-0.1
		l0-3.8l17.9,3.8h4.4L-60.5,449.5z"/>
	<path class="st14" d="M-53.6,452.5c-0.4,0.2-0.7,0.3-1.1,0.5c-0.1,0-0.2,0.1-0.3,0.1l-1-1.7L-53.6,452.5z"/>
	<polygon class="st14" points="-56,451.5 -57.8,450.7 -56.4,450.7 	"/>
	<path class="st15" d="M-53.6,452.5c-0.4,0.2-0.7,0.3-1.1,0.5c-2.7,1.4-5.8,3-6.1,3c-0.4,0-21.7-3.3-21.7-3.3l-0.5-1.7l-1.3-4.1
		v-0.1l0-3.8l0.7,0.2l0,2.4v0.1l1.3,4.1l0.5,1.7c0,0,21.3,3.3,21.7,3.3c0.2,0,3-1.4,5.5-2.7L-53.6,452.5z"/>
	<path class="st16" d="M-82.6,445.4c2.3,0.6,4.6,1.2,6.8,1.7c1.9,0.5,3.8,1,5.8,1.4c1,0.2,2,0.3,3.1,0.4c0.9,0,2-0.3,2.7,0.5
		c0.4,0.4,0.6,0.9,1.1,1.3c0.5,0.4,1.3,0.6,1.9,0.8c0.8,0.3,2.4,1.2,3.2,1.6"/>
	<g>
		<circle class="st14" cx="-65" cy="451.3" r="2.5"/>
		<path class="st17" d="M-63,451.3c0,0.4-0.1,0.8-0.3,1.1c-0.4,0.6-1,0.9-1.7,0.9c-0.6,0-1.2-0.3-1.5-0.7c-0.3-0.3-0.5-0.8-0.5-1.3
			c0-0.2,0-0.3,0.1-0.5c0.1-0.5,0.4-0.9,0.9-1.2c0.3-0.2,0.7-0.3,1.1-0.3c0.3,0,0.6,0.1,0.9,0.2c0.2,0.1,0.4,0.2,0.5,0.4
			c0.1,0.1,0.2,0.2,0.3,0.3c0,0,0,0,0,0c0,0.1,0.1,0.1,0.1,0.2C-63.1,450.6-63,451-63,451.3z"/>
		<path class="st18" d="M-62.5,451.3c0,1.4-1.1,2.5-2.5,2.5c-0.9,0-1.7-0.5-2.2-1.2c0.4,0.4,1,0.6,1.6,0.6c0.7,0,1.3-0.3,1.8-0.8
			c0.4-0.4,0.7-1,0.7-1.6c0,0,0,0,0,0c0,0,0-0.1,0-0.1c0-0.5-0.1-0.9-0.4-1.3C-62.8,449.9-62.5,450.6-62.5,451.3z"/>
		<path class="st19" d="M-65.1,450.9c0.1,0.2,0.1,0.4,0.1,0.6c0,0.6-0.5,1.2-1.1,1.2c-0.2,0-0.3,0-0.4-0.1c-0.3-0.3-0.5-0.8-0.5-1.3
			c0-0.2,0-0.3,0.1-0.5c0.2-0.3,0.5-0.5,0.9-0.5c0.1,0,0.2,0,0.2,0c0.1,0,0.3,0.1,0.4,0.2c0.3-0.1,0.8-0.2,1.2-0.4
			c0.3-0.1,0.6-0.2,0.7-0.3c0.1,0.1,0.3,0.3,0.4,0.5C-63.6,450.4-64.7,450.5-65.1,450.9z"/>
		<path class="st13" d="M-64.1,449.6c0,0.2-0.1,0.4-0.2,0.6c-0.4,0.2-0.9,0.3-1.2,0.4c-0.1-0.1-0.2-0.1-0.4-0.2
			c-0.1-0.2-0.2-0.5-0.3-0.8c0.3-0.2,0.7-0.3,1.1-0.3C-64.7,449.3-64.4,449.3-64.1,449.6C-64.1,449.5-64.1,449.5-64.1,449.6z"/>
		<path class="st20" d="M-63,450.8C-63,450.8-63,450.8-63,450.8c0,0.6-0.3,1.2-0.7,1.6c-0.5,0-0.9-0.5-0.9-1.2c0-0.6,0.4-1.2,1-1.2
			c0.1,0,0.3,0,0.4,0.1c0,0,0,0,0,0c0,0.1,0.1,0.1,0.1,0.2C-63.1,450.5-63.1,450.7-63,450.8z"/>
	</g>
	<g>
		<circle class="st14" cx="-70.8" cy="450.2" r="2.5"/>
		<path class="st17" d="M-68.8,450.2c0,0.4-0.1,0.8-0.3,1.1c-0.4,0.6-1,0.9-1.7,0.9c-0.6,0-1.2-0.3-1.5-0.7
			c-0.3-0.3-0.5-0.8-0.5-1.3c0-0.2,0-0.3,0.1-0.5c0.1-0.5,0.4-0.9,0.9-1.2c0.3-0.2,0.7-0.3,1.1-0.3c0.3,0,0.6,0.1,0.9,0.2
			c0.2,0.1,0.4,0.2,0.5,0.4c0.1,0.1,0.2,0.2,0.3,0.3c0,0,0,0,0,0c0,0.1,0.1,0.1,0.1,0.2C-68.9,449.5-68.8,449.8-68.8,450.2z"/>
		<path class="st18" d="M-68.3,450.2c0,1.4-1.1,2.5-2.5,2.5c-0.9,0-1.7-0.5-2.2-1.2c0.4,0.4,1,0.6,1.6,0.6c0.7,0,1.3-0.3,1.8-0.8
			c0.4-0.4,0.7-1,0.7-1.6c0,0,0,0,0,0c0,0,0-0.1,0-0.1c0-0.5-0.1-0.9-0.4-1.3C-68.7,448.7-68.3,449.4-68.3,450.2z"/>
		<path class="st19" d="M-71,449.8c0.1,0.2,0.1,0.4,0.1,0.6c0,0.6-0.5,1.2-1.1,1.2c-0.2,0-0.3,0-0.4-0.1c-0.3-0.3-0.5-0.8-0.5-1.3
			c0-0.2,0-0.3,0.1-0.5c0.2-0.3,0.5-0.5,0.9-0.5c0.1,0,0.2,0,0.2,0c0.1,0,0.3,0.1,0.4,0.2c0.3-0.1,0.8-0.2,1.2-0.4
			c0.3-0.1,0.6-0.2,0.7-0.3c0.1,0.1,0.3,0.3,0.4,0.5C-69.5,449.3-70.5,449.4-71,449.8z"/>
		<path class="st13" d="M-69.9,448.4c0,0.2-0.1,0.4-0.2,0.6c-0.4,0.2-0.9,0.3-1.2,0.4c-0.1-0.1-0.2-0.1-0.4-0.2
			c-0.1-0.2-0.2-0.5-0.3-0.8c0.3-0.2,0.7-0.3,1.1-0.3C-70.5,448.1-70.2,448.2-69.9,448.4C-69.9,448.4-69.9,448.4-69.9,448.4z"/>
		<path class="st20" d="M-68.9,449.7C-68.9,449.7-68.9,449.7-68.9,449.7c0,0.6-0.3,1.2-0.7,1.6c-0.5,0-0.9-0.5-0.9-1.2
			c0-0.6,0.4-1.2,1-1.2c0.1,0,0.3,0,0.4,0.1c0,0,0,0,0,0c0,0.1,0.1,0.1,0.1,0.2C-69,449.4-68.9,449.5-68.9,449.7z"/>
	</g>
	<g>
		<circle class="st14" cx="-76.5" cy="448.8" r="2.5"/>
		<path class="st17" d="M-74.5,448.8c0,0.4-0.1,0.8-0.3,1.1c-0.4,0.6-1,0.9-1.7,0.9c-0.6,0-1.2-0.3-1.5-0.7
			c-0.3-0.3-0.5-0.8-0.5-1.3c0-0.2,0-0.3,0.1-0.5c0.1-0.5,0.4-0.9,0.9-1.2c0.3-0.2,0.7-0.3,1.1-0.3c0.3,0,0.6,0.1,0.9,0.2
			c0.2,0.1,0.4,0.2,0.5,0.4c0.1,0.1,0.2,0.2,0.3,0.3c0,0,0,0,0,0c0,0.1,0.1,0.1,0.1,0.2C-74.6,448.1-74.5,448.5-74.5,448.8z"/>
		<path class="st18" d="M-74,448.8c0,1.4-1.1,2.5-2.5,2.5c-0.9,0-1.7-0.5-2.2-1.2c0.4,0.4,1,0.6,1.6,0.6c0.7,0,1.3-0.3,1.8-0.8
			c0.4-0.4,0.7-1,0.7-1.6c0,0,0,0,0,0c0,0,0-0.1,0-0.1c0-0.5-0.1-0.9-0.4-1.3C-74.3,447.4-74,448.1-74,448.8z"/>
		<path class="st19" d="M-76.7,448.4c0.1,0.2,0.1,0.4,0.1,0.6c0,0.6-0.5,1.2-1.1,1.2c-0.2,0-0.3,0-0.4-0.1c-0.3-0.3-0.5-0.8-0.5-1.3
			c0-0.2,0-0.3,0.1-0.5c0.2-0.3,0.5-0.5,0.9-0.5c0.1,0,0.2,0,0.2,0c0.1,0,0.3,0.1,0.4,0.2c0.3-0.1,0.8-0.2,1.2-0.4
			c0.3-0.1,0.6-0.2,0.7-0.3c0.1,0.1,0.3,0.3,0.4,0.5C-75.1,447.9-76.2,448-76.7,448.4z"/>
		<path class="st13" d="M-75.6,447.1c0,0.2-0.1,0.4-0.2,0.6c-0.4,0.2-0.9,0.3-1.2,0.4c-0.1-0.1-0.2-0.1-0.4-0.2
			c-0.1-0.2-0.2-0.5-0.3-0.8c0.3-0.2,0.7-0.3,1.1-0.3C-76.2,446.8-75.9,446.8-75.6,447.1C-75.6,447-75.6,447-75.6,447.1z"/>
		<path class="st20" d="M-74.6,448.3C-74.6,448.3-74.6,448.3-74.6,448.3c0,0.6-0.3,1.2-0.7,1.6c-0.5,0-0.9-0.5-0.9-1.2
			c0-0.6,0.4-1.2,1-1.2c0.1,0,0.3,0,0.4,0.1c0,0,0,0,0,0c0,0.1,0.1,0.1,0.1,0.2C-74.7,448-74.6,448.2-74.6,448.3z"/>
	</g>
	<g>
		<circle class="st14" cx="-81.1" cy="446.9" r="1.5"/>
		<path class="st17" d="M-82,447.7c-0.2-0.2-0.3-0.4-0.3-0.6c-0.1-0.4,0-0.8,0.3-1.1c0.3-0.3,0.6-0.4,0.9-0.3c0.3,0,0.5,0.1,0.7,0.3
			c0.1,0.1,0.1,0.1,0.2,0.2c0.2,0.3,0.2,0.6,0.1,0.9c0,0.2-0.1,0.4-0.3,0.6c-0.1,0.1-0.3,0.2-0.5,0.3c-0.1,0-0.3,0.1-0.4,0.1
			c-0.1,0-0.2,0-0.2,0c0,0,0,0,0,0c0,0-0.1,0-0.1,0C-81.7,448-81.8,447.9-82,447.7z"/>
		<path class="st18" d="M-82.2,447.9c-0.6-0.6-0.6-1.5,0-2.1c0.4-0.4,0.9-0.5,1.4-0.4c-0.3,0-0.7,0.2-0.9,0.4
			c-0.3,0.3-0.4,0.7-0.4,1.1c0,0.4,0.1,0.7,0.4,1c0,0,0,0,0,0c0,0,0,0,0.1,0.1c0.2,0.2,0.4,0.3,0.7,0.4
			C-81.4,448.4-81.9,448.2-82.2,447.9z"/>
		<path class="st19" d="M-80.9,447c-0.1,0-0.2-0.1-0.3-0.2c-0.3-0.3-0.3-0.7,0-0.9c0.1-0.1,0.1-0.1,0.2-0.1c0.3,0,0.5,0.1,0.7,0.3
			c0.1,0.1,0.1,0.1,0.2,0.2c0,0.2,0,0.4-0.2,0.6c0,0-0.1,0.1-0.1,0.1c-0.1,0-0.1,0.1-0.2,0.1c-0.1,0.1-0.2,0.4-0.3,0.6
			c-0.1,0.2-0.1,0.3-0.2,0.4c-0.1,0-0.2,0-0.4-0.1C-81.3,447.8-80.9,447.4-80.9,447z"/>
		<path class="st13" d="M-80.8,448c-0.1-0.1-0.2-0.2-0.2-0.3c0.1-0.2,0.3-0.5,0.3-0.6c0.1,0,0.2,0,0.2-0.1c0.2,0,0.3,0.1,0.4,0.2
			c0,0.2-0.1,0.4-0.3,0.6C-80.4,447.8-80.6,447.9-80.8,448C-80.8,448-80.8,448-80.8,448z"/>
		<path class="st20" d="M-81.8,447.9C-81.8,447.9-81.8,447.9-81.8,447.9c-0.3-0.3-0.4-0.6-0.4-1c0.2-0.2,0.6-0.1,0.9,0.1
			c0.3,0.3,0.3,0.7,0.1,0.9c-0.1,0.1-0.1,0.1-0.2,0.1c0,0,0,0,0,0c0,0-0.1,0-0.1,0C-81.6,448-81.7,447.9-81.8,447.9z"/>
	</g>
	<path class="st21" d="M-53.6,452.5c-0.4,0.2-0.7,0.3-1.1,0.5c0,0-0.1,0-0.1,0.1l-6.5-2.8l-1.5-2.7h-4.4l-17-3.6l0-0.9l17.9,3.8h4.4
		l1.6,2.7L-53.6,452.5z"/>
	<path class="st10" d="M28.2,446.9h4.4l17.9-3.8l0,3.8v0.1l-1.3,4.1l-0.5,1.7c0,0-21.3,3.3-21.7,3.3c-0.2,0-3.4-1.6-6.1-3
		c-0.4-0.2-0.7-0.4-1.1-0.5l6.8-2.9L28.2,446.9z"/>
	<path class="st11" d="M19.8,452.6c0.4,0.2,0.7,0.3,1.1,0.5c1.5,0.8,3.2,1.6,4.4,2.2l1.3-0.6l1.6-2.7h4.4l17.5-3.7l0.4-1.3V447
		l0-3.8L32.6,447h-4.4l-1.6,2.7L19.8,452.6z"/>
	<path class="st14" d="M26.6,449.5l-2.7,1.2H27l17.9-3.8l0,3.8v0.1l-0.8,2.7c2.7-0.4,4.6-0.7,4.6-0.7l0.5-1.7l1.3-4.1v-0.1l0-3.8
		l-17.9,3.8h-4.4L26.6,449.5z"/>
	<path class="st14" d="M19.8,452.5c0.4,0.2,0.7,0.3,1.1,0.5c0.1,0,0.2,0.1,0.3,0.1l1-1.7L19.8,452.5z"/>
	<polygon class="st14" points="22.2,451.5 23.9,450.7 22.6,450.7 	"/>
	<path class="st15" d="M19.8,452.5c0.4,0.2,0.7,0.3,1.1,0.5c2.7,1.4,5.8,3,6.1,3c0.4,0,21.7-3.3,21.7-3.3l0.5-1.7l1.3-4.1v-0.1
		l0-3.8l-0.7,0.2l0,2.4v0.1l-1.3,4.1l-0.5,1.7c0,0-21.3,3.3-21.7,3.3c-0.2,0-3-1.4-5.5-2.7L19.8,452.5z"/>
	<path class="st16" d="M48.8,445.4c-2.3,0.6-4.6,1.2-6.8,1.7c-1.9,0.5-3.8,1-5.8,1.4c-1,0.2-2,0.3-3.1,0.4c-0.9,0-2-0.3-2.7,0.5
		c-0.4,0.4-0.6,0.9-1.1,1.3c-0.5,0.4-1.3,0.6-1.9,0.8c-0.8,0.3-2.4,1.2-3.2,1.6"/>
	<g>
		<circle class="st14" cx="31.2" cy="451.3" r="2.5"/>
		<path class="st17" d="M29.2,451.3c0,0.4,0.1,0.8,0.3,1.1c0.4,0.6,1,0.9,1.7,0.9c0.6,0,1.2-0.3,1.5-0.7c0.3-0.3,0.5-0.8,0.5-1.3
			c0-0.2,0-0.3-0.1-0.5c-0.1-0.5-0.4-0.9-0.9-1.2c-0.3-0.2-0.7-0.3-1.1-0.3c-0.3,0-0.6,0.1-0.9,0.2c-0.2,0.1-0.4,0.2-0.5,0.4
			c-0.1,0.1-0.2,0.2-0.3,0.3c0,0,0,0,0,0c0,0.1-0.1,0.1-0.1,0.2C29.2,450.6,29.2,451,29.2,451.3z"/>
		<path class="st18" d="M28.6,451.3c0,1.4,1.1,2.5,2.5,2.5c0.9,0,1.7-0.5,2.2-1.2c-0.4,0.4-1,0.6-1.6,0.6c-0.7,0-1.3-0.3-1.8-0.8
			c-0.4-0.4-0.7-1-0.7-1.6c0,0,0,0,0,0c0,0,0-0.1,0-0.1c0-0.5,0.1-0.9,0.4-1.3C29,449.9,28.6,450.6,28.6,451.3z"/>
		<path class="st19" d="M31.3,450.9c-0.1,0.2-0.1,0.4-0.1,0.6c0,0.6,0.5,1.2,1.1,1.2c0.2,0,0.3,0,0.4-0.1c0.3-0.3,0.5-0.8,0.5-1.3
			c0-0.2,0-0.3-0.1-0.5c-0.2-0.3-0.5-0.5-0.9-0.5c-0.1,0-0.2,0-0.2,0c-0.1,0-0.3,0.1-0.4,0.2c-0.3-0.1-0.8-0.2-1.2-0.4
			c-0.3-0.1-0.6-0.2-0.7-0.3c-0.1,0.1-0.3,0.3-0.4,0.5C29.8,450.4,30.8,450.5,31.3,450.9z"/>
		<path class="st13" d="M30.3,449.6c0,0.2,0.1,0.4,0.2,0.6c0.4,0.2,0.9,0.3,1.2,0.4c0.1-0.1,0.2-0.1,0.4-0.2
			c0.1-0.2,0.2-0.5,0.3-0.8c-0.3-0.2-0.7-0.3-1.1-0.3C30.9,449.3,30.6,449.3,30.3,449.6C30.3,449.5,30.3,449.5,30.3,449.6z"/>
		<path class="st20" d="M29.2,450.8C29.2,450.8,29.2,450.8,29.2,450.8c0,0.6,0.3,1.2,0.7,1.6c0.5,0,0.9-0.5,0.9-1.2
			c0-0.6-0.4-1.2-1-1.2c-0.1,0-0.3,0-0.4,0.1c0,0,0,0,0,0c0,0.1-0.1,0.1-0.1,0.2C29.3,450.5,29.3,450.7,29.2,450.8z"/>
	</g>
	<g>
		<circle class="st14" cx="37" cy="450.2" r="2.5"/>
		<path class="st17" d="M35,450.2c0,0.4,0.1,0.8,0.3,1.1c0.4,0.6,1,0.9,1.7,0.9c0.6,0,1.2-0.3,1.5-0.7c0.3-0.3,0.5-0.8,0.5-1.3
			c0-0.2,0-0.3-0.1-0.5c-0.1-0.5-0.4-0.9-0.9-1.2c-0.3-0.2-0.7-0.3-1.1-0.3c-0.3,0-0.6,0.1-0.9,0.2c-0.2,0.1-0.4,0.2-0.5,0.4
			c-0.1,0.1-0.2,0.2-0.3,0.3c0,0,0,0,0,0c0,0.1-0.1,0.1-0.1,0.2C35.1,449.5,35,449.8,35,450.2z"/>
		<path class="st18" d="M34.5,450.2c0,1.4,1.1,2.5,2.5,2.5c0.9,0,1.7-0.5,2.2-1.2c-0.4,0.4-1,0.6-1.6,0.6c-0.7,0-1.3-0.3-1.8-0.8
			c-0.4-0.4-0.7-1-0.7-1.6c0,0,0,0,0,0c0,0,0-0.1,0-0.1c0-0.5,0.1-0.9,0.4-1.3C34.8,448.7,34.5,449.4,34.5,450.2z"/>
		<path class="st19" d="M37.2,449.8c-0.1,0.2-0.1,0.4-0.1,0.6c0,0.6,0.5,1.2,1.1,1.2c0.2,0,0.3,0,0.4-0.1c0.3-0.3,0.5-0.8,0.5-1.3
			c0-0.2,0-0.3-0.1-0.5c-0.2-0.3-0.5-0.5-0.9-0.5c-0.1,0-0.2,0-0.2,0c-0.1,0-0.3,0.1-0.4,0.2c-0.3-0.1-0.8-0.2-1.2-0.4
			c-0.3-0.1-0.6-0.2-0.7-0.3c-0.1,0.1-0.3,0.3-0.4,0.5C35.6,449.3,36.7,449.4,37.2,449.8z"/>
		<path class="st13" d="M36.1,448.4c0,0.2,0.1,0.4,0.2,0.6c0.4,0.2,0.9,0.3,1.2,0.4c0.1-0.1,0.2-0.1,0.4-0.2
			c0.1-0.2,0.2-0.5,0.3-0.8c-0.3-0.2-0.7-0.3-1.1-0.3C36.7,448.1,36.4,448.2,36.1,448.4C36.1,448.4,36.1,448.4,36.1,448.4z"/>
		<path class="st20" d="M35.1,449.7C35.1,449.7,35.1,449.7,35.1,449.7c0,0.6,0.3,1.2,0.7,1.6c0.5,0,0.9-0.5,0.9-1.2
			c0-0.6-0.4-1.2-1-1.2c-0.1,0-0.3,0-0.4,0.1c0,0,0,0,0,0c0,0.1-0.1,0.1-0.1,0.2C35.2,449.4,35.1,449.5,35.1,449.7z"/>
	</g>
	<g>
		<circle class="st14" cx="42.7" cy="448.8" r="2.5"/>
		<path class="st17" d="M40.7,448.8c0,0.4,0.1,0.8,0.3,1.1c0.4,0.6,1,0.9,1.7,0.9c0.6,0,1.2-0.3,1.5-0.7c0.3-0.3,0.5-0.8,0.5-1.3
			c0-0.2,0-0.3-0.1-0.5c-0.1-0.5-0.4-0.9-0.9-1.2c-0.3-0.2-0.7-0.3-1.1-0.3c-0.3,0-0.6,0.1-0.9,0.2c-0.2,0.1-0.4,0.2-0.5,0.4
			c-0.1,0.1-0.2,0.2-0.3,0.3c0,0,0,0,0,0c0,0.1-0.1,0.1-0.1,0.2C40.8,448.1,40.7,448.5,40.7,448.8z"/>
		<path class="st18" d="M40.2,448.8c0,1.4,1.1,2.5,2.5,2.5c0.9,0,1.7-0.5,2.2-1.2c-0.4,0.4-1,0.6-1.6,0.6c-0.7,0-1.3-0.3-1.8-0.8
			c-0.4-0.4-0.7-1-0.7-1.6c0,0,0,0,0,0c0,0,0-0.1,0-0.1c0-0.5,0.1-0.9,0.4-1.3C40.5,447.4,40.2,448.1,40.2,448.8z"/>
		<path class="st19" d="M42.8,448.4c-0.1,0.2-0.1,0.4-0.1,0.6c0,0.6,0.5,1.2,1.1,1.2c0.2,0,0.3,0,0.4-0.1c0.3-0.3,0.5-0.8,0.5-1.3
			c0-0.2,0-0.3-0.1-0.5c-0.2-0.3-0.5-0.5-0.9-0.5c-0.1,0-0.2,0-0.2,0c-0.1,0-0.3,0.1-0.4,0.2c-0.3-0.1-0.8-0.2-1.2-0.4
			c-0.3-0.1-0.6-0.2-0.7-0.3c-0.1,0.1-0.3,0.3-0.4,0.5C41.3,447.9,42.3,448,42.8,448.4z"/>
		<path class="st13" d="M41.8,447.1c0,0.2,0.1,0.4,0.2,0.6c0.4,0.2,0.9,0.3,1.2,0.4c0.1-0.1,0.2-0.1,0.4-0.2
			c0.1-0.2,0.2-0.5,0.3-0.8c-0.3-0.2-0.7-0.3-1.1-0.3C42.4,446.8,42.1,446.8,41.8,447.1C41.8,447,41.8,447,41.8,447.1z"/>
		<path class="st20" d="M40.7,448.3C40.7,448.3,40.7,448.3,40.7,448.3c0,0.6,0.3,1.2,0.7,1.6c0.5,0,0.9-0.5,0.9-1.2
			c0-0.6-0.4-1.2-1-1.2c-0.1,0-0.3,0-0.4,0.1c0,0,0,0,0,0c0,0.1-0.1,0.1-0.1,0.2C40.8,448,40.8,448.2,40.7,448.3z"/>
	</g>
	<g>
		<circle class="st14" cx="47.3" cy="446.9" r="1.5"/>
		<path class="st17" d="M48.2,447.7c0.2-0.2,0.3-0.4,0.3-0.6c0.1-0.4,0-0.8-0.3-1.1c-0.3-0.3-0.6-0.4-0.9-0.3
			c-0.3,0-0.5,0.1-0.7,0.3c-0.1,0.1-0.1,0.1-0.2,0.2c-0.2,0.3-0.2,0.6-0.1,0.9c0,0.2,0.1,0.4,0.3,0.6c0.1,0.1,0.3,0.2,0.5,0.3
			c0.1,0,0.3,0.1,0.4,0.1c0.1,0,0.2,0,0.2,0c0,0,0,0,0,0c0,0,0.1,0,0.1,0C47.9,448,48,447.9,48.2,447.7z"/>
		<path class="st18" d="M48.4,447.9c0.6-0.6,0.6-1.5,0-2.1c-0.4-0.4-0.9-0.5-1.4-0.4c0.3,0,0.7,0.2,0.9,0.4c0.3,0.3,0.4,0.7,0.4,1.1
			c0,0.4-0.1,0.7-0.4,1c0,0,0,0,0,0c0,0,0,0-0.1,0.1c-0.2,0.2-0.4,0.3-0.7,0.4C47.6,448.4,48.1,448.2,48.4,447.9z"/>
		<path class="st19" d="M47.1,447c0.1,0,0.2-0.1,0.3-0.2c0.3-0.3,0.3-0.7,0-0.9c-0.1-0.1-0.1-0.1-0.2-0.1c-0.3,0-0.5,0.1-0.7,0.3
			c-0.1,0.1-0.1,0.1-0.2,0.2c0,0.2,0,0.4,0.2,0.6c0,0,0.1,0.1,0.1,0.1c0.1,0,0.1,0.1,0.2,0.1c0.1,0.1,0.2,0.4,0.3,0.6
			c0.1,0.2,0.1,0.3,0.2,0.4c0.1,0,0.2,0,0.4-0.1C47.5,447.8,47.1,447.4,47.1,447z"/>
		<path class="st13" d="M47,448c0.1-0.1,0.2-0.2,0.2-0.3c-0.1-0.2-0.3-0.5-0.3-0.6c-0.1,0-0.2,0-0.2-0.1c-0.2,0-0.3,0.1-0.4,0.2
			c0,0.2,0.1,0.4,0.3,0.6C46.6,447.8,46.8,447.9,47,448C46.9,448,47,448,47,448z"/>
		<path class="st20" d="M47.9,447.9C47.9,447.9,47.9,447.9,47.9,447.9c0.3-0.3,0.4-0.6,0.4-1c-0.2-0.2-0.6-0.1-0.9,0.1
			c-0.3,0.3-0.3,0.7-0.1,0.9c0.1,0.1,0.1,0.1,0.2,0.1c0,0,0,0,0,0c0,0,0.1,0,0.1,0C47.8,448,47.8,447.9,47.9,447.9z"/>
	</g>
	<path class="st21" d="M19.8,452.5c0.4,0.2,0.7,0.3,1.1,0.5c0,0,0.1,0,0.1,0.1l6.5-2.8l1.5-2.7h4.4l17-3.6l0-0.9l-17.9,3.8h-4.4
		l-1.6,2.7L19.8,452.5z"/>
	<polygon class="st8" points="-60.8,456 -55.8,470.1 -55.1,469.3 -60,455.6 	"/>
	<polygon class="st8" points="27.1,456 22.1,470.1 21.4,469.3 26.2,455.6 	"/>
	<g>
		<linearGradient id="SVGID_1_" gradientUnits="userSpaceOnUse" x1="-17.056" y1="418.4721" x2="-16.2464" y2="446.809">
			<stop  offset="0.1935" style="stop-color:#60A6CD"/>
			<stop  offset="1" style="stop-color:#B0C5DA"/>
		</linearGradient>
		<path class="st22" d="M-17.3,460.9l-22.3-0.9c-3.4-0.1-6.5-2.1-8-5.2L-54,440c-1-2.1-2.7-3.8-4.8-4.8l-24.7-12l0.1-3.4
			c1.4,0.6,3.1,1.1,5,1.5l0.6,0.2l0,0c0.4,0.1,0.7,0.2,1.1,0.2c0.7,0.2,1.5,0.3,2.3,0.4c2.8,0.5,5.8,0.9,8.9,1.1
			c5,0.4,10.7,0.7,17.1,0.7h63.4c6.3,0,12-0.2,17-0.7c2.2-0.2,4.2-0.4,6.2-0.7c4.7-0.7,8.6-1.6,11.5-2.8l0.1,3.4l-24.7,12
			c-2.1,1-3.8,2.7-4.8,4.7l-6.4,14.9c-1.5,3.1-4.6,5.1-8,5.2l-22.3,0.9c-0.1,0-0.3,0-0.4,0C-17.1,461-17.2,461-17.3,460.9z"/>
		<path class="st23" d="M-83,420.6c1.2,0.4,2.5,0.8,4,1.2l0,0l0.4,0.1c0.1,0,0.2,0,0.3,0.1l0.5,0.1l0,0c0.3,0.1,0.5,0.1,0.8,0.2
			c0.8,0.2,1.6,0.3,2.3,0.4c2.8,0.5,5.8,0.9,8.9,1.2c5,0.4,10.8,0.7,17.1,0.7h63.4c6.3,0,12-0.2,17-0.7c2.2-0.2,4.3-0.4,6.2-0.7
			c4.4-0.6,8.1-1.5,11-2.6l0,2.3l-24.4,11.8c-2.2,1.1-4,2.8-5,5l0,0l0,0l-6.4,14.8c-1.4,2.9-4.4,4.8-7.6,4.9l-22.3,0.9
			c-0.1,0-0.3,0-0.4,0c-0.1,0-0.3,0-0.4,0l-22.3-0.9c-3.2-0.1-6.1-2-7.6-4.9l-6.4-14.8l0,0l0,0c-1.1-2.2-2.9-3.9-5-5L-83,422.9
			L-83,420.6 M-83.9,419.1L-83.9,419.1l-0.1,4.4l25,12.1c2,1,3.6,2.5,4.6,4.5l6.4,14.8c1.6,3.2,4.8,5.3,8.5,5.5l22.3,0.9
			c0.1,0,0.3,0,0.4,0s0.3,0,0.4,0l22.3-0.9c3.6-0.2,6.9-2.3,8.5-5.5l6.4-14.8c1-2,2.6-3.6,4.6-4.5l25-12.1l-0.1-4.4v0
			c-2.7,1.2-6.6,2.2-12.1,3c-1.8,0.3-3.9,0.5-6.1,0.7c-4.7,0.4-10.3,0.7-16.9,0.7h-63.4c-6.7,0-12.3-0.3-17-0.7
			c-3.4-0.3-6.3-0.7-8.8-1.1c-0.8-0.1-1.5-0.3-2.3-0.4c-0.5-0.1-0.9-0.2-1.3-0.3c0,0,0,0,0,0s0,0,0,0
			C-80.4,420.4-82.4,419.8-83.9,419.1L-83.9,419.1L-83.9,419.1z"/>
	</g>
	<g>
		<linearGradient id="SVGID_2_" gradientUnits="userSpaceOnUse" x1="-16.7182" y1="411.8418" x2="-17.0515" y2="430.3418">
			<stop  offset="0.6774" style="stop-color:#B0C5DA"/>
			<stop  offset="1" style="stop-color:#76AFD1;stop-opacity:0.1667"/>
		</linearGradient>
		<path class="st24" d="M50.1,424.5l-15.6,7.5c-0.9,0.1-1.8,0.2-2.7,0.3c-4.7,0.4-10.3,0.7-16.9,0.7h-63.5c-6.7,0-12.3-0.3-17-0.7
			c-1-0.1-2-0.2-2.9-0.3l-15.6-7.5l0.1-4.5h0v0c1.5,0.7,3.5,1.3,5.9,1.9c0,0,0,0,0,0c0.4,0.1,0.9,0.2,1.3,0.3
			c0.7,0.1,1.5,0.3,2.3,0.4c2.5,0.4,5.4,0.8,8.8,1.1c4.7,0.4,10.3,0.7,17,0.7h63.5c6.6,0,12.2-0.3,16.9-0.7c2.2-0.2,4.3-0.4,6.1-0.7
			c5.5-0.8,9.4-1.9,12.1-3v0L50.1,424.5z"/>
	</g>
	<path class="st2" d="M-52.9,423.5l-5.9,5.5l-0.5,0.5l-1.1,1l-1.2,1.1l-2,1.9l-20.6-10l0.1-4.5h0v0c0.1,0,0.2,0.1,0.2,0.1
		c0,0,0,0,0,0c1.5,0.6,3.4,1.2,5.6,1.8c0,0,0,0,0,0c0.4,0.1,0.9,0.2,1.3,0.3c0.7,0.2,1.5,0.3,2.3,0.4c2.5,0.4,5.4,0.8,8.8,1.1
		C-61.9,423.2-57.7,423.4-52.9,423.5z"/>
	<path class="st9" d="M-81.1,423.2c0,0,13.4,6.7,19.4,8.7l-1.7,1.6l-20.6-10l0-1.7L-81.1,423.2z"/>
	<path class="st9" d="M-52.9,423.5c0,0-2.7,2.5-2.7,2.5c-0.9,0.3-1.9-0.1-2.8-0.2c-1.3-0.1-2.6-0.2-3.9-0.2
		c-6.2-0.5-12.8-0.8-18.5-3.5c-1.1-0.5-2.3-1-3-2c-0.1,0-0.2,0.1-0.2,0.2c0,0,0-1.2,0-1.2c0.1,0,0.2,0.1,0.2,0.1c0,0,0,0,0,0
		c1.5,0.6,3.4,1.2,5.7,1.8c0.4,0.1,0.9,0.2,1.3,0.3c0.7,0.2,1.5,0.3,2.3,0.4c2.5,0.4,5.4,0.8,8.8,1.1
		C-61.9,423.2-57.7,423.4-52.9,423.5z"/>
	<path class="st25" d="M28.3,446.9H-62l1.6,2.7l6.8,2.9c2.2-1,4.6-1.5,7-1.5h59.5c2.4,0,4.8,0.5,7,1.5l6.8-2.9L28.3,446.9z"/>
	<path class="st12" d="M28.3,446.9l-1.6,2.7l-6.8,2.9c-2.2-1-4.6-1.5-7-1.5h-59.5c-2.4,0-4.8,0.5-7,1.5l-6.8-2.9l-1.6-2.7h0.6l1,1.7
		l6.8,2.9c2.2-1,4.6-1.5,7-1.5h59.5c2.4,0,4.8,0.5,7,1.5l6.8-2.9l1-1.7H28.3z"/>
	<polygon class="st26" points="28.3,446.9 27.4,448.5 -61,448.5 -62,446.9 	"/>
	<g>
		<path class="st27" d="M15.5,451.2c-0.1,0-0.3,0-0.4,0l-0.8,1.9c-1.6,3.2-4.8,5.4-8.5,5.5l-22.3,0.9c-0.3,0-0.6,0-0.8,0l-22.3-0.9
			c-3.6-0.2-6.9-2.3-8.5-5.5l-0.8-1.9h0c-0.3,0-0.5,0.1-0.8,0.1h0l1.6,3.7c1.6,3.2,4.8,5.3,8.5,5.5l22.3,0.9c0.3,0,0.6,0,0.8,0
			l22.3-0.9c3.6-0.2,6.9-2.3,8.5-5.5l1.6-3.7C15.7,451.2,15.6,451.2,15.5,451.2z"/>
	</g>
	<g>
		<path class="st7" d="M-39.7,458.6l22.3,0.9c0.3,0,0.6,0,0.8,0l22.3-0.9c3.6-0.2,6.9-2.3,8.5-5.5l0.8-1.9c-0.1,0-0.1,0-0.2,0
			c-0.2,0-0.5-0.1-0.7-0.1c-0.2,0-0.3,0-0.5,0c-0.3,0-0.5,0-0.8,0h-59.5c-0.3,0-0.5,0-0.8,0c-0.3,0-0.5,0-0.7,0h0
			c-0.3,0-0.5,0-0.8,0.1l0.8,1.9C-46.5,456.3-43.3,458.4-39.7,458.6z"/>
	</g>
	<path class="st8" d="M-59.2,429.5l-11.1-2.9l10.1,3.9l-1.2,1.1c-5.7-2.6-16.5-7.7-17.4-8.1l20.1,5.5L-59.2,429.5z"/>
	<path class="st28" d="M-65.6,460.4c0,0-11.8-3-11.8-3c-1.1-0.3-2.9-0.2-3.6,0.8c-0.4,0.5-0.4,1.2-0.3,1.8c0.8,4,5.4,4.2,8.7,4.8
		c0.5,0.1,1,0.3,1.5,0.3c-1.4-0.7-3.1-0.7-4.3-1.7c-1.2-0.9-2.3-1.8-2.1-3.4c0.1-0.6,0.4-1.1,1-1.2c0.3-0.1,0.7,0,1,0.1
		c2.9,0.7,5.8,1,8.8,1.5C-66.3,460.3-65.9,460.3-65.6,460.4z"/>
	<g>
		<circle class="st14" cx="-78.8" cy="459.9" r="2.5"/>
		<path class="st17" d="M-78.8,461.9c-0.4,0-0.8-0.1-1.1-0.3c-0.6-0.4-0.9-1-0.9-1.7c0-0.6,0.3-1.2,0.7-1.5c0.3-0.3,0.8-0.5,1.3-0.5
			c0.2,0,0.3,0,0.5,0.1c0.5,0.1,0.9,0.4,1.2,0.9c0.2,0.3,0.3,0.7,0.3,1.1c0,0.3-0.1,0.6-0.2,0.9c-0.1,0.2-0.2,0.4-0.4,0.5
			c-0.1,0.1-0.2,0.2-0.3,0.3c0,0,0,0,0,0c-0.1,0-0.1,0.1-0.2,0.1C-78.1,461.8-78.5,461.9-78.8,461.9z"/>
		<path class="st18" d="M-78.8,462.4c-1.4,0-2.5-1.1-2.5-2.5c0-0.9,0.5-1.7,1.2-2.2c-0.4,0.4-0.6,1-0.6,1.6c0,0.7,0.3,1.3,0.8,1.8
			c0.4,0.4,1,0.7,1.6,0.7c0,0,0,0,0,0c0,0,0.1,0,0.1,0c0.5,0,0.9-0.1,1.3-0.4C-77.4,462.1-78,462.4-78.8,462.4z"/>
		<path class="st19" d="M-78.4,459.7c-0.2,0.1-0.4,0.1-0.6,0.1c-0.7,0-1.2-0.5-1.2-1.1c0-0.2,0-0.3,0.1-0.4c0.3-0.3,0.8-0.5,1.3-0.5
			c0.2,0,0.3,0,0.5,0.1c0.3,0.2,0.5,0.5,0.5,0.9c0,0.1,0,0.2,0,0.2c0,0.1-0.1,0.3-0.2,0.4c0.1,0.3,0.2,0.8,0.4,1.2
			c0.1,0.3,0.2,0.6,0.3,0.7c-0.1,0.1-0.3,0.3-0.5,0.4C-77.9,461.3-78,460.2-78.4,459.7z"/>
		<path class="st13" d="M-77,460.8c-0.2,0-0.4-0.1-0.6-0.2c-0.2-0.4-0.3-0.9-0.4-1.2c0.1-0.1,0.1-0.2,0.2-0.4
			c0.2-0.1,0.5-0.2,0.8-0.3c0.2,0.3,0.3,0.7,0.3,1.1C-76.8,460.2-76.8,460.5-77,460.8C-77,460.8-77,460.8-77,460.8z"/>
		<path class="st20" d="M-78.3,461.8C-78.3,461.8-78.3,461.8-78.3,461.8c-0.7,0-1.2-0.3-1.7-0.7c0-0.5,0.6-0.9,1.2-0.9
			c0.7,0,1.2,0.4,1.2,1c0,0.1,0,0.3-0.1,0.4c0,0,0,0,0,0c-0.1,0-0.1,0.1-0.2,0.1C-78,461.7-78.1,461.8-78.3,461.8z"/>
	</g>
	<circle id="XMLID_4_" class="st28" cx="-73.5" cy="461.8" r="1.7"/>
	<circle id="XMLID_5_" class="st29" cx="-73.9" cy="461.6" r="1.7"/>
	<path class="st2" d="M19,423.5l5.9,5.5l0.5,0.5l1.1,1l1.2,1.1l2,1.9l20.6-10l-0.1-4.5h0v0c-0.1,0-0.2,0.1-0.2,0.1c0,0,0,0,0,0
		c-1.5,0.6-3.4,1.2-5.6,1.8c0,0,0,0,0,0c-0.4,0.1-0.9,0.2-1.3,0.3c-0.7,0.2-1.5,0.3-2.3,0.4c-2.5,0.4-5.4,0.8-8.8,1.1
		C28.1,423.2,23.9,423.4,19,423.5z"/>
	<path class="st9" d="M47.3,423.2c0,0-13.4,6.7-19.4,8.7l1.7,1.6l20.6-10l0-1.7L47.3,423.2z"/>
	<path class="st9" d="M19,423.5c0,0,2.7,2.5,2.7,2.5c0.9,0.3,1.9-0.1,2.8-0.2c1.3-0.1,2.6-0.2,3.9-0.2c6.2-0.5,12.8-0.8,18.5-3.5
		c1.1-0.5,2.3-1,3-2c0.1,0,0.2,0.1,0.2,0.2c0,0,0-1.2,0-1.2c-0.1,0-0.2,0.1-0.2,0.1c0,0,0,0,0,0c-1.5,0.6-3.4,1.2-5.7,1.8
		c-0.4,0.1-0.9,0.2-1.3,0.3c-0.7,0.2-1.5,0.3-2.3,0.4c-2.5,0.4-5.4,0.8-8.8,1.1C28.1,423.2,23.9,423.4,19,423.5z"/>
	<path class="st8" d="M25.4,429.5l11.1-2.9l-10.1,3.9l1.2,1.1c5.7-2.6,16.5-7.7,17.4-8.1L24.9,429L25.4,429.5z"/>
	<path class="st28" d="M31.8,460.4c0,0,11.8-3,11.8-3c1.1-0.3,2.9-0.2,3.6,0.8c0.4,0.5,0.4,1.2,0.3,1.8c-0.8,4-5.4,4.2-8.7,4.8
		c-0.5,0.1-1,0.3-1.5,0.3c1.4-0.7,3.1-0.7,4.3-1.7c1.2-0.9,2.3-1.8,2.1-3.4c-0.1-0.6-0.4-1.1-1-1.2c-0.3-0.1-0.7,0-1,0.1
		c-2.9,0.7-5.8,1-8.8,1.5C32.5,460.3,32.1,460.3,31.8,460.4z"/>
	<g>
		<circle class="st14" cx="45" cy="459.9" r="2.5"/>
		<path class="st17" d="M45,461.9c0.4,0,0.8-0.1,1.1-0.3c0.6-0.4,0.9-1,0.9-1.7c0-0.6-0.3-1.2-0.7-1.5c-0.3-0.3-0.8-0.5-1.3-0.5
			c-0.2,0-0.3,0-0.5,0.1c-0.5,0.1-0.9,0.4-1.2,0.9c-0.2,0.3-0.3,0.7-0.3,1.1c0,0.3,0.1,0.6,0.2,0.9c0.1,0.2,0.2,0.4,0.4,0.5
			c0.1,0.1,0.2,0.2,0.3,0.3c0,0,0,0,0,0c0.1,0,0.1,0.1,0.2,0.1C44.3,461.8,44.6,461.9,45,461.9z"/>
		<path class="st18" d="M45,462.4c1.4,0,2.5-1.1,2.5-2.5c0-0.9-0.5-1.7-1.2-2.2c0.4,0.4,0.6,1,0.6,1.6c0,0.7-0.3,1.3-0.8,1.8
			c-0.4,0.4-1,0.7-1.6,0.7c0,0,0,0,0,0c0,0-0.1,0-0.1,0c-0.5,0-0.9-0.1-1.3-0.4C43.5,462.1,44.2,462.4,45,462.4z"/>
		<path class="st19" d="M44.6,459.7c0.2,0.1,0.4,0.1,0.6,0.1c0.7,0,1.2-0.5,1.2-1.1c0-0.2,0-0.3-0.1-0.4c-0.3-0.3-0.8-0.5-1.3-0.5
			c-0.2,0-0.3,0-0.5,0.1c-0.3,0.2-0.5,0.5-0.5,0.9c0,0.1,0,0.2,0,0.2c0,0.1,0.1,0.3,0.2,0.4c-0.1,0.3-0.2,0.8-0.4,1.2
			c-0.1,0.3-0.2,0.6-0.3,0.7c0.1,0.1,0.3,0.3,0.5,0.4C44.1,461.3,44.2,460.2,44.6,459.7z"/>
		<path class="st13" d="M43.2,460.8c0.2,0,0.4-0.1,0.6-0.2c0.2-0.4,0.3-0.9,0.4-1.2c-0.1-0.1-0.1-0.2-0.2-0.4
			c-0.2-0.1-0.5-0.2-0.8-0.3c-0.2,0.3-0.3,0.7-0.3,1.1C42.9,460.2,43,460.5,43.2,460.8C43.2,460.8,43.2,460.8,43.2,460.8z"/>
		<path class="st20" d="M44.5,461.8C44.5,461.8,44.5,461.8,44.5,461.8c0.7,0,1.2-0.3,1.7-0.7c0-0.5-0.6-0.9-1.2-0.9
			c-0.7,0-1.2,0.4-1.2,1c0,0.1,0,0.3,0.1,0.4c0,0,0,0,0,0c0.1,0,0.1,0.1,0.2,0.1C44.2,461.7,44.3,461.8,44.5,461.8z"/>
	</g>
	<circle id="XMLID_12_" class="st28" cx="39.6" cy="461.8" r="1.7"/>
	<circle id="XMLID_11_" class="st29" cx="40.1" cy="461.6" r="1.7"/>
	<path class="st30" d="M3,468.5v0.4h-39.8v-0.4c0-2.6,2.1-4.8,4.8-4.8h30.3C0.9,463.8,3,465.9,3,468.5z"/>
	<path class="st31" d="M-13.7,310.5H-20c-1,0-11.9,0.8-11.9,1.9l0,0h30l0,0C-1.8,311.4-12.7,310.5-13.7,310.5z"/>
	<g id="XMLID_211_">
		<path id="XMLID_250_" class="st32" d="M-29,467.2l0.8-1.9h1.2v0.1h-0.1c-0.1,0-0.2,0-0.2,0c0,0-0.1,0.1-0.1,0.1c0,0,0,0.1,0,0.3
			v1.9c0,0.1,0,0.2,0,0.3c0,0,0,0.1,0.1,0.1c0,0,0.1,0,0.2,0h0.1v0.1h-1.5v-0.1h0.1c0.1,0,0.2,0,0.2,0c0,0,0.1-0.1,0.1-0.1
			c0,0,0-0.1,0-0.3v-2.1l-1.1,2.6h-0.1l-1.1-2.6v2c0,0.1,0,0.2,0,0.3c0,0.1,0.1,0.1,0.1,0.2c0.1,0,0.2,0.1,0.3,0.1v0.1h-1v-0.1h0
			c0.1,0,0.1,0,0.2,0c0.1,0,0.1-0.1,0.1-0.1c0,0,0-0.1,0.1-0.2c0,0,0-0.1,0-0.2v-1.8c0-0.1,0-0.2,0-0.3s0-0.1-0.1-0.1
			c0,0-0.1,0-0.2,0H-31v-0.1h1.2L-29,467.2z"/>
		<path id="XMLID_248_" class="st32" d="M-25.8,466.8v0.9c0,0.1,0,0.2,0,0.3c0,0,0,0.1,0.1,0.1c0,0,0.1,0,0.2,0h0.1v0.1h-1.5v-0.1
			h0.1c0.1,0,0.1,0,0.2,0c0,0,0.1-0.1,0.1-0.1c0,0,0-0.1,0-0.3v-1.9c0-0.1,0-0.2,0-0.3c0,0,0-0.1-0.1-0.1c0,0-0.1,0-0.2,0h-0.1v-0.1
			h1.5v0.1h-0.1c-0.1,0-0.1,0-0.2,0c0,0-0.1,0.1-0.1,0.1c0,0,0,0.1,0,0.3v0.8h1v-0.8c0-0.1,0-0.2,0-0.3c0,0,0-0.1-0.1-0.1
			c0,0-0.1,0-0.2,0h-0.1v-0.1h1.5v0.1h-0.1c-0.1,0-0.2,0-0.2,0c0,0-0.1,0.1-0.1,0.1c0,0,0,0.1,0,0.3v1.9c0,0.1,0,0.2,0,0.3
			c0,0,0,0.1,0.1,0.1c0,0,0.1,0,0.2,0h0.1v0.1h-1.5v-0.1h0.1c0.1,0,0.2,0,0.2,0c0,0,0.1-0.1,0.1-0.1c0,0,0-0.1,0-0.3v-0.9H-25.8z"/>
		<path id="XMLID_246_" class="st32" d="M-22.3,467.4h-1.2V467h1.2V467.4z"/>
		<path id="XMLID_237_" class="st32" d="M-20.2,466.8c0,0.3,0,0.6-0.1,0.8c0,0.2-0.1,0.3-0.2,0.4s-0.2,0.2-0.3,0.2s-0.2,0.1-0.3,0.1
			c-0.1,0-0.3,0-0.4-0.1c-0.1-0.1-0.2-0.2-0.3-0.3c-0.1-0.1-0.1-0.2-0.2-0.4c-0.1-0.2-0.1-0.4-0.1-0.7c0-0.3,0-0.6,0.1-0.9
			c0.1-0.2,0.2-0.4,0.3-0.5c0.1-0.1,0.3-0.2,0.5-0.2c0.2,0,0.3,0.1,0.5,0.2c0.1,0.1,0.3,0.3,0.3,0.5
			C-20.2,466.2-20.2,466.4-20.2,466.8z M-20.8,466.7c0-0.5,0-0.8,0-0.9c0-0.2,0-0.3-0.1-0.4c0,0-0.1-0.1-0.2-0.1
			c-0.1,0-0.1,0-0.1,0.1c-0.1,0-0.1,0.1-0.1,0.3c0,0.1,0,0.6,0,1.3c0,0.4,0,0.7,0,0.8c0,0.1,0.1,0.2,0.1,0.2c0,0,0.1,0.1,0.2,0.1
			c0.1,0,0.1,0,0.2-0.1c0.1-0.1,0.1-0.2,0.1-0.4L-20.8,466.7z"/>
		<path id="XMLID_234_" class="st32" d="M-19.2,468.2l0.8-2.4h-0.6c-0.2,0-0.4,0-0.5,0.1c-0.1,0-0.1,0.1-0.2,0.2h-0.1l0.2-0.9h1.7
			l-1,2.9H-19.2z"/>
		<path id="XMLID_232_" class="st32" d="M-14.4,465.3L-14.4,465.3c-0.1,0.1-0.2,0.1-0.2,0.2c-0.1,0.1-0.2,0.2-0.3,0.5l-0.6,1v0.7
			c0,0.1,0,0.2,0,0.3s0,0.1,0.1,0.1c0,0,0.1,0,0.2,0h0.2v0.1h-1.6v-0.1h0.1c0.1,0,0.2,0,0.2,0c0,0,0.1-0.1,0.1-0.1c0,0,0-0.1,0-0.3
			v-0.6l-0.7-1.2c-0.1-0.2-0.2-0.4-0.3-0.4c-0.1,0-0.1-0.1-0.2-0.1v-0.1h1.4v0.1h-0.1c-0.1,0-0.1,0-0.2,0c0,0,0,0,0,0.1
			c0,0.1,0.1,0.2,0.2,0.4l0.5,0.9l0.5-0.9c0.1-0.2,0.2-0.4,0.2-0.4c0,0,0-0.1-0.1-0.1c0,0-0.1-0.1-0.3-0.1v-0.1H-14.4z"/>
		<path id="XMLID_229_" class="st32" d="M-13.2,466.9v0.8c0,0.2,0,0.3,0,0.3c0,0,0.1,0.1,0.1,0.1c0,0,0.1,0,0.3,0v0.1h-1.5v-0.1
			c0.1,0,0.2,0,0.3,0c0,0,0.1-0.1,0.1-0.1c0,0,0-0.1,0-0.3v-1.9c0-0.2,0-0.3,0-0.3c0,0-0.1-0.1-0.1-0.1c0,0-0.1,0-0.3,0v-0.1h1.3
			c0.3,0,0.6,0,0.8,0.1c0.2,0,0.3,0.1,0.4,0.3c0.1,0.1,0.2,0.3,0.2,0.5c0,0.2-0.1,0.4-0.2,0.5c-0.1,0.1-0.2,0.2-0.4,0.2l0.7,1
			c0.1,0.1,0.2,0.2,0.2,0.2c0.1,0,0.1,0.1,0.2,0.1v0.1h-0.9l-0.9-1.3H-13.2z M-13.2,465.5v1.3h0.1c0.2,0,0.3,0,0.4-0.1
			c0.1,0,0.2-0.1,0.2-0.2c0.1-0.1,0.1-0.2,0.1-0.4c0-0.2-0.1-0.4-0.2-0.5c-0.1-0.1-0.3-0.2-0.5-0.2H-13.2z"/>
		<path id="XMLID_227_" class="st32" d="M-9.8,465.3v2.3c0,0.2,0,0.3,0,0.3s0,0.1,0.1,0.1c0,0,0.1,0,0.2,0h0.1v0.1h-1.5v-0.1h0.1
			c0.1,0,0.2,0,0.3,0s0.1-0.1,0.1-0.1s0-0.2,0-0.3v-1.5c0-0.1,0-0.2,0-0.2c0,0,0-0.1-0.1-0.1c0,0-0.1,0-0.1,0c-0.1,0-0.2,0-0.3,0.1
			l0-0.1L-9.8,465.3L-9.8,465.3z"/>
		<path id="XMLID_222_" class="st32" d="M-8.4,466.7L-8.4,466.7c0.2-0.1,0.3-0.2,0.3-0.2s0.1-0.1,0.2-0.2c0-0.1,0.1-0.2,0.1-0.3
			c0-0.1,0-0.2-0.1-0.3c-0.1-0.1-0.2-0.1-0.3-0.1c-0.2,0-0.4,0.1-0.5,0.3l-0.1,0c0.1-0.2,0.2-0.4,0.4-0.5c0.2-0.1,0.3-0.2,0.5-0.2
			c0.2,0,0.4,0.1,0.5,0.2c0.1,0.1,0.2,0.3,0.2,0.4c0,0.1,0,0.2-0.1,0.3c-0.1,0.1-0.2,0.2-0.3,0.3c0.2,0.1,0.3,0.2,0.4,0.3
			c0.1,0.1,0.1,0.3,0.1,0.4c0,0.3-0.1,0.6-0.3,0.8s-0.5,0.3-0.9,0.3c-0.2,0-0.4,0-0.5-0.1C-9,468.1-9,468-9,467.9
			c0-0.1,0-0.1,0.1-0.2c0,0,0.1-0.1,0.2-0.1c0,0,0.1,0,0.1,0c0,0,0.1,0.1,0.2,0.2c0.1,0.1,0.3,0.2,0.4,0.2c0.1,0,0.2,0,0.3-0.1
			c0.1-0.1,0.1-0.2,0.1-0.3c0-0.2-0.1-0.4-0.2-0.5C-8,466.9-8.2,466.8-8.4,466.7z"/>
		<path id="XMLID_220_" class="st32" d="M-6.3,465.3h1.3l-0.2,0.5h-1.1l-0.1,0.3c0.5,0,0.9,0.1,1.1,0.4c0.2,0.2,0.3,0.4,0.3,0.7
			c0,0.2,0,0.3-0.1,0.5c-0.1,0.2-0.2,0.3-0.4,0.4c-0.2,0.1-0.4,0.1-0.6,0.1c-0.2,0-0.4,0-0.5-0.1c-0.1-0.1-0.1-0.1-0.1-0.2
			c0-0.1,0-0.1,0.1-0.2c0,0,0.1-0.1,0.2-0.1c0.1,0,0.1,0,0.2,0c0.1,0,0.2,0.1,0.3,0.2c0.1,0.1,0.2,0.1,0.2,0.1c0,0,0.1,0,0.1,0
			c0.1,0,0.2,0,0.3-0.1c0.1-0.1,0.1-0.2,0.1-0.3c0-0.2-0.1-0.4-0.4-0.6s-0.6-0.2-0.9-0.2c0,0-0.1,0-0.2,0L-6.3,465.3z"/>
		<path id="XMLID_218_" class="st32" d="M-4,468.2l0.8-2.4h-0.6c-0.2,0-0.4,0-0.5,0.1c-0.1,0-0.1,0.1-0.2,0.2h-0.1l0.2-0.9h1.7
			l-1,2.9H-4z"/>
	</g>
	<rect x="49" y="335.4" class="st32" width="5.7" height="9.4"/>
	<path class="st33" d="M60.9,341v15.6h-6.2v-21.2h1.7C58.9,335.4,60.9,337.9,60.9,341z"/>
	<path class="st34" d="M59.7,344.6v12h-5V339h0.5C57.7,339,59.7,341.5,59.7,344.6z"/>
	<path class="st34" d="M54.7,335.4c0,0-1.9,4-1.8,6.3l0.9,12.5l0.9-4.1V335.4z"/>
	<g>
		<path class="st35" d="M64.8,354.8l-1,20.3c0,0.1,0,0.2,0,0.4l-2.7-1.9l0.8-17.2c0.1-1.6-0.9-2.5-2.2-2.7l-6.9-2.2
			c0.4-0.9,1.3-1.5,2.3-1.4l7.4,1.9C63.8,352,64.9,353.3,64.8,354.8z"/>
		<path class="st35" d="M61.9,356.4l-0.8,17.2l-6.1,2.9l-1.8,4c-0.9-0.4-1.6-1.5-1.5-2.7l0.9-25.2c0-0.4,0.1-0.7,0.3-1.1l6.9,2.2
			C61,353.8,62,354.8,61.9,356.4z"/>
		<path class="st35" d="M63.8,375.5c-0.2,1.2-1.1,2-2.1,2.1l-0.8,0.3l-6.5,2.7c-0.4,0-0.8,0-1.2-0.2l1.8-4l6.1-2.9L63.8,375.5z"/>
	</g>
	<polygon class="st32" points="-88.7,344.8 -83,344.8 -82.8,335.4 -88.7,335.4 	"/>
	<path class="st33" d="M-94.9,341v15.6h6.2v-21.2h-1.7C-92.9,335.4-94.9,337.9-94.9,341z"/>
	<path class="st34" d="M-93.7,344.6v12h5V339h-0.5C-91.7,339-93.7,341.5-93.7,344.6z"/>
	<path class="st34" d="M-88.7,335.4c0,0,1.9,4,1.8,6.3l-0.9,12.5l-0.9-4.1V335.4z"/>
	<g>
		<path class="st35" d="M-98.8,354.8l1,20.3c0,0.1,0,0.2,0,0.4l2.7-1.9l-0.8-17.2c-0.1-1.6,0.9-2.5,2.2-2.7l6.9-2.2
			c-0.4-0.9-1.3-1.5-2.3-1.4l-7.4,1.9C-97.8,352-98.9,353.3-98.8,354.8z"/>
		<path class="st35" d="M-95.9,356.4l0.8,17.2l6.1,2.9l1.8,4c0.9-0.4,1.6-1.5,1.5-2.7l-0.9-25.2c0-0.4-0.1-0.7-0.3-1.1l-6.9,2.2
			C-95,353.8-96,354.8-95.9,356.4z"/>
		<path class="st35" d="M-97.8,375.5c0.2,1.2,1.1,2,2.1,2.1l0.8,0.3l6.5,2.7c0.4,0,0.8,0,1.2-0.2l-1.8-4l-6.1-2.9L-97.8,375.5z"/>
	</g>
	<circle class="st36" cx="-27.9" cy="441.8" r="2.3"/>
	<polygon class="st36" points="-18.9,439.5 -21.2,444.1 -16.6,444.1 	"/>
	<polygon class="st36" points="-6,439.5 -8.4,444.1 -3.7,444.1 	"/>
	<rect x="-16.4" y="440" class="st36" width="4.9" height="4.1"/>
	<rect x="-11" y="440" class="st36" width="2.3" height="4.1"/>
	<g>
		<path class="st36" d="M-21.1,440.5c-0.4-0.6-1.1-1-1.9-1c-1.3,0-2.3,1-2.3,2.3c0,1.3,1,2.3,2.3,2.3c0.8,0,1.5-0.4,1.9-1l-1.9-1.3
			L-21.1,440.5z"/>
		<polygon class="st36" points="-21.1,440.5 -21.1,440.5 -21.1,440.5 		"/>
		<polygon class="st36" points="-21.1,443.1 -21.1,443.1 -21.1,443.1 		"/>
	</g>
	<g>
		<path class="st8" d="M34.7,320.7h-8l0,0c0-1,0.8-1.8,1.7-1.8h4.5C33.9,319,34.7,319.8,34.7,320.7L34.7,320.7z"/>
		<circle class="st36" cx="31.7" cy="319.9" r="0.8"/>
		<circle class="st36" cx="29.7" cy="319.9" r="0.8"/>
	</g>
	<g>
		<path class="st8" d="M-58.6,320.7h-8l0,0c0-1,0.8-1.8,1.8-1.8h4.5C-59.4,319-58.6,319.8-58.6,320.7L-58.6,320.7z"/>
		<circle class="st36" cx="-61.6" cy="319.9" r="0.8"/>
		<circle class="st36" cx="-63.6" cy="319.9" r="0.8"/>
	</g>
	<path class="st37" d="M42.9,339.8c-0.5-5.8-6.6-9.5-11.3-11.8h-72.8c-10,0-24.5-3.1-31.9,5.8c-2.7,3.3-3.6,7.8-3.7,12
		c-0.1,5.9,0.1,12,0.3,17.9c0.1,4.7-0.2,9.2,4.2,11.9c5.5,3.4,12.6,5.1,17.1,9.9c4.5,4.7,5.7,12.1,8.2,17.9c0.1,0.2,0.1,0.3,0.2,0.5
		c2.5,0.2,4.9,0.4,7.4,0.4H5.5c2.7-0.1,5.4-0.3,8.1-0.5c2-4.8,2.8-9.9,5.3-14.4c2.7-4.8,7.7-7.9,12.5-10.3
		c5.5-2.7,10.4-3.3,11.4-10.4C44.1,359.1,43.7,349.4,42.9,339.8z"/>
	<path class="st38" d="M-39.3,404.6c-2.5-0.1-4.9-0.3-7.4-0.4c3.1,6.8,9.4,12,16.7,13.9c13.6,3.6,33.8,3,41.9-10.3
		c0.7-1.2,1.3-2.4,1.8-3.6c-2.7,0.2-5.4,0.4-8.1,0.5H-39.3z"/>
	<path id="XMLID_252_" class="st39" d="M-52.5,327.4h81.9c3.9,0,7,3.2,7,7v3.1c0,5-5,8.4-9.6,6.5l-14.4-5.7c-1.3-0.5-2.7-0.6-4-0.3
		l-18.9,4c-2,0.4-4,0-5.6-1.2C-21.8,336.8-36.4,327.4-52.5,327.4z"/>
	<path class="st40" d="M-46.5,404.1c-1.4-0.1-2.8-0.2-4.1-0.3c-2.6-0.2-5.2-0.3-7.8-0.4l-10-0.9v-25c4.7,2.3,9.8,4.1,13.4,7.9
		c4.5,4.7,5.7,12.1,8.2,17.9c0.1,0.1,0.1,0.3,0.2,0.5C-46.6,403.9-46.6,404-46.5,404.1z"/>
	<path class="st41" d="M-68.4,371c0,1,0-29.8,0-29.8s0.7-9.4,12.5-10.3h11.5C-44.5,330.9-68.4,355.7-68.4,371z"/>
</g>
</svg>
