<?xml version="1.0" encoding="utf-8"?>
<!-- Generator: Adobe Illustrator 19.0.0, SVG Export Plug-In . SVG Version: 6.00 Build 0)  -->
<svg version="1.1" id="Layer_1" xmlns="http://www.w3.org/2000/svg" xmlns:xlink="http://www.w3.org/1999/xlink" x="0px" y="0px"
	 viewBox="0 0 288 288" style="enable-background:new 0 0 288 288;" xml:space="preserve">
<style type="text/css">
	.st0{fill:#3BAF6B;}
	.st1{fill:#E4E7E9;}
	.st2{fill:#E7E7E7;}
	.st3{fill:#393E3E;}
	.st4{fill:#498964;}
	.st5{fill:#28A1D5;}
	.st6{fill:#025486;}
	.st7{fill:#232323;}
	.st8{fill:#171717;}
	.st9{fill:#303433;}
	.st10{fill:#212323;}
	.st11{fill:none;stroke:#272828;stroke-miterlimit:10;}
	.st12{fill:#DDDDDC;}
	.st13{fill:#EDEDEF;}
	.st14{fill:#054163;}
	.st15{fill:#F4F3F2;}
	.st16{fill:#D5C49F;}
	.st17{fill:#EEDDB8;}
	.st18{fill:#1C3024;}
	.st19{fill:#194A2C;}
	.st20{fill:#C19F6D;}
	.st21{fill:#615444;}
	.st22{fill:#A67C47;}
	.st23{fill:#615444;stroke:#DBCDAD;stroke-width:0.5;stroke-miterlimit:10;}
	.st24{fill:#1B1D1D;}
	.st25{fill:#DBB189;}
	.st26{fill:#1E1E1E;}
	.st27{fill:#383938;}
	.st28{fill:#5A5C5C;}
	.st29{fill:#FAAF42;}
	.st30{fill:#F8C040;}
	.st31{fill:#F6AE2C;}
	.st32{fill:#F8A02B;}
	.st33{fill:#EE8E22;}
	.st34{fill:#231F20;stroke:#231F20;stroke-width:0.15;}
	.st35{fill:#231F20;stroke:#231F20;stroke-width:0.15;stroke-miterlimit:10;}
	.st36{fill:#231F20;}
	.st37{fill:#6AC28B;}
	.st38{fill:#2C7149;}
	.st39{fill:#922A1D;}
	.st40{fill:#C42C27;}
	.st41{fill:#F0F4F4;stroke:#C7AD89;stroke-width:0.5;stroke-miterlimit:10;}
	.st42{opacity:0.39;fill:#B5B6B6;}
	.st43{fill:#B5B6B6;}
	.st44{opacity:0.71;fill:#FFFFFF;}
</style>
<g id="XMLID_828_">
	<path id="XMLID_1047_" class="st0" d="M211.3,83.7v95.1l-2.3,2.3H79.2c-1.3,0-2.4-1.1-2.4-2.4V83.7c0-2.2,0.5-4.3,1.3-6.2
		c0.1-0.3,0.3-0.5,0.4-0.8c0,0,0,0,0,0c0,0,0,0,0,0c0.2-0.4,0.4-0.7,0.6-1.1c0.2-0.3,0.4-0.7,0.7-1v0c0.5-0.7,1.1-1.4,1.7-2
		c2.8-2.8,6.7-4.6,11-4.6h103.3c5.2,0,9.8,2.5,12.6,6.5c0.4,0.5,0.8,1.1,1.1,1.7c0,0.1,0.1,0.2,0.1,0.3c0,0,0,0,0,0h0
		c0.1,0.3,0.3,0.5,0.4,0.8C210.8,79.3,211.3,81.5,211.3,83.7z"/>
	<rect id="XMLID_1046_" x="76.7" y="138.6" class="st1" width="134.5" height="38.2"/>
	<g id="XMLID_820_">
		<path id="XMLID_20_" class="st2" d="M204.8,128.1H83.2c-1.9,0-3.5-1.6-3.5-3.5V88.9c0-6.5,5.3-11.8,11.8-11.8h105
			c6.5,0,11.8,5.3,11.8,11.8v35.6C208.3,126.5,206.8,128.1,204.8,128.1z"/>
	</g>
	<g id="XMLID_1045_">
		<path id="XMLID_16_" class="st3" d="M84.7,127.7h-1.5c-1.9,0-3.5-1.6-3.5-3.5V88.6c0-6.5,5.3-11.8,11.8-11.8H93
			c-6.5,0-11.8,5.3-11.8,11.8v35.6C81.2,126.2,82.7,127.7,84.7,127.7z"/>
	</g>
	<g id="XMLID_1044_">
		<path id="XMLID_15_" class="st3" d="M203.4,128.1h1.5c1.9,0,3.5-1.6,3.5-3.5V88.9c0-6.5-5.3-11.8-11.8-11.8H195
			c6.5,0,11.8,5.3,11.8,11.8v35.6C206.9,126.5,205.3,128.1,203.4,128.1z"/>
	</g>
	<g id="XMLID_819_">
		<path id="XMLID_31_" class="st3" d="M208.3,88.9V91c0-6.5-5.3-11.8-11.9-11.8h-105c-6.5,0-11.9,5.3-11.9,11.8v-2.1
			c0-6.5,5.3-11.8,11.9-11.8h105C203,77.1,208.3,82.4,208.3,88.9z"/>
	</g>
	<g id="XMLID_818_">
		<path id="XMLID_32_" class="st3" d="M208.3,122.1v2.5c0,1.9-1.6,3.5-3.5,3.5H83.2c-1.9,0-3.5-1.6-3.5-3.5v-2.5
			c0,1.9,1.6,3.5,3.5,3.5h121.6C206.8,125.6,208.3,124,208.3,122.1z"/>
	</g>
	<path id="XMLID_817_" class="st4" d="M210,77.4c-0.1-0.3-0.3-0.5-0.4-0.8c0,0,0,0,0,0c0-0.1-0.1-0.2-0.1-0.3
		c-0.3-0.6-0.7-1.2-1.1-1.7c-2.8-3.9-7.5-6.5-12.6-6.5H92.4c-4.3,0-8.2,1.8-11,4.6c-0.6,0.6-1.2,1.3-1.7,2v0c-0.2,0.3-0.5,0.6-0.7,1
		c-0.2,0.3-0.4,0.7-0.6,1.1c0,0,0,0,0,0c0,0,0,0,0,0c-0.1,0.3-0.3,0.5-0.4,0.8c-0.8,1.9-1.3,4-1.3,6.2v44.4h6.5
		c-1.9,0-3.5-1.6-3.5-3.5V88.9c0-0.8,0.1-1.5,0.2-2.2c0-0.2,0.1-0.3,0.1-0.5c0-0.2,0.1-0.3,0.1-0.5c0.3-1.2,0.9-2.4,1.6-3.4
		c0.2-0.3,0.4-0.6,0.7-0.9c0.1-0.1,0.2-0.2,0.3-0.3c0.1-0.1,0.1-0.1,0.2-0.2c0.1-0.1,0.2-0.3,0.3-0.4c0.2-0.2,0.5-0.5,0.7-0.7
		c0.1-0.1,0.3-0.2,0.4-0.3c0.1-0.1,0.3-0.2,0.4-0.3c0.1-0.1,0.3-0.2,0.4-0.3c0.1-0.1,0.3-0.2,0.4-0.3c0,0,0.1,0,0.1,0
		c0.1-0.1,0.3-0.2,0.4-0.2c0.6-0.3,1.2-0.6,1.9-0.8c0.2-0.1,0.3-0.1,0.5-0.2c0.1,0,0.3-0.1,0.4-0.1c0.4-0.1,0.8-0.2,1.2-0.2
		c0.2,0,0.3,0,0.5,0c0.1,0,0.3,0,0.4,0c0.2,0,0.4,0,0.6,0c0,0,0,0,0,0h105c0.2,0,0.4,0,0.6,0c2,0.1,3.8,0.7,5.4,1.6
		c0.1,0.1,0.3,0.2,0.4,0.2c0.1,0.1,0.3,0.2,0.4,0.3c0.1,0.1,0.3,0.2,0.4,0.3c0.1,0.1,0.3,0.2,0.4,0.3c0.3,0.2,0.5,0.4,0.7,0.7
		c0.1,0.1,0.2,0.2,0.3,0.4c0.2,0.2,0.5,0.5,0.7,0.8c0.1,0.1,0.2,0.3,0.3,0.4c0.1,0.1,0.2,0.3,0.3,0.4c0.2,0.3,0.4,0.6,0.5,0.9
		c0.2,0.3,0.3,0.6,0.4,0.9c0.1,0.2,0.1,0.3,0.2,0.5c0.3,0.6,0.4,1.3,0.6,2c0.1,0.7,0.2,1.5,0.2,2.2v35.6c0,1.9-1.6,3.5-3.5,3.5h6.5
		V83.7C211.3,81.5,210.8,79.3,210,77.4z"/>
	<path id="XMLID_816_" class="st5" d="M212.7,198.1H75.3c-1.7,0-3-1.4-3-3v-10.9c0-1.7,1.4-3,3-3h137.4c1.7,0,3,1.4,3,3V195
		C215.8,196.7,214.4,198.1,212.7,198.1z"/>
	<path id="XMLID_1042_" class="st5" d="M213.7,188.6v9.3c-0.3,0.1-0.6,0.2-1,0.2H75.3c-0.3,0-0.7,0-1-0.2v-9.3c0-1.7,1.4-3,3-3
		h133.3C212.3,185.6,213.7,186.9,213.7,188.6z"/>
	<path id="XMLID_1041_" class="st6" d="M213.7,188.6v9.3c-0.3,0.1-0.6,0.2-1,0.2H75.3c-0.3,0-0.7,0-1-0.2v-9.3c0-1.7,1.4-3,3-3
		h133.3C212.3,185.6,213.7,186.9,213.7,188.6z"/>
	<polygon id="XMLID_815_" class="st7" points="94.6,203.9 94.6,222.1 96.9,222.1 96.9,203.4 	"/>
	<path id="XMLID_814_" class="st7" d="M81.9,206.6v0.8v13c0,0.9,0.8,1.7,1.7,1.7h0.5v-16L81.9,206.6z"/>
	<polygon id="XMLID_812_" class="st7" points="88.2,205.3 88.2,222.1 90.5,222.1 90.5,204.8 	"/>
	<polygon id="XMLID_811_" class="st7" points="85,205.9 85,222.1 87.4,222.1 87.4,205.4 	"/>
	<polygon id="XMLID_810_" class="st7" points="91.4,204.6 91.4,222.1 93.7,222.1 93.7,204.1 	"/>
	<path id="XMLID_809_" class="st7" d="M100.9,222.1h0.5c0.9,0,1.7-0.8,1.7-1.7v-18.3l-2.2,0.5V222.1z"/>
	<polygon id="XMLID_808_" class="st7" points="97.8,203.2 97.8,222.1 100.1,222.1 100.1,202.7 	"/>
	<g id="XMLID_800_">
		<polygon id="XMLID_807_" class="st8" points="93.7,204.1 93.7,198.1 91.4,198.1 91.4,204.6 		"/>
		<polygon id="XMLID_806_" class="st8" points="84.2,198.1 81.9,198.1 81.9,206.6 84.2,206.1 		"/>
		<polygon id="XMLID_805_" class="st8" points="100.1,202.7 100.1,198.1 97.8,198.1 97.8,203.2 		"/>
		<polygon id="XMLID_804_" class="st8" points="87.4,205.4 87.4,198.1 85,198.1 85,205.9 		"/>
		<polygon id="XMLID_803_" class="st8" points="90.5,204.8 90.5,198.1 88.2,198.1 88.2,205.3 		"/>
		<polygon id="XMLID_802_" class="st8" points="96.9,203.4 96.9,198.1 94.6,198.1 94.6,203.9 		"/>
		<polygon id="XMLID_801_" class="st8" points="100.9,198.1 100.9,202.6 103.2,202.1 103.2,198.1 		"/>
	</g>
	<polygon id="XMLID_798_" class="st9" points="84.2,206.1 84.2,222.1 85,222.1 85,205.9 	"/>
	<polygon id="XMLID_797_" class="st9" points="87.4,205.4 87.4,222.1 88.2,222.1 88.2,205.3 	"/>
	<polygon id="XMLID_796_" class="st9" points="90.5,204.8 90.5,222.1 91.4,222.1 91.4,204.6 	"/>
	<polygon id="XMLID_795_" class="st9" points="93.7,204.1 93.7,222.1 94.6,222.1 94.6,203.9 	"/>
	<polygon id="XMLID_794_" class="st9" points="96.9,203.4 96.9,222.1 97.8,222.1 97.8,203.2 	"/>
	<polygon id="XMLID_793_" class="st9" points="100.1,202.7 100.1,222.1 100.9,222.1 100.9,202.6 	"/>
	<g id="XMLID_786_">
		<polygon id="XMLID_792_" class="st10" points="85,205.9 85,198.1 84.2,198.1 84.2,206.1 		"/>
		<polygon id="XMLID_791_" class="st10" points="88.2,205.3 88.2,198.1 87.4,198.1 87.4,205.4 		"/>
		<polygon id="XMLID_790_" class="st10" points="91.4,204.6 91.4,198.1 90.5,198.1 90.5,204.8 		"/>
		<polygon id="XMLID_789_" class="st10" points="94.6,203.9 94.6,198.1 93.7,198.1 93.7,204.1 		"/>
		<polygon id="XMLID_788_" class="st10" points="97.8,203.2 97.8,198.1 96.9,198.1 96.9,203.4 		"/>
		<polygon id="XMLID_787_" class="st10" points="100.9,202.6 100.9,198.1 100.1,198.1 100.1,202.7 		"/>
	</g>
	<polygon id="XMLID_785_" class="st7" points="197.3,203.9 197.3,222.1 199.7,222.1 199.7,203.4 	"/>
	<path id="XMLID_784_" class="st7" d="M184.7,206.6v0.8v13c0,0.9,0.8,1.7,1.7,1.7h0.5v-16L184.7,206.6z"/>
	<polygon id="XMLID_783_" class="st7" points="190.9,205.3 190.9,222.1 193.3,222.1 193.3,204.8 	"/>
	<polygon id="XMLID_782_" class="st7" points="187.7,205.9 187.7,222.1 190.1,222.1 190.1,205.4 	"/>
	<polygon id="XMLID_781_" class="st7" points="194.1,204.6 194.1,222.1 196.5,222.1 196.5,204.1 	"/>
	<path id="XMLID_780_" class="st7" d="M203.7,222.1h0.5c0.9,0,1.7-0.8,1.7-1.7v-18.3l-2.2,0.5V222.1z"/>
	<polygon id="XMLID_779_" class="st7" points="200.5,203.2 200.5,222.1 202.9,222.1 202.9,202.7 	"/>
	<g id="XMLID_771_">
		<polygon id="XMLID_778_" class="st8" points="196.5,204.1 196.5,198.1 194.1,198.1 194.1,204.6 		"/>
		<polygon id="XMLID_777_" class="st8" points="186.9,198.1 184.7,198.1 184.7,206.6 186.9,206.1 		"/>
		<polygon id="XMLID_776_" class="st8" points="202.9,202.7 202.9,198.1 200.5,198.1 200.5,203.2 		"/>
		<polygon id="XMLID_775_" class="st8" points="190.1,205.4 190.1,198.1 187.7,198.1 187.7,205.9 		"/>
		<polygon id="XMLID_774_" class="st8" points="193.3,204.8 193.3,198.1 190.9,198.1 190.9,205.3 		"/>
		<polygon id="XMLID_773_" class="st8" points="199.7,203.4 199.7,198.1 197.3,198.1 197.3,203.9 		"/>
		<polygon id="XMLID_772_" class="st8" points="203.7,198.1 203.7,202.6 205.9,202.1 205.9,198.1 		"/>
	</g>
	<polygon id="XMLID_770_" class="st9" points="186.9,206.1 186.9,222.1 187.7,222.1 187.7,205.9 	"/>
	<polygon id="XMLID_769_" class="st9" points="190.1,205.4 190.1,222.1 190.9,222.1 190.9,205.3 	"/>
	<polygon id="XMLID_768_" class="st9" points="193.3,204.8 193.3,222.1 194.1,222.1 194.1,204.6 	"/>
	<polygon id="XMLID_767_" class="st9" points="196.5,204.1 196.5,222.1 197.3,222.1 197.3,203.9 	"/>
	<polygon id="XMLID_766_" class="st9" points="199.7,203.4 199.7,222.1 200.5,222.1 200.5,203.2 	"/>
	<polygon id="XMLID_765_" class="st9" points="202.9,202.7 202.9,222.1 203.7,222.1 203.7,202.6 	"/>
	<g id="XMLID_757_">
		<polygon id="XMLID_764_" class="st10" points="187.7,205.9 187.7,198.1 186.9,198.1 186.9,206.1 		"/>
		<polygon id="XMLID_763_" class="st10" points="190.9,205.3 190.9,198.1 190.1,198.1 190.1,205.4 		"/>
		<polygon id="XMLID_761_" class="st10" points="194.1,204.6 194.1,198.1 193.3,198.1 193.3,204.8 		"/>
		<polygon id="XMLID_760_" class="st10" points="197.3,203.9 197.3,198.1 196.5,198.1 196.5,204.1 		"/>
		<polygon id="XMLID_759_" class="st10" points="200.5,203.2 200.5,198.1 199.7,198.1 199.7,203.4 		"/>
		<polygon id="XMLID_758_" class="st10" points="203.7,202.6 203.7,198.1 202.9,198.1 202.9,202.7 		"/>
	</g>
	<g id="XMLID_1290_">
		<path id="XMLID_756_" class="st9" d="M219.3,120.2h-3.5c-1,0-1.8-0.8-1.8-1.8V99.2h9.6V116C223.5,118.3,221.6,120.2,219.3,120.2z"
			/>
		<path id="XMLID_755_" class="st9" d="M221.4,96.9h-5.3c-1.2,0-2.1-1-2.1-2.1v-2.4c0-1.2,1-2.1,2.1-2.1h5.3c1.2,0,2.1,1,2.1,2.1
			v2.4C223.5,95.9,222.6,96.9,221.4,96.9z"/>
		<path id="XMLID_753_" class="st11" d="M211.3,86.7h5.5c0,0,1.8-0.1,2,2.7v26.4v6.1c0,0-0.2,1.8-1.7,1.9h-5.8"/>
	</g>
	<g id="XMLID_1286_">
		<path id="XMLID_752_" class="st9" d="M68.7,120.2h3.5c1,0,1.8-0.8,1.8-1.8V99.2h-9.6V116C64.5,118.3,66.4,120.2,68.7,120.2z"/>
		<path id="XMLID_751_" class="st9" d="M66.6,96.9h5.3c1.2,0,2.1-1,2.1-2.1v-2.4c0-1.2-1-2.1-2.1-2.1h-5.3c-1.2,0-2.1,1-2.1,2.1v2.4
			C64.5,95.9,65.4,96.9,66.6,96.9z"/>
		<path id="XMLID_750_" class="st11" d="M76.7,86.7h-5.5c0,0-1.8-0.1-2,2.7v26.4v6.1c0,0,0.2,1.8,1.7,1.9h5.8"/>
	</g>
	<path id="XMLID_749_" class="st12" d="M115.5,81.7h81.9c3.9,0,7,3.2,7,7v3.1c0,5-5,8.4-9.6,6.5l-14.4-5.7c-1.3-0.5-2.7-0.6-4-0.3
		l-18.9,4c-2,0.4-4,0-5.6-1.2C146.3,91.1,131.6,81.7,115.5,81.7z"/>
	<path id="XMLID_748_" class="st12" d="M82.7,97.1v22.3c0,2.4,2,4.4,4.4,4.4H134c2.8,0,4.9-2.6,4.3-5.3l-0.8-3.7
		c-0.3-1.3-1.1-2.3-2.2-2.9L111.5,99c-0.1-0.1-0.2-0.1-0.3-0.1l-8.5-3.8l-13.9-5.8c-2.9-1.2-6.1,0.9-6.1,4.1V97.1z"/>
	<polygon id="XMLID_746_" class="st13" points="180.1,81.7 151.9,123.7 171.4,123.7 197,81.7 	"/>
	<path id="XMLID_745_" class="st13" d="M204.4,90.3l-17.3,33.4h7.1h6.7c1.9,0,3.5-1.6,3.5-3.5V90.3z"/>
	<path id="XMLID_1040_" class="st14" d="M155.2,188.6v9.3c0,0,0,0.1,0,0.2h-22.5c0,0,0-0.1,0-0.2v-9.3c0-0.8,0.7-1.5,1.5-1.5h19.4
		C154.5,187.1,155.2,187.8,155.2,188.6z"/>
	<path id="XMLID_1039_" class="st8" d="M152.7,191.7v6.4h-16.9v-6.4c0-0.9,0.7-1.5,1.5-1.5h13.8C152,190.2,152.7,190.9,152.7,191.7z
		"/>
	<rect id="XMLID_743_" x="86.9" y="189.6" class="st15" width="45.7" height="2.9"/>
	<rect id="XMLID_741_" x="155.2" y="189.6" class="st15" width="46.5" height="2.9"/>
	<circle id="XMLID_740_" class="st16" cx="84.7" cy="133.6" r="3.6"/>
	<circle id="XMLID_731_" class="st17" cx="84.7" cy="133.6" r="3"/>
	<g id="XMLID_587_">
		<path id="XMLID_592_" class="st18" d="M109.7,131l-1.6,0c-0.2,0-0.4-0.2-0.4-0.4l0-0.8c0-0.2,0.2-0.4,0.4-0.4l1.6,0
			c0.2,0,0.4,0.2,0.4,0.4l0,0.8C110.2,130.8,110,131,109.7,131z"/>
		<path id="XMLID_591_" class="st18" d="M122.2,131.2l-1.6,0c-0.2,0-0.4-0.2-0.4-0.4l0-0.8c0-0.2,0.2-0.4,0.4-0.4l1.6,0
			c0.2,0,0.4,0.2,0.4,0.4l0,0.8C122.6,131,122.4,131.2,122.2,131.2z"/>
		
			<rect id="XMLID_588_" x="108.9" y="128.6" transform="matrix(0.9999 1.618562e-002 -1.618562e-002 0.9999 2.1112 -1.8467)" class="st19" width="12.5" height="1.8"/>
	</g>
	<g id="XMLID_577_">
		<path id="XMLID_585_" class="st18" d="M168.3,131l-1.6,0c-0.2,0-0.4-0.2-0.4-0.4l0-0.8c0-0.2,0.2-0.4,0.4-0.4l1.6,0
			c0.2,0,0.4,0.2,0.4,0.4l0,0.8C168.7,130.8,168.5,131,168.3,131z"/>
		<path id="XMLID_582_" class="st18" d="M180.7,131.2l-1.6,0c-0.2,0-0.4-0.2-0.4-0.4l0-0.8c0-0.2,0.2-0.4,0.4-0.4l1.6,0
			c0.2,0,0.4,0.2,0.4,0.4l0,0.8C181.1,131,180.9,131.2,180.7,131.2z"/>
		
			<rect id="XMLID_581_" x="167.4" y="128.6" transform="matrix(0.9999 1.618562e-002 -1.618562e-002 0.9999 2.1189 -2.7942)" class="st19" width="12.5" height="1.8"/>
	</g>
	<path id="XMLID_1038_" class="st8" d="M211.3,176.7v2c0,1.3-1,2.3-2.3,2.3H79.2c-1.3,0-2.4-1.1-2.4-2.4v-1.9H211.3z"/>
	<path id="XMLID_1037_" class="st20" d="M201.4,145.1h-57.4H86.5c-2.5,0-4.6,1.9-4.6,4.3v19.9c0,1.3,1.1,2.4,2.5,2.4h17.5
		c1,0,1.7-0.7,1.7-1.6v-3.7c0-2,1.7-3.7,3.9-3.7h36.4H181c1.7,0,3.1,1.3,3.1,3v4.4c0,0.9,0.8,1.6,1.7,1.6h17.5
		c1.4,0,2.5-1.1,2.5-2.4v-19.9C205.9,147,203.9,145.1,201.4,145.1z"/>
	<path id="XMLID_1036_" class="st21" d="M103.7,168.8v1.3c0,0.9-0.8,1.7-1.7,1.7H84.4c-1.4,0-2.5-1.1-2.5-2.4v-1.3
		c0,1.3,1.1,2.4,2.5,2.4H102C102.9,170.5,103.7,169.8,103.7,168.8z"/>
	<path id="XMLID_1035_" class="st22" d="M184.1,165.7c0-1.7-1.4-3-3.1-3h-73.5c-2.1,0-3.9,1.6-3.9,3.7v-1.3c0-2,1.7-3.7,3.9-3.7H181
		c1.7,0,3.1,1.3,3.1,3V165.7z"/>
	<path id="XMLID_1034_" class="st21" d="M205.9,168.1v1.3c0,1.3-1.1,2.4-2.5,2.4h-17.5c-1,0-1.7-0.7-1.7-1.7v-1.3
		c0,0.9,0.8,1.7,1.7,1.7h17.5C204.8,170.5,205.9,169.4,205.9,168.1z"/>
	<path id="XMLID_1033_" class="st21" d="M205.9,149.5v19.9c0,1.1-0.8,2-1.8,2.3c0.1-0.2,0.1-0.4,0.1-0.6v-19.9c0-2.4-2-4.3-4.4-4.3
		H88.1c-2.5,0-4.5,1.9-4.5,4.3v19.9c0,0.2,0,0.4,0.1,0.6c-1-0.3-1.8-1.2-1.8-2.3v-19.9c0-2.4,2-4.3,4.6-4.3h114.9
		C203.9,145.1,205.9,147.1,205.9,149.5z"/>
	<path id="XMLID_1032_" class="st23" d="M101,170.5H85.6c-0.9,0-1.6-0.7-1.6-1.6v-9.2c0-0.9,0.7-1.6,1.6-1.6H101
		c0.9,0,1.6,0.7,1.6,1.6v9.2C102.6,169.8,101.9,170.5,101,170.5z"/>
	<path id="XMLID_1031_" class="st23" d="M202.1,170.5h-15.4c-0.9,0-1.6-0.7-1.6-1.6v-9.2c0-0.9,0.7-1.6,1.6-1.6h15.4
		c0.9,0,1.6,0.7,1.6,1.6v9.2C203.7,169.8,203,170.5,202.1,170.5z"/>
	<path id="XMLID_1030_" class="st24" d="M134.6,148.5H121c-0.2,0-0.4-0.2-0.4-0.4l0,0c0-0.2,0.2-0.4,0.4-0.4h13.6
		c0.2,0,0.4,0.2,0.4,0.4l0,0C135,148.3,134.9,148.5,134.6,148.5z"/>
	<path id="XMLID_1029_" class="st24" d="M150.5,148.5h-13.6c-0.2,0-0.4-0.2-0.4-0.4l0,0c0-0.2,0.2-0.4,0.4-0.4h13.6
		c0.2,0,0.4,0.2,0.4,0.4l0,0C150.9,148.3,150.7,148.5,150.5,148.5z"/>
	<path id="XMLID_1028_" class="st24" d="M166.3,148.5h-13.6c-0.2,0-0.4-0.2-0.4-0.4l0,0c0-0.2,0.2-0.4,0.4-0.4h13.6
		c0.2,0,0.4,0.2,0.4,0.4l0,0C166.7,148.3,166.5,148.5,166.3,148.5z"/>
	<path id="XMLID_1027_" class="st24" d="M134.6,158.7H121c-0.2,0-0.4-0.2-0.4-0.4l0,0c0-0.2,0.2-0.4,0.4-0.4h13.6
		c0.2,0,0.4,0.2,0.4,0.4l0,0C135,158.5,134.9,158.7,134.6,158.7z"/>
	<path id="XMLID_1026_" class="st24" d="M150.5,158.7h-13.6c-0.2,0-0.4-0.2-0.4-0.4l0,0c0-0.2,0.2-0.4,0.4-0.4h13.6
		c0.2,0,0.4,0.2,0.4,0.4l0,0C150.9,158.5,150.7,158.7,150.5,158.7z"/>
	<path id="XMLID_1025_" class="st24" d="M166.3,158.7h-13.6c-0.2,0-0.4-0.2-0.4-0.4l0,0c0-0.2,0.2-0.4,0.4-0.4h13.6
		c0.2,0,0.4,0.2,0.4,0.4l0,0C166.7,158.5,166.5,158.7,166.3,158.7z"/>
	<path id="XMLID_1024_" class="st24" d="M134.6,160.4H121c-0.2,0-0.4-0.2-0.4-0.4l0,0c0-0.2,0.2-0.4,0.4-0.4h13.6
		c0.2,0,0.4,0.2,0.4,0.4l0,0C135,160.2,134.9,160.4,134.6,160.4z"/>
	<path id="XMLID_1023_" class="st24" d="M150.5,160.4h-13.6c-0.2,0-0.4-0.2-0.4-0.4l0,0c0-0.2,0.2-0.4,0.4-0.4h13.6
		c0.2,0,0.4,0.2,0.4,0.4l0,0C150.9,160.2,150.7,160.4,150.5,160.4z"/>
	<path id="XMLID_1022_" class="st24" d="M166.3,160.4h-13.6c-0.2,0-0.4-0.2-0.4-0.4l0,0c0-0.2,0.2-0.4,0.4-0.4h13.6
		c0.2,0,0.4,0.2,0.4,0.4l0,0C166.7,160.2,166.5,160.4,166.3,160.4z"/>
	<path id="XMLID_1021_" class="st24" d="M134.6,162.1H121c-0.2,0-0.4-0.2-0.4-0.4l0,0c0-0.2,0.2-0.4,0.4-0.4h13.6
		c0.2,0,0.4,0.2,0.4,0.4l0,0C135,161.9,134.9,162.1,134.6,162.1z"/>
	<path id="XMLID_1020_" class="st24" d="M117.6,148.4h-12c-0.2,0-0.4-0.2-0.4-0.4l0,0c0-0.2,0.2-0.4,0.4-0.4h12
		c0.2,0,0.4,0.2,0.4,0.4l0,0C118,148.2,117.8,148.4,117.6,148.4z"/>
	<path id="XMLID_1019_" class="st24" d="M182.6,148.4h-12c-0.2,0-0.4-0.2-0.4-0.4l0,0c0-0.2,0.2-0.4,0.4-0.4h12
		c0.2,0,0.4,0.2,0.4,0.4l0,0C183,148.2,182.8,148.4,182.6,148.4z"/>
	<path id="XMLID_1018_" class="st24" d="M182.6,158.7h-12c-0.2,0-0.4-0.2-0.4-0.4l0,0c0-0.2,0.2-0.4,0.4-0.4h12
		c0.2,0,0.4,0.2,0.4,0.4l0,0C183,158.5,182.8,158.7,182.6,158.7z"/>
	<path id="XMLID_1017_" class="st24" d="M182.6,160.3h-12c-0.2,0-0.4-0.2-0.4-0.4l0,0c0-0.2,0.2-0.4,0.4-0.4h12
		c0.2,0,0.4,0.2,0.4,0.4l0,0C183,160.1,182.8,160.3,182.6,160.3z"/>
	<path id="XMLID_1016_" class="st24" d="M182.6,161.9h-12c-0.2,0-0.4-0.2-0.4-0.4l0,0c0-0.2,0.2-0.4,0.4-0.4h12
		c0.2,0,0.4,0.2,0.4,0.4l0,0C183,161.7,182.8,161.9,182.6,161.9z"/>
	<path id="XMLID_1015_" class="st24" d="M150.5,162.1h-13.6c-0.2,0-0.4-0.2-0.4-0.4l0,0c0-0.2,0.2-0.4,0.4-0.4h13.6
		c0.2,0,0.4,0.2,0.4,0.4l0,0C150.9,161.9,150.7,162.1,150.5,162.1z"/>
	<path id="XMLID_1014_" class="st24" d="M166.3,162.1h-13.6c-0.2,0-0.4-0.2-0.4-0.4l0,0c0-0.2,0.2-0.4,0.4-0.4h13.6
		c0.2,0,0.4,0.2,0.4,0.4l0,0C166.7,161.9,166.5,162.1,166.3,162.1z"/>
	<path id="XMLID_1013_" class="st24" d="M134.6,166H121c-0.2,0-0.4-0.2-0.4-0.4v-0.3c0-0.2,0.2-0.4,0.4-0.4h13.6
		c0.2,0,0.4,0.2,0.4,0.4v0.3C135,165.8,134.9,166,134.6,166z"/>
	<path id="XMLID_1012_" class="st24" d="M150.5,166h-13.6c-0.2,0-0.4-0.2-0.4-0.4v-0.3c0-0.2,0.2-0.4,0.4-0.4h13.6
		c0.2,0,0.4,0.2,0.4,0.4v0.3C150.9,165.8,150.7,166,150.5,166z"/>
	<path id="XMLID_1011_" class="st24" d="M166.3,166h-13.6c-0.2,0-0.4-0.2-0.4-0.4v-0.3c0-0.2,0.2-0.4,0.4-0.4h13.6
		c0.2,0,0.4,0.2,0.4,0.4v0.3C166.7,165.8,166.5,166,166.3,166z"/>
	<path id="XMLID_1010_" class="st24" d="M134.6,168.2H121c-0.2,0-0.4-0.2-0.4-0.4v-0.3c0-0.2,0.2-0.4,0.4-0.4h13.6
		c0.2,0,0.4,0.2,0.4,0.4v0.3C135,168,134.9,168.2,134.6,168.2z"/>
	<path id="XMLID_1009_" class="st24" d="M150.5,168.2h-13.6c-0.2,0-0.4-0.2-0.4-0.4v-0.3c0-0.2,0.2-0.4,0.4-0.4h13.6
		c0.2,0,0.4,0.2,0.4,0.4v0.3C150.9,168,150.7,168.2,150.5,168.2z"/>
	<path id="XMLID_1008_" class="st24" d="M166.3,168.2h-13.6c-0.2,0-0.4-0.2-0.4-0.4v-0.3c0-0.2,0.2-0.4,0.4-0.4h13.6
		c0.2,0,0.4,0.2,0.4,0.4v0.3C166.7,168,166.5,168.2,166.3,168.2z"/>
	<path id="XMLID_1007_" class="st24" d="M134.6,170.4H121c-0.2,0-0.4-0.2-0.4-0.4v-0.3c0-0.2,0.2-0.4,0.4-0.4h13.6
		c0.2,0,0.4,0.2,0.4,0.4v0.3C135,170.3,134.9,170.4,134.6,170.4z"/>
	<path id="XMLID_1006_" class="st24" d="M150.5,170.4h-13.6c-0.2,0-0.4-0.2-0.4-0.4v-0.3c0-0.2,0.2-0.4,0.4-0.4h13.6
		c0.2,0,0.4,0.2,0.4,0.4v0.3C150.9,170.3,150.7,170.4,150.5,170.4z"/>
	<path id="XMLID_1005_" class="st24" d="M166.3,170.4h-13.6c-0.2,0-0.4-0.2-0.4-0.4v-0.3c0-0.2,0.2-0.4,0.4-0.4h13.6
		c0.2,0,0.4,0.2,0.4,0.4v0.3C166.7,170.3,166.5,170.4,166.3,170.4z"/>
	<path id="XMLID_1004_" class="st24" d="M134.6,172.7H121c-0.2,0-0.4-0.2-0.4-0.4V172c0-0.2,0.2-0.4,0.4-0.4h13.6
		c0.2,0,0.4,0.2,0.4,0.4v0.3C135,172.5,134.9,172.7,134.6,172.7z"/>
	<path id="XMLID_1003_" class="st24" d="M150.5,172.7h-13.6c-0.2,0-0.4-0.2-0.4-0.4V172c0-0.2,0.2-0.4,0.4-0.4h13.6
		c0.2,0,0.4,0.2,0.4,0.4v0.3C150.9,172.5,150.7,172.7,150.5,172.7z"/>
	<path id="XMLID_1002_" class="st24" d="M166.3,172.7h-13.6c-0.2,0-0.4-0.2-0.4-0.4V172c0-0.2,0.2-0.4,0.4-0.4h13.6
		c0.2,0,0.4,0.2,0.4,0.4v0.3C166.7,172.5,166.5,172.7,166.3,172.7z"/>
	<rect id="XMLID_1001_" x="84.6" y="154" class="st25" width="118.8" height="0.9"/>
	<g id="XMLID_1000_">
		<path id="XMLID_17_" class="st26" d="M168.3,143.6v32.7h-48.6v-32.7H168.3 M168.8,143.1h-49.6v33.7h49.6V143.1L168.8,143.1z"/>
	</g>
	<path id="XMLID_999_" class="st24" d="M134.6,150.2H121c-0.2,0-0.4-0.2-0.4-0.4l0,0c0-0.2,0.2-0.4,0.4-0.4h13.6
		c0.2,0,0.4,0.2,0.4,0.4l0,0C135,150,134.9,150.2,134.6,150.2z"/>
	<path id="XMLID_998_" class="st24" d="M150.5,150.2h-13.6c-0.2,0-0.4-0.2-0.4-0.4l0,0c0-0.2,0.2-0.4,0.4-0.4h13.6
		c0.2,0,0.4,0.2,0.4,0.4l0,0C150.9,150,150.7,150.2,150.5,150.2z"/>
	<path id="XMLID_997_" class="st24" d="M166.3,150.2h-13.6c-0.2,0-0.4-0.2-0.4-0.4l0,0c0-0.2,0.2-0.4,0.4-0.4h13.6
		c0.2,0,0.4,0.2,0.4,0.4l0,0C166.7,150,166.5,150.2,166.3,150.2z"/>
	<path id="XMLID_996_" class="st24" d="M134.6,151.9H121c-0.2,0-0.4-0.2-0.4-0.4l0,0c0-0.2,0.2-0.4,0.4-0.4h13.6
		c0.2,0,0.4,0.2,0.4,0.4l0,0C135,151.7,134.9,151.9,134.6,151.9z"/>
	<path id="XMLID_995_" class="st24" d="M150.5,151.9h-13.6c-0.2,0-0.4-0.2-0.4-0.4l0,0c0-0.2,0.2-0.4,0.4-0.4h13.6
		c0.2,0,0.4,0.2,0.4,0.4l0,0C150.9,151.7,150.7,151.9,150.5,151.9z"/>
	<path id="XMLID_994_" class="st24" d="M166.3,151.9h-13.6c-0.2,0-0.4-0.2-0.4-0.4l0,0c0-0.2,0.2-0.4,0.4-0.4h13.6
		c0.2,0,0.4,0.2,0.4,0.4l0,0C166.7,151.7,166.5,151.9,166.3,151.9z"/>
	<path id="XMLID_993_" class="st24" d="M134.6,153.6H121c-0.2,0-0.4-0.2-0.4-0.4l0,0c0-0.2,0.2-0.4,0.4-0.4h13.6
		c0.2,0,0.4,0.2,0.4,0.4l0,0C135,153.4,134.9,153.6,134.6,153.6z"/>
	<path id="XMLID_992_" class="st24" d="M150.5,153.6h-13.6c-0.2,0-0.4-0.2-0.4-0.4l0,0c0-0.2,0.2-0.4,0.4-0.4h13.6
		c0.2,0,0.4,0.2,0.4,0.4l0,0C150.9,153.4,150.7,153.6,150.5,153.6z"/>
	<path id="XMLID_991_" class="st24" d="M166.3,153.6h-13.6c-0.2,0-0.4-0.2-0.4-0.4l0,0c0-0.2,0.2-0.4,0.4-0.4h13.6
		c0.2,0,0.4,0.2,0.4,0.4l0,0C166.7,153.4,166.5,153.6,166.3,153.6z"/>
	<path id="XMLID_990_" class="st24" d="M134.6,155.3H121c-0.2,0-0.4-0.2-0.4-0.4l0,0c0-0.2,0.2-0.4,0.4-0.4h13.6
		c0.2,0,0.4,0.2,0.4,0.4l0,0C135,155.1,134.9,155.3,134.6,155.3z"/>
	<path id="XMLID_989_" class="st24" d="M150.5,155.3h-13.6c-0.2,0-0.4-0.2-0.4-0.4l0,0c0-0.2,0.2-0.4,0.4-0.4h13.6
		c0.2,0,0.4,0.2,0.4,0.4l0,0C150.9,155.1,150.7,155.3,150.5,155.3z"/>
	<path id="XMLID_988_" class="st24" d="M166.3,155.3h-13.6c-0.2,0-0.4-0.2-0.4-0.4l0,0c0-0.2,0.2-0.4,0.4-0.4h13.6
		c0.2,0,0.4,0.2,0.4,0.4l0,0C166.7,155.1,166.5,155.3,166.3,155.3z"/>
	<path id="XMLID_987_" class="st24" d="M134.6,157H121c-0.2,0-0.4-0.2-0.4-0.4l0,0c0-0.2,0.2-0.4,0.4-0.4h13.6
		c0.2,0,0.4,0.2,0.4,0.4l0,0C135,156.8,134.9,157,134.6,157z"/>
	<path id="XMLID_986_" class="st24" d="M150.5,157h-13.6c-0.2,0-0.4-0.2-0.4-0.4l0,0c0-0.2,0.2-0.4,0.4-0.4h13.6
		c0.2,0,0.4,0.2,0.4,0.4l0,0C150.9,156.8,150.7,157,150.5,157z"/>
	<path id="XMLID_985_" class="st24" d="M166.3,157h-13.6c-0.2,0-0.4-0.2-0.4-0.4l0,0c0-0.2,0.2-0.4,0.4-0.4h13.6
		c0.2,0,0.4,0.2,0.4,0.4l0,0C166.7,156.8,166.5,157,166.3,157z"/>
	<path id="XMLID_984_" class="st24" d="M117.6,150h-12c-0.2,0-0.4-0.2-0.4-0.4l0,0c0-0.2,0.2-0.4,0.4-0.4h12c0.2,0,0.4,0.2,0.4,0.4
		l0,0C118,149.8,117.8,150,117.6,150z"/>
	<path id="XMLID_983_" class="st24" d="M117.6,151.6h-12c-0.2,0-0.4-0.2-0.4-0.4l0,0c0-0.2,0.2-0.4,0.4-0.4h12
		c0.2,0,0.4,0.2,0.4,0.4l0,0C118,151.4,117.8,151.6,117.6,151.6z"/>
	<path id="XMLID_982_" class="st24" d="M117.6,153.2h-12c-0.2,0-0.4-0.2-0.4-0.4l0,0c0-0.2,0.2-0.4,0.4-0.4h12
		c0.2,0,0.4,0.2,0.4,0.4l0,0C118,153,117.8,153.2,117.6,153.2z"/>
	<path id="XMLID_981_" class="st24" d="M102.2,150H85.1c-0.2,0-0.4-0.2-0.4-0.4l0,0c0-0.2,0.2-0.4,0.4-0.4h17.1
		c0.2,0,0.4,0.2,0.4,0.4l0,0C102.6,149.8,102.4,150,102.2,150z"/>
	<path id="XMLID_980_" class="st24" d="M102.2,151.6H85.1c-0.2,0-0.4-0.2-0.4-0.4l0,0c0-0.2,0.2-0.4,0.4-0.4h17.1
		c0.2,0,0.4,0.2,0.4,0.4l0,0C102.6,151.4,102.4,151.6,102.2,151.6z"/>
	<path id="XMLID_979_" class="st24" d="M102.2,153.2H85.1c-0.2,0-0.4-0.2-0.4-0.4l0,0c0-0.2,0.2-0.4,0.4-0.4h17.1
		c0.2,0,0.4,0.2,0.4,0.4l0,0C102.6,153,102.4,153.2,102.2,153.2z"/>
	<path id="XMLID_978_" class="st24" d="M202.7,151.6h-17.1c-0.2,0-0.4-0.2-0.4-0.4l0,0c0-0.2,0.2-0.4,0.4-0.4h17.1
		c0.2,0,0.4,0.2,0.4,0.4l0,0C203.1,151.4,202.9,151.6,202.7,151.6z"/>
	<path id="XMLID_977_" class="st24" d="M202.7,153.2h-17.1c-0.2,0-0.4-0.2-0.4-0.4l0,0c0-0.2,0.2-0.4,0.4-0.4h17.1
		c0.2,0,0.4,0.2,0.4,0.4l0,0C203.1,153,202.9,153.2,202.7,153.2z"/>
	<path id="XMLID_976_" class="st24" d="M182.6,150h-12c-0.2,0-0.4-0.2-0.4-0.4l0,0c0-0.2,0.2-0.4,0.4-0.4h12c0.2,0,0.4,0.2,0.4,0.4
		l0,0C183,149.8,182.8,150,182.6,150z"/>
	<path id="XMLID_975_" class="st24" d="M182.6,151.6h-12c-0.2,0-0.4-0.2-0.4-0.4l0,0c0-0.2,0.2-0.4,0.4-0.4h12
		c0.2,0,0.4,0.2,0.4,0.4l0,0C183,151.4,182.8,151.6,182.6,151.6z"/>
	<path id="XMLID_974_" class="st24" d="M182.6,153.2h-12c-0.2,0-0.4-0.2-0.4-0.4l0,0c0-0.2,0.2-0.4,0.4-0.4h12
		c0.2,0,0.4,0.2,0.4,0.4l0,0C183,153,182.8,153.2,182.6,153.2z"/>
	<path id="XMLID_973_" class="st24" d="M182.6,157.1h-12c-0.2,0-0.4-0.2-0.4-0.4l0,0c0-0.2,0.2-0.4,0.4-0.4h12
		c0.2,0,0.4,0.2,0.4,0.4l0,0C183,156.9,182.8,157.1,182.6,157.1z"/>
	<path id="XMLID_972_" class="st24" d="M117.3,161.8h-11.6c-0.3,0-0.6-0.3-0.6-0.6v-4.6c0-0.3,0.3-0.6,0.6-0.6h11.6
		c0.3,0,0.6,0.3,0.6,0.6v4.6C117.9,161.5,117.7,161.8,117.3,161.8z"/>
	<path id="XMLID_971_" class="st22" d="M119.2,156h-33c-0.8,0-1.5-0.5-1.7-1.1l0,0h34.6V156z"/>
	<path id="XMLID_970_" class="st22" d="M168.8,156h33c0.8,0,1.5-0.5,1.7-1.1l0,0h-34.6V156z"/>
	<rect id="XMLID_969_" x="121.8" y="176.2" class="st27" width="44.9" height="4.9"/>
	<rect id="XMLID_968_" x="81.9" y="178.1" class="st27" width="26.5" height="2.4"/>
	<rect id="XMLID_967_" x="179.2" y="178.1" class="st27" width="26.5" height="2.4"/>
	<path id="XMLID_966_" class="st28" d="M164.5,179.2H124c-1.2,0-2.2-1-2.2-2.2l0,0h44.9l0,0C166.7,178.2,165.7,179.2,164.5,179.2z"
		/>
	<g id="XMLID_1141_">
		<path id="XMLID_965_" class="st29" d="M96.2,140.3c0.1,0.2,0.2,0.3,0.2,0.5c0,0.1-0.1,0.2-0.2,0.3c-0.1,0-0.3,0.1-0.4,0.1
			c-0.1,0-0.2,0.1-0.2,0.2c0,0.2,0.1,0.3,0.4,0.3c0.3,0,0.6-0.1,0.9-0.3V140h-1C95.9,140,96.1,140.2,96.2,140.3z"/>
		<path id="XMLID_964_" class="st29" d="M105.8,134.8c-0.1,0-0.2,0-0.3,0.1c-0.1,0.1-0.1,0.2-0.1,0.3c0,0.2,0.1,0.4,0.2,0.6
			c0.1,0.2,0.3,0.2,0.5,0.3c0.1-0.2,0.3-0.5,0.4-0.7c0-0.1-0.1-0.3-0.2-0.4C106.2,134.8,106,134.8,105.8,134.8z"/>
		<rect id="XMLID_963_" x="95.7" y="134.1" class="st29" width="1.1" height="1.2"/>
		<path id="XMLID_962_" class="st29" d="M102.3,140.4c0.1-0.2,0.1-0.3,0.1-0.4c0-0.2-0.1-0.4-0.2-0.4c-0.2,0-0.3,0-0.4,0.1
			c-0.1,0.1-0.1,0.2-0.1,0.4c0,0.1,0,0.2,0.1,0.3c0.1,0.1,0.1,0.2,0.2,0.2C102.2,140.7,102.2,140.6,102.3,140.4z"/>
		<path id="XMLID_1183_" class="st30" d="M105.8,136.5c-0.2,0-0.5-0.1-0.6-0.2c-0.2-0.2-0.3-0.4-0.3-0.7c0-0.4,0.1-0.7,0.4-0.9
			c0.2-0.2,0.5-0.3,0.8-0.3c0.3,0,0.6,0.1,0.7,0.2c0,0,0,0.1,0.1,0.1c0.1-0.2,0.3-0.4,0.4-0.7c0-0.1,0-0.2,0-0.3l0.3-0.1
			c0.4-0.7,0.7-1.3,1.1-1.8H92.3v6.8h12.4C105.1,137.8,105.5,137.1,105.8,136.5z M101.4,134.1v2.9l-0.6-0.4v-2.5h-0.2h-0.2H100v0.7
			c0,0,0,0.1-0.1,0.1c0,0-0.1,0-0.1,0H99c-0.4,0-0.5,0.1-0.5,0.3c0,0,0,0.1,0,0.2c0.2-0.1,0.5-0.2,0.7-0.2c0.2,0,0.5,0.1,0.7,0.2
			c0.2,0.2,0.4,0.4,0.4,0.7c0,0.3-0.2,0.6-0.6,0.7l-0.3-0.5c0.1,0,0.2-0.1,0.3-0.2c0.1-0.1,0.1-0.2,0.1-0.4c0-0.1,0-0.1,0-0.1
			c-0.3,0-0.5,0.1-0.6,0.2c-0.2,0.1-0.3,0.4-0.3,0.6c0,0.2,0.2,0.4,0.5,0.6c0.2,0.1,0.4,0.2,0.7,0.3l-0.1,0.2
			c-0.4-0.1-0.8-0.2-1.1-0.4c-0.5-0.3-0.7-0.6-0.7-1c0-0.2,0.1-0.4,0.3-0.6c-0.2-0.3-0.3-0.5-0.3-0.7c0-0.3,0.2-0.4,0.5-0.4h0.9
			v-0.4H98h-0.2h-0.5v2.9l-0.6-0.4v-0.8h-1.1v0.2c0,0.1,0,0.2-0.1,0.2c0,0-0.1,0-0.1-0.1l-0.6-0.7c0,0,0-0.1,0-0.1
			c0-0.1,0.1-0.1,0.2-0.1h0.2v-1.2h-0.6l-0.3-0.5h3.3h0.2h2.4h0.2h1.5l0.3,0.5H101.4z M102.4,135.9l0.3-0.4h1.7l-0.4,0.4H102.4z"/>
		<path id="XMLID_958_" class="st31" d="M110.4,138.5c-0.3,0.6-0.6,1.3-0.9,1.9c0,0.2,0.1,0.3,0.1,0.4c0.2,0.6,0.6,0.9,1.1,0.9
			c0.2,0,0.4-0.1,0.5-0.2c0.2-0.1,0.3-0.3,0.3-0.5c-0.1,0.1-0.3,0.1-0.4,0.1c-0.2,0-0.4-0.1-0.6-0.2c-0.2-0.2-0.3-0.4-0.3-0.7
			c0-0.5,0.2-0.8,0.6-0.8c0.4,0,0.7,0.1,0.9,0.4c0.2,0.3,0.4,0.6,0.4,1c0,0.5-0.1,0.8-0.3,1.1c-0.2,0.3-0.5,0.4-0.9,0.4
			c-0.6,0-1-0.4-1.3-1.1c-0.1-0.1-0.1-0.3-0.1-0.4c-0.2,0.5-0.5,0.9-0.7,1.4l0.3,0.6l-0.4,0.1l-0.1-0.3c-0.4,0.8-0.8,1.6-1.2,2.4
			h6.8v-6.6H110.4z"/>
		<path id="XMLID_957_" class="st30" d="M114,138.5v-6.8h-0.3c-0.9,1.7-2.1,4.2-3.3,6.8H114z"/>
		<path id="XMLID_1178_" class="st31" d="M102.2,142.9C102.2,142.9,102.3,142.9,102.2,142.9c0.1-0.1,0.2-0.2,0.2-0.3
			c0-0.1-0.1-0.1-0.1-0.2l-1-0.9l0.5-0.5l-0.3-0.3c-0.3-0.3-0.4-0.6-0.4-0.8c0-0.2,0.1-0.4,0.3-0.5c0.1-0.1,0.3-0.1,0.5-0.1
			c0.2,0,0.3,0,0.5,0.1c0.1,0.1,0.2,0.1,0.2,0.2c0.2,0.3,0.3,0.5,0.3,0.8c0,0.3-0.1,0.5-0.4,0.8l-0.6,0.6l0.6,0.6
			c0.5-0.9,1-1.7,1.4-2.6h-0.5l-0.2-0.5h1c0.1-0.2,0.2-0.4,0.4-0.7H92.3v6.6h8.7C101.4,144.4,101.8,143.6,102.2,142.9L102.2,142.9z
			 M99.9,142.7l-0.2,0.2l-1.4-1.5c-0.1-0.1-0.1-0.2-0.1-0.3c0-0.2,0.1-0.3,0.3-0.3c0.2,0,0.3,0,0.4,0.1v-1h-0.7h-0.2h-0.4v2.9
			l-0.6-0.4V142c-0.2,0.1-0.4,0.2-0.6,0.2c-0.5,0-0.9-0.3-1.2-1l-0.1-0.4l0.7-0.2c0.1,0,0.1-0.1,0.1-0.2c0-0.1,0-0.2-0.1-0.2
			c-0.1-0.1-0.1-0.1-0.2-0.2h-0.7l-0.3-0.5h3.1h0.2h2.1l0.3,0.5h-0.8v1.1c0,0.2,0,0.4-0.1,0.5c-0.1,0.1-0.2,0.2-0.3,0.3L99.9,142.7z
			"/>
		<path id="XMLID_954_" class="st29" d="M111.1,140c-0.1,0-0.2,0.1-0.3,0.2c-0.1,0.1-0.2,0.3-0.2,0.4c0,0.1,0,0.2,0.1,0.2
			s0.1,0.1,0.2,0.1c0.1,0,0.2-0.1,0.3-0.2c0.1-0.1,0.2-0.3,0.2-0.4C111.4,140.1,111.3,140,111.1,140z"/>
		<path id="XMLID_953_" class="st31" d="M107.5,133.6c0,0.7,0.1,1.2,0.2,1.7c0.2,0.6,0.6,0.9,1.1,0.9c0.2,0,0.4-0.1,0.5-0.2
			c0.2-0.1,0.3-0.3,0.3-0.5c-0.1,0.1-0.3,0.1-0.4,0.1c-0.2,0-0.4-0.1-0.6-0.2c-0.2-0.2-0.3-0.4-0.3-0.7c0-0.5,0.2-0.8,0.6-0.8
			c0.4,0,0.7,0.1,0.9,0.4c0.2,0.3,0.4,0.6,0.4,1c0,0.5-0.1,0.8-0.3,1.1c-0.2,0.3-0.5,0.4-0.9,0.4c-0.6,0-1-0.4-1.3-1.1
			c-0.2-0.5-0.3-1.1-0.3-1.7c-0.1,0.2-0.2,0.4-0.4,0.7c0.1,0.2,0.2,0.4,0.2,0.7c0,0.3-0.1,0.6-0.4,0.8c-0.2,0.2-0.5,0.3-0.8,0.3
			c0,0,0,0-0.1,0c-0.4,0.7-0.8,1.3-1.1,2h5.7c1.3-2.6,2.4-5,3.3-6.8h-5.2C108.2,132.3,107.9,132.9,107.5,133.6L107.5,133.6z"/>
		<path id="XMLID_952_" class="st32" d="M109.3,134.4c-0.1,0-0.2,0.1-0.3,0.2c-0.1,0.1-0.2,0.3-0.2,0.4c0,0.1,0,0.2,0.1,0.2
			c0.1,0.1,0.1,0.1,0.2,0.1c0.1,0,0.2-0.1,0.3-0.2c0.1-0.1,0.2-0.3,0.2-0.4C109.6,134.5,109.5,134.4,109.3,134.4z"/>
		<path id="XMLID_951_" class="st32" d="M106.1,136.1c0.2,0,0.4-0.1,0.4-0.4c0-0.1,0-0.2,0-0.2C106.3,135.6,106.2,135.8,106.1,136.1
			C106.1,136.1,106.1,136.1,106.1,136.1z"/>
		<path id="XMLID_950_" class="st33" d="M108,141.7c-0.1,0-0.2,0.1-0.4,0.1c-0.4,0-0.7-0.1-0.9-0.4c-0.3-0.3-0.5-0.7-0.5-1.1
			c0-0.3,0.1-0.7,0.3-1.1l0.5,0.6c-0.1,0.3-0.2,0.6-0.2,0.8c0,0.2,0.1,0.4,0.2,0.6c0.1,0.2,0.3,0.3,0.4,0.3c0.2,0,0.3-0.1,0.3-0.4
			c-0.1-0.1-0.1-0.2-0.1-0.3s0-0.2,0.1-0.3c0.1-0.1,0.1-0.1,0.2-0.1c0.2,0,0.3,0.1,0.4,0.2c0.1,0.1,0.1,0.3,0.1,0.4
			c0,0.2-0.1,0.4-0.2,0.4l0.3,0.7c0.2-0.5,0.4-0.9,0.7-1.4c-0.1-0.5-0.2-1-0.2-1.6l0.3-0.1c0,0.5,0.1,0.9,0.1,1.2
			c0.3-0.6,0.6-1.3,0.9-1.9h-5.7c-0.1,0.2-0.2,0.4-0.4,0.7h0.2c0.2,0,0.4,0.1,0.6,0.3c0.2,0.2,0.3,0.5,0.3,0.8c0,0.1,0,0.2,0,0.3
			c0,0.1-0.1,0.2-0.1,0.2c0.2,0.1,0.4,0.4,0.4,0.7c0,0.2-0.1,0.4-0.2,0.6c-0.1,0.1-0.3,0.2-0.5,0.2l0.4,0.8l-0.3,0.2l-0.5-0.9
			c-0.2,0-0.3,0-0.5-0.1c-0.2-0.1-0.3-0.3-0.3-0.4c0-0.2,0-0.3,0.1-0.3c0,0,0.1,0,0.1,0c0.2,0,0.3,0.1,0.4,0.2s0.2,0.2,0.3,0.2
			c0.1,0,0.2,0,0.3-0.1c0.1-0.1,0.2-0.2,0.2-0.3c0-0.1,0-0.2-0.1-0.3c-0.1-0.1-0.2-0.1-0.3-0.1c0,0,0,0,0,0c-0.2,0-0.4,0.1-0.6,0.1
			c-0.4,0-0.5-0.1-0.5-0.4c0-0.2,0.1-0.3,0.4-0.3c0.1,0,0.2,0,0.3,0c0.1,0,0.2,0,0.3,0c0.1,0,0.2,0,0.2-0.1c0.1-0.1,0.1-0.2,0.1-0.3
			c0-0.1,0-0.2-0.1-0.2c-0.1,0-0.1-0.1-0.2-0.1H104c-0.5,0.9-1,1.7-1.4,2.6l0.2,0.2c0.1,0.1,0.2,0.3,0.2,0.4c0,0.1,0,0.2-0.1,0.3
			c-0.1,0.1-0.1,0.1-0.2,0.1l-0.4-0.3c-0.4,0.7-0.8,1.5-1.2,2.2h6.2c0.4-0.8,0.8-1.6,1.2-2.4L108,141.7z"/>
		<path id="XMLID_949_" class="st32" d="M102.4,142.6C102.4,142.6,102.4,142.6,102.4,142.6c-0.1,0-0.1,0.1-0.1,0.2c0,0,0.1,0,0.1,0
			C102.4,142.8,102.4,142.7,102.4,142.6z"/>
		<path id="XMLID_1169_" class="st34" d="M94.5,139.5l0.3,0.5h0.7c0.1,0,0.1,0.1,0.2,0.2c0.1,0.1,0.1,0.2,0.1,0.2
			c0,0.1,0,0.2-0.1,0.2l-0.7,0.2l0.1,0.4c0.3,0.7,0.7,1,1.2,1c0.2,0,0.4-0.1,0.6-0.2v0.5l0.6,0.4V140h0.4l-0.3-0.5H94.5z
			 M96.8,141.3c-0.3,0.2-0.6,0.3-0.9,0.3c-0.3,0-0.4-0.1-0.4-0.3c0-0.1,0.1-0.1,0.2-0.2c0.1,0,0.3-0.1,0.4-0.1
			c0.1-0.1,0.2-0.1,0.2-0.3c0-0.2-0.1-0.3-0.2-0.5c-0.1-0.1-0.2-0.3-0.4-0.3h1V141.3z"/>
		<path id="XMLID_946_" class="st34" d="M99.3,141.5c0.1-0.1,0.1-0.3,0.1-0.5V140h0.8l-0.3-0.5h-2.1l0.3,0.5h0.7v1
			c-0.1-0.1-0.2-0.1-0.4-0.1c-0.2,0-0.3,0.1-0.3,0.3c0,0.1,0,0.2,0.1,0.3l1.4,1.5l0.2-0.2l-0.9-0.9
			C99.2,141.7,99.3,141.6,99.3,141.5z"/>
		<polygon id="XMLID_945_" class="st34" points="97.6,139.5 97.9,140 98.1,140 97.8,139.5 		"/>
		<path id="XMLID_944_" class="st34" d="M94.2,133.6l0.3,0.5h0.6v1.2h-0.2c-0.1,0-0.2,0-0.2,0.1c0,0,0,0.1,0,0.1l0.6,0.7
			c0,0,0.1,0.1,0.1,0.1c0.1,0,0.1-0.1,0.1-0.2v-0.2h1.1v-0.5h-1.1v-1.2h1.1v1.2v0.5v0.8l0.6,0.4v-2.9h0.5l-0.3-0.5H94.2z"/>
		<path id="XMLID_943_" class="st34" d="M97.7,133.6l0.3,0.5h1.4v0.4h-0.9c-0.3,0-0.5,0.1-0.5,0.4c0,0.2,0.1,0.4,0.3,0.7
			c-0.2,0.2-0.3,0.4-0.3,0.6c0,0.4,0.2,0.7,0.7,1c0.3,0.2,0.7,0.3,1.1,0.4l0.1-0.2c-0.3-0.1-0.5-0.2-0.7-0.3
			c-0.4-0.2-0.5-0.4-0.5-0.6c0-0.3,0.1-0.5,0.3-0.6c0.2-0.1,0.4-0.2,0.6-0.2c0,0,0,0,0,0.1c0,0.1,0,0.3-0.1,0.4
			c-0.1,0.1-0.2,0.2-0.3,0.2l0.3,0.5c0.4-0.1,0.6-0.3,0.6-0.7c0-0.3-0.1-0.5-0.4-0.7c-0.2-0.1-0.4-0.2-0.7-0.2
			c-0.2,0-0.5,0.1-0.7,0.2c0-0.1,0-0.1,0-0.2c0-0.2,0.2-0.3,0.5-0.3h0.9c0,0,0.1,0,0.1,0c0,0,0.1-0.1,0.1-0.1v-0.7h0.4l-0.3-0.5
			H97.7z"/>
		<polygon id="XMLID_942_" class="st34" points="97.5,133.6 97.8,134.1 98,134.1 97.7,133.6 		"/>
		<polygon id="XMLID_941_" class="st34" points="100.3,133.6 100.6,134.1 100.9,134.1 100.9,136.6 101.4,137 101.4,134.1 
			102.1,134.1 101.8,133.6 		"/>
		<polygon id="XMLID_940_" class="st34" points="100.1,133.6 100.4,134.1 100.6,134.1 100.3,133.6 		"/>
		<path id="XMLID_939_" class="st34" d="M105.6,135.8c-0.2-0.2-0.2-0.4-0.2-0.6c0-0.1,0-0.2,0.1-0.3c0.1-0.1,0.2-0.1,0.3-0.1
			c0.2,0,0.4,0.1,0.5,0.3c0.1,0.1,0.1,0.2,0.2,0.4c0.1-0.2,0.3-0.5,0.4-0.7c0,0,0-0.1-0.1-0.1c-0.2-0.2-0.4-0.2-0.7-0.2
			c-0.3,0-0.6,0.1-0.8,0.3c-0.2,0.2-0.4,0.5-0.4,0.9c0,0.3,0.1,0.6,0.3,0.7c0.2,0.1,0.4,0.2,0.6,0.2c0.1-0.1,0.2-0.3,0.2-0.4
			C105.9,136,105.8,136,105.6,135.8z"/>
		<path id="XMLID_938_" class="st34" d="M106.7,136.2c0.3-0.2,0.4-0.5,0.4-0.8c0-0.3-0.1-0.5-0.2-0.7c-0.1,0.2-0.3,0.5-0.4,0.7
			c0,0.1,0,0.2,0,0.2c0,0.3-0.1,0.4-0.4,0.4c0,0,0,0-0.1,0c-0.1,0.1-0.2,0.3-0.2,0.4c0,0,0,0,0.1,0
			C106.2,136.5,106.5,136.4,106.7,136.2z"/>
		<path id="XMLID_937_" class="st34" d="M107.2,133.7c0,0.1,0,0.2,0,0.3c0.1-0.1,0.2-0.3,0.2-0.4L107.2,133.7z"/>
		<path id="XMLID_1156_" class="st34" d="M108.9,136.8c0.4,0,0.7-0.1,0.9-0.4c0.2-0.2,0.3-0.6,0.3-1.1c0-0.4-0.1-0.8-0.4-1
			c-0.2-0.3-0.5-0.4-0.9-0.4c-0.4,0-0.6,0.3-0.6,0.8c0,0.3,0.1,0.5,0.3,0.7c0.2,0.2,0.4,0.2,0.6,0.2c0.1,0,0.3,0,0.4-0.1
			c0,0.2-0.1,0.4-0.3,0.5c-0.1,0.1-0.3,0.2-0.5,0.2c-0.5,0-0.9-0.3-1.1-0.9c-0.2-0.5-0.2-1-0.2-1.7l0,0c-0.1,0.1-0.2,0.3-0.2,0.4
			c0,0.6,0.1,1.2,0.3,1.7C107.9,136.4,108.3,136.8,108.9,136.8z M109.4,135.2c-0.1,0.1-0.2,0.2-0.3,0.2c-0.1,0-0.1,0-0.2-0.1
			c-0.1-0.1-0.1-0.2-0.1-0.2c0-0.1,0.1-0.3,0.2-0.4c0.1-0.1,0.2-0.2,0.3-0.2c0.2,0,0.3,0.1,0.3,0.4
			C109.6,134.9,109.5,135,109.4,135.2z"/>
		<path id="XMLID_1153_" class="st34" d="M102.6,141.1c0.3-0.3,0.4-0.5,0.4-0.8c0-0.2-0.1-0.5-0.3-0.8c-0.1-0.1-0.2-0.1-0.2-0.2
			c-0.2-0.1-0.3-0.1-0.5-0.1c-0.2,0-0.4,0-0.5,0.1c-0.2,0.1-0.3,0.3-0.3,0.5c0,0.3,0.1,0.5,0.4,0.8l0.3,0.3l-0.5,0.5l1,0.9
			c0.1,0.1,0.1,0.2,0.1,0.2c0.1-0.1,0.1-0.2,0.2-0.3l-0.6-0.6L102.6,141.1z M101.8,140.5c0-0.1-0.1-0.2-0.1-0.3c0-0.2,0-0.4,0.1-0.4
			c0.1-0.1,0.2-0.1,0.4-0.1c0.1,0,0.2,0.1,0.2,0.4c0,0.1,0,0.3-0.1,0.4c-0.1,0.2-0.2,0.3-0.3,0.3C102,140.7,101.9,140.6,101.8,140.5
			z"/>
		<path id="XMLID_932_" class="st34" d="M102.2,142.9L102.2,142.9C102.3,142.9,102.3,142.9,102.2,142.9
			C102.3,142.9,102.2,142.9,102.2,142.9z"/>
		<path id="XMLID_931_" class="st34" d="M102.4,142.6c0,0.1,0,0.1-0.1,0.2c0,0-0.1,0-0.1,0c0,0,0,0,0,0.1l0.4,0.3
			c0.1,0,0.2,0,0.2-0.1c0.1-0.1,0.1-0.2,0.1-0.3c0-0.1-0.1-0.3-0.2-0.4l-0.2-0.2C102.5,142.4,102.5,142.5,102.4,142.6
			C102.4,142.6,102.4,142.6,102.4,142.6z"/>
		<path id="XMLID_930_" class="st34" d="M103.5,139.7h0.5c0.1-0.2,0.2-0.3,0.3-0.5h-1L103.5,139.7z"/>
		<path id="XMLID_929_" class="st34" d="M104.7,139.7c0.1,0,0.2,0,0.2,0.1c0.1,0.1,0.1,0.1,0.1,0.2c0,0.1,0,0.2-0.1,0.3
			c-0.1,0.1-0.1,0.1-0.2,0.1c-0.1,0-0.2,0-0.3,0c-0.1,0-0.2,0-0.3,0c-0.3,0-0.4,0.1-0.4,0.3c0,0.3,0.2,0.4,0.5,0.4
			c0.2,0,0.3,0,0.6-0.1c0,0,0,0,0,0c0.1,0,0.2,0,0.3,0.1c0.1,0.1,0.1,0.2,0.1,0.3c0,0.1-0.1,0.2-0.2,0.3c-0.1,0.1-0.2,0.1-0.3,0.1
			c-0.1,0-0.2-0.1-0.3-0.2s-0.2-0.2-0.4-0.2c-0.1,0-0.1,0-0.1,0c-0.1,0.1-0.1,0.2-0.1,0.3c0,0.2,0.1,0.3,0.3,0.4
			c0.2,0.1,0.3,0.1,0.5,0.1l0.5,0.9l0.3-0.2l-0.4-0.8c0.2,0,0.4-0.1,0.5-0.2c0.2-0.1,0.2-0.3,0.2-0.6c0-0.4-0.1-0.6-0.4-0.7
			c0,0,0.1-0.1,0.1-0.2c0-0.1,0-0.2,0-0.3c0-0.3-0.1-0.5-0.3-0.8c-0.2-0.2-0.4-0.3-0.6-0.3h-0.2c-0.1,0.2-0.2,0.3-0.3,0.5H104.7z"/>
		<path id="XMLID_928_" class="st34" d="M108.5,143l0.4-0.1l-0.3-0.6c-0.1,0.2-0.1,0.3-0.2,0.5L108.5,143z"/>
		<path id="XMLID_927_" class="st34" d="M108.5,141.1c0-0.2,0-0.3-0.1-0.4c-0.1-0.1-0.2-0.2-0.4-0.2c-0.1,0-0.2,0-0.2,0.1
			c-0.1,0.1-0.1,0.2-0.1,0.3s0,0.2,0.1,0.3c0,0.2-0.1,0.4-0.3,0.4c-0.2,0-0.3-0.1-0.4-0.3c-0.1-0.2-0.2-0.4-0.2-0.6
			c0-0.3,0.1-0.5,0.2-0.8l-0.5-0.6c-0.2,0.4-0.3,0.8-0.3,1.1c0,0.5,0.2,0.8,0.5,1.1c0.3,0.2,0.6,0.4,0.9,0.4c0.1,0,0.3,0,0.4-0.1
			l0.4,1c0.1-0.2,0.1-0.3,0.2-0.5l-0.3-0.7C108.5,141.4,108.5,141.3,108.5,141.1z"/>
		<path id="XMLID_1144_" class="st34" d="M109.4,141.3c0.3,0.7,0.7,1.1,1.3,1.1c0.4,0,0.7-0.1,0.9-0.4c0.2-0.2,0.3-0.6,0.3-1.1
			c0-0.4-0.1-0.8-0.4-1c-0.2-0.3-0.5-0.4-0.9-0.4c-0.4,0-0.6,0.3-0.6,0.8c0,0.3,0.1,0.5,0.3,0.7c0.2,0.2,0.4,0.2,0.6,0.2
			c0.1,0,0.3,0,0.4-0.1c0,0.2-0.1,0.4-0.3,0.5c-0.1,0.1-0.3,0.2-0.5,0.2c-0.5,0-0.9-0.3-1.1-0.9c0-0.1-0.1-0.3-0.1-0.4
			c-0.1,0.1-0.1,0.3-0.2,0.4C109.3,141,109.4,141.1,109.4,141.3z M111.3,140.7c-0.1,0.1-0.2,0.2-0.3,0.2c-0.1,0-0.1,0-0.2-0.1
			s-0.1-0.2-0.1-0.2c0-0.1,0.1-0.3,0.2-0.4c0.1-0.1,0.2-0.2,0.3-0.2c0.2,0,0.3,0.1,0.3,0.4C111.4,140.5,111.4,140.6,111.3,140.7z"/>
		<path id="XMLID_924_" class="st34" d="M109.1,139.2c0,0.6,0.1,1.1,0.2,1.6c0.1-0.1,0.1-0.3,0.2-0.4c-0.1-0.4-0.1-0.8-0.1-1.2
			L109.1,139.2z"/>
		<polygon id="XMLID_923_" class="st35" points="102.7,135.4 102.4,135.9 104,135.9 104.4,135.4 		"/>
	</g>
	<g id="XMLID_1101_">
		<path id="XMLID_922_" class="st29" d="M189.4,134.5c0-0.1-0.1-0.1-0.2-0.1c-0.1,0-0.1,0-0.2,0.1c-0.1,0.1-0.1,0.2-0.1,0.3
			c0,0.2,0,0.7,0,1.7c0,0,0,0,0,0c0.2-0.4,0.5-0.9,0.7-1.3c0-0.1,0-0.2,0-0.3C189.5,134.8,189.4,134.6,189.4,134.5z"/>
		<path id="XMLID_921_" class="st29" d="M182.1,139.1h-0.3v1.6h0.2c0.3,0,0.4,0,0.6-0.1c0.1,0,0.2-0.1,0.3-0.3
			c0.1-0.1,0.1-0.3,0.1-0.5c0-0.3-0.1-0.5-0.2-0.6C182.6,139.1,182.4,139.1,182.1,139.1z"/>
		<path id="XMLID_1134_" class="st30" d="M188.3,137.5c-0.1-0.1-0.1-0.3-0.2-0.4c-0.1-0.3-0.1-0.6-0.1-0.9c0-0.4,0.1-0.8,0.2-1.1
			c0.1-0.3,0.2-0.5,0.4-0.6s0.4-0.2,0.6-0.2c0.2,0,0.4,0.1,0.6,0.2c0.1,0,0.1,0.1,0.1,0.1c0.6-1,1.1-2,1.6-2.8h-16.4v6.7h12.6
			C187.9,138.2,188.1,137.8,188.3,137.5z M181.4,134.4h-0.1c-0.1,0-0.2,0-0.3,0.1c0,0-0.1,0.1-0.1,0.1c0,0,0,0.2,0,0.3v2.4
			c0,0.2,0,0.3,0,0.4c0,0,0.1,0.1,0.1,0.1c0.1,0,0.1,0.1,0.2,0.1h0.1v0.1h-1.9v-0.1h0.1c0.1,0,0.2,0,0.3-0.1c0,0,0.1-0.1,0.1-0.1
			c0,0,0-0.2,0-0.3v-2.7l-1.4,3.4h-0.1l-1.4-3.4v2.6c0,0.2,0,0.3,0,0.3c0,0.1,0.1,0.2,0.2,0.2c0.1,0.1,0.2,0.1,0.4,0.1v0.1h-1.3
			v-0.1h0c0.1,0,0.2,0,0.2,0c0.1,0,0.1-0.1,0.2-0.1s0.1-0.1,0.1-0.2c0,0,0-0.1,0-0.3v-2.3c0-0.2,0-0.3,0-0.4c0,0-0.1-0.1-0.1-0.1
			c-0.1,0-0.1-0.1-0.2-0.1h-0.1v-0.1h1.5l1,2.4l1-2.4h1.5V134.4z M185.8,134.4h-0.1c-0.1,0-0.2,0-0.3,0.1c0,0-0.1,0.1-0.1,0.1
			c0,0,0,0.2,0,0.3v2.4c0,0.2,0,0.3,0,0.4c0,0,0.1,0.1,0.1,0.1c0.1,0,0.1,0.1,0.2,0.1h0.1v0.1h-1.9v-0.1h0.1c0.1,0,0.2,0,0.3-0.1
			c0,0,0.1-0.1,0.1-0.1c0,0,0-0.2,0-0.3v-1.1h-1.3v1.1c0,0.2,0,0.3,0,0.4c0,0,0.1,0.1,0.1,0.1c0.1,0,0.1,0.1,0.2,0.1h0.1v0.1h-1.9
			v-0.1h0.1c0.1,0,0.2,0,0.3-0.1c0,0,0.1-0.1,0.1-0.1c0,0,0-0.2,0-0.3v-2.4c0-0.2,0-0.3,0-0.4c0,0-0.1-0.1-0.1-0.1
			c-0.1,0-0.1-0.1-0.2-0.1h-0.1v-0.1h1.9v0.1h-0.1c-0.1,0-0.2,0-0.3,0.1c0,0-0.1,0.1-0.1,0.1c0,0,0,0.2,0,0.3v1h1.3v-1
			c0-0.2,0-0.3,0-0.4c0,0-0.1-0.1-0.1-0.1c-0.1,0-0.1-0.1-0.2-0.1h-0.1v-0.1h1.9V134.4z M186,137v-0.6h1.6v0.6H186z"/>
		<path id="XMLID_916_" class="st29" d="M192,141.8c0-0.1,0-0.2-0.1-0.4c-0.1,0.3-0.3,0.6-0.4,0.9c0.1,0,0.3-0.1,0.4-0.2
			C192,142.1,192,142,192,141.8z"/>
		<path id="XMLID_915_" class="st30" d="M196.7,138.5v-6.7h0c-0.9,1.7-2.1,4.2-3.3,6.7H196.7z"/>
		<path id="XMLID_914_" class="st31" d="M193.4,138.5c-0.1,0.1-0.1,0.2-0.2,0.3h2.2l-1.2,3.8h-0.4l1-3.1H194c-0.3,0-0.5,0-0.7,0.1
			c-0.1,0.1-0.2,0.2-0.3,0.3h-0.1l0.2-1.1c-0.3,0.6-0.6,1.2-0.9,1.8c0.1,0.2,0.2,0.4,0.2,0.6c0,0.2-0.1,0.5-0.2,0.7
			c-0.1,0.2-0.3,0.4-0.5,0.5c-0.1,0.1-0.2,0.1-0.4,0.1c-0.4,0.8-0.8,1.7-1.2,2.5h6.5v-6.6H193.4z"/>
		<path id="XMLID_1127_" class="st31" d="M184.8,142.6v-0.1h0.1c0.2,0,0.3,0,0.3-0.1s0.1-0.1,0.1-0.2s0-0.2,0-0.4v-1.9
			c0-0.2,0-0.3,0-0.3c0,0,0-0.1-0.1-0.1c0,0-0.1,0-0.2,0c-0.1,0-0.2,0-0.3,0.1l0-0.1l1.4-0.6h0.1v2.4c0.5-0.9,1-1.8,1.5-2.7h-12.6
			v6.6h8.9c0.5-0.8,0.9-1.7,1.4-2.5H184.8z M180.2,139c-0.1,0-0.2,0.1-0.3,0.1c-0.1,0.1-0.2,0.3-0.4,0.6l-0.8,1.3v0.9
			c0,0.2,0,0.3,0,0.4c0,0,0.1,0.1,0.1,0.1c0.1,0,0.1,0.1,0.2,0.1h0.2v0.1h-2.1v-0.1h0.2c0.1,0,0.2,0,0.3-0.1c0,0,0.1-0.1,0.1-0.1
			c0,0,0-0.2,0-0.3v-0.7l-0.9-1.6c-0.2-0.3-0.3-0.5-0.4-0.6c-0.1-0.1-0.2-0.1-0.3-0.1v-0.1h1.8v0.1H178c-0.1,0-0.2,0-0.2,0
			c0,0-0.1,0.1-0.1,0.1c0,0.1,0.1,0.2,0.2,0.5l0.7,1.2l0.7-1.1c0.2-0.3,0.2-0.5,0.2-0.5c0,0,0-0.1-0.1-0.1c-0.1,0-0.2-0.1-0.3-0.1
			v-0.1h1.1V139z M184.4,142.6h-1.2l-1.2-1.7h-0.2v1c0,0.2,0,0.3,0,0.4s0.1,0.1,0.1,0.1c0.1,0,0.2,0,0.3,0v0.1h-1.9v-0.1
			c0.2,0,0.3,0,0.3,0c0.1,0,0.1-0.1,0.1-0.1c0-0.1,0-0.2,0-0.4v-2.4c0-0.2,0-0.3,0-0.4c0-0.1-0.1-0.1-0.1-0.1c-0.1,0-0.2,0-0.3,0
			v-0.1h1.7c0.4,0,0.8,0,1,0.1c0.2,0.1,0.4,0.2,0.5,0.3s0.2,0.4,0.2,0.6c0,0.3-0.1,0.5-0.3,0.7c-0.1,0.1-0.3,0.2-0.5,0.3l0.9,1.3
			c0.1,0.2,0.2,0.3,0.2,0.3c0.1,0.1,0.2,0.1,0.3,0.1V142.6z"/>
		<path id="XMLID_1124_" class="st33" d="M191,142.6c-0.3,0-0.5-0.1-0.7-0.2c-0.1-0.1-0.2-0.2-0.2-0.3c0-0.1,0-0.1,0.1-0.2
			c0.1-0.1,0.1-0.1,0.2-0.1c0.1,0,0.1,0,0.2,0c0.1,0,0.2,0.1,0.4,0.2c0.1,0.1,0.2,0.1,0.3,0.2c0.1,0,0.1,0,0.2,0c0,0,0,0,0,0
			c0.1-0.3,0.3-0.6,0.4-0.9c-0.1-0.2-0.2-0.3-0.4-0.4c-0.3-0.2-0.7-0.3-1.2-0.3c0,0-0.1,0-0.2,0l0.7-1.9h1.7l-0.3,0.7h-1.5l-0.1,0.4
			c0.6,0,1.1,0.2,1.5,0.5c0.1,0.1,0.2,0.2,0.2,0.3c0.3-0.6,0.6-1.2,0.9-1.8l0-0.1h0c0.1-0.1,0.1-0.2,0.2-0.3h-5.7
			c-0.5,0.9-1,1.8-1.5,2.7v0.6c0,0.2,0,0.4,0,0.4s0.1,0.1,0.1,0.2c0.1,0,0.2,0.1,0.3,0.1h0.1v0.1h-1.3c-0.5,0.9-1,1.7-1.4,2.5h6.2
			c0.4-0.8,0.8-1.6,1.2-2.5C191.3,142.6,191.1,142.6,191,142.6z M189.2,142.2c-0.3,0.3-0.7,0.4-1.1,0.4c-0.3,0-0.5-0.1-0.7-0.2
			c-0.1-0.1-0.2-0.2-0.2-0.3c0-0.1,0-0.2,0.1-0.2c0.1-0.1,0.1-0.1,0.2-0.1c0.1,0,0.1,0,0.2,0c0,0,0.1,0.1,0.3,0.2s0.3,0.2,0.5,0.2
			c0.1,0,0.3-0.1,0.3-0.2s0.1-0.2,0.1-0.4c0-0.2-0.1-0.5-0.3-0.7c-0.2-0.2-0.4-0.4-0.8-0.4v-0.1c0.2-0.1,0.4-0.1,0.4-0.2
			c0.1-0.1,0.1-0.1,0.2-0.2c0.1-0.1,0.1-0.2,0.1-0.3c0-0.2-0.1-0.3-0.2-0.4s-0.2-0.2-0.4-0.2c-0.3,0-0.5,0.1-0.7,0.4l-0.1,0
			c0.1-0.3,0.3-0.5,0.5-0.7c0.2-0.2,0.4-0.2,0.7-0.2c0.3,0,0.5,0.1,0.6,0.2c0.2,0.2,0.2,0.3,0.2,0.5c0,0.1,0,0.3-0.1,0.4
			c-0.1,0.1-0.2,0.2-0.4,0.3c0.2,0.1,0.4,0.2,0.5,0.4c0.1,0.2,0.2,0.3,0.2,0.6C189.6,141.6,189.5,142,189.2,142.2z"/>
		<path id="XMLID_908_" class="st32" d="M188.8,137.6c0,0.1,0.1,0.2,0.1,0.3c0.1,0,0.1,0.1,0.2,0.1c0.1,0,0.2,0,0.2-0.1
			c0.1-0.1,0.1-0.3,0.1-0.5l0-1.2c0-0.4,0-0.7,0-0.9c-0.2,0.4-0.5,0.8-0.7,1.3C188.8,137,188.8,137.4,188.8,137.6z"/>
		<path id="XMLID_1120_" class="st31" d="M190.2,135c0.1,0.3,0.2,0.7,0.2,1.1c0,0.4-0.1,0.7-0.2,1c-0.1,0.2-0.1,0.4-0.2,0.5
			c-0.1,0.1-0.2,0.2-0.4,0.3c-0.1,0.1-0.3,0.1-0.4,0.1c-0.2,0-0.3,0-0.5-0.1c-0.1-0.1-0.3-0.2-0.4-0.4c0,0,0,0,0-0.1
			c-0.2,0.3-0.4,0.7-0.6,1h5.7c1.2-2.6,2.4-5,3.3-6.7h-5.2c-0.5,0.8-1,1.8-1.6,2.8C190,134.7,190.1,134.9,190.2,135z M191,134.3h2.2
			l-1.2,3.8h-0.4l1-3.1h-0.8c-0.3,0-0.5,0-0.7,0.1c-0.1,0.1-0.2,0.2-0.3,0.3h-0.1L191,134.3z"/>
		<path id="XMLID_905_" class="st36" d="M178.9,136.7l-1-2.4h-1.5v0.1h0.1c0.1,0,0.2,0,0.2,0.1c0.1,0,0.1,0.1,0.1,0.1
			c0,0,0,0.2,0,0.4v2.3c0,0.2,0,0.3,0,0.3c0,0.1,0,0.2-0.1,0.2s-0.1,0.1-0.2,0.1c-0.1,0-0.1,0-0.2,0h0v0.1h1.3v-0.1
			c-0.2,0-0.3,0-0.4-0.1c-0.1-0.1-0.1-0.1-0.2-0.2c0,0,0-0.2,0-0.3v-2.6l1.4,3.4h0.1l1.4-3.4v2.7c0,0.2,0,0.3,0,0.3
			c0,0.1-0.1,0.1-0.1,0.1c-0.1,0-0.2,0.1-0.3,0.1h-0.1v0.1h1.9v-0.1h-0.1c-0.1,0-0.2,0-0.2-0.1c-0.1,0-0.1-0.1-0.1-0.1
			c0,0,0-0.2,0-0.4v-2.4c0-0.2,0-0.3,0-0.3c0-0.1,0.1-0.1,0.1-0.1c0.1,0,0.2-0.1,0.3-0.1h0.1v-0.1h-1.5L178.9,136.7z"/>
		<path id="XMLID_904_" class="st36" d="M183.8,134.4h0.1c0.1,0,0.2,0,0.2,0.1c0.1,0,0.1,0.1,0.1,0.1c0,0,0,0.2,0,0.4v1h-1.3v-1
			c0-0.2,0-0.3,0-0.3c0-0.1,0.1-0.1,0.1-0.1c0.1,0,0.2-0.1,0.3-0.1h0.1v-0.1h-1.9v0.1h0.1c0.1,0,0.2,0,0.2,0.1
			c0.1,0,0.1,0.1,0.1,0.1c0,0,0,0.2,0,0.4v2.4c0,0.2,0,0.3,0,0.3c0,0.1-0.1,0.1-0.1,0.1c-0.1,0-0.2,0.1-0.3,0.1h-0.1v0.1h1.9v-0.1
			h-0.1c-0.1,0-0.2,0-0.2-0.1c-0.1,0-0.1-0.1-0.1-0.1c0,0,0-0.2,0-0.4v-1.1h1.3v1.1c0,0.2,0,0.3,0,0.3c0,0.1-0.1,0.1-0.1,0.1
			c-0.1,0-0.2,0.1-0.3,0.1h-0.1v0.1h1.9v-0.1h-0.1c-0.1,0-0.2,0-0.2-0.1c-0.1,0-0.1-0.1-0.1-0.1c0,0,0-0.2,0-0.4v-2.4
			c0-0.2,0-0.3,0-0.3c0-0.1,0.1-0.1,0.1-0.1c0.1,0,0.2-0.1,0.3-0.1h0.1v-0.1h-1.9V134.4z"/>
		<rect id="XMLID_902_" x="186" y="136.4" class="st36" width="1.6" height="0.6"/>
		<path id="XMLID_901_" class="st36" d="M188.8,136.5c0-1,0-1.5,0-1.7c0-0.2,0.1-0.3,0.1-0.3c0,0,0.1-0.1,0.2-0.1
			c0.1,0,0.2,0,0.2,0.1c0.1,0.1,0.1,0.3,0.1,0.5c0,0,0,0.1,0,0.3c0.1-0.2,0.3-0.5,0.4-0.7c0,0-0.1-0.1-0.1-0.1
			c-0.2-0.1-0.4-0.2-0.6-0.2c-0.2,0-0.4,0.1-0.6,0.2s-0.3,0.4-0.4,0.6c-0.1,0.3-0.2,0.7-0.2,1.1c0,0.3,0,0.6,0.1,0.9
			c0.1,0.2,0.1,0.3,0.2,0.4C188.4,137.2,188.6,136.9,188.8,136.5C188.8,136.5,188.8,136.5,188.8,136.5z"/>
		<path id="XMLID_900_" class="st36" d="M188.7,137.9c0.1,0.1,0.3,0.1,0.5,0.1c0.2,0,0.3,0,0.4-0.1c0.1-0.1,0.3-0.2,0.4-0.3
			c0.1-0.1,0.2-0.3,0.2-0.5c0.1-0.3,0.2-0.7,0.2-1c0-0.4-0.1-0.8-0.2-1.1c-0.1-0.2-0.2-0.3-0.3-0.4c-0.1,0.2-0.3,0.5-0.4,0.7
			c0,0.2,0,0.5,0,0.9l0,1.2c0,0.2-0.1,0.4-0.1,0.5c0,0.1-0.1,0.1-0.2,0.1c-0.1,0-0.2,0-0.2-0.1c-0.1,0-0.1-0.1-0.1-0.3
			c0-0.2-0.1-0.5-0.1-1c-0.2,0.3-0.4,0.6-0.5,0.9c0,0,0,0,0,0.1C188.4,137.7,188.5,137.9,188.7,137.9z"/>
		<path id="XMLID_899_" class="st36" d="M191.1,135.1c0.2-0.1,0.4-0.1,0.7-0.1h0.8l-1,3.1h0.4l1.2-3.8H191l-0.3,1.1h0.1
			C190.9,135.3,191,135.2,191.1,135.1z"/>
		<path id="XMLID_898_" class="st36" d="M179.1,139c0.2,0,0.3,0,0.3,0.1c0,0,0.1,0.1,0.1,0.1c0,0.1-0.1,0.3-0.2,0.5l-0.7,1.1
			l-0.7-1.2c-0.1-0.3-0.2-0.4-0.2-0.5c0,0,0-0.1,0.1-0.1c0,0,0.1,0,0.2,0h0.1v-0.1h-1.8v0.1c0.1,0,0.2,0,0.3,0.1
			c0.1,0.1,0.2,0.2,0.4,0.6l0.9,1.6v0.7c0,0.2,0,0.3,0,0.3c0,0.1-0.1,0.1-0.1,0.1c-0.1,0-0.2,0.1-0.3,0.1h-0.2v0.1h2.1v-0.1h-0.2
			c-0.1,0-0.2,0-0.2-0.1c-0.1,0-0.1-0.1-0.1-0.1c0,0,0-0.2,0-0.4V141l0.8-1.3c0.2-0.3,0.3-0.5,0.4-0.6c0.1-0.1,0.2-0.1,0.3-0.1v-0.1
			h-1.1V139z"/>
		<path id="XMLID_1110_" class="st36" d="M183.9,142.1l-0.9-1.3c0.2-0.1,0.4-0.1,0.5-0.3c0.2-0.2,0.3-0.4,0.3-0.7
			c0-0.2-0.1-0.4-0.2-0.6s-0.3-0.3-0.5-0.3c-0.2-0.1-0.5-0.1-1-0.1h-1.7v0.1c0.2,0,0.3,0,0.3,0c0.1,0,0.1,0.1,0.1,0.1
			c0,0.1,0,0.2,0,0.4v2.4c0,0.2,0,0.3,0,0.4c0,0.1-0.1,0.1-0.1,0.1c-0.1,0-0.2,0-0.3,0v0.1h1.9v-0.1c-0.2,0-0.3,0-0.3,0
			c-0.1,0-0.1-0.1-0.1-0.1s0-0.2,0-0.4v-1h0.2l1.2,1.7h1.2v-0.1c-0.1,0-0.2,0-0.3-0.1C184.1,142.3,184,142.2,183.9,142.1z
			 M182.8,140.4c-0.1,0.1-0.2,0.2-0.3,0.3c-0.1,0-0.3,0.1-0.6,0.1h-0.2v-1.6h0.3c0.3,0,0.5,0.1,0.6,0.2c0.1,0.1,0.2,0.3,0.2,0.6
			C182.9,140.1,182.9,140.2,182.8,140.4z"/>
		<path id="XMLID_894_" class="st36" d="M186.1,138.8l-1.4,0.6l0,0.1c0.1-0.1,0.2-0.1,0.3-0.1c0.1,0,0.1,0,0.2,0
			c0,0,0.1,0.1,0.1,0.1c0,0,0,0.1,0,0.3v1.9c0,0.2,0,0.4,0,0.4s-0.1,0.1-0.1,0.2s-0.2,0.1-0.3,0.1h-0.1v0.1h0.7
			c0.2-0.4,0.5-0.9,0.7-1.3L186.1,138.8L186.1,138.8z"/>
		<path id="XMLID_893_" class="st36" d="M186.7,142.6v-0.1h-0.1c-0.1,0-0.2,0-0.3-0.1c-0.1,0-0.1-0.1-0.1-0.2s0-0.2,0-0.4v-0.6
			c-0.3,0.4-0.5,0.9-0.7,1.3H186.7z"/>
		<path id="XMLID_892_" class="st36" d="M189,140.3c0.2-0.1,0.3-0.2,0.4-0.3c0.1-0.1,0.1-0.3,0.1-0.4c0-0.2-0.1-0.4-0.2-0.5
			c-0.2-0.2-0.4-0.2-0.6-0.2c-0.3,0-0.5,0.1-0.7,0.2c-0.2,0.2-0.4,0.4-0.5,0.7l0.1,0c0.2-0.3,0.4-0.4,0.7-0.4c0.2,0,0.3,0.1,0.4,0.2
			s0.2,0.2,0.2,0.4c0,0.1,0,0.2-0.1,0.3c-0.1,0.1-0.1,0.2-0.2,0.2c-0.1,0.1-0.2,0.1-0.4,0.2v0.1c0.3,0.1,0.6,0.2,0.8,0.4
			c0.2,0.2,0.3,0.4,0.3,0.7c0,0.2,0,0.3-0.1,0.4s-0.2,0.2-0.3,0.2c-0.2,0-0.3-0.1-0.5-0.2s-0.3-0.2-0.3-0.2c-0.1,0-0.1,0-0.2,0
			c-0.1,0-0.1,0-0.2,0.1c-0.1,0.1-0.1,0.1-0.1,0.2c0,0.1,0.1,0.2,0.2,0.3c0.1,0.1,0.4,0.2,0.7,0.2c0.5,0,0.8-0.1,1.1-0.4
			c0.3-0.3,0.4-0.6,0.4-1c0-0.2-0.1-0.4-0.2-0.6C189.3,140.5,189.2,140.4,189,140.3z"/>
		<path id="XMLID_891_" class="st36" d="M192,141.8c0,0.2-0.1,0.3-0.2,0.4c-0.1,0.1-0.2,0.2-0.4,0.2c0,0.1-0.1,0.2-0.1,0.2
			c0.1,0,0.3-0.1,0.4-0.1c0.2-0.1,0.4-0.3,0.5-0.5c0.1-0.2,0.2-0.4,0.2-0.7c0-0.2-0.1-0.4-0.2-0.6c-0.1,0.3-0.2,0.5-0.4,0.8
			C192,141.6,192,141.7,192,141.8z"/>
		<path id="XMLID_890_" class="st36" d="M191.5,142.4c-0.1,0-0.1,0-0.2,0c-0.1,0-0.2-0.1-0.3-0.2c-0.2-0.1-0.3-0.2-0.4-0.2
			c-0.1,0-0.1,0-0.2,0c-0.1,0-0.1,0-0.2,0.1c-0.1,0.1-0.1,0.1-0.1,0.2c0,0.1,0.1,0.2,0.2,0.3c0.2,0.1,0.4,0.2,0.7,0.2
			c0.1,0,0.3,0,0.4,0C191.4,142.5,191.5,142.4,191.5,142.4C191.5,142.4,191.5,142.4,191.5,142.4z"/>
		<path id="XMLID_888_" class="st36" d="M190.7,139.9l0.1-0.4h1.5l0.3-0.7h-1.7l-0.7,1.9c0.1,0,0.2,0,0.2,0c0.5,0,0.9,0.1,1.2,0.3
			c0.2,0.1,0.3,0.3,0.4,0.4c0.1-0.3,0.2-0.5,0.4-0.8c-0.1-0.1-0.1-0.2-0.2-0.3C191.8,140.1,191.3,140,190.7,139.9z"/>
		<path id="XMLID_887_" class="st36" d="M192.9,140h0.1c0.1-0.2,0.2-0.3,0.3-0.3c0.2-0.1,0.4-0.1,0.7-0.1h0.8l-1,3.1h0.4l1.2-3.8
			h-2.2c0,0,0,0.1,0,0.1L192.9,140z"/>
		<path id="XMLID_886_" class="st36" d="M193.2,138.9C193.2,138.9,193.2,138.9,193.2,138.9L193.2,138.9L193.2,138.9z"/>
	</g>
	<path id="XMLID_885_" class="st14" d="M175,194.1h-61.9c-2.2,0-4,1.8-4,4l0,0H179l0,0C179,195.9,177.2,194.1,175,194.1z"/>
	<path id="XMLID_1094_" class="st0" d="M205,70.9c-1.4-1.3-2.9-2.5-4.5-3.3c-2.1-1.1-4.4-1.7-6.7-1.7c0,0-98.9,0-98.9,0
		c-5.5,0-10.8,3.5-14.4,7.6c-0.2,0.2-0.7,1.1-0.9,1.1c1.8-0.3,3.8-0.5,5.8-0.5H203c1.8,0,3.6,0.1,5.3,0.4c-0.2,0-0.9-1.1-1-1.3
		C206.6,72.5,205.8,71.7,205,70.9z M85.7,69.6c-0.1,0-0.1,0-0.2,0.1C85.5,69.7,85.6,69.6,85.7,69.6z M91.6,68.1c-0.1,0-0.3,0-0.4,0
		C91.3,68.1,91.5,68.1,91.6,68.1z M90.4,68.2c-0.1,0-0.2,0-0.3,0C90.2,68.3,90.3,68.2,90.4,68.2z M88.5,68.6c-0.1,0-0.2,0.1-0.3,0.1
		C88.3,68.6,88.4,68.6,88.5,68.6z"/>
	<path id="XMLID_878_" class="st4" d="M210,77.4L210,77.4c-1.8-0.5-3.8-0.8-6-0.8H84.5c-2.4,0-4.6,0.3-6.5,0.9
		c-0.8,1.9-1.3,4-1.3,6.2v3h3.2c0-0.2,0.1-0.3,0.1-0.5c0-0.2,0.1-0.3,0.1-0.5c0.3-1.2,0.9-2.4,1.6-3.4c0.2-0.3,0.4-0.6,0.7-0.9
		c0.1-0.1,0.2-0.2,0.3-0.3c0.1-0.1,0.1-0.1,0.2-0.2c0.1-0.1,0.2-0.3,0.3-0.4c0.2-0.2,0.5-0.5,0.7-0.7c0.1-0.1,0.3-0.2,0.4-0.3
		c0.1-0.1,0.3-0.2,0.4-0.3c0.1-0.1,0.3-0.2,0.4-0.3c0.1-0.1,0.3-0.2,0.4-0.3c0,0,0.1,0,0.1,0c0.1-0.1,0.3-0.2,0.4-0.2
		c0.6-0.3,1.2-0.6,1.9-0.8c0.2-0.1,0.3-0.1,0.5-0.2c0.1,0,0.3-0.1,0.4-0.1c0.4-0.1,0.8-0.2,1.2-0.2c0.2,0,0.3,0,0.5,0
		c0.1,0,0.3,0,0.4,0c0.2,0,0.4,0,0.6,0c0,0,0,0,0,0h105c0.2,0,0.4,0,0.6,0c2,0.1,3.8,0.7,5.4,1.6c0.1,0.1,0.3,0.2,0.4,0.2
		c0.1,0.1,0.3,0.2,0.4,0.3c0.1,0.1,0.3,0.2,0.4,0.3c0.1,0.1,0.3,0.2,0.4,0.3c0.3,0.2,0.5,0.4,0.7,0.7c0.1,0.1,0.2,0.2,0.3,0.4
		c0.2,0.2,0.5,0.5,0.7,0.8c0.1,0.1,0.2,0.3,0.3,0.4c0.1,0.1,0.2,0.3,0.3,0.4c0.2,0.3,0.4,0.6,0.5,0.9c0.2,0.3,0.3,0.6,0.4,0.9
		c0.1,0.2,0.1,0.3,0.2,0.5c0.2,0.6,0.4,1.3,0.6,2h3.2v-3C211.3,81.5,210.8,79.3,210,77.4z"/>
	<path id="XMLID_877_" class="st37" d="M204,75.9c2,0,3.9,0.2,5.6,0.6c0-0.1-0.1-0.2-0.1-0.3c-0.3-0.6-0.7-1.2-1.1-1.7
		c-1.7-0.3-3.4-0.4-5.3-0.4H85.5c-2,0-4,0.2-5.8,0.5v0c-0.2,0.3-0.5,0.6-0.7,1c-0.2,0.3-0.4,0.7-0.6,1.1c1.8-0.5,3.9-0.8,6.1-0.8
		H204z"/>
	<path id="XMLID_876_" class="st38" d="M204,76.7c2.2,0,4.2,0.3,6,0.8h0c-0.1-0.3-0.3-0.5-0.4-0.8h0c-1.7-0.4-3.6-0.7-5.6-0.7H84.5
		c-2.2,0-4.3,0.3-6.1,0.8c0,0,0,0,0,0c-0.1,0.3-0.3,0.5-0.4,0.8c1.9-0.6,4.2-0.9,6.5-0.9H204z"/>
	<path id="XMLID_875_" class="st38" d="M204,75.9c2,0,3.9,0.2,5.6,0.7h0c0,0,0,0,0,0C207.9,76.1,206,75.9,204,75.9l-119.5,0
		c-2.2,0-4.3,0.3-6.1,0.8c0,0,0,0,0,0c1.8-0.5,3.9-0.8,6.1-0.8H204z"/>
	<path id="XMLID_874_" class="st7" d="M182.6,198.1l-5,5c-0.5,0.5-1.2,0.8-2,0.8h-22.8l-0.6,0.5c-0.7,0.6-1.6,1-2.5,1h-11.1
		c-0.9,0-1.8-0.4-2.5-1l-0.6-0.5h-22.8c-0.7,0-1.5-0.3-2-0.8l-5-5h6.3l1.7,1.7c0.8,0.8,1.9,1.3,3.1,1.3h4.8c0,0,0.4-2.9,0-2.9h46
		c-0.4,0,0,2.9,0,2.9h4.8c1.2,0,2.3-0.4,3.1-1.3l1.7-1.7H182.6z"/>
	<g id="XMLID_1084_">
		<path id="XMLID_873_" class="st39" d="M212.3,139.4v2.6c0,0.5-0.4,0.8-1,0.8h-8.6v-4.2h8.6C211.8,138.6,212.3,138.9,212.3,139.4z"
			/>
		<path id="XMLID_872_" class="st40" d="M212.3,139.4v2.4c-0.1,0.1-0.1,0.1-0.2,0.1h-7.5c-0.6,0-1.1-0.4-1.1-0.9v-2.5h7.8
			C211.8,138.6,212.3,138.9,212.3,139.4z"/>
		<path id="XMLID_871_" class="st39" d="M204.6,140h-1.3c-0.2,0-0.4-0.2-0.4-0.4l0,0c0-0.2,0.2-0.4,0.4-0.4h1.3
			c0.2,0,0.4,0.2,0.4,0.4l0,0C205,139.8,204.9,140,204.6,140z"/>
		<path id="XMLID_870_" class="st39" d="M204.6,141.4h-1.3c-0.2,0-0.4-0.2-0.4-0.4l0,0c0-0.2,0.2-0.4,0.4-0.4h1.3
			c0.2,0,0.4,0.2,0.4,0.4l0,0C205,141.2,204.9,141.4,204.6,141.4z"/>
	</g>
	<g id="XMLID_1079_">
		<path id="XMLID_869_" class="st39" d="M75.7,139.4v2.6c0,0.5,0.4,0.8,1,0.8h8.6v-4.2h-8.6C76.1,138.6,75.7,138.9,75.7,139.4z"/>
		<path id="XMLID_868_" class="st40" d="M75.7,139.4v2.4c0.1,0.1,0.1,0.1,0.2,0.1h7.5c0.6,0,1.1-0.4,1.1-0.9v-2.5h-7.8
			C76.1,138.6,75.7,138.9,75.7,139.4z"/>
		<path id="XMLID_866_" class="st39" d="M83.3,140h1.3c0.2,0,0.4-0.2,0.4-0.4l0,0c0-0.2-0.2-0.4-0.4-0.4h-1.3
			c-0.2,0-0.4,0.2-0.4,0.4l0,0C82.9,139.8,83.1,140,83.3,140z"/>
		<path id="XMLID_865_" class="st39" d="M83.3,141.4h1.3c0.2,0,0.4-0.2,0.4-0.4l0,0c0-0.2-0.2-0.4-0.4-0.4h-1.3
			c-0.2,0-0.4,0.2-0.4,0.4l0,0C82.9,141.2,83.1,141.4,83.3,141.4z"/>
	</g>
	<g id="XMLID_1067_">
		<path id="XMLID_864_" class="st41" d="M101.5,160.5v7.2c0,0.7-0.5,1.3-1.1,1.5c-0.1,0-0.3,0.1-0.5,0.1H86.7
			c-0.9,0-1.6-0.7-1.6-1.6v-7.2c0-0.8,0.5-1.4,1.2-1.5c0.1,0,0.2,0,0.4,0h13.2C100.8,158.9,101.5,159.6,101.5,160.5z"/>
		<path id="XMLID_863_" class="st42" d="M89.7,160.1c0,0,9.2,0,9.2,0l0,0c0.8,0,1.5,0.7,1.5,1.5v3.9v1.3h-0.8
			c-1.1,0-1.9-1.2-1.4-2.2c0.9-1.7,1.2-3.7-3-2.8C95.3,161.8,84.2,165.4,89.7,160.1z"/>
		<path id="XMLID_862_" class="st43" d="M93.1,164.2c-2.4-0.4-4.8,1.1-6.5,2.7c-0.3,0.3-0.5,0.7-0.2,1.1c0.2,0.2,0.5,0.4,0.8,0.4
			c1.3,0.3,2.6,0.4,3.9,0.4c1.4,0.1,2.7,0,4.1,0c0.1,0,0.2,0,0.3-0.1c0.1-0.1,0.1-0.2,0-0.4s-0.2-0.2-0.3-0.3
			c-1-0.6-2.2-1.2-3.4-1.4c-0.1,0-0.2,0-0.2-0.1c-0.2-0.2,1.5-0.7,1.7-0.8c0.1,0,0.1,0,0.2-0.1c0.1-0.1,0.1-0.1,0.1-0.2
			c0.1-0.2,0.1-0.3,0.2-0.5c0-0.1,0.1-0.2,0.1-0.4C93.9,164.4,93.5,164.3,93.1,164.2z"/>
		<path id="XMLID_861_" class="st44" d="M87.9,159.1v6.8c0,0.1,0,0.2,0,0.2c-0.1,0.3-0.4,0.5-0.7,0.5c0,0,0,0,0,0
			c-0.4,0-0.8-0.4-0.8-0.8v-6.7c0.1,0,0.2,0,0.4,0H87.9z"/>
		<path id="XMLID_859_" class="st44" d="M90.2,159.1v6.8c0,0.4-0.4,0.8-0.8,0.8c-0.4,0-0.8-0.4-0.8-0.8v-6.8H90.2z"/>
		<path id="XMLID_858_" class="st44" d="M92.4,159.1v6.8c0,0.4-0.3,0.8-0.8,0.8c-0.4,0-0.8-0.4-0.8-0.8v-6.8H92.4z"/>
		<path id="XMLID_857_" class="st44" d="M94.9,159.1v6.8c0,0.4-0.3,0.8-0.8,0.8c-0.3,0-0.6-0.2-0.7-0.5c0-0.1,0-0.2,0-0.3v-6.8H94.9
			z"/>
		<path id="XMLID_856_" class="st44" d="M97.5,165.8v3.2h-0.7v-3.2c0-0.2,0.1-0.3,0.3-0.3S97.5,165.7,97.5,165.8z"/>
		<path id="XMLID_855_" class="st44" d="M98.4,165.8v3.2h-0.6v-3.2c0-0.2,0.1-0.3,0.3-0.3c0.1,0,0.1,0,0.1,0l0,0
			C98.4,165.6,98.4,165.7,98.4,165.8z"/>
		<path id="XMLID_854_" class="st44" d="M99.4,165.8v3.2h-0.6v-3.2c0-0.2,0.1-0.3,0.3-0.3S99.4,165.7,99.4,165.8z"/>
		<path id="XMLID_852_" class="st44" d="M100.4,165.8v3.1c-0.1,0-0.3,0.1-0.5,0.1h-0.2v-3.2c0-0.2,0.2-0.3,0.3-0.3
			S100.4,165.7,100.4,165.8z"/>
	</g>
	<g id="XMLID_837_">
		<path id="XMLID_851_" class="st41" d="M186.2,160.6v7.2c0,0.7,0.5,1.3,1.1,1.5c0.1,0,0.3,0.1,0.5,0.1h13.2c0.9,0,1.6-0.7,1.6-1.6
			v-7.2c0-0.8-0.5-1.4-1.2-1.5c-0.1,0-0.2,0-0.4,0h-13.2C187,159,186.2,159.7,186.2,160.6z"/>
		<path id="XMLID_850_" class="st42" d="M198,160.3c0,0-9.2,0-9.2,0l0,0c-0.8,0-1.5,0.7-1.5,1.5v3.9v1.3h0.8c1.1,0,1.9-1.2,1.4-2.2
			c-0.9-1.7-1.2-3.7,3-2.8C192.5,161.9,203.5,165.5,198,160.3z"/>
		<path id="XMLID_849_" class="st43" d="M194.6,164.4c2.4-0.4,4.8,1.1,6.5,2.7c0.3,0.3,0.5,0.7,0.2,1.1c-0.2,0.2-0.5,0.4-0.8,0.4
			c-1.3,0.3-2.6,0.4-3.9,0.4c-1.4,0.1-2.7,0-4.1,0c-0.1,0-0.2,0-0.3-0.1c-0.1-0.1-0.1-0.2,0-0.4c0.1-0.1,0.2-0.2,0.3-0.3
			c1-0.6,2.2-1.2,3.4-1.4c0.1,0,0.2,0,0.2-0.1c0.2-0.2-1.5-0.7-1.7-0.8c-0.1,0-0.1,0-0.2-0.1c-0.1-0.1-0.1-0.1-0.1-0.2
			c-0.1-0.2-0.1-0.3-0.2-0.5c0-0.1-0.1-0.2-0.1-0.4C193.9,164.6,194.3,164.4,194.6,164.4z"/>
		<path id="XMLID_848_" class="st44" d="M199.8,159.2v6.8c0,0.1,0,0.2,0,0.2c0.1,0.3,0.4,0.5,0.7,0.5c0,0,0,0,0,0
			c0.4,0,0.8-0.4,0.8-0.8v-6.7c-0.1,0-0.2,0-0.4,0H199.8z"/>
		<path id="XMLID_843_" class="st44" d="M197.6,159.2v6.8c0,0.4,0.4,0.8,0.8,0.8c0.4,0,0.8-0.4,0.8-0.8v-6.8H197.6z"/>
		<path id="XMLID_842_" class="st44" d="M195.4,159.2v6.8c0,0.4,0.3,0.8,0.8,0.8c0.4,0,0.8-0.4,0.8-0.8v-6.8H195.4z"/>
		<path id="XMLID_841_" class="st44" d="M192.9,159.2v6.8c0,0.4,0.3,0.8,0.8,0.8c0.3,0,0.6-0.2,0.7-0.5c0-0.1,0-0.2,0-0.3v-6.8
			H192.9z"/>
		<path id="XMLID_838_" class="st44" d="M190.2,166v3.2h0.7V166c0-0.2-0.1-0.3-0.3-0.3S190.2,165.8,190.2,166z"/>
		<path id="XMLID_836_" class="st44" d="M189.3,166v3.2h0.6V166c0-0.2-0.1-0.3-0.3-0.3c-0.1,0-0.1,0-0.1,0l0,0
			C189.4,165.7,189.3,165.8,189.3,166z"/>
		<path id="XMLID_829_" class="st44" d="M188.4,166v3.2h0.6V166c0-0.2-0.1-0.3-0.3-0.3S188.4,165.8,188.4,166z"/>
		<path id="XMLID_826_" class="st44" d="M187.4,166v3.1c0.1,0,0.3,0.1,0.5,0.1h0.2V166c0-0.2-0.2-0.3-0.3-0.3S187.4,165.8,187.4,166
			z"/>
	</g>
	<circle id="XMLID_825_" class="st4" cx="122.2" cy="136.8" r="0.7"/>
	<circle id="XMLID_824_" class="st4" cx="133.1" cy="136.8" r="0.7"/>
	<circle id="XMLID_823_" class="st4" cx="144" cy="136.8" r="0.7"/>
	<circle id="XMLID_822_" class="st4" cx="154.9" cy="136.8" r="0.7"/>
	<circle id="XMLID_821_" class="st4" cx="165.8" cy="136.8" r="0.7"/>
</g>
</svg>
