<?xml version="1.0" encoding="utf-8"?>
<!-- Generator: Adobe Illustrator 19.0.0, SVG Export Plug-In . SVG Version: 6.00 Build 0)  -->
<svg version="1.1" id="Layer_1" xmlns="http://www.w3.org/2000/svg" xmlns:xlink="http://www.w3.org/1999/xlink" x="0px" y="0px"
	 viewBox="-161 253 288 288" style="enable-background:new -161 253 288 288;" xml:space="preserve">
<style type="text/css">
	.st0{fill:#F1F0F2;}
	.st1{fill:#E6E7E8;}
	.st2{fill:#333333;}
	.st3{fill:#752289;}
	.st4{fill:#161616;}
	.st5{fill:#2F3333;}
	.st6{fill:#C5C4C6;}
	.st7{fill:#FAAF40;}
	.st8{fill:#232323;}
	.st9{fill:#212323;}
	.st10{fill:none;stroke:#262828;stroke-miterlimit:10;}
	.st11{fill:#DDDDDC;}
	.st12{fill:#EDEDEF;}
	.st13{fill:#F4ECDE;}
	.st14{fill:#EEDDB8;}
	.st15{fill:#F4F3F2;}
	.st16{fill:#F9F8F7;}
	.st17{fill:#FFFFFF;}
	.st18{fill:#F89F2A;}
	.st19{fill:#231F20;}
	.st20{fill:#231F20;stroke:#231F20;stroke-width:0.15;}
	.st21{fill:#231F20;stroke:#231F20;stroke-width:0.15;stroke-miterlimit:10;}
	.st22{opacity:0.52;fill:#1A1C1C;}
	.st23{fill:#802387;}
	.st24{fill:#F05A28;}
	.st25{fill:#1B1D1D;}
	.st26{fill:#6A0A72;}
	.st27{fill:#515151;}
	.st28{fill:#D1D1D1;}
	.st29{fill:#9F4FAA;}
	.st30{fill:#423341;}
	.st31{fill:#9B9B9B;}
</style>
<path id="XMLID_71_" class="st0" d="M50.3,437.2H-84.3V335.6c0-8.6,7-15.6,15.6-15.6H34.6c8.6,0,15.6,7,15.6,15.6V437.2z"/>
<g id="XMLID_70_">
	<path class="st1" d="M43.8,380H-77.8c-1.9,0-3.5-1.6-3.5-3.5v-35.6c0-6.5,5.3-11.8,11.8-11.8h105c6.5,0,11.8,5.3,11.8,11.8v35.6
		C47.3,378.4,45.8,380,43.8,380z"/>
</g>
<g id="XMLID_242_">
	<path class="st2" d="M47.3,340.8v2.1c0-6.5-5.3-11.8-11.9-11.8h-105c-6.5,0-11.9,5.3-11.9,11.8v-2.1c0-6.5,5.3-11.8,11.9-11.8h105
		C42,329,47.3,334.3,47.3,340.8z"/>
</g>
<g id="XMLID_239_">
	<path class="st2" d="M47.3,374v2.5c0,1.9-1.6,3.5-3.5,3.5H-77.8c-1.9,0-3.5-1.6-3.5-3.5V374c0,1.9,1.6,3.5,3.5,3.5H43.8
		C45.8,377.5,47.3,375.9,47.3,374z"/>
</g>
<path id="XMLID_243_" class="st3" d="M34.6,320H-68.6c-8.6,0-15.6,7-15.6,15.6V380H50.3v-44.4C50.3,327,43.3,320,34.6,320z
	 M47.3,376.5c0,1.9-1.6,3.5-3.5,3.5H-77.8c-1.9,0-3.5-1.6-3.5-3.5v-35.6c0-6.5,5.3-11.8,11.9-11.8h105c6.5,0,11.8,5.3,11.8,11.8
	V376.5z"/>
<path id="XMLID_69_" class="st4" d="M53.6,450H-87.6c-0.6,0-1.1-0.5-1.1-1.1V436c0-1.7,1.4-3,3-3H51.7c1.7,0,3,1.4,3,3v12.8
	C54.8,449.5,54.2,450,53.6,450z"/>
<path class="st5" d="M54.8,436v2.8c0-1.7-1.4-3-3-3H-85.7c-1.7,0-3,1.4-3,3V436c0-1.7,1.4-3,3-3H51.7C53.4,433,54.8,434.4,54.8,436z
	"/>
<rect id="XMLID_62_" x="-78.9" y="420.8" class="st6" width="13.5" height="12.3"/>
<rect id="XMLID_61_" x="-65.4" y="420.8" class="st7" width="19.9" height="12.3"/>
<rect id="XMLID_59_" x="31.4" y="420.8" class="st6" width="13.5" height="12.3"/>
<polygon id="XMLID_79_" class="st8" points="-66.4,455.8 -66.4,474 -64.1,474 -64.1,455.3 "/>
<path id="XMLID_80_" class="st8" d="M-79.1,458.5v0.8v13c0,0.9,0.8,1.7,1.7,1.7h0.5v-16L-79.1,458.5z"/>
<polygon id="XMLID_81_" class="st8" points="-72.8,457.2 -72.8,474 -70.5,474 -70.5,456.7 "/>
<polygon id="XMLID_82_" class="st8" points="-76,457.8 -76,474 -73.6,474 -73.6,457.4 "/>
<polygon id="XMLID_83_" class="st8" points="-69.6,456.5 -69.6,474 -67.3,474 -67.3,456 "/>
<path id="XMLID_84_" class="st8" d="M-60.1,474h0.5c0.9,0,1.7-0.8,1.7-1.7V454l-2.2,0.5V474z"/>
<polygon id="XMLID_85_" class="st8" points="-63.2,455.1 -63.2,474 -60.9,474 -60.9,454.7 "/>
<g id="XMLID_56_">
	<polygon id="XMLID_86_" class="st4" points="-67.3,456 -67.3,450 -69.6,450 -69.6,456.5 	"/>
	<polygon id="XMLID_87_" class="st4" points="-76.8,450 -79.1,450 -79.1,458.5 -76.8,458 	"/>
	<polygon id="XMLID_88_" class="st4" points="-60.9,454.7 -60.9,450 -63.2,450 -63.2,455.1 	"/>
	<polygon id="XMLID_89_" class="st4" points="-73.6,457.4 -73.6,450 -76,450 -76,457.8 	"/>
	<polygon id="XMLID_90_" class="st4" points="-70.5,456.7 -70.5,450 -72.8,450 -72.8,457.2 	"/>
	<polygon id="XMLID_91_" class="st4" points="-64.1,455.3 -64.1,450 -66.4,450 -66.4,455.8 	"/>
	<polygon id="XMLID_92_" class="st4" points="-60.1,450 -60.1,454.5 -57.8,454 -57.8,450 	"/>
</g>
<polygon id="XMLID_93_" class="st5" points="-76.8,458 -76.8,474 -76,474 -76,457.8 "/>
<polygon id="XMLID_95_" class="st5" points="-73.6,457.4 -73.6,474 -72.8,474 -72.8,457.2 "/>
<polygon id="XMLID_97_" class="st5" points="-70.5,456.7 -70.5,474 -69.6,474 -69.6,456.5 "/>
<polygon id="XMLID_99_" class="st5" points="-67.3,456 -67.3,474 -66.4,474 -66.4,455.8 "/>
<polygon id="XMLID_101_" class="st5" points="-64.1,455.3 -64.1,474 -63.2,474 -63.2,455.1 "/>
<polygon id="XMLID_103_" class="st5" points="-60.9,454.7 -60.9,474 -60.1,474 -60.1,454.5 "/>
<g id="XMLID_54_">
	<polygon id="XMLID_94_" class="st9" points="-76,457.8 -76,450 -76.8,450 -76.8,458 	"/>
	<polygon id="XMLID_96_" class="st9" points="-72.8,457.2 -72.8,450 -73.6,450 -73.6,457.4 	"/>
	<polygon id="XMLID_98_" class="st9" points="-69.6,456.5 -69.6,450 -70.5,450 -70.5,456.7 	"/>
	<polygon id="XMLID_100_" class="st9" points="-66.4,455.8 -66.4,450 -67.3,450 -67.3,456 	"/>
	<polygon id="XMLID_102_" class="st9" points="-63.2,455.1 -63.2,450 -64.1,450 -64.1,455.3 	"/>
	<polygon id="XMLID_104_" class="st9" points="-60.1,454.5 -60.1,450 -60.9,450 -60.9,454.7 	"/>
</g>
<polygon id="XMLID_124_" class="st8" points="36.3,455.8 36.3,474 38.7,474 38.7,455.3 "/>
<path id="XMLID_123_" class="st8" d="M23.7,458.5v0.8v13c0,0.9,0.8,1.7,1.7,1.7h0.5v-16L23.7,458.5z"/>
<polygon id="XMLID_122_" class="st8" points="29.9,457.2 29.9,474 32.3,474 32.3,456.7 "/>
<polygon id="XMLID_121_" class="st8" points="26.7,457.8 26.7,474 29.1,474 29.1,457.4 "/>
<polygon id="XMLID_120_" class="st8" points="33.1,456.5 33.1,474 35.5,474 35.5,456 "/>
<path id="XMLID_119_" class="st8" d="M42.7,474h0.5c0.9,0,1.7-0.8,1.7-1.7V454l-2.2,0.5V474z"/>
<polygon id="XMLID_118_" class="st8" points="39.5,455.1 39.5,474 41.9,474 41.9,454.7 "/>
<g id="XMLID_110_">
	<polygon id="XMLID_117_" class="st4" points="35.5,456 35.5,450 33.1,450 33.1,456.5 	"/>
	<polygon id="XMLID_116_" class="st4" points="25.9,450 23.7,450 23.7,458.5 25.9,458 	"/>
	<polygon id="XMLID_115_" class="st4" points="41.9,454.7 41.9,450 39.5,450 39.5,455.1 	"/>
	<polygon id="XMLID_114_" class="st4" points="29.1,457.4 29.1,450 26.7,450 26.7,457.8 	"/>
	<polygon id="XMLID_113_" class="st4" points="32.3,456.7 32.3,450 29.9,450 29.9,457.2 	"/>
	<polygon id="XMLID_112_" class="st4" points="38.7,455.3 38.7,450 36.3,450 36.3,455.8 	"/>
	<polygon id="XMLID_111_" class="st4" points="42.7,450 42.7,454.5 44.9,454 44.9,450 	"/>
</g>
<polygon id="XMLID_109_" class="st5" points="25.9,458 25.9,474 26.7,474 26.7,457.8 "/>
<polygon id="XMLID_108_" class="st5" points="29.1,457.4 29.1,474 29.9,474 29.9,457.2 "/>
<polygon id="XMLID_107_" class="st5" points="32.3,456.7 32.3,474 33.1,474 33.1,456.5 "/>
<polygon id="XMLID_106_" class="st5" points="35.5,456 35.5,474 36.3,474 36.3,455.8 "/>
<polygon id="XMLID_105_" class="st5" points="38.7,455.3 38.7,474 39.5,474 39.5,455.1 "/>
<polygon id="XMLID_78_" class="st5" points="41.9,454.7 41.9,474 42.7,474 42.7,454.5 "/>
<g id="XMLID_55_">
	<polygon id="XMLID_77_" class="st9" points="26.7,457.8 26.7,450 25.9,450 25.9,458 	"/>
	<polygon id="XMLID_76_" class="st9" points="29.9,457.2 29.9,450 29.1,450 29.1,457.4 	"/>
	<polygon id="XMLID_75_" class="st9" points="33.1,456.5 33.1,450 32.3,450 32.3,456.7 	"/>
	<polygon id="XMLID_74_" class="st9" points="36.3,455.8 36.3,450 35.5,450 35.5,456 	"/>
	<polygon id="XMLID_73_" class="st9" points="39.5,455.1 39.5,450 38.7,450 38.7,455.3 	"/>
	<polygon id="XMLID_72_" class="st9" points="42.7,454.5 42.7,450 41.9,450 41.9,454.7 	"/>
</g>
<g id="XMLID_128_">
	<rect id="XMLID_53_" x="53" y="343.7" class="st5" width="9.6" height="21"/>
	<path id="XMLID_127_" class="st5" d="M60.4,373.5h-5.3c-1.2,0-2.1-1-2.1-2.1V369c0-1.2,1-2.1,2.1-2.1h5.3c1.2,0,2.1,1,2.1,2.1v2.3
		C62.5,372.5,61.6,373.5,60.4,373.5z"/>
	<path id="XMLID_126_" class="st10" d="M50.3,338.6h5.5c0,0,1.8-0.1,2,2.7v26.4v6.1c0,0-0.2,1.8-1.7,1.9h-5.8"/>
</g>
<g id="XMLID_135_">
	<rect id="XMLID_139_" x="-96.5" y="343.7" class="st5" width="9.6" height="21"/>
	<path id="XMLID_138_" class="st5" d="M-94.4,373.5h5.3c1.2,0,2.1-1,2.1-2.1V369c0-1.2-1-2.1-2.1-2.1h-5.3c-1.2,0-2.1,1-2.1,2.1v2.3
		C-96.5,372.5-95.6,373.5-94.4,373.5z"/>
	<path id="XMLID_136_" class="st10" d="M-84.3,338.6h-5.5c0,0-1.8-0.1-2,2.7v26.4v6.1c0,0,0.2,1.8,1.7,1.9h5.8"/>
</g>
<rect id="XMLID_225_" x="11.5" y="420.8" class="st7" width="19.9" height="12.3"/>
<path id="XMLID_195_" class="st11" d="M-45.5,333.7h81.9c3.9,0,7,3.2,7,7v3.1c0,5-5,8.4-9.6,6.5l-14.4-5.7c-1.3-0.5-2.7-0.6-4-0.3
	l-18.9,4c-2,0.4-4,0-5.6-1.2C-14.7,343-29.4,333.7-45.5,333.7z"/>
<path id="XMLID_196_" class="st11" d="M-78.3,349v22.3c0,2.4,2,4.4,4.4,4.4H-27c2.8,0,4.9-2.6,4.3-5.3l-0.8-3.7
	c-0.3-1.3-1.1-2.3-2.2-2.9l-23.7-12.8c-0.1-0.1-0.2-0.1-0.3-0.1l-8.5-3.8l-13.9-5.8c-2.9-1.2-6.1,0.9-6.1,4.1V349z"/>
<polygon id="XMLID_198_" class="st12" points="19.1,333.7 -9.1,375.7 10.4,375.7 36,333.7 "/>
<path id="XMLID_200_" class="st12" d="M43.4,342.3l-17.3,33.4h7.1h6.7c1.9,0,3.5-1.6,3.5-3.5V342.3z"/>
<g id="XMLID_201_">
	<g id="XMLID_60_">
		<path class="st13" d="M-72.2,432.5c-3.1,0-5.6-2.5-5.6-5.6s2.5-5.6,5.6-5.6s5.6,2.5,5.6,5.6S-69.1,432.5-72.2,432.5z"/>
		<path class="st14" d="M-72.2,421.8c2.8,0,5.1,2.3,5.1,5.1s-2.3,5.1-5.1,5.1s-5.1-2.3-5.1-5.1S-75,421.8-72.2,421.8 M-72.2,420.8
			c-3.4,0-6.1,2.7-6.1,6.1s2.7,6.1,6.1,6.1s6.1-2.7,6.1-6.1S-68.8,420.8-72.2,420.8L-72.2,420.8z"/>
	</g>
	
		<ellipse id="XMLID_137_" transform="matrix(0.7071 0.7071 -0.7071 0.7071 280.2896 174.9475)" class="st15" cx="-71" cy="425.8" rx="0.5" ry="1.6"/>
	
		<ellipse id="XMLID_199_" transform="matrix(0.7071 -0.7071 0.7071 0.7071 -322.7067 72.5435)" class="st15" cx="-73.8" cy="425.8" rx="0.5" ry="1.6"/>
	
		<ellipse id="XMLID_134_" transform="matrix(0.7071 0.7071 -0.7071 0.7071 281.23 177.218)" class="st16" cx="-73.3" cy="428.1" rx="0.5" ry="1.6"/>
	
		<ellipse id="XMLID_132_" transform="matrix(-0.9585 0.2851 -0.2851 -0.9585 -23.3522 860.4884)" class="st14" cx="-74.3" cy="428.5" rx="2.5" ry="2"/>
	<ellipse id="XMLID_131_" class="st15" cx="-72.2" cy="424.5" rx="0.8" ry="2.5"/>
	<ellipse id="XMLID_133_" class="st15" cx="-72.2" cy="429.4" rx="0.8" ry="2.5"/>
	<ellipse id="XMLID_130_" class="st17" cx="-69.7" cy="428.5" rx="2.2" ry="1.8"/>
</g>
<g id="XMLID_203_">
	<g id="XMLID_217_">
		<path class="st13" d="M38,432.5c-3.1,0-5.6-2.5-5.6-5.6s2.5-5.6,5.6-5.6s5.6,2.5,5.6,5.6S41.1,432.5,38,432.5z"/>
		<path class="st14" d="M38,421.8c2.8,0,5.1,2.3,5.1,5.1S40.8,432,38,432s-5.1-2.3-5.1-5.1S35.2,421.8,38,421.8 M38,420.8
			c-3.4,0-6.1,2.7-6.1,6.1s2.7,6.1,6.1,6.1c3.4,0,6.1-2.7,6.1-6.1S41.4,420.8,38,420.8L38,420.8z"/>
	</g>
	
		<ellipse id="XMLID_216_" transform="matrix(0.7071 0.7071 -0.7071 0.7071 312.5538 97.0549)" class="st15" cx="39.1" cy="425.8" rx="0.5" ry="1.6"/>
	
		<ellipse id="XMLID_215_" transform="matrix(0.7071 -0.7071 0.7071 0.7071 -290.4425 150.4362)" class="st15" cx="36.4" cy="425.8" rx="0.5" ry="1.6"/>
	
		<ellipse id="XMLID_214_" transform="matrix(0.7071 0.7071 -0.7071 0.7071 313.4942 99.3254)" class="st16" cx="36.9" cy="428.1" rx="0.5" ry="1.6"/>
	
		<ellipse id="XMLID_213_" transform="matrix(-0.9585 0.2851 -0.2851 -0.9585 192.3904 829.0851)" class="st14" cx="35.9" cy="428.5" rx="2.5" ry="2"/>
	<ellipse id="XMLID_212_" class="st15" cx="38" cy="424.5" rx="0.8" ry="2.5"/>
	<ellipse id="XMLID_206_" class="st15" cx="38" cy="429.4" rx="0.8" ry="2.5"/>
	<ellipse id="XMLID_205_" class="st17" cx="40.4" cy="428.5" rx="2.2" ry="1.8"/>
</g>
<path id="XMLID_224_" class="st18" d="M26.6,420.8c-1.7,3-4.6,8.1-6.9,12.3h5.7c2-4.1,4.5-9.3,6-12.3H26.6z"/>
<path id="XMLID_223_" class="st18" d="M-50.6,420.8c-1.7,3-4.6,8.1-6.9,12.3h5.7c2-4.1,4.5-9.3,6-12.3H-50.6z"/>
<g id="XMLID_169_">
	<path id="XMLID_171_" class="st19" d="M15.1,425.3l0.9-2.3h1.4v0.1h-0.1c-0.1,0-0.2,0-0.2,0.1c0,0-0.1,0.1-0.1,0.1c0,0,0,0.1,0,0.3
		v2.3c0,0.2,0,0.3,0,0.3c0,0,0.1,0.1,0.1,0.1c0.1,0,0.1,0,0.2,0h0.1v0.1h-1.8v-0.1h0.1c0.1,0,0.2,0,0.2-0.1c0,0,0.1-0.1,0.1-0.1
		c0,0,0-0.1,0-0.3v-2.5l-1.3,3.1h-0.1l-1.3-3.1v2.4c0,0.2,0,0.3,0,0.3c0,0.1,0.1,0.2,0.1,0.2s0.2,0.1,0.3,0.1v0.1h-1.2v-0.1h0
		c0.1,0,0.1,0,0.2,0c0.1,0,0.1-0.1,0.1-0.1c0,0,0.1-0.1,0.1-0.2c0,0,0-0.1,0-0.3v-2.2c0-0.2,0-0.3,0-0.3c0,0-0.1-0.1-0.1-0.1
		c-0.1,0-0.1,0-0.2,0h-0.1v-0.1h1.4L15.1,425.3z"/>
	<path id="XMLID_173_" class="st19" d="M18.9,424.8v1.1c0,0.2,0,0.3,0,0.3c0,0,0.1,0.1,0.1,0.1c0.1,0,0.1,0,0.2,0h0.1v0.1h-1.8v-0.1
		h0.1c0.1,0,0.2,0,0.2-0.1c0,0,0.1-0.1,0.1-0.1c0,0,0-0.1,0-0.3v-2.2c0-0.2,0-0.3,0-0.3c0,0-0.1-0.1-0.1-0.1c-0.1,0-0.1,0-0.2,0
		h-0.1v-0.1h1.8v0.1h-0.1c-0.1,0-0.2,0-0.2,0.1c0,0-0.1,0.1-0.1,0.1c0,0,0,0.1,0,0.3v1h1.2v-1c0-0.2,0-0.3,0-0.3
		c0,0-0.1-0.1-0.1-0.1c-0.1,0-0.1,0-0.2,0h-0.1v-0.1h1.8v0.1h-0.1c-0.1,0-0.2,0-0.2,0.1c0,0-0.1,0.1-0.1,0.1c0,0,0,0.1,0,0.3v2.2
		c0,0.2,0,0.3,0,0.3c0,0,0.1,0.1,0.1,0.1c0.1,0,0.1,0,0.2,0h0.1v0.1h-1.8v-0.1h0.1c0.1,0,0.2,0,0.2-0.1c0,0,0.1-0.1,0.1-0.1
		c0,0,0-0.1,0-0.3v-1.1H18.9z"/>
	<path id="XMLID_175_" class="st19" d="M23.1,425.6h-1.5V425h1.5V425.6z"/>
	<path id="XMLID_177_" class="st19" d="M25.6,424.8c0,0.3,0,0.7-0.1,1c-0.1,0.2-0.1,0.3-0.2,0.4c-0.1,0.1-0.2,0.2-0.3,0.3
		c-0.1,0.1-0.3,0.1-0.4,0.1c-0.2,0-0.3,0-0.4-0.1s-0.3-0.2-0.4-0.4c-0.1-0.1-0.1-0.3-0.2-0.5c-0.1-0.3-0.1-0.5-0.1-0.8
		c0-0.4,0.1-0.7,0.2-1c0.1-0.3,0.2-0.5,0.4-0.6c0.2-0.1,0.4-0.2,0.6-0.2c0.2,0,0.4,0.1,0.6,0.2c0.2,0.1,0.3,0.3,0.4,0.5
		C25.5,424.1,25.6,424.4,25.6,424.8z M24.8,424.8c0-0.6,0-0.9,0-1c0-0.2-0.1-0.4-0.1-0.5c0-0.1-0.1-0.1-0.2-0.1
		c-0.1,0-0.1,0-0.2,0.1c-0.1,0.1-0.1,0.2-0.1,0.3c0,0.1,0,0.7,0,1.6c0,0.5,0,0.8,0.1,1c0,0.1,0.1,0.2,0.1,0.2c0,0,0.1,0.1,0.2,0.1
		c0.1,0,0.1,0,0.2-0.1c0.1-0.1,0.1-0.2,0.1-0.4L24.8,424.8z"/>
	<path id="XMLID_180_" class="st19" d="M26.7,426.6l0.9-2.8h-0.7c-0.3,0-0.5,0-0.6,0.1c-0.1,0.1-0.2,0.1-0.2,0.3H26l0.2-1.1h2
		l-1.1,3.5H26.7z"/>
	<path id="XMLID_182_" class="st19" d="M16.3,427.3L16.3,427.3c-0.1,0.1-0.2,0.1-0.3,0.2c-0.1,0.1-0.2,0.3-0.4,0.6l-0.7,1.2v0.8
		c0,0.2,0,0.3,0,0.3c0,0,0.1,0.1,0.1,0.1s0.1,0,0.2,0h0.2v0.1h-1.9v-0.1h0.2c0.1,0,0.2,0,0.2-0.1c0,0,0.1-0.1,0.1-0.1
		c0,0,0-0.1,0-0.3v-0.7l-0.8-1.5c-0.2-0.3-0.3-0.5-0.3-0.5c-0.1-0.1-0.2-0.1-0.3-0.1v-0.1h1.6v0.1h-0.1c-0.1,0-0.2,0-0.2,0
		c0,0-0.1,0.1-0.1,0.1c0,0.1,0.1,0.2,0.2,0.5l0.6,1.1l0.6-1c0.2-0.3,0.2-0.4,0.2-0.5c0,0,0-0.1-0.1-0.1c-0.1,0-0.2-0.1-0.3-0.1v-0.1
		H16.3z"/>
	<path id="XMLID_184_" class="st19" d="M17.7,429.1v1c0,0.2,0,0.3,0,0.3c0,0,0.1,0.1,0.1,0.1s0.2,0,0.3,0v0.1h-1.7v-0.1
		c0.2,0,0.3,0,0.3,0c0.1,0,0.1-0.1,0.1-0.1c0,0,0-0.2,0-0.3v-2.2c0-0.2,0-0.3,0-0.3s-0.1-0.1-0.1-0.1c-0.1,0-0.2,0-0.3,0v-0.1H18
		c0.4,0,0.7,0,0.9,0.1c0.2,0.1,0.3,0.2,0.5,0.3s0.2,0.3,0.2,0.5c0,0.3-0.1,0.5-0.3,0.6c-0.1,0.1-0.3,0.2-0.5,0.2l0.8,1.2
		c0.1,0.1,0.2,0.2,0.2,0.3c0.1,0.1,0.1,0.1,0.2,0.1v0.1H19l-1.1-1.6H17.7z M17.7,427.5v1.5h0.1c0.2,0,0.4,0,0.5-0.1
		c0.1,0,0.2-0.1,0.3-0.2c0.1-0.1,0.1-0.3,0.1-0.4c0-0.3-0.1-0.5-0.2-0.6c-0.1-0.1-0.3-0.2-0.6-0.2H17.7z"/>
	<path id="XMLID_187_" class="st19" d="M21.7,427.2v2.8c0,0.2,0,0.3,0,0.4s0.1,0.1,0.1,0.1c0.1,0,0.2,0.1,0.3,0.1h0.1v0.1h-1.8v-0.1
		h0.1c0.1,0,0.3,0,0.3-0.1c0.1,0,0.1-0.1,0.1-0.1c0-0.1,0-0.2,0-0.4v-1.8c0-0.2,0-0.3,0-0.3s0-0.1-0.1-0.1s-0.1,0-0.1,0
		c-0.1,0-0.2,0-0.3,0.1l0-0.1L21.7,427.2L21.7,427.2z"/>
	<path id="XMLID_189_" class="st19" d="M23.4,429L23.4,429c0.2-0.1,0.3-0.2,0.4-0.2s0.1-0.1,0.2-0.2c0.1-0.1,0.1-0.2,0.1-0.3
		c0-0.1-0.1-0.3-0.2-0.4c-0.1-0.1-0.2-0.1-0.4-0.1c-0.2,0-0.4,0.1-0.6,0.4l-0.1,0c0.1-0.3,0.3-0.5,0.5-0.6c0.2-0.1,0.4-0.2,0.6-0.2
		c0.2,0,0.4,0.1,0.6,0.2c0.2,0.1,0.2,0.3,0.2,0.5c0,0.1,0,0.2-0.1,0.4s-0.2,0.2-0.3,0.3c0.2,0.1,0.3,0.2,0.4,0.4
		c0.1,0.1,0.2,0.3,0.2,0.5c0,0.4-0.1,0.7-0.4,0.9c-0.3,0.2-0.6,0.4-1,0.4c-0.3,0-0.5,0-0.6-0.1c-0.1-0.1-0.1-0.2-0.1-0.3
		c0-0.1,0-0.1,0.1-0.2c0.1-0.1,0.1-0.1,0.2-0.1c0.1,0,0.1,0,0.2,0c0,0,0.1,0.1,0.3,0.2c0.2,0.1,0.3,0.2,0.5,0.2c0.1,0,0.2,0,0.3-0.1
		s0.1-0.2,0.1-0.4c0-0.2-0.1-0.4-0.2-0.6S23.7,429,23.4,429z"/>
	<path id="XMLID_191_" class="st19" d="M26,427.3h1.6l-0.3,0.6H26l-0.1,0.3c0.6,0,1,0.2,1.3,0.4c0.3,0.2,0.4,0.5,0.4,0.8
		c0,0.2-0.1,0.4-0.2,0.6c-0.1,0.2-0.3,0.4-0.5,0.5c-0.2,0.1-0.5,0.2-0.7,0.2c-0.3,0-0.5-0.1-0.6-0.2c-0.1-0.1-0.2-0.2-0.2-0.3
		c0-0.1,0-0.1,0.1-0.2c0.1-0.1,0.1-0.1,0.2-0.1c0.1,0,0.1,0,0.2,0c0.1,0,0.2,0.1,0.3,0.2c0.1,0.1,0.2,0.1,0.3,0.1c0.1,0,0.1,0,0.2,0
		c0.1,0,0.3-0.1,0.4-0.2c0.1-0.1,0.1-0.2,0.1-0.4c0-0.3-0.1-0.5-0.4-0.7c-0.3-0.2-0.7-0.3-1.1-0.3c0,0-0.1,0-0.2,0L26,427.3z"/>
	<path id="XMLID_193_" class="st19" d="M28.7,430.8l0.9-2.8h-0.7c-0.3,0-0.5,0-0.6,0.1c-0.1,0.1-0.2,0.1-0.2,0.3H28l0.2-1.1h2
		l-1.1,3.5H28.7z"/>
</g>
<g id="XMLID_140_">
	<path id="XMLID_156_" class="st20" d="M-61.3,430.2c-0.2,0.1-0.4,0.2-0.6,0.2c-0.5,0-0.8-0.3-1.1-1l-0.1-0.3l0.7-0.2
		c0.1,0,0.1-0.1,0.1-0.2c0-0.1,0-0.2-0.1-0.2c-0.1-0.1-0.1-0.1-0.2-0.1h-0.7l-0.3-0.5h3l0.3,0.5h-0.6v2.7l-0.5-0.3V430.2z
		 M-62.3,428.3c0.1,0.1,0.2,0.2,0.3,0.3c0.1,0.1,0.1,0.3,0.1,0.4c0,0.1-0.1,0.2-0.2,0.2c-0.1,0-0.2,0.1-0.4,0.1
		c-0.1,0-0.2,0.1-0.2,0.2c0,0.2,0.1,0.3,0.4,0.3c0.3,0,0.5-0.1,0.8-0.3v-1.2H-62.3z"/>
	<path id="XMLID_154_" class="st20" d="M-58.2,428.3H-59v1c0,0.2,0,0.3-0.1,0.4c0,0.1-0.1,0.2-0.3,0.2l0.8,0.9l-0.2,0.2l-1.3-1.4
		c-0.1-0.1-0.1-0.2-0.1-0.3c0-0.2,0.1-0.3,0.3-0.3c0.2,0,0.3,0,0.3,0.1v-0.9h-0.9l-0.3-0.5h2.2L-58.2,428.3z"/>
	<path id="XMLID_142_" class="st20" d="M-62.4,422.9v1.1h1v0.5h-1v0.2c0,0.1,0,0.2-0.1,0.2c0,0-0.1,0-0.1-0.1l-0.6-0.6
		c0,0,0-0.1,0-0.1c0-0.1,0.1-0.1,0.2-0.1h0.1v-1.1h-0.5l-0.3-0.5h3.2l0.3,0.5h-0.6v2.7l-0.5-0.3v-2.3H-62.4z"/>
	<path id="XMLID_144_" class="st20" d="M-57.8,422.9h-0.5v0.7c0,0,0,0.1,0,0.1c0,0-0.1,0-0.1,0h-0.8c-0.3,0-0.5,0.1-0.5,0.3
		c0,0,0,0.1,0,0.1c0.2-0.1,0.4-0.2,0.7-0.2c0.2,0,0.4,0.1,0.6,0.2c0.2,0.2,0.3,0.4,0.3,0.6c0,0.3-0.2,0.5-0.6,0.6l-0.3-0.5
		c0.1,0,0.2-0.1,0.3-0.2c0.1-0.1,0.1-0.2,0.1-0.3c0-0.1,0-0.1,0-0.1c-0.2,0-0.4,0.1-0.6,0.2c-0.2,0.1-0.3,0.3-0.3,0.6
		c0,0.2,0.2,0.3,0.5,0.5c0.2,0.1,0.4,0.2,0.7,0.3l-0.1,0.2c-0.4-0.1-0.7-0.2-1-0.4c-0.5-0.3-0.7-0.5-0.7-0.9c0-0.2,0.1-0.4,0.3-0.5
		c-0.2-0.2-0.3-0.5-0.3-0.6c0-0.2,0.2-0.4,0.5-0.4h0.8v-0.4h-1.5l-0.3-0.5h2.6L-57.8,422.9z"/>
	<path id="XMLID_146_" class="st20" d="M-56.5,422.9h-0.6v2.7l-0.5-0.3v-2.3H-58l-0.3-0.5h1.6L-56.5,422.9z"/>
	<path id="XMLID_148_" class="st20" d="M-51.9,424.1c0,0.3-0.1,0.6-0.4,0.8c-0.2,0.2-0.5,0.3-0.7,0.3c-0.3,0-0.5-0.1-0.6-0.2
		c-0.2-0.2-0.3-0.4-0.3-0.7c0-0.3,0.1-0.6,0.3-0.8c0.2-0.2,0.5-0.3,0.7-0.3c0.3,0,0.5,0.1,0.7,0.2C-52,423.5-51.9,423.7-51.9,424.1z
		 M-52.4,424.3c0-0.2-0.1-0.4-0.2-0.6c-0.1-0.2-0.3-0.2-0.5-0.2c-0.1,0-0.2,0-0.2,0.1c-0.1,0.1-0.1,0.2-0.1,0.3
		c0,0.2,0.1,0.4,0.2,0.6c0.1,0.2,0.3,0.2,0.5,0.2C-52.5,424.7-52.4,424.6-52.4,424.3z"/>
	<path id="XMLID_151_" class="st20" d="M-49.1,424.1c0,0.4-0.1,0.8-0.3,1c-0.2,0.2-0.5,0.3-0.8,0.3c-0.5,0-1-0.3-1.2-1
		c-0.2-0.5-0.3-1.1-0.3-1.9l0.3-0.1c0,0.6,0.1,1.1,0.2,1.6c0.2,0.6,0.5,0.9,1,0.9c0.2,0,0.3,0,0.5-0.1c0.1-0.1,0.2-0.3,0.3-0.5
		c-0.1,0.1-0.3,0.1-0.4,0.1c-0.2,0-0.4-0.1-0.6-0.2c-0.2-0.2-0.3-0.4-0.3-0.6c0-0.5,0.2-0.7,0.5-0.7c0.3,0,0.6,0.1,0.8,0.3
		C-49.2,423.4-49.1,423.7-49.1,424.1z M-49.6,423.5c0-0.2-0.1-0.3-0.3-0.3c-0.1,0-0.2,0.1-0.3,0.2c-0.1,0.1-0.2,0.2-0.2,0.4
		c0,0.1,0,0.1,0.1,0.2c0.1,0.1,0.1,0.1,0.2,0.1c0.1,0,0.2-0.1,0.3-0.2C-49.7,423.8-49.6,423.6-49.6,423.5z"/>
	<path id="XMLID_159_" class="st20" d="M-55.8,430.6c0.1,0.1,0.2,0.2,0.2,0.4c0,0.1,0,0.2-0.1,0.2c-0.1,0.1-0.1,0.1-0.2,0.1
		l-0.4-0.3c0,0,0.1,0,0.1-0.1c0,0,0.1-0.1,0.1-0.2c0-0.1,0-0.2-0.1-0.2l-0.9-0.9l0.5-0.5l-0.3-0.3c-0.3-0.3-0.4-0.5-0.4-0.7
		c0-0.2,0.1-0.4,0.3-0.5c0.1-0.1,0.3-0.1,0.5-0.1c0.1,0,0.3,0,0.4,0.1c0.1,0.1,0.2,0.1,0.2,0.2c0.2,0.2,0.3,0.5,0.3,0.7
		c0,0.2-0.1,0.5-0.4,0.7l-0.5,0.5L-55.8,430.6z M-56.2,428.3c0-0.2-0.1-0.3-0.2-0.3c-0.2,0-0.3,0-0.3,0.1c-0.1,0.1-0.1,0.2-0.1,0.4
		c0,0.1,0,0.2,0.1,0.3c0.1,0.1,0.1,0.2,0.2,0.2c0.1,0,0.2-0.1,0.2-0.3C-56.2,428.6-56.2,428.4-56.2,428.3z"/>
	<path id="XMLID_162_" class="st20" d="M-53.2,429.7c0,0.2-0.1,0.4-0.2,0.5c-0.1,0.1-0.3,0.2-0.5,0.2l0.4,0.7l-0.3,0.2l-0.4-0.8
		c-0.2,0-0.3,0-0.4-0.1c-0.2-0.1-0.3-0.2-0.3-0.4c0-0.1,0-0.2,0.1-0.3c0,0,0.1,0,0.1,0c0.1,0,0.3,0.1,0.3,0.2
		c0.1,0.1,0.2,0.2,0.3,0.2c0.1,0,0.2,0,0.3-0.1c0.1-0.1,0.2-0.2,0.2-0.3s0-0.2-0.1-0.3c-0.1-0.1-0.2-0.1-0.2-0.1c0,0,0,0,0,0
		c-0.2,0-0.4,0.1-0.5,0.1c-0.3,0-0.5-0.1-0.5-0.4c0-0.2,0.1-0.3,0.4-0.3c0.1,0,0.1,0,0.3,0c0.1,0,0.2,0,0.3,0c0.1,0,0.2,0,0.2-0.1
		c0.1-0.1,0.1-0.1,0.1-0.2c0-0.1,0-0.2-0.1-0.2c-0.1,0-0.1-0.1-0.2-0.1h-1l-0.2-0.5h1.1c0.2,0,0.4,0.1,0.6,0.3
		c0.2,0.2,0.2,0.4,0.2,0.7c0,0.1,0,0.2,0,0.3c0,0.1-0.1,0.2-0.1,0.2C-53.3,429.2-53.2,429.4-53.2,429.7z"/>
	<path id="XMLID_164_" class="st20" d="M-50.2,431l-0.3,0.1l-0.5-1.2c-0.1,0-0.2,0.1-0.3,0.1c-0.3,0-0.6-0.1-0.8-0.3
		c-0.3-0.3-0.4-0.6-0.4-1c0-0.3,0.1-0.7,0.2-1.1l0.5,0.5c-0.1,0.3-0.2,0.5-0.2,0.7c0,0.2,0,0.4,0.1,0.5c0.1,0.2,0.2,0.3,0.4,0.3
		c0.2,0,0.3-0.1,0.3-0.3c-0.1-0.1-0.1-0.1-0.1-0.2s0-0.2,0.1-0.3c0.1-0.1,0.1-0.1,0.2-0.1c0.1,0,0.3,0.1,0.3,0.2
		c0.1,0.1,0.1,0.2,0.1,0.4c0,0.2-0.1,0.3-0.2,0.4L-50.2,431z"/>
	<path id="XMLID_166_" class="st20" d="M-47.4,429.2c0,0.4-0.1,0.8-0.3,1c-0.2,0.2-0.5,0.3-0.8,0.3c-0.5,0-1-0.3-1.2-1
		c-0.2-0.5-0.3-1.1-0.3-1.9l0.3-0.1c0,0.6,0.1,1.1,0.2,1.6c0.2,0.6,0.5,0.9,1,0.9c0.2,0,0.3,0,0.5-0.1c0.1-0.1,0.2-0.3,0.3-0.5
		c-0.1,0.1-0.3,0.1-0.4,0.1c-0.2,0-0.4-0.1-0.6-0.2c-0.2-0.2-0.3-0.4-0.3-0.6c0-0.5,0.2-0.7,0.5-0.7c0.3,0,0.6,0.1,0.8,0.3
		C-47.5,428.5-47.4,428.8-47.4,429.2z M-47.9,428.6c0-0.2-0.1-0.3-0.3-0.3c-0.1,0-0.2,0.1-0.3,0.2c-0.1,0.1-0.2,0.2-0.2,0.4
		c0,0.1,0,0.1,0.1,0.2c0.1,0.1,0.1,0.1,0.2,0.1c0.1,0,0.2-0.1,0.3-0.2C-48,428.9-47.9,428.8-47.9,428.6z"/>
	<polygon id="XMLID_129_" class="st21" points="-55.9,424.1 -56.2,424.5 -54.7,424.5 -54.4,424.1 	"/>
</g>
<path id="XMLID_57_" class="st5" d="M-4.7,440.9h-24.7c-0.9,0-1.5,0.7-1.5,1.5v2.2c0,0.9,0.7,1.5,1.5,1.5h24.7
	c0.9,0,1.5-0.7,1.5-1.5v-2.2C-3.2,441.6-3.9,440.9-4.7,440.9z"/>
<path class="st22" d="M-29.2,443.2v-2.1c0,0,0-0.1,0-0.1H-5c0,0,0,0.1,0,0.1v2.1c0,0.7-0.7,1.2-1.5,1.2h-21.3
	C-28.5,444.4-29.2,443.8-29.2,443.2z"/>
<path id="XMLID_238_" class="st23" d="M50.3,335.6v3h-3.2c-1-5.5-5.8-9.6-11.6-9.6h-105c-5.8,0-10.6,4.1-11.6,9.6h-3.2v-3
	c0-8.6,7-15.6,15.6-15.6H34.6C43.3,320,50.3,327,50.3,335.6z"/>
<circle id="XMLID_9_" class="st14" cx="-65.4" cy="441.5" r="2"/>
<circle id="XMLID_8_" class="st14" cx="31.4" cy="441.5" r="2"/>
<rect id="XMLID_170_" x="47.6" y="420.8" class="st24" width="2.6" height="9.6"/>
<rect id="XMLID_236_" x="-84.3" y="420.8" class="st24" width="2.6" height="9.6"/>
<g>
	<path class="st25" d="M-78.6,420.3V388c0-0.4,0.3-0.8,0.8-0.8H43.6c0.4,0,0.8,0.3,0.8,0.8v32.2H-78.6z"/>
	<path class="st5" d="M43.6,387.8c0.1,0,0.3,0.1,0.3,0.3v31.7h-122V388c0-0.1,0.1-0.3,0.3-0.3H43.6 M43.6,386.8H-77.8
		c-0.7,0-1.3,0.6-1.3,1.3v32.7h124V388C44.9,387.3,44.3,386.8,43.6,386.8L43.6,386.8z"/>
</g>
<rect x="15" y="392.5" class="st0" width="27.1" height="2.7"/>
<rect x="-76.4" y="392.5" class="st0" width="27.1" height="2.7"/>
<rect x="-45.5" y="392.5" class="st0" width="57" height="2.7"/>
<polygon class="st5" points="-50.9,399.7 -76.4,399.7 -76.4,397 -49.5,397 "/>
<rect x="-45.5" y="397" class="st5" width="57" height="2.7"/>
<polygon class="st5" points="-50.9,404.2 -76.4,404.2 -76.4,401.5 -49.5,401.5 "/>
<rect x="-45.5" y="401.5" class="st5" width="57" height="2.7"/>
<polygon class="st5" points="-50.9,408.7 -76.4,408.7 -76.4,406 -49.5,406 "/>
<rect x="-45.5" y="406" class="st5" width="57" height="2.7"/>
<polygon class="st5" points="-50.9,413.2 -76.4,413.2 -76.4,410.5 -49.5,410.5 "/>
<rect x="-45.5" y="410.5" class="st5" width="57" height="2.7"/>
<polygon class="st5" points="-50.9,417.7 -76.4,417.7 -76.4,415 -49.5,415 "/>
<polygon class="st5" points="16.5,399.7 41.9,399.7 41.9,397 15,397 "/>
<polygon class="st5" points="16.5,404.2 41.9,404.2 41.9,401.5 15,401.5 "/>
<polygon class="st5" points="16.5,408.7 41.9,408.7 41.9,406 15,406 "/>
<polygon class="st5" points="16.5,413.2 41.9,413.2 41.9,410.5 15,410.5 "/>
<polygon class="st5" points="16.5,417.7 41.9,417.7 41.9,415 15,415 "/>
<rect x="-45.5" y="415" class="st5" width="57" height="2.7"/>
<path class="st6" d="M8.6,425.7h-51.2c-0.9,0-1.6-0.7-1.6-1.6v-1h54.5v1C10.3,424.9,9.5,425.7,8.6,425.7z"/>
<path class="st6" d="M8.6,429.8h-51.2c-0.9,0-1.6-0.7-1.6-1.6v-1h54.5v1C10.3,429,9.5,429.8,8.6,429.8z"/>
<path class="st26" d="M-84.3,380v2.4l0,1.2l26.3-0.9c1.8-0.2,3.6-0.3,5.5-0.3h71.1c1.8,0,3.6,0.1,5.5,0.3l26.3,0.8l0-1.1h0V380
	H-84.3z"/>
<circle id="XMLID_1_" class="st27" cx="-17.1" cy="404.2" r="4.5"/>
<rect x="-78.3" y="388.6" class="st5" width="122.2" height="1"/>
<rect x="-78.3" y="390.3" class="st5" width="122.2" height="1"/>
<polygon class="st6" points="-72.2,433 -72.2,434.7 -71.5,435.4 -54.2,435.4 -53.1,434.3 -53.1,433 "/>
<polygon class="st6" points="38.3,433 38.3,434.7 37.5,435.4 20.2,435.4 19.1,434.3 19.1,433 "/>
<path class="st5" d="M-25,424.1h-12.4v0.8c0,0.4,0.3,0.8,0.8,0.8h10.9c0.4,0,0.8-0.3,0.8-0.8V424.1z"/>
<path class="st5" d="M-10.8,424.1h-12.4v0.8c0,0.4,0.3,0.8,0.8,0.8h10.9c0.4,0,0.8-0.3,0.8-0.8V424.1z"/>
<path class="st5" d="M3.4,424.1H-9v0.8c0,0.4,0.3,0.8,0.8,0.8H2.7c0.4,0,0.8-0.3,0.8-0.8V424.1z"/>
<path class="st5" d="M-25,428.2h-12.4v0.8c0,0.4,0.3,0.8,0.8,0.8h10.9c0.4,0,0.8-0.3,0.8-0.8V428.2z"/>
<path class="st5" d="M-10.8,428.2h-12.4v0.8c0,0.4,0.3,0.8,0.8,0.8h10.9c0.4,0,0.8-0.3,0.8-0.8V428.2z"/>
<path class="st5" d="M3.4,428.2H-9v0.8c0,0.4,0.3,0.8,0.8,0.8H2.7c0.4,0,0.8-0.3,0.8-0.8V428.2z"/>
<path class="st28" d="M50.3,389.5v2.7h-3c-0.7,0-1.2-0.6-1.2-1.3c0-0.1,0-0.2,0-0.3c0.1-0.6,0.6-1,1.2-1H50.3z"/>
<path class="st17" d="M50.3,389.5v1.6H47c-0.4,0-0.8-0.2-1-0.6c0.1-0.6,0.6-1,1.2-1H50.3z"/>
<path class="st28" d="M50.3,401v2.7h-3c-0.7,0-1.2-0.6-1.2-1.3c0-0.1,0-0.2,0-0.3c0.1-0.6,0.6-1,1.2-1H50.3z"/>
<path class="st17" d="M50.3,401v1.6H47c-0.4,0-0.8-0.2-1-0.6c0.1-0.6,0.6-1,1.2-1H50.3z"/>
<path class="st28" d="M50.3,412.6v2.7h-3c-0.7,0-1.2-0.6-1.2-1.3c0-0.1,0-0.2,0-0.3c0.1-0.6,0.6-1,1.2-1H50.3z"/>
<path class="st17" d="M50.3,412.6v1.6H47c-0.4,0-0.8-0.2-1-0.6c0.1-0.6,0.6-1,1.2-1H50.3z"/>
<path class="st28" d="M-84.3,389.5v2.7h3c0.7,0,1.2-0.6,1.2-1.3c0-0.1,0-0.2,0-0.3c-0.1-0.6-0.6-1-1.2-1H-84.3z"/>
<path class="st17" d="M-84.3,389.5v1.6h3.3c0.4,0,0.8-0.2,1-0.6c-0.1-0.6-0.6-1-1.2-1H-84.3z"/>
<path class="st28" d="M-84.3,401v2.7h3c0.7,0,1.2-0.6,1.2-1.3c0-0.1,0-0.2,0-0.3c-0.1-0.6-0.6-1-1.2-1H-84.3z"/>
<path class="st17" d="M-84.3,401v1.6h3.3c0.4,0,0.8-0.2,1-0.6c-0.1-0.6-0.6-1-1.2-1H-84.3z"/>
<path class="st28" d="M-84.3,412.6v2.7h3c0.7,0,1.2-0.6,1.2-1.3c0-0.1,0-0.2,0-0.3c-0.1-0.6-0.6-1-1.2-1H-84.3z"/>
<path class="st17" d="M-84.3,412.6v1.6h3.3c0.4,0,0.8-0.2,1-0.6c-0.1-0.6-0.6-1-1.2-1H-84.3z"/>
<path class="st29" d="M42,327.3L42,327.3c0,0.6-0.6,1-1.1,0.8c-1.6-0.5-3.4-0.8-5.4-0.8h-105c-2.1,0-4,0.3-5.8,0.9
	c-0.6,0.2-1.2-0.2-1.2-0.8v0c0-0.4,0.2-0.7,0.6-0.8c2.1-0.7,4.6-1.1,7.1-1.1H34.7c2.4,0,4.7,0.3,6.7,0.9
	C41.7,326.6,42,326.9,42,327.3z"/>
<path class="st30" d="M42,328c0,0.6-0.6,1-1.1,0.8c-1.6-0.5-3.4-0.8-5.4-0.8h-105c-2.1,0-4.1,0.3-5.8,0.9c-0.6,0.2-1.2-0.2-1.2-0.8
	v0c0-0.1,0-0.3,0.1-0.4c0.2,0.4,0.6,0.6,1.1,0.5c1.7-0.6,3.7-0.9,5.8-0.9h105c1.9,0,3.8,0.3,5.4,0.8c0.4,0.1,0.9-0.1,1-0.5
	C41.9,327.8,42,327.9,42,328z"/>
<rect x="-84.3" y="385.7" class="st6" width="134.6" height="1.1"/>
<rect x="-84.3" y="385.1" class="st31" width="134.6" height="0.5"/>
<g>
	<rect x="-54.7" y="383.6" class="st6" width="5.2" height="3.7"/>
	<rect x="-55.5" y="385.7" class="st6" width="6.8" height="1.6"/>
	<path class="st0" d="M-49.6,384.8h-5c-0.3,0-0.6,0.3-0.6,0.6v1.6h6.1v-1.6C-49.1,385.1-49.3,384.8-49.6,384.8z"/>
	<path class="st5" d="M-50.2,384.8h-3.9c-0.2,0-0.4,0.2-0.4,0.4v0.5c0,0.2,0.2,0.4,0.4,0.4h3.9c0.2,0,0.4-0.2,0.4-0.4v-0.5
		C-49.8,385-49.9,384.8-50.2,384.8z"/>
</g>
<g>
	<rect x="15.8" y="383.6" class="st6" width="5.2" height="3.7"/>
	<rect x="15" y="385.7" class="st6" width="6.8" height="1.6"/>
	<path class="st0" d="M20.9,384.8h-5c-0.3,0-0.6,0.3-0.6,0.6v1.6h6.1v-1.6C21.5,385.1,21.2,384.8,20.9,384.8z"/>
	<path class="st5" d="M20.4,384.8h-3.9c-0.2,0-0.4,0.2-0.4,0.4v0.5c0,0.2,0.2,0.4,0.4,0.4h3.9c0.2,0,0.4-0.2,0.4-0.4v-0.5
		C20.8,385,20.6,384.8,20.4,384.8z"/>
</g>
</svg>
