<?xml version="1.0" encoding="utf-8"?>
<!-- Generator: Adobe Illustrator 19.0.0, SVG Export Plug-In . SVG Version: 6.00 Build 0)  -->
<svg version="1.1" id="Layer_1" xmlns="http://www.w3.org/2000/svg" xmlns:xlink="http://www.w3.org/1999/xlink" x="0px" y="0px"
	 viewBox="0 0 288 288" style="enable-background:new 0 0 288 288;" xml:space="preserve">
<style type="text/css">
	.st0{fill:#2F313B;}
	.st1{fill:#8B8D8F;}
	.st2{fill:#E5EBEF;}
	.st3{fill:#F7F7F6;}
	.st4{fill:#1F242D;}
	.st5{opacity:0.31;fill:#6A6F72;enable-background:new    ;}
	.st6{fill:#232323;}
	.st7{fill:#171717;}
	.st8{fill:#303433;}
	.st9{fill:#212323;}
	.st10{fill:#D4DADC;}
	.st11{fill:#BDC2C6;}
	.st12{fill:none;}
	.st13{fill:#090A0F;}
	.st14{fill:#5E6A7A;}
	.st15{fill:#E8EBEC;}
	.st16{fill:#697480;}
	.st17{fill:#444450;}
	.st18{fill:#CDD3D7;}
	.st19{fill:#F4F4F4;}
	.st20{fill:#484D56;}
	.st21{fill:#1A1A1D;}
	.st22{fill:#2E2E33;}
	.st23{fill:#8D918F;}
	.st24{fill:#5F646C;}
	.st25{fill:#4A535C;}
	.st26{fill:#535356;}
	.st27{fill:#60625E;}
	.st28{fill:#8A8A89;}
	.st29{fill:#E1E9EC;}
	.st30{fill:#293036;}
	.st31{fill:#2A353C;}
	.st32{fill:#0F1414;}
	.st33{fill:#626771;}
	.st34{fill:#8D999C;}
	.st35{fill:#4C5356;}
	.st36{fill:#798488;}
	.st37{fill:#B7C6C8;}
	.st38{opacity:0.52;fill:#AEB8BF;enable-background:new    ;}
	.st39{fill:#EC2127;}
	.st40{fill:#F15B26;}
	.st41{fill:#E29726;}
	.st42{fill:#6B6C6C;}
	.st43{fill:#8F8F8E;}
	.st44{fill:#494A4A;}
	.st45{fill:#323333;}
	.st46{fill:#D7D6D6;}
	.st47{fill:#646969;}
	.st48{fill:#77828C;}
	.st49{fill:#899196;}
	.st50{fill:#5B6976;}
	.st51{opacity:0.55;fill:#65727C;enable-background:new    ;}
	.st52{fill:#D13729;}
	.st53{fill:#464549;stroke:#171617;stroke-width:0.5;stroke-miterlimit:10;}
</style>
<g id="XMLID_2_">
	<g id="XMLID_106_">
		<path id="XMLID_286_" class="st0" d="M211.2,86.4v4.9l-0.6,0.8h-6.2v-7.7c0-0.3,0.2-0.7,0.5-0.8l2-1.3c-0.1,0.2-0.1,0.4-0.1,0.4
			v7.6L211.2,86.4z"/>
		<path id="XMLID_287_" class="st1" d="M215.3,86.4c0.3,0.6,0.7,1.8,1.1,3.2c-1.4-2.7-3.3-1-3.3-1l-1.9,2.6l-0.6,0.8
			c-1.8-0.1-3.8-1.8-3.8-1.8l4.4-3.8l0.6-0.5C211.8,85.9,214.4,84.4,215.3,86.4z"/>
		<path id="XMLID_288_" class="st1" d="M217.6,90.4l-0.2-0.8c0,0-0.1-0.8-0.4-1.8c0.4,0.9,0.7,1.7,0.7,1.7S217.7,90,217.6,90.4z"/>
		<path id="XMLID_281_" class="st2" d="M220.6,97h-2c0,0,0-0.1-0.1-0.4c-0.3-1.1-1.3-4.3-2.1-6.9l0,0c-0.4-1.4-0.8-2.6-1.1-3.2
			c-0.8-2.1-3.5-0.6-3.5-0.6l-0.6,0.5l-4.4,3.8v-7.6c0,0,0-0.2,0.1-0.4c0.3-0.5,1-1.5,3.2-1.8l0,0c4,0.1,5.9,4.5,6.6,7.1l0,0
			c0.3,1.1,0.4,1.8,0.4,1.8l0.2,0.8l0,0l1.6,6.1l0.1,0.3l1.3,0.1h0.2c0,0.1,0,0.1,0,0.1C220.6,96.9,220.6,97,220.6,97z"/>
		<path id="XMLID_285_" class="st3" d="M224.7,96.8L224.7,96.8l-4.2-0.2h-0.2l-1.3-0.1l-0.1-0.3l-1.6-6.1l0,0l-0.2-0.8
			c0,0-0.1-0.8-0.4-1.8l0,0c-0.8-2.6-2.7-7-6.6-7.1c0.1,0,0.4-0.1,0.9-0.2c2.2-0.5,8-1.2,10.1,2C221.2,82.2,225.2,88.2,224.7,96.8z"
			/>
		<path id="XMLID_275_" class="st4" d="M227,98.1c0,0.1-0.3,7.1-0.6,12.1c-0.2,3.2-2.8,5.8-6,5.9c-0.7,0-1.5,0-2.2-0.1
			c-0.9-0.1-1.5-0.9-1.4-1.8l1-17C217.8,97.3,225.5,94.7,227,98.1z"/>
		<path id="XMLID_291_" class="st5" d="M218.2,116c0.4,0.1,0.9,0.1,1.4,0.1l1-17c0,0,3.7-1.2,6.4-0.9V98c-1.5-3.4-9.2-0.8-9.2-0.8
			l-1,17C216.8,115.1,217.4,115.9,218.2,116z"/>
	</g>
	<g id="XMLID_272_">
		<path id="XMLID_292_" class="st0" d="M76.8,86.4v4.9l0.6,0.8h6.2v-7.7c0-0.3-0.2-0.7-0.5-0.8l-2-1.3c0.1,0.2,0.1,0.4,0.1,0.4v7.6
			L76.8,86.4z"/>
		<path id="XMLID_290_" class="st1" d="M72.7,86.4c-0.3,0.6-0.7,1.8-1.1,3.2c1.4-2.7,3.3-1,3.3-1l1.9,2.6l0.6,0.8
			c1.8-0.1,3.8-1.8,3.8-1.8l-4.4-3.8l-0.6-0.5C76.2,85.9,73.6,84.4,72.7,86.4z"/>
		<path id="XMLID_284_" class="st1" d="M70.4,90.4l0.2-0.8c0,0,0.1-0.8,0.4-1.8c-0.4,0.9-0.7,1.7-0.7,1.7S70.3,90,70.4,90.4z"/>
		<path id="XMLID_283_" class="st2" d="M67.4,97h2c0,0,0-0.1,0.1-0.4c0.3-1.1,1.3-4.3,2.1-6.9l0,0c0.4-1.4,0.8-2.6,1.1-3.2
			c0.8-2.1,3.5-0.6,3.5-0.6l0.6,0.5l4.4,3.8v-7.6c0,0,0-0.2-0.1-0.4c-0.3-0.5-1-1.5-3.2-1.8l0,0c-4,0.1-5.9,4.5-6.6,7.1l0,0
			c-0.3,1.1-0.4,1.8-0.4,1.8l-0.2,0.8l0,0L69,96.3v0.3l-1.3,0.1h-0.2c0,0.1,0,0.1,0,0.1C67.4,96.9,67.4,97,67.4,97z"/>
		<path id="XMLID_279_" class="st3" d="M63.3,96.8L63.3,96.8l4.2-0.2h0.2l1.3-0.1l0.1-0.3l1.6-6.1l0,0l0.2-0.8c0,0,0.1-0.8,0.4-1.8
			l0,0c0.8-2.6,2.7-7,6.6-7.1c-0.1,0-0.4-0.1-0.9-0.2c-2.2-0.5-8-1.2-10.1,2C66.8,82.2,62.8,88.2,63.3,96.8z"/>
		<path id="XMLID_278_" class="st4" d="M61,98.1c0,0.1,0.3,7.1,0.6,12.1c0.2,3.2,2.8,5.8,6,5.9c0.7,0,1.5,0,2.2-0.1
			c0.9-0.1,1.5-0.9,1.4-1.8l-1-17C70.2,97.3,62.5,94.7,61,98.1z"/>
		<path id="XMLID_273_" class="st5" d="M69.8,116c-0.4,0.1-0.9,0.1-1.4,0.1l-1-17c0,0-3.7-1.2-6.4-0.9V98c1.5-3.4,9.2-0.8,9.2-0.8
			l1,17C71.2,115.1,70.6,115.9,69.8,116z"/>
	</g>
	<g id="XMLID_13_">
		<polygon id="XMLID_158_" class="st6" points="98.6,209.1 98.6,227.2 100.9,227.2 100.9,208.6 		"/>
		<path id="XMLID_157_" class="st6" d="M85.9,211.7v0.8v13c0,0.9,0.8,1.7,1.7,1.7h0.5v-16L85.9,211.7z"/>
		<polygon id="XMLID_156_" class="st6" points="92.2,210.4 92.2,227.2 94.5,227.2 94.5,209.9 		"/>
		<polygon id="XMLID_155_" class="st6" points="89,211.1 89,227.2 91.4,227.2 91.4,210.6 		"/>
		<polygon id="XMLID_154_" class="st6" points="95.4,209.7 95.4,227.2 97.7,227.2 97.7,209.2 		"/>
		<path id="XMLID_153_" class="st6" d="M104.9,227.2h0.5c0.9,0,1.7-0.8,1.7-1.7v-18.3l-2.2,0.5V227.2z"/>
		<polygon id="XMLID_152_" class="st6" points="101.8,208.4 101.8,227.2 104.1,227.2 104.1,207.9 		"/>
		<g id="XMLID_144_">
			<polygon id="XMLID_151_" class="st7" points="97.7,209.2 97.7,203.2 95.4,203.2 95.4,209.7 			"/>
			<polygon id="XMLID_150_" class="st7" points="88.2,203.2 85.9,203.2 85.9,211.7 88.2,211.3 			"/>
			<polygon id="XMLID_149_" class="st7" points="104.1,207.9 104.1,203.2 101.8,203.2 101.8,208.4 			"/>
			<polygon id="XMLID_148_" class="st7" points="91.4,210.6 91.4,203.2 89,203.2 89,211.1 			"/>
			<polygon id="XMLID_147_" class="st7" points="94.5,209.9 94.5,203.2 92.2,203.2 92.2,210.4 			"/>
			<polygon id="XMLID_146_" class="st7" points="100.9,208.6 100.9,203.2 98.6,203.2 98.6,209.1 			"/>
			<polygon id="XMLID_145_" class="st7" points="104.9,203.2 104.9,207.7 107.2,207.2 107.2,203.2 			"/>
		</g>
		<polygon id="XMLID_143_" class="st8" points="88.2,211.3 88.2,227.2 89,227.2 89,211.1 		"/>
		<polygon id="XMLID_142_" class="st8" points="91.4,210.6 91.4,227.2 92.2,227.2 92.2,210.4 		"/>
		<polygon id="XMLID_141_" class="st8" points="94.5,209.9 94.5,227.2 95.4,227.2 95.4,209.7 		"/>
		<polygon id="XMLID_140_" class="st8" points="97.7,209.2 97.7,227.2 98.6,227.2 98.6,209.1 		"/>
		<polygon id="XMLID_139_" class="st8" points="100.9,208.6 100.9,227.2 101.8,227.2 101.8,208.4 		"/>
		<polygon id="XMLID_138_" class="st8" points="104.1,207.9 104.1,227.2 104.9,227.2 104.9,207.7 		"/>
		<g id="XMLID_131_">
			<polygon id="XMLID_137_" class="st9" points="89,211.1 89,203.2 88.2,203.2 88.2,211.3 			"/>
			<polygon id="XMLID_136_" class="st9" points="92.2,210.4 92.2,203.2 91.4,203.2 91.4,210.6 			"/>
			<polygon id="XMLID_135_" class="st9" points="95.4,209.7 95.4,203.2 94.5,203.2 94.5,209.9 			"/>
			<polygon id="XMLID_134_" class="st9" points="98.6,209.1 98.6,203.2 97.7,203.2 97.7,209.2 			"/>
			<polygon id="XMLID_133_" class="st9" points="101.8,208.4 101.8,203.2 100.9,203.2 100.9,208.6 			"/>
			<polygon id="XMLID_132_" class="st9" points="104.9,207.7 104.9,203.2 104.1,203.2 104.1,207.9 			"/>
		</g>
	</g>
	<g id="XMLID_10_">
		<polygon id="XMLID_130_" class="st6" points="193.3,209.1 193.3,227.2 195.7,227.2 195.7,208.6 		"/>
		<path id="XMLID_129_" class="st6" d="M180.7,211.7v0.8v13c0,0.9,0.8,1.7,1.7,1.7h0.5v-16L180.7,211.7z"/>
		<polygon id="XMLID_128_" class="st6" points="186.9,210.4 186.9,227.2 189.3,227.2 189.3,209.9 		"/>
		<polygon id="XMLID_127_" class="st6" points="183.7,211.1 183.7,227.2 186.1,227.2 186.1,210.6 		"/>
		<polygon id="XMLID_126_" class="st6" points="190.1,209.7 190.1,227.2 192.5,227.2 192.5,209.2 		"/>
		<path id="XMLID_125_" class="st6" d="M199.7,227.2h0.5c0.9,0,1.7-0.8,1.7-1.7v-18.3l-2.2,0.5V227.2z"/>
		<polygon id="XMLID_124_" class="st6" points="196.5,208.4 196.5,227.2 198.8,227.2 198.8,207.9 		"/>
		<g id="XMLID_116_">
			<polygon id="XMLID_123_" class="st7" points="192.5,209.2 192.5,203.2 190.1,203.2 190.1,209.7 			"/>
			<polygon id="XMLID_122_" class="st7" points="182.9,203.2 180.7,203.2 180.7,211.7 182.9,211.3 			"/>
			<polygon id="XMLID_121_" class="st7" points="198.8,207.9 198.8,203.2 196.5,203.2 196.5,208.4 			"/>
			<polygon id="XMLID_120_" class="st7" points="186.1,210.6 186.1,203.2 183.7,203.2 183.7,211.1 			"/>
			<polygon id="XMLID_119_" class="st7" points="189.3,209.9 189.3,203.2 186.9,203.2 186.9,210.4 			"/>
			<polygon id="XMLID_118_" class="st7" points="195.7,208.6 195.7,203.2 193.3,203.2 193.3,209.1 			"/>
			<polygon id="XMLID_117_" class="st7" points="199.7,203.2 199.7,207.7 201.9,207.2 201.9,203.2 			"/>
		</g>
		<polygon id="XMLID_115_" class="st8" points="182.9,211.3 182.9,227.2 183.7,227.2 183.7,211.1 		"/>
		<polygon id="XMLID_114_" class="st8" points="186.1,210.6 186.1,227.2 186.9,227.2 186.9,210.4 		"/>
		<polygon id="XMLID_113_" class="st8" points="189.3,209.9 189.3,227.2 190.1,227.2 190.1,209.7 		"/>
		<polygon id="XMLID_112_" class="st8" points="192.5,209.2 192.5,227.2 193.3,227.2 193.3,209.1 		"/>
		<polygon id="XMLID_110_" class="st8" points="195.7,208.6 195.7,227.2 196.5,227.2 196.5,208.4 		"/>
		<polygon id="XMLID_105_" class="st8" points="198.8,207.9 198.8,227.2 199.7,227.2 199.7,207.7 		"/>
		<g id="XMLID_71_">
			<polygon id="XMLID_104_" class="st9" points="183.7,211.1 183.7,203.2 182.9,203.2 182.9,211.3 			"/>
			<polygon id="XMLID_102_" class="st9" points="186.9,210.4 186.9,203.2 186.1,203.2 186.1,210.6 			"/>
			<polygon id="XMLID_101_" class="st9" points="190.1,209.7 190.1,203.2 189.3,203.2 189.3,209.9 			"/>
			<polygon id="XMLID_100_" class="st9" points="193.3,209.1 193.3,203.2 192.5,203.2 192.5,209.2 			"/>
			<polygon id="XMLID_93_" class="st9" points="196.5,208.4 196.5,203.2 195.7,203.2 195.7,208.6 			"/>
			<polygon id="XMLID_92_" class="st9" points="199.7,207.7 199.7,203.2 198.8,203.2 198.8,207.9 			"/>
		</g>
	</g>
	<path id="XMLID_27_" class="st10" d="M201.4,83.8c-0.1-0.3-0.1-0.6-0.2-0.9c0.1,0.6,0.3,1.2,0.4,1.7
		C201.5,84.4,201.5,84.1,201.4,83.8z"/>
	<path id="XMLID_46_" class="st11" d="M197.7,69.2c0.1,0.2,0.1,0.4,0.2,0.6l0,0C197.8,69.6,197.7,69.4,197.7,69.2z"/>
	<line id="XMLID_17_" class="st12" x1="211.2" y1="153.8" x2="207.8" y2="154.3"/>
	<path id="XMLID_28_" class="st13" d="M197.7,69.2c0.1,0.2,0.1,0.4,0.2,0.6l0,0C197.8,69.6,197.7,69.4,197.7,69.2z"/>
	<path id="XMLID_29_" class="st13" d="M203,76.4C203,76.3,203,76.3,203,76.4c-0.1-0.3-0.1-0.6-0.2-0.8C202.9,75.8,203,76.1,203,76.4
		z"/>
	<path id="XMLID_35_" class="st14" d="M197.8,69.6c0,0.1,0,0.1,0,0.2c-0.8-0.4-1.6-0.6-2.6-0.7c-16-1.7-32.1-2.2-48.2-2.4
		c-0.4,0-0.9,0-1.3,0v-0.1c0.4,0,0.9,0,1.3,0c16.3,0.2,32.5,0.7,48.7,2.5C196.4,69.1,197.1,69.3,197.8,69.6z"/>
	<path id="XMLID_36_" class="st14" d="M199.9,77.4c0.2,0.9,0.5,1.9,0.7,2.9C200.4,79.2,200.1,78.3,199.9,77.4z"/>
	<path id="XMLID_26_" class="st13" d="M208.1,137.8c0,0.5,0,0.9,0,1.4C208.1,138.7,208.1,138.3,208.1,137.8z"/>
	<path id="XMLID_30_" class="st13" d="M207.9,131.2c0-0.2,0-0.4,0-0.6c0-0.2,0-0.3,0-0.5c0,0.9,0.1,1.8,0.1,2.6
		C207.9,132.3,207.9,131.8,207.9,131.2z"/>
	<path id="XMLID_32_" class="st13" d="M207.7,128.1c0-0.1,0-0.2,0-0.3c0-0.8-0.1-1.5-0.1-2.3c0.1,1.1,0.1,2.2,0.2,3.3
		C207.7,128.5,207.7,128.3,207.7,128.1z"/>
	<path id="XMLID_33_" class="st13" d="M205,101c0.1,0.5,0.1,1,0.2,1.5C205.1,102,205.1,101.5,205,101z"/>
	<path id="XMLID_34_" class="st13" d="M206.4,91.4c0.5,2.5,1,5.1,1.4,7.9C207.3,96.5,206.9,93.9,206.4,91.4z"/>
	<path id="XMLID_37_" class="st13" d="M201.6,84.7c0,0.1,0,0.2,0.1,0.3C201.7,84.9,201.6,84.8,201.6,84.7z"/>
	<path id="XMLID_38_" class="st13" d="M204.5,97.6c0,0,0,2,0,1.9C204.5,99.6,204.5,97.6,204.5,97.6L204.5,97.6z"/>
	<path id="XMLID_39_" class="st13" d="M201.4,83.8c0.1,0.2,0.1,0.4,0.2,0.7c-0.1-0.6-0.3-1.2-0.4-1.8c0,0.1,0,0.1,0,0.2
		C201.3,83.2,201.3,83.5,201.4,83.8z"/>
	<path id="XMLID_40_" class="st13" d="M203.5,94.3c-0.1-0.3-0.1-0.6-0.2-0.9c0,0.1,0,0.1,0,0.2C203.4,93.8,203.5,94,203.5,94.3z"/>
	<path id="XMLID_42_" class="st11" d="M202.8,75.6c0.1,0.2,0.1,0.5,0.2,0.7v0.1C203,76.1,202.9,75.8,202.8,75.6z"/>
	<polygon id="XMLID_43_" class="st11" points="211.2,153.8 211.2,153.8 211.5,143.4 	"/>
	<path id="XMLID_44_" class="st15" d="M211.5,140v-0.1c0-1.1,0-2.1-0.1-3.2v-0.3c0-0.9-0.1-1.9-0.1-2.8c-0.1-2.1-0.2-4.2-0.3-6.2
		c0-0.6-0.1-1.2-0.1-1.7c0-0.7-0.1-1.4-0.1-2.1c-0.1-2.1-0.3-4.2-0.5-6.2c-0.1-1-0.2-2-0.3-3s-0.2-2-0.3-3s-0.2-1.9-0.3-2.9
		c0-0.2,0-0.3-0.1-0.5c-0.1-0.8-0.2-1.6-0.3-2.4c-0.2-1.9-0.5-3.7-0.8-5.4c-0.1-0.9-0.3-1.7-0.4-2.5c0-0.2-0.1,1.7-0.1,1.6
		c-0.4-2.7-0.9-5.4-1.4-7.9c-0.3-1.3-0.5-2.6-0.8-3.8c-0.2-0.7-0.3-1.5-0.5-2.2c-0.5-2.5-1.1-4.9-1.6-7.1c-0.2-0.6-0.3-1.2-0.5-1.8
		l0,0v-0.1c0,0,0,0,0-0.1c-0.2-0.8-1.6-4.8-5.2-6.5c0.3,0.9,0.6,2,0.8,3c0.1,0.4,0.2,0.7,0.3,1.1c0.1,0.3,0.2,0.6,0.2,0.9
		c0.2,0.9,0.5,1.8,0.7,2.7c0.2,0.9,0.5,1.9,0.7,2.9c0.1,0.6,0.3,1.2,0.4,1.8c0.1,0.2,0.1,0.5,0.2,0.7c0.1,0.6,0.3,1.2,0.4,1.8
		c0,0.1,0,0.1,0,0.2c0,0,0,0,0,0.1s0,0.2,0.1,0.3c0.1,0.4,0.2,0.7,0.2,1.1c0.1,0.5,0.2,0.9,0.3,1.4c0.2,0.7,0.3,1.5,0.5,2.3
		c0.1,0.4,0.2,0.8,0.2,1.2c0.2,0.8,0.3,1.6,0.4,2.4c0.1,0.3,0.1,0.6,0.2,0.9c0.2,1.3,0.5,2.7,0.7,4c0.1,0.4,0.1,0.8,0.2,1.2
		c0,0,0-2,0-1.9V98c0,0.3,0.1,0.6,0.1,0.9c0.1,0.6,0.2,1.2,0.3,1.8c0,0.2,0.1,0.4,0.1,0.6c0.1,0.5,0.1,1,0.2,1.5
		c0.1,0.4,0.1,0.7,0.2,1.1c0.1,0.7,0.2,1.4,0.3,2.1c0.3,1.9,0.5,3.7,0.7,5.7c0.1,1,0.2,2,0.3,3c0.1,0.9,0.2,1.7,0.3,2.6
		s0.2,1.8,0.2,2.7c0.1,1.7,0.3,3.5,0.4,5.3c0,0.2,0,0.4,0,0.6c0.1,0.8,0.1,1.5,0.1,2.3c0,0.1,0,0.2,0,0.3c0,0.2,0,0.4,0,0.7
		c0,0.5,0,1,0.1,1.4c0,0.2,0,0.3,0,0.5s0,0.4,0,0.6c0,0.5,0,1,0.1,1.6c0,0.4,0,0.9,0.1,1.3c0,0.9,0.1,1.9,0.1,2.9c0,0.3,0,0.5,0,0.8
		c0,0.5,0,0.9,0,1.4c0,1.4,0,2.8,0,4.2l-0.1,2.9l-0.2,8l3.4-0.4l0.3-10.5C211.5,142.2,211.5,141.1,211.5,140z"/>
	<path id="XMLID_45_" class="st11" d="M208,146.2l-0.2,6.5L208,146.2C208,146.3,208,146.3,208,146.2z"/>
	<path id="XMLID_48_" class="st14" d="M201.9,86.1c-0.1-0.4-0.2-0.7-0.2-1.1c0.2,0.8,0.4,1.7,0.5,2.5
		C202.1,87.1,202,86.6,201.9,86.1z"/>
	<path id="XMLID_49_" class="st14" d="M198.7,72.8c-0.3-1.1-0.6-2.1-0.8-3c0.4,1.3,0.8,2.6,1.1,4.1
		C198.9,73.5,198.8,73.1,198.7,72.8z"/>
	<path id="XMLID_50_" class="st14" d="M203.8,95.8c0.1,0.4,0.1,0.8,0.2,1.3c0.1,0.8,0.3,1.6,0.4,2.4c-0.1-0.4-0.1-0.8-0.2-1.2
		c-0.2-1.4-0.5-2.7-0.7-4c0,0.1,0,0.2,0.1,0.3C203.7,95,203.7,95.4,203.8,95.8z"/>
	<path id="XMLID_51_" class="st14" d="M199.9,77.4c-0.2-0.9-0.5-1.8-0.7-2.7c0.4,1.7,0.9,3.6,1.4,5.5
		C200.4,79.2,200.1,78.3,199.9,77.4z"/>
	<path id="XMLID_52_" class="st14" d="M201.6,84.7c0-0.1,0-0.1,0-0.2C201.6,84.6,201.6,84.6,201.6,84.7L201.6,84.7z"/>
	<path id="XMLID_53_" class="st14" d="M208.1,139.2c0,1.4,0,2.8,0,4.2C208.1,142,208.1,140.6,208.1,139.2z"/>
	<path id="XMLID_54_" class="st14" d="M208.1,137.8c0-0.3,0-0.5,0-0.8c0-1,0-1.9-0.1-2.9c0-0.5,0-0.9-0.1-1.3c0,0.4,0,0.7,0,1.1
		C208,135.2,208,136.5,208.1,137.8z"/>
	<path id="XMLID_55_" class="st14" d="M204.9,100.4c-0.1-0.6-0.2-1.2-0.3-1.8c0-0.3-0.1-0.6-0.1-0.9c0.2,1.1,0.3,2.2,0.5,3.3
		C205,100.8,204.9,100.6,204.9,100.4z"/>
	<path id="XMLID_56_" class="st14" d="M201.2,82.7c-0.1-0.2-0.1-0.5-0.2-0.7c-0.1-0.6-0.3-1.2-0.4-1.8c0.1,0.6,0.3,1.2,0.4,1.8
		C201.1,82.3,201.1,82.5,201.2,82.7z"/>
	<path id="XMLID_57_" class="st14" d="M208,146.3l0.1-2.9L208,146.3L208,146.3z"/>
	<path id="XMLID_58_" class="st14" d="M207.7,128.7c0,0.5,0,1,0.1,1.4C207.8,129.7,207.8,129.2,207.7,128.7z"/>
	<path id="XMLID_59_" class="st14" d="M207.6,125.5c0-0.2,0-0.4,0-0.6c-0.1-1.8-0.2-3.5-0.4-5.3c-0.1-0.9-0.1-1.8-0.2-2.7
		c-0.1-0.9-0.2-1.7-0.3-2.6c0.4,3.5,0.7,7.1,0.9,10.8C207.5,125.2,207.5,125.3,207.6,125.5z"/>
	<path id="XMLID_60_" class="st14" d="M205.4,103.6c-0.1-0.4-0.1-0.7-0.2-1.1c0.2,1,0.3,2.1,0.4,3.2
		C205.5,105,205.5,104.3,205.4,103.6z"/>
	<path id="XMLID_61_" class="st14" d="M206.3,111.3c-0.2-1.9-0.4-3.8-0.7-5.7c0.1,0.9,0.2,1.9,0.4,2.8
		C206.1,109.4,206.2,110.4,206.3,111.3z"/>
	<path id="XMLID_16_" class="st14" d="M147,66.5L147,66.5c-0.4,0-0.9,0-1.3,0v-0.1C146.1,66.5,146.5,66.5,147,66.5z"/>
	<polygon id="XMLID_7_" class="st10" points="209.5,214.6 210.1,192.1 209.8,201.4 	"/>
	<path id="XMLID_65_" class="st10" d="M142.2,161.6c-2.5,0-4.9-0.2-7.3-0.4C137.3,161.4,139.8,161.6,142.2,161.6z"/>
	<polygon id="XMLID_66_" class="st10" points="80,152.8 80,152.8 105,156.7 	"/>
	<polygon id="XMLID_67_" class="st15" points="207.8,154.3 181.3,157.6 207.8,154.3 206.7,192.6 210.1,192.1 211.2,153.8 	"/>
	<path id="XMLID_19_" class="st12" d="M148.6,161.5c2.1-0.1,4.2-0.3,6.3-0.6C152.8,161.2,150.7,161.4,148.6,161.5z"/>
	<path id="XMLID_68_" class="st16" d="M94.2,146.5c4.8,0.4,9.6,0.5,14.4,0.8c3.9,0.2,7.9,0.6,11.9,0.7h47c4-0.1,7.9-0.5,11.9-0.7
		c4.8-0.3,9.6-0.4,14.4-0.8c4.5-0.4,9.1-1.2,13.2-3.4c0.4-0.2,0.7-0.4,1.1-0.7c-1.1-29.2-6.4-50.1-10.1-62.9
		c-0.6-0.3-1.4-0.4-2.1-0.6c-16.1-3.8-33.9-5.7-49.7-6.1h-4c-15.9,0.4-33.6,2.4-49.8,6.1c-0.8,0.2-1.5,0.3-2.1,0.6
		c-3.7,12.8-9,33.7-10.1,62.9c0.4,0.2,0.7,0.5,1.1,0.7C85.1,145.3,89.7,146.1,94.2,146.5z"/>
	<path id="XMLID_74_" class="st17" d="M207.9,142.5L207.9,142.5c0,0.1,0,0.1,0,0.2C207.9,142.6,207.9,142.5,207.9,142.5z"/>
	<path id="XMLID_75_" class="st17" d="M79.9,142.4c0,0.1,0,0.2,0,0.4C79.9,142.7,79.9,142.6,79.9,142.4L79.9,142.4z"/>
	<path id="XMLID_77_" class="st15" d="M148.6,161.5c-2,0.1-4.1,0.2-6.1,0.1c-0.1,0-0.2,0-0.2,0c4.2,0.1,8.4-0.2,12.6-0.7l25.3-3.2
		l-25.3,3.2C152.8,161.2,150.7,161.4,148.6,161.5z"/>
	<path id="XMLID_78_" class="st15" d="M142.5,161.6c2,0,4.1,0,6.1-0.1C146.5,161.6,144.5,161.6,142.5,161.6z"/>
	<polygon id="XMLID_79_" class="st15" points="154.9,160.9 180.1,157.7 181.3,157.6 	"/>
	<path id="XMLID_69_" class="st15" d="M134.9,161.2c-1.8-0.2-3.5-0.4-5.3-0.6l-24.7-3.8l24.7,3.8C131.4,160.8,133.1,161,134.9,161.2
		z"/>
	<polygon id="XMLID_9_" class="st11" points="79.8,146.4 80,152.8 79.7,143.4 79.8,146.3 	"/>
	<polygon id="XMLID_63_" class="st15" points="80,152.8 76.6,152.3 78.3,214.6 78.4,214.6 78,201.3 77.8,194 77.7,190.2 80.1,190.7 
		81.1,190.9 	"/>
	<path id="XMLID_70_" class="st15" d="M79.8,146.4L79.8,146.4l-0.1-3C79.7,109,85.9,84,90,69.6c-3.6,1.6-5,5.8-5.2,6.7v0.1
		c0,0,0,0,0,0.1l0,0c-3.9,15.3-8.5,37.4-8.5,66.9l0.3,8.9l3.4,0.5L79.8,146.4z"/>
	<path id="XMLID_83_" class="st15" d="M207.9,142.6c0-0.1,0-0.1,0-0.2c-0.4,0.2-0.7,0.5-1.1,0.7c-4,2.2-8.6,3-13.2,3.4
		c-4.8,0.4-9.6,0.5-14.4,0.8c-3.9,0.2-7.9,0.6-11.9,0.7h-47c-4-0.1-7.9-0.5-11.9-0.7c-4.8-0.3-9.6-0.4-14.4-0.8
		c-4.5-0.4-9.1-1.2-13.2-3.4c-0.4-0.2-0.7-0.4-1.1-0.7c0,0.1,0,0.2,0,0.4c0,1.2-0.1,2.3-0.1,3.5v0.1l0.2,6.4l0,0l1.1,38.1l47.3,9.3
		c9,1.8,18.1,1.9,27.1,0.5l44.9-7.1l1.8-0.3c0,0,0,0,0.1,0l4.3-0.7l0,0l1.1-38.3l0.2-8C208,145,208,143.8,207.9,142.6z M129.6,160.5
		l-23.7-3.7L129.6,160.5c0.9,0.1,1.8,0.3,2.7,0.4C131.5,160.8,130.5,160.7,129.6,160.5z M134.9,161.2c-0.1,0-0.2,0-0.3,0
		C134.7,161.2,134.9,161.2,134.9,161.2C135,161.2,134.9,161.2,134.9,161.2z M135.2,161.2c-0.5-0.1-1.1-0.1-1.6-0.2l0,0
		C134.1,161.1,134.7,161.2,135.2,161.2L135.2,161.2z M140.5,161.5L140.5,161.5c0.2,0,0.4,0,0.6,0
		C140.9,161.5,140.7,161.5,140.5,161.5z M142.5,161.6c-0.1,0-0.2,0-0.2,0c-0.4,0-0.7,0-1.1,0c0.3,0,0.7,0,1,0
		C142.3,161.6,142.4,161.6,142.5,161.6c0,0-0.1,0-0.2,0C142.3,161.6,142.4,161.6,142.5,161.6z M154.9,160.9c-1,0.1-2.1,0.2-3.1,0.3
		C152.8,161.1,153.8,161,154.9,160.9l26.5-3.3L154.9,160.9z"/>
	<path id="XMLID_72_" class="st18" d="M202.3,193.3l-1.8,0.3C200.5,193.6,201.2,193.5,202.3,193.3z"/>
	<path id="XMLID_6_" class="st15" d="M206.7,192.6L206.7,192.6l-4.3,0.7c0,0,0,0-0.1,0c-1.1,0.2-1.8,0.3-1.8,0.3l-44.9,7.1
		c-9,1.4-18.1,1.3-27.1-0.5l-47.3-9.3l-1-0.2l-2.4-0.5l0.1,3.8l0.2,7.3l0.3,13.3h3.4h124.4h3.4l0.3-13.3l0.3-9.3L206.7,192.6z"/>
	<path id="XMLID_103_" class="st18" d="M210.1,189.3v1.6c-0.1,1.9-7.7,4.4-7.7,4.4s0,0-0.1,0c-1.1,0.2-1.8,0.3-1.8,0.3l-44.9,7.1
		c-9,1.4-18.1,1.3-27.1-0.5l-45.3-8.9c0,0-5.4-2-5.4-3.3l-0.1-2.7l2.4,0.5l1,0.2l47.3,9.3c9,1.8,18.1,1.9,27.1,0.5l44.9-7.1
		c0,0,0.7-0.1,1.8-0.3c0,0,0,0,0.1,0l4.3-0.7L210.1,189.3z"/>
	<path id="XMLID_108_" class="st19" d="M210.1,189.3v0.9l-3.4,0.7l-4.3,0.8c0,0,0,0-0.1,0c-1.1,0.3-1.8,0.3-1.8,0.3l-44.9,8.7
		c-9,1.8-18.1,1.5-27.1-0.6l-47.3-11.4l-1-0.2l-2.3-0.6v-0.5l2.4,0.5l1,0.2l47.3,9.3c9,1.8,18.1,1.9,27.1,0.5l44.9-7.1
		c0,0,0.7-0.1,1.8-0.3c0,0,0,0,0.1,0l4.3-0.7L210.1,189.3z"/>
	<path id="XMLID_62_" class="st20" d="M208.1,139.2c0-0.5,0-0.9,0-1.4c0-1.3-0.1-2.6-0.1-3.9c0-0.4,0-0.7,0-1.1
		c0-0.9-0.1-1.8-0.1-2.6c0-0.5,0-1-0.1-1.4c-0.1-1.1-0.1-2.2-0.2-3.3c0-0.1,0-0.3,0-0.4c-0.2-3.7-0.5-7.3-0.9-10.8
		c-0.1-1-0.2-2-0.3-3s-0.2-1.9-0.3-2.9c-0.1-0.9-0.2-1.9-0.4-2.8c-0.1-1.1-0.3-2.1-0.4-3.2c-0.1-0.5-0.1-1-0.2-1.5
		c-0.2-1.1-0.3-2.2-0.5-3.3c0-0.1,0,1.9,0,1.8c-0.1-0.8-0.3-1.6-0.4-2.4c-0.1-0.4-0.1-0.8-0.2-1.3c-0.1-0.4-0.1-0.8-0.2-1.2
		c0-0.1,0-0.2-0.1-0.3c0-0.2-0.1-0.5-0.1-0.7c0-0.1,0-0.1,0-0.2c-0.1-0.8-0.3-1.6-0.4-2.4c-0.1-0.4-0.1-0.8-0.2-1.2
		c-0.1-0.8-0.3-1.5-0.5-2.3c-0.2-0.9-0.4-1.7-0.5-2.5c0-0.1,0-0.2-0.1-0.3c0-0.1,0-0.1,0-0.2c-0.1-0.2-0.1-0.4-0.2-0.7
		c-0.1-0.3-0.1-0.6-0.2-0.9c0-0.1,0-0.1,0-0.2c0-0.2-0.1-0.4-0.1-0.7c-0.1-0.6-0.3-1.2-0.4-1.8c-0.5-2-0.9-3.8-1.4-5.5
		c-0.1-0.3-0.2-0.6-0.2-0.9c-0.4-1.5-0.8-2.8-1.1-4.1c0-0.1,0-0.1,0-0.2l0,0l0,0c-0.2-0.1-10.5-4.9-23-6.1
		c-12.4-1.2-30.9-1.6-30.9-1.6s-18.5,0.4-30.9,1.6c-12.6,1.2-23,6.1-23,6.1c-4.6,14.6-10.8,39.6-10.8,74l0.1,3
		c0.8-31.1,6.4-53.4,10.3-66.8c0.6-0.3,1.4-0.4,2.1-0.6c16.2-3.8,34-5.7,49.8-6.1h4c15.8,0.4,33.6,2.4,49.7,6.1
		c0.8,0.2,1.5,0.3,2.1,0.6c3.9,13.4,9.5,35.7,10.3,66.7l0.1-2.9C208.1,142,208.1,140.6,208.1,139.2z M197.4,69.6h0.4
		c0,0,0,0.1,0,0.2C197.7,69.7,197.5,69.6,197.4,69.6z"/>
	<path id="XMLID_11_" class="st21" d="M208.1,139.9L208,142c-0.8-31.1-6.4-53.4-10.3-66.7c-0.6-0.3-1.4-0.4-2.1-0.6
		c-16.1-3.8-33.9-5.7-49.7-6.1h-4c-15.8,0.4-33.6,2.4-49.8,6.1c-0.8,0.2-1.5,0.3-2.1,0.6c-3.9,13.4-9.5,35.7-10.3,66.8l-0.1-1.9
		c0,1.1,0,2.1,0,3.2l0.1,3C80.5,115.3,86.1,93,90,79.6c0.6-0.3,1.4-0.4,2.1-0.6c16.2-3.8,34-5.7,49.8-6.1h4
		c15.8,0.4,33.6,2.4,49.7,6.1c0.8,0.2,1.5,0.3,2.1,0.6c3.9,13.4,9.5,35.7,10.3,66.7l0.1-2.9C208.1,142.2,208.1,141,208.1,139.9z"/>
	<path id="XMLID_64_" class="st22" d="M208.1,139l-0.1,2c-0.8-31.1-6.4-53.4-10.3-66.7c-0.6-0.3-1.4-0.4-2.1-0.6
		C179.5,70,161.8,68,146,67.6h-4c-15.8,0.4-33.6,2.4-49.8,6.1c-0.8,0.2-1.5,0.3-2.1,0.6c-3.9,13.4-9.5,35.7-10.3,66.8l-0.1-1.9
		c0,1.1,0,2.1,0,3.2v0.2c0-0.8,0-1.7,0-2.5l0.1,1.9c0.8-31.1,6.4-53.4,10.3-66.8c0.6-0.3,1.4-0.4,2.1-0.6c16.2-3.8,34-5.7,49.8-6.1
		h4c15.8,0.4,33.6,2.4,49.7,6.1c0.8,0.2,1.5,0.3,2.1,0.6c3.9,13.4,9.5,35.7,10.3,66.7l0.1-2.1c0,0.9,0,1.8,0,2.7v-0.2
		C208.1,141.3,208.1,140.1,208.1,139z"/>
	<path id="XMLID_80_" class="st17" d="M197.8,69.6L197.8,69.6l-0.4-0.1C197.5,69.6,197.7,69.7,197.8,69.6
		C197.8,69.7,197.8,69.7,197.8,69.6z"/>
	<path id="XMLID_8_" class="st20" d="M156.5,60.8h-25.1c-0.6,0-1.1,0.4-1.3,1l-1,4h29.6l-1-4C157.6,61.2,157.1,60.8,156.5,60.8z"/>
	<path id="XMLID_280_" class="st22" d="M208,146.6l-0.2,5c0,1.3-0.9,2.4-2.1,2.6l-15.2,2.6l-0.8,0.1l-1.1,0.2l-0.8,0.1l-33,5.6
		c-8.4,1.2-16.9,1-25.2-0.4l-29.8-5.1l-0.8-0.1l-1-0.2l-0.8-0.1l-15.1-2.6c-1.2-0.2-2.1-1.3-2.1-2.6l-0.1-4.8v-0.1
		c0-1.3,0.1-2.6,0.1-3.9c0-0.1,0-0.3,0-0.4c0.4,0.3,0.7,0.5,1.1,0.8c4,2.4,8.6,3.3,13.2,3.7c4.8,0.4,9.6,0.6,14.4,0.9
		c3.9,0.2,7.9,0.6,11.9,0.8h47c4-0.1,7.9-0.5,11.9-0.8c4.8-0.3,9.6-0.5,14.4-0.9c4.5-0.4,9.1-1.4,13.2-3.7c0.4-0.2,0.7-0.5,1.1-0.7
		v0.2C208,144,208,145.3,208,146.6z"/>
	<path id="XMLID_94_" class="st23" d="M187.3,163l-2.2,3.8c0,0.7-0.6,1.3-1.4,1.4l-9.4,1.5l-0.6,0.1l-22.3,1.8
		c-5.7,0.6-11.4,0.5-17.1-0.2l-20.1-1.6l-0.6-0.1l-9.4-1.6c-0.8-0.1-1.4-0.7-1.4-1.4l-2.2-3.7l0,0c0-0.7,0.7-0.3,1.5-0.2l11.5,1.6
		l0.6,0.1l18.8,1.4c5.7,0.8,11.4,0.8,17.1,0.2l23.6-1.7l0.6-0.1l11.5-1.5C186.6,162.7,187.3,162.3,187.3,163z"/>
	<path id="XMLID_95_" class="st22" d="M183.6,163.8l-11,1.5l-0.5,0.1l-22.4,1.7c-5.4,0.6-10.8,0.5-16.2-0.2l-17.8-1.4l-0.5-0.1
		l-10.9-1.6c-0.8-0.1-1.4-0.5-1.4,0.2v0.1l2.1,3.7c0,0.2,0.1,0.3,0.1,0.5l8.6,1.4l0.6,0.1l20.1,1.6c5.6,0.8,11.4,0.8,17.1,0.2
		l22.3-1.8l0.6-0.1l8.6-1.4c0.1-0.2,0.1-0.3,0.1-0.5l2.1-3.8C185.1,163.3,184.4,163.7,183.6,163.8z"/>
	<path id="XMLID_111_" class="st19" d="M187.3,163l-2.2,3.8c0,0.7-0.6,1.3-1.4,1.4l-9.4,1.5l-0.6,0.1l-22.3,1.8
		c-5.7,0.6-11.4,0.5-17.1-0.2l-20.1-1.6l-0.6-0.1l-9.4-1.6c-0.8-0.1-1.4-0.7-1.4-1.4l-2.2-3.7l0,0c0-0.4,0.3-0.4,0.8-0.4l1.4,2.4
		c0,0.7,0.6,1.3,1.4,1.4l9.4,1.6l0.6,0.1l20.1,1.6c5.6,0.8,11.4,0.8,17.1,0.2l22.3-1.8l0.6-0.1l9.4-1.5c0.8-0.1,1.4-0.7,1.4-1.4
		l1.4-2.4C187,162.5,187.3,162.5,187.3,163z"/>
	<path id="XMLID_76_" class="st24" d="M207.9,142.5c-0.4,0.2-0.7,0.5-1.1,0.7c-4,2.2-8.6,3-13.2,3.4c-4.8,0.4-9.6,0.5-14.4,0.8
		c-3.9,0.2-7.9,0.6-11.9,0.7h-47c-4-0.1-7.9-0.5-11.9-0.7c-4.8-0.3-9.6-0.4-14.4-0.8c-4.5-0.4-9.1-1.2-13.2-3.4
		c-0.4-0.2-0.7-0.4-1.1-0.7c0-0.5,0-1,0.1-1.5c0.4,0.2,0.7,0.4,1.1,0.6c4,2.2,8.6,3,13.2,3.4c4.8,0.4,9.6,0.5,14.4,0.8
		c3.9,0.2,7.9,0.6,11.9,0.7h47c4-0.1,7.9-0.5,11.9-0.7c4.8-0.3,9.6-0.4,14.4-0.8c4.5-0.4,9.1-1.2,13.2-3.4c0.4-0.2,0.7-0.4,1-0.6
		C207.9,141.5,207.9,142,207.9,142.5z"/>
	<path id="XMLID_90_" class="st20" d="M183.7,147.1c-1.5,0.1-2.9,0.1-4.4,0.2c-3.9,0.2-7.9,0.6-11.9,0.7h-47
		c-4-0.1-7.9-0.5-11.9-0.7c-1.5-0.1-3-0.2-4.4-0.2c1.5-0.2,2.9-0.3,4.4-0.5c1.3-0.2,2.6-0.4,3.9-0.6c2.7,0.2,5.3,0.4,8,0.5h47
		c2.7-0.1,5.3-0.3,8-0.5c1.3,0.2,2.6,0.4,3.8,0.6C180.7,146.8,182.2,146.9,183.7,147.1z"/>
	<path id="XMLID_81_" class="st20" d="M183.7,147.1c-1.5,0.1-2.9,0.1-4.4,0.2c-3.9,0.2-7.9,0.6-11.9,0.7h-47
		c-4-0.1-7.9-0.5-11.9-0.7c-1.5-0.1-3-0.2-4.4-0.2c1.5-0.2,2.9-0.3,4.4-0.5c1.3-0.2,2.6-0.4,3.9-0.6c2.7,0.2,5.3,0.4,8,0.5h47
		c2.7-0.1,5.3-0.3,8-0.5c1.3,0.2,2.6,0.4,3.8,0.6C180.7,146.8,182.2,146.9,183.7,147.1z"/>
	<path id="XMLID_91_" class="st21" d="M207.9,143.9v-0.2c-0.4,0.2-0.7,0.5-1.1,0.7c-4,2.2-8.6,3-13.2,3.4c-4.8,0.4-9.6,0.5-14.4,0.8
		c-3.9,0.2-7.9,0.6-11.9,0.7h-47c-4-0.1-7.9-0.5-11.9-0.7c-4.8-0.3-9.6-0.4-14.4-0.8c-4.5-0.4-9.1-1.2-13.2-3.4
		c-0.4-0.2-0.7-0.4-1.1-0.7c0,0.1-0.1,0.3,0-0.9c0-0.1,0-0.2,0-0.4c0.4,0.2,0.7,0.5,1.1,0.7c4,2.2,8.6,3,13.2,3.4
		c4.8,0.4,9.6,0.5,14.4,0.8c3.9,0.2,7.9,0.6,11.9,0.7h47c4-0.1,7.9-0.5,11.9-0.7c4.8-0.3,9.6-0.4,14.4-0.8c4.5-0.4,9.1-1.2,13.2-3.4
		c0.4-0.2,0.7-0.4,1.1-0.7v0.2C208,143.8,207.9,144.9,207.9,143.9z"/>
	<path id="XMLID_1_" class="st21" d="M183.1,153.2h-78.4c-1,0-1.8-0.8-1.8-1.8l0,0h81.9l0,0C184.9,152.4,184.1,153.2,183.1,153.2z"
		/>
	<path id="XMLID_73_" class="st25" d="M107.6,153.2c0.3-0.7,0.9-1.2,1.7-1.2h69.2c0.8,0,1.5,0.5,1.7,1.2H107.6z"/>
	<path id="XMLID_274_" class="st26" d="M194,158.9l-3.9,15.1c-0.5,2.2-2.5,3.8-4.7,4l-30.4,3.1c-0.6,0.1-1.1,0.2-1.6,0.4l-9.3,4.3
		l0,0H144h-0.1l0,0l-9.3-4.3c-0.5-0.2-1-0.4-1.6-0.4l-30.4-3.1c-2.3-0.2-4.2-1.8-4.7-4L94,158.9c0-0.1,0-0.2,0.1-0.3l3.2-1.8L98,157
		l-3.6,2l3.9,14.9c0.5,1.9,2.2,3.4,4.3,3.6l30.4,3.1c0.6,0.1,1.2,0.2,1.8,0.5l8.5,3.9c0.5,0.2,1.1,0.2,1.5,0l8.5-3.9
		c0.5-0.3,1.2-0.4,1.8-0.5l30.4-3.1c2-0.2,3.8-1.7,4.3-3.6l3.9-14.9l-3.7-2.1l0.8-0.1l3.3,1.9C194,158.7,194,158.8,194,158.9z"/>
	<path id="XMLID_109_" class="st19" d="M186.5,178.2L186.5,178.2c-0.6,3.9-3.8,5.9-6.8,7.9l-10.6,1.8l-14.2,2.4
		c-8.4,1.1-16.9,1-25.2-0.4l-10.2-1.7l-10.2-1.7c-3.1-2-6.5-4-7.2-8c0-0.1,0-0.1,0-0.2l0.4-0.3c0.1,0,0.1,0,0.2,0l0.6,0.1l13.9,1.4
		l15.9,1.6c0.6,0.1,1.2,0.2,1.8,0.5l9.2,4.3l9.2-4.3c0.6-0.3,1.2-0.4,1.8-0.5l16.5-1.7l13.9-1.4l0,0c0.2,0,0.4-0.1,0.6-0.1
		L186.5,178.2z"/>
	<path id="XMLID_107_" class="st22" d="M185.3,178c-1.3,2.7-3.5,3.9-5.6,5.5l-10.6,2l-14.2,2.7c-8.4,1.3-16.9,1.2-25.2-0.5l-10.2-2
		l-10.2-2c-2.2-1.7-4.6-2.9-6-5.8l13.9,1.4l15.9,1.6c0.6,0.1,1.2,0.2,1.8,0.5l8.6,4c0.4,0.2,0.9,0.2,1.3,0l8.6-4
		c0.6-0.3,1.2-0.4,1.8-0.5l16.5-1.7L185.3,178z"/>
	<path id="XMLID_179_" class="st21" d="M185.3,178c-0.8,1.6-2,2.7-3.2,3.7l-10.7,1.1l-16.5,1.7c-0.6,0.1-1.2,0.2-1.8,0.5l-8.6,3.9
		c-0.4,0.2-0.9,0.2-1.3,0l-8.6-3.9c-0.5-0.3-1.2-0.4-1.8-0.5l-15.8-1.6l-10.7-1.1c-1.2-1-2.4-2.1-3.2-3.7l13.9,1.4l15.8,1.6
		c0.6,0.1,1.2,0.2,1.8,0.5l8.6,3.9c0.4,0.2,0.9,0.2,1.3,0l8.6-3.9c0.5-0.3,1.2-0.4,1.8-0.5l16.5-1.7L185.3,178z"/>
	<path id="XMLID_31_" class="st27" d="M200.9,211.8H87c-1.5,0-2.9,0.2-4.3,0.6l-4.3,2.3h131.2l-4.4-2.3
		C203.7,212,202.3,211.8,200.9,211.8z"/>
	<g id="XMLID_14_">
		<path id="XMLID_22_" class="st19" d="M170.7,207.7c-1,0.6-2.2,1-3.5,1h-46.7c-1.3,0-2.5-0.4-3.5-1c-0.8,0.8-1.3,1.6-1.3,2.6l0,0
			H172l0,0C172,209.4,171.5,208.5,170.7,207.7z"/>
		<path id="XMLID_161_" class="st28" d="M166,205.4c-0.4-0.1-0.9-0.1-1.3-0.1h-41.6c-0.4,0-0.8,0-1.3,0.1c-1.7,0.3-3.5,1.2-4.7,2.3
			c1,0.6,2.2,1,3.5,1h46.7c1.3,0,2.5-0.4,3.5-1C169.5,206.5,167.7,205.7,166,205.4z"/>
		<path id="XMLID_159_" class="st22" d="M169.4,210.3c-0.7-1.9-2.6-3.3-4.9-3.3h-41.1c-2.2,0-4.2,1.4-4.9,3.3H169.4z"/>
	</g>
	<ellipse id="XMLID_15_" class="st21" cx="98.1" cy="69.6" rx="2.1" ry="1.6"/>
	<path id="XMLID_177_" class="st29" d="M99.4,69.9c-0.1,0.6-0.7,1.1-1.3,1.1c-0.6,0-1.2-0.4-1.3-1c0.2,0,0.3-0.1,0.3-0.3
		s-0.1-0.3-0.3-0.3c0.1-0.6,0.7-1,1.3-1c0.6,0,1.2,0.5,1.3,1.1c-0.1,0-0.3,0.1-0.3,0.3C99.1,69.8,99.3,69.9,99.4,69.9z"/>
	<ellipse id="XMLID_164_" class="st21" cx="189.4" cy="69.6" rx="2.1" ry="1.6"/>
	<path id="XMLID_162_" class="st29" d="M190.7,69.9c-0.1,0.6-0.7,1.1-1.3,1.1s-1.2-0.4-1.3-1c0.2,0,0.3-0.1,0.3-0.3
		s-0.1-0.3-0.3-0.3c0.1-0.6,0.7-1,1.3-1s1.2,0.5,1.3,1.1c-0.1,0-0.3,0.1-0.3,0.3C190.5,69.8,190.6,69.9,190.7,69.9z"/>
	<path id="XMLID_172_" class="st21" d="M77.9,172.4l3.3,1.3c0.6,0.2,1,0.7,1.3,1.2l0,0c0.3,0.6,0.8,1,1.4,1.2l11.4,4.2
		c0.7,0.3,1.3,0.8,1.5,1.6c1,2.9,3.5,10.4,3.4,10.4s-17.4-5-17.4-5l-0.8-0.6l-0.6-1.2c-0.2-0.4-0.5-0.7-0.8-1l-2.3-1.6l-0.6-2
		L77.9,172.4z"/>
	<path id="XMLID_185_" class="st21" d="M100.2,192.3c0,0-0.1,0-0.4-0.1c-0.2,0-0.5-0.1-0.8-0.2c-0.7-2.3-2.3-6.9-3-9
		c-0.3-0.7-0.8-1.3-1.5-1.5l-11.4-4.2c-0.6-0.2-1.1-0.7-1.4-1.2s-0.8-1-1.3-1.2l-2.5-1V173v-0.4l3.3,1.3c0.6,0.2,1,0.7,1.3,1.2
		c0.3,0.6,0.8,1,1.4,1.2l11.4,4.2c0.7,0.3,1.3,0.8,1.5,1.5C97.8,184.8,100.3,192.3,100.2,192.3z"/>
	<path id="XMLID_182_" class="st30" d="M99.8,192.2c-0.2,0-0.5-0.1-0.8-0.2c-0.7-2.3-2.3-6.9-3-9c-0.3-0.7-0.8-1.3-1.5-1.5
		l-11.4-4.2c-0.6-0.2-1.1-0.7-1.4-1.2s-0.8-1-1.3-1.2l-2.5-1V173l3,1.2c0.6,0.2,1,0.7,1.3,1.2c0.3,0.6,0.8,1,1.4,1.2l11.4,4.2
		c0.7,0.3,1.3,0.8,1.5,1.5C97.4,184.7,99.4,190.6,99.8,192.2z"/>
	<g id="XMLID_178_">
		<ellipse id="XMLID_201_" class="st31" cx="91.4" cy="185" rx="3.7" ry="4.1"/>
		<path id="XMLID_200_" class="st32" d="M94.4,182.7c-0.7-0.8-1.6-1.3-2.7-1.3c-2,0-3.7,1.8-3.7,4.1c0,0.9,0.2,1.6,0.6,2.3
			c-0.6-0.7-1-1.8-1-2.9c0-2.3,1.7-4.2,3.7-4.2C92.6,180.8,93.8,181.6,94.4,182.7z"/>
		<path id="XMLID_199_" class="st33" d="M95,185c0,2.3-1.7,4.1-3.7,4.1c-1.6,0-3-1.2-3.5-2.8c0.6,1.3,1.8,2.1,3.2,2.1
			c2,0,3.7-1.8,3.7-4.1c0-0.5-0.1-0.9-0.2-1.3C94.9,183.5,95,184.2,95,185z"/>
		<path id="XMLID_198_" class="st34" d="M94.2,185c0,1.6-1.3,3-3,3c-1.6,0-3-1.3-3-3c0-1.2,0.7-2.2,1.7-2.7c0.2-0.1,0.4-0.2,0.6-0.2
			c0.1,0,0.2,0,0.3,0c0.1,0,0.2,0,0.3,0c0.2,0,0.3,0,0.4,0s0.3,0.1,0.4,0.1c0.3,0.1,0.6,0.2,0.8,0.4C93.7,183,94.2,183.9,94.2,185z"
			/>
		<path id="XMLID_197_" class="st35" d="M92.9,185.3c0,0.8-0.5,1.4-1,1.4c-0.4,0-0.7-0.3-0.8-0.6c0.1,0.1,0.3,0.2,0.4,0.2
			c0.5,0,1-0.6,1-1.4c0-0.3-0.1-0.5-0.2-0.8C92.6,184.3,92.9,184.7,92.9,185.3z"/>
		<path id="XMLID_195_" class="st36" d="M94.2,185.6c-0.3,1.2-1.3,2.2-2.6,2.3l0,0c-0.1,0-0.2,0-0.3,0c-1.2,0-2.2-0.7-2.7-1.6
			c-0.2-0.4-0.3-0.8-0.3-1.3s0.2-1,0.4-1.5c0,0.1,0.2,0.4,0.2,0.5c0,0.2-0.3,0.5-0.4,0.7s0.2,0.8,0.4,1c0.2,0.3,0.3-0.1,0.2-0.2
			c-0.1-0.1,0.8-0.9,0.8-1c-0.1,0.2-0.1,0.4-0.2,0.6l0,0l0.3,0.1c0.2,0.1,0.4,0.2,0.7,0.3c0.2,0.1,0.4,0.2,0.4,0.4
			c0,0.1,0,0.2,0,0.3c0.2,0.6,0.8,0.8,1.4,0.7c0.5-0.1,1-0.6,1.3-1c0.1-0.1,0.2-0.2,0.2-0.3S94.1,185.6,94.2,185.6z"/>
		<path id="XMLID_191_" class="st37" d="M90,183.1c0,0-1.7,0.7-1.3,2.1c0,0,0.5,0,0.6-0.5C89.3,184.7,92.2,183.7,90,183.1z"/>
		<path id="XMLID_190_" class="st38" d="M91.1,184.5c-0.2,0.6-0.6,0-0.6,0c0-0.7-0.2-1.6-0.5-2.2c0.2-0.1,0.4-0.2,0.6-0.2
			C90.9,183.1,91.1,184.5,91.1,184.5z"/>
		<path id="XMLID_184_" class="st38" d="M92.1,184.5c-0.2,0.6-0.6,0-0.6,0c0-0.8-0.3-1.8-0.5-2.5c0.1,0,0.2,0,0.3,0
			c0.2,0,0.3,0,0.4,0C92,183.1,92.1,184.5,92.1,184.5z"/>
		<path id="XMLID_181_" class="st38" d="M93.2,184.5c-0.2,0.6-0.6,0-0.6,0c0-0.8-0.3-1.7-0.5-2.4c0.3,0.1,0.6,0.2,0.8,0.4
			C93.1,183.5,93.2,184.5,93.2,184.5z"/>
		<path id="XMLID_180_" class="st35" d="M92.1,187.3c0,0,0,0,0,0.1s-0.1,0.2-0.1,0.2c-0.1,0.1-0.2,0.3-0.4,0.3c-0.1,0-0.2,0-0.3,0
			c-1.2,0-2.2-0.7-2.7-1.6c0.1-0.1,0.1-0.1,0.2,0s0.5,0.5,0.9,0.5c0.2,0,0.3-0.2,0.5-0.3c0.1,0,0.2,0,0.3,0.1
			c0.4,0.3,0.8,0.9,1.4,0.8C92,187.3,92,187.3,92.1,187.3z"/>
	</g>
	<g id="XMLID_202_">
		
			<ellipse id="XMLID_213_" transform="matrix(-0.1204 -0.9927 0.9927 -0.1204 -86.2322 287.3813)" class="st31" cx="84.2" cy="181.9" rx="3.4" ry="2.9"/>
		<path id="XMLID_212_" class="st32" d="M86.4,179.8c-0.6-0.6-1.4-0.9-2.2-0.8c-1.6,0.2-2.7,1.8-2.4,3.7c0.1,0.7,0.3,1.3,0.7,1.8
			c-0.6-0.5-1-1.3-1.1-2.2c-0.2-1.9,0.9-3.5,2.4-3.7C84.8,178.5,85.8,179,86.4,179.8z"/>
		<path id="XMLID_211_" class="st33" d="M87.1,181.6c0.2,1.9-0.9,3.5-2.4,3.7c-1.3,0.2-2.5-0.7-3-2c0.6,1,1.6,1.5,2.7,1.4
			c1.6-0.2,2.7-1.8,2.4-3.7c0-0.4-0.1-0.7-0.3-1C86.8,180.4,87,181,87.1,181.6z"/>
		<path id="XMLID_210_" class="st34" d="M86.4,181.7c0.2,1.3-0.7,2.5-2,2.7s-2.4-0.8-2.6-2.1c-0.1-1,0.3-1.8,1-2.3
			c0.1-0.1,0.3-0.2,0.5-0.2c0.1,0,0.2-0.1,0.3-0.1c0.1,0,0.1,0,0.2,0s0.2,0,0.3,0c0.1,0,0.2,0,0.3,0c0.2,0,0.5,0.1,0.7,0.2
			C85.8,180.2,86.3,180.8,86.4,181.7z"/>
		<path id="XMLID_209_" class="st35" d="M85.4,182c0.1,0.6-0.2,1.2-0.6,1.2c-0.3,0-0.5-0.1-0.7-0.4c0.1,0.1,0.2,0.1,0.4,0.1
			c0.4-0.1,0.7-0.6,0.6-1.2c0-0.2-0.1-0.4-0.2-0.6C85.1,181.2,85.3,181.6,85.4,182z"/>
		<path id="XMLID_208_" class="st36" d="M86.5,182.2c-0.1,1-0.8,1.9-1.8,2.1l0,0c-0.1,0-0.1,0-0.2,0c-0.9,0.1-1.7-0.3-2.2-1.1
			c-0.2-0.3-0.3-0.7-0.4-1.1c-0.1-0.4,0-0.9,0.2-1.2c0,0.1,0.2,0.3,0.2,0.4c0.1,0.2-0.2,0.4-0.2,0.6c0,0.2,0.2,0.6,0.4,0.8
			c0.2,0.2,0.2-0.1,0.1-0.2c-0.1-0.1,0.5-0.8,0.6-0.9c0,0.2-0.1,0.3-0.1,0.5l0,0c0,0,0.2,0,0.2,0.1c0.2,0,0.4,0.1,0.5,0.2
			c0.1,0.1,0.3,0.1,0.4,0.3c0,0.1,0,0.2,0,0.3c0.2,0.4,0.7,0.6,1.1,0.4c0.4-0.2,0.7-0.5,0.9-0.9c0-0.1,0.1-0.2,0.1-0.2
			C86.3,182.2,86.4,182.2,86.5,182.2z"/>
		<path id="XMLID_207_" class="st37" d="M83,180.5c0,0-1.2,0.7-0.8,1.8c0,0,0.4-0.1,0.4-0.4C82.6,181.9,84.7,180.8,83,180.5z"/>
		<path id="XMLID_206_" class="st38" d="M83.9,181.6c-0.1,0.5-0.5,0.1-0.5,0.1c-0.1-0.6-0.3-1.2-0.6-1.8c0.1-0.1,0.3-0.2,0.5-0.2
			C83.7,180.5,83.9,181.6,83.9,181.6z"/>
		<path id="XMLID_205_" class="st38" d="M84.8,181.5c-0.1,0.5-0.5,0.1-0.5,0.1c-0.1-0.7-0.4-1.4-0.7-2c0.1,0,0.1,0,0.2,0
			s0.2,0,0.3,0C84.5,180.4,84.8,181.5,84.8,181.5z"/>
		<path id="XMLID_204_" class="st38" d="M85.6,181.4c-0.1,0.5-0.5,0.1-0.5,0.1c-0.1-0.6-0.4-1.4-0.6-1.9c0.2,0,0.5,0.1,0.7,0.2
			C85.4,180.6,85.6,181.4,85.6,181.4z"/>
		<path id="XMLID_203_" class="st35" d="M85,183.8c0,0,0,0,0,0.1s0,0.1-0.1,0.2c-0.1,0.1-0.2,0.2-0.3,0.3c-0.1,0-0.1,0-0.2,0
			c-0.9,0.1-1.7-0.3-2.2-1.1c0-0.1,0.1-0.1,0.2,0s0.5,0.4,0.7,0.3c0.2-0.1,0.2-0.2,0.3-0.3c0.1,0,0.2,0,0.3,0
			c0.3,0.2,0.7,0.7,1.1,0.5C84.9,183.8,85,183.8,85,183.8z"/>
	</g>
	<g id="XMLID_218_">
		<path id="XMLID_219_" class="st39" d="M80.1,177.3c0.3,0.4,0.5,0.9,0.5,1.6c0,1.1-0.6,2-1.2,2c-0.1,0-0.2,0-0.3-0.1
			c0.2,0.2,0.4,0.3,0.7,0.3c0.7,0,1.2-0.9,1.2-2C81,178.2,80.6,177.5,80.1,177.3z"/>
		<path id="XMLID_221_" class="st40" d="M80.6,178.9c0-0.7-0.2-1.3-0.5-1.6c-0.1,0-0.2-0.1-0.3-0.1c-0.7,0-1.2,0.9-1.2,2
			c0,0.7,0.2,1.3,0.5,1.6c0.1,0,0.2,0.1,0.3,0.1C80,180.8,80.6,180,80.6,178.9z"/>
	</g>
	<path id="XMLID_246_" class="st21" d="M209.9,172.4l-3.3,1.3c-0.6,0.2-1,0.7-1.3,1.2l0,0c-0.3,0.6-0.8,1-1.4,1.2l-11.4,4.2
		c-0.7,0.3-1.3,0.8-1.5,1.6c-1,2.9-3.5,10.4-3.4,10.4s17.4-5,17.4-5l0.8-0.6l0.6-1.2c0.2-0.4,0.5-0.7,0.8-1l2.3-1.6l0.6-2
		L209.9,172.4z"/>
	<path id="XMLID_245_" class="st21" d="M187.6,192.3c0,0,0.1,0,0.4-0.1c0.2,0,0.5-0.1,0.8-0.2c0.7-2.3,2.3-6.9,3-9
		c0.3-0.7,0.8-1.3,1.5-1.5l11.4-4.2c0.6-0.2,1.1-0.7,1.4-1.2c0.3-0.5,0.8-1,1.3-1.2l2.5-1V173v-0.4l-3.3,1.3c-0.6,0.2-1,0.7-1.3,1.2
		c-0.3,0.6-0.8,1-1.4,1.2l-11.4,4.2c-0.7,0.3-1.3,0.8-1.5,1.5C190,184.8,187.5,192.3,187.6,192.3z"/>
	<path id="XMLID_244_" class="st30" d="M188,192.2c0.2,0,0.5-0.1,0.8-0.2c0.7-2.3,2.3-6.9,3-9c0.3-0.7,0.8-1.3,1.5-1.5l11.4-4.2
		c0.6-0.2,1.1-0.7,1.4-1.2c0.3-0.5,0.8-1,1.3-1.2l2.5-1V173l-3,1.2c-0.6,0.2-1,0.7-1.3,1.2c-0.3,0.6-0.8,1-1.4,1.2l-11.4,4.2
		c-0.7,0.3-1.3,0.8-1.5,1.5C190.4,184.7,188.4,190.6,188,192.2z"/>
	<g id="XMLID_232_">
		<ellipse id="XMLID_243_" class="st31" cx="196.4" cy="185" rx="3.7" ry="4.1"/>
		<path id="XMLID_242_" class="st32" d="M193.3,182.7c0.7-0.8,1.6-1.3,2.7-1.3c2,0,3.7,1.8,3.7,4.1c0,0.9-0.2,1.6-0.6,2.3
			c0.6-0.7,1-1.8,1-2.9c0-2.3-1.7-4.2-3.7-4.2C195.1,180.8,194,181.6,193.3,182.7z"/>
		<path id="XMLID_241_" class="st33" d="M192.7,185c0,2.3,1.7,4.1,3.7,4.1c1.6,0,3-1.2,3.5-2.8c-0.6,1.3-1.8,2.1-3.2,2.1
			c-2,0-3.7-1.8-3.7-4.1c0-0.5,0.1-0.9,0.2-1.3C192.9,183.5,192.7,184.2,192.7,185z"/>
		<path id="XMLID_240_" class="st34" d="M193.6,185c0,1.6,1.3,3,3,3c1.6,0,3-1.3,3-3c0-1.2-0.7-2.2-1.7-2.7
			c-0.2-0.1-0.4-0.2-0.6-0.2c-0.1,0-0.2,0-0.3,0s-0.2,0-0.3,0c-0.2,0-0.3,0-0.4,0c-0.1,0-0.3,0.1-0.4,0.1c-0.3,0.1-0.6,0.2-0.8,0.4
			C194.1,183,193.6,183.9,193.6,185z"/>
		<path id="XMLID_239_" class="st35" d="M194.9,185.3c0,0.8,0.5,1.4,1,1.4c0.4,0,0.7-0.3,0.8-0.6c-0.1,0.1-0.3,0.2-0.4,0.2
			c-0.5,0-1-0.6-1-1.4c0-0.3,0.1-0.5,0.2-0.8C195.2,184.3,194.9,184.7,194.9,185.3z"/>
		<path id="XMLID_238_" class="st36" d="M193.6,185.6c0.3,1.2,1.3,2.2,2.6,2.3l0,0c0.1,0,0.2,0,0.3,0c1.2,0,2.2-0.7,2.7-1.6
			c0.2-0.4,0.3-0.8,0.3-1.3s-0.2-1-0.4-1.5c0,0.1-0.2,0.4-0.2,0.5c0,0.2,0.3,0.5,0.4,0.7c0.1,0.2-0.2,0.8-0.4,1
			c-0.2,0.3-0.3-0.1-0.2-0.2c0.1-0.1-0.8-0.9-0.8-1c0.1,0.2,0.1,0.4,0.2,0.6l0,0l-0.3,0.1c-0.2,0.1-0.4,0.2-0.7,0.3
			c-0.2,0.1-0.4,0.2-0.4,0.4c0,0.1,0,0.2,0,0.3c-0.2,0.6-0.8,0.8-1.4,0.7c-0.5-0.1-1-0.6-1.3-1c-0.1-0.1-0.2-0.2-0.2-0.3
			C193.8,185.5,193.7,185.6,193.6,185.6z"/>
		<path id="XMLID_237_" class="st37" d="M197.8,183.1c0,0,1.7,0.7,1.3,2.1c0,0-0.5,0-0.6-0.5C198.5,184.7,195.6,183.7,197.8,183.1z"
			/>
		<path id="XMLID_236_" class="st38" d="M196.7,184.5c0.2,0.6,0.6,0,0.6,0c0-0.7,0.2-1.6,0.5-2.2c-0.2-0.1-0.4-0.2-0.6-0.2
			C196.9,183.1,196.7,184.5,196.7,184.5z"/>
		<path id="XMLID_235_" class="st38" d="M195.7,184.5c0.2,0.6,0.6,0,0.6,0c0-0.8,0.3-1.8,0.5-2.5c-0.1,0-0.2,0-0.3,0
			c-0.2,0-0.3,0-0.4,0C195.8,183.1,195.7,184.5,195.7,184.5z"/>
		<path id="XMLID_234_" class="st38" d="M194.6,184.5c0.2,0.6,0.6,0,0.6,0c0-0.8,0.3-1.7,0.5-2.4c-0.3,0.1-0.6,0.2-0.8,0.4
			C194.7,183.5,194.6,184.5,194.6,184.5z"/>
		<path id="XMLID_233_" class="st35" d="M195.7,187.3c0,0,0,0,0,0.1s0.1,0.2,0.1,0.2c0.1,0.1,0.2,0.3,0.4,0.3c0.1,0,0.2,0,0.3,0
			c1.2,0,2.2-0.7,2.7-1.6c-0.1-0.1-0.1-0.1-0.2,0c-0.1,0.1-0.5,0.5-0.9,0.5c-0.2,0-0.3-0.2-0.5-0.3c-0.1,0-0.2,0-0.3,0.1
			c-0.4,0.3-0.8,0.9-1.4,0.8C195.8,187.3,195.8,187.3,195.7,187.3z"/>
	</g>
	<g id="XMLID_217_">
		
			<ellipse id="XMLID_231_" transform="matrix(-0.1204 0.9927 -0.9927 -0.1204 408.7275 1.8204)" class="st31" cx="203.6" cy="182" rx="3.4" ry="2.9"/>
		<path id="XMLID_230_" class="st32" d="M201.4,179.8c0.6-0.6,1.4-0.9,2.2-0.8c1.6,0.2,2.7,1.8,2.4,3.7c-0.1,0.7-0.3,1.3-0.7,1.8
			c0.6-0.5,1-1.3,1.1-2.2c0.2-1.9-0.9-3.5-2.4-3.7C203,178.5,202,179,201.4,179.8z"/>
		<path id="XMLID_229_" class="st33" d="M200.7,181.6c-0.2,1.9,0.9,3.5,2.4,3.7c1.3,0.2,2.5-0.7,3-2c-0.6,1-1.6,1.5-2.7,1.4
			c-1.6-0.2-2.7-1.8-2.4-3.7c0-0.4,0.1-0.7,0.3-1C201,180.4,200.8,181,200.7,181.6z"/>
		<path id="XMLID_228_" class="st34" d="M201.4,181.7c-0.2,1.3,0.7,2.5,2,2.7s2.4-0.8,2.6-2.1c0.1-1-0.3-1.8-1-2.3
			c-0.1-0.1-0.3-0.2-0.5-0.2c-0.1,0-0.2-0.1-0.3-0.1s-0.1,0-0.2,0c-0.1,0-0.2,0-0.3,0s-0.2,0-0.3,0c-0.2,0-0.5,0.1-0.7,0.2
			C202,180.2,201.5,180.8,201.4,181.7z"/>
		<path id="XMLID_227_" class="st35" d="M202.4,182c-0.1,0.6,0.2,1.2,0.6,1.2c0.3,0,0.5-0.1,0.7-0.4c-0.1,0.1-0.2,0.1-0.4,0.1
			c-0.4-0.1-0.7-0.6-0.6-1.2c0-0.2,0.1-0.4,0.2-0.6C202.7,181.2,202.4,181.6,202.4,182z"/>
		<path id="XMLID_226_" class="st36" d="M201.3,182.2c0.1,1,0.8,1.9,1.8,2.1l0,0c0.1,0,0.1,0,0.2,0c0.9,0.1,1.7-0.3,2.2-1.1
			c0.2-0.3,0.3-0.7,0.4-1.1c0.1-0.4,0-0.9-0.2-1.2c0,0.1-0.2,0.3-0.2,0.4c-0.1,0.2,0.2,0.4,0.2,0.6c0,0.2-0.2,0.6-0.4,0.8
			s-0.2-0.1-0.1-0.2c0.1-0.1-0.5-0.8-0.6-0.9c0,0.2,0.1,0.3,0.1,0.5l0,0c0,0-0.2,0-0.2,0.1c-0.2,0-0.4,0.1-0.5,0.2
			c-0.1,0.1-0.3,0.1-0.4,0.3c0,0.1,0,0.2,0,0.3c-0.2,0.4-0.7,0.6-1.1,0.4c-0.4-0.2-0.7-0.5-0.9-0.9c0-0.1-0.1-0.2-0.1-0.2
			C201.5,182.2,201.4,182.2,201.3,182.2z"/>
		<path id="XMLID_225_" class="st37" d="M204.8,180.5c0,0,1.2,0.7,0.8,1.8c0,0-0.4-0.1-0.4-0.4C205.2,181.9,203.1,180.8,204.8,180.5
			z"/>
		<path id="XMLID_224_" class="st38" d="M203.9,181.6c0.1,0.5,0.5,0.1,0.5,0.1c0.1-0.6,0.3-1.2,0.6-1.8c-0.1-0.1-0.3-0.2-0.5-0.2
			C204.1,180.5,203.9,181.6,203.9,181.6z"/>
		<path id="XMLID_223_" class="st38" d="M203,181.5c0.1,0.5,0.5,0.1,0.5,0.1c0.1-0.7,0.4-1.4,0.7-2c-0.1,0-0.1,0-0.2,0
			c-0.1,0-0.2,0-0.3,0C203.3,180.4,203,181.5,203,181.5z"/>
		<path id="XMLID_222_" class="st38" d="M202.2,181.4c0.1,0.5,0.5,0.1,0.5,0.1c0.1-0.6,0.4-1.4,0.6-1.9c-0.2,0-0.5,0.1-0.7,0.2
			C202.4,180.6,202.2,181.4,202.2,181.4z"/>
		<path id="XMLID_220_" class="st35" d="M202.8,183.8c0,0,0,0,0,0.1s0,0.1,0.1,0.2c0.1,0.1,0.2,0.2,0.3,0.3c0.1,0,0.1,0,0.2,0
			c0.9,0.1,1.7-0.3,2.2-1.1c0-0.1-0.1-0.1-0.2,0c-0.1,0.1-0.5,0.4-0.7,0.3c-0.2-0.1-0.2-0.2-0.3-0.3c-0.1,0-0.2,0-0.3,0
			c-0.3,0.2-0.7,0.7-1.1,0.5C202.9,183.8,202.8,183.8,202.8,183.8z"/>
	</g>
	<g id="XMLID_214_">
		<path id="XMLID_216_" class="st39" d="M207.7,177.3c-0.3,0.4-0.5,0.9-0.5,1.6c0,1.1,0.6,2,1.2,2c0.1,0,0.2,0,0.3-0.1
			c-0.2,0.2-0.4,0.3-0.7,0.3c-0.7,0-1.2-0.9-1.2-2C206.8,178.2,207.2,177.5,207.7,177.3z"/>
		<path id="XMLID_215_" class="st40" d="M207.2,178.9c0-0.7,0.2-1.3,0.5-1.6c0.1,0,0.2-0.1,0.3-0.1c0.7,0,1.2,0.9,1.2,2
			c0,0.7-0.2,1.3-0.5,1.6c-0.1,0-0.2,0.1-0.3,0.1C207.7,180.8,207.2,180,207.2,178.9z"/>
	</g>
	<rect id="XMLID_173_" x="135.4" y="194.9" class="st41" width="17" height="8.9"/>
	<path id="XMLID_176_" class="st19" d="M77.9,197l16.1,3.1c0.7,0.1,1,0.9,0.7,1.5c-1.2,2.1-3.7,6.3-3.9,6.3
		c-0.3,0-12.3-2.2-12.3-2.2l10.3,0.9c0.6,0.1,1.2-0.2,1.5-0.7l3-4.2c0.2-0.2,0-0.5-0.2-0.5C90.5,200.7,78.8,198.5,77.9,197z"/>
	<path id="XMLID_255_" class="st18" d="M94.7,201.5c0,0,0,0.1-0.1,0.1c-0.1-0.2-0.3-0.3-0.6-0.4l-6.6-1.3h-0.1
		c-4.2-0.9-8.9-2.1-9.5-3l16.1,3.1C94.7,200.2,95.1,200.9,94.7,201.5z"/>
	<circle id="XMLID_254_" class="st18" cx="88.5" cy="203.1" r="3.1"/>
	<g id="XMLID_247_">
		<circle id="XMLID_253_" class="st42" cx="88" cy="203.6" r="2.5"/>
		<path id="XMLID_252_" class="st43" d="M88,205.6c-0.4,0-0.8-0.1-1.1-0.3c-0.6-0.4-0.9-1-0.9-1.7c0-0.6,0.3-1.2,0.7-1.5
			c0.3-0.3,0.8-0.5,1.3-0.5c0.2,0,0.3,0,0.5,0.1c0.5,0.1,0.9,0.4,1.2,0.9c0.2,0.3,0.3,0.7,0.3,1.1c0,0.3-0.1,0.6-0.2,0.9
			c-0.1,0.2-0.2,0.4-0.4,0.5c-0.1,0.1-0.2,0.2-0.3,0.3l0,0c-0.1,0-0.1,0.1-0.2,0.1C88.7,205.5,88.4,205.6,88,205.6z"/>
		<path id="XMLID_251_" class="st44" d="M88,206.1c-1.4,0-2.5-1.1-2.5-2.5c0-0.9,0.5-1.7,1.2-2.2c-0.4,0.4-0.6,1-0.6,1.6
			c0,0.7,0.3,1.3,0.8,1.8c0.4,0.4,1,0.7,1.6,0.7l0,0h0.1c0.5,0,0.9-0.1,1.3-0.4C89.5,205.8,88.8,206.1,88,206.1z"/>
		<path id="XMLID_250_" class="st45" d="M88.4,203.4c-0.2,0.1-0.4,0.1-0.6,0.1c-0.7,0-1.2-0.5-1.2-1.1c0-0.2,0-0.3,0.1-0.4
			c0.3-0.3,0.8-0.5,1.3-0.5c0.2,0,0.3,0,0.5,0.1c0.3,0.2,0.5,0.5,0.5,0.9c0,0.1,0,0.2,0,0.2c0,0.1-0.1,0.3-0.2,0.4
			c0.1,0.3,0.2,0.8,0.4,1.2c0.1,0.3,0.2,0.6,0.3,0.7c-0.1,0.1-0.3,0.3-0.5,0.4C88.9,205,88.8,203.9,88.4,203.4z"/>
		<path id="XMLID_249_" class="st46" d="M89.8,204.5c-0.2,0-0.4-0.1-0.6-0.2c-0.2-0.4-0.3-0.9-0.4-1.2c0.1-0.1,0.1-0.2,0.2-0.4
			c0.2-0.1,0.5-0.2,0.8-0.3c0.2,0.3,0.3,0.7,0.3,1.1C90.1,203.9,90,204.2,89.8,204.5L89.8,204.5z"/>
		<path id="XMLID_248_" class="st47" d="M88.5,205.6L88.5,205.6c-0.7,0-1.2-0.3-1.7-0.7c0-0.5,0.6-0.9,1.2-0.9c0.7,0,1.2,0.4,1.2,1
			c0,0.1,0,0.3-0.1,0.4l0,0c-0.1,0-0.1,0.1-0.2,0.1C88.8,205.5,88.7,205.5,88.5,205.6z"/>
	</g>
	<path id="XMLID_266_" class="st19" d="M209.9,197l-16.1,3.1c-0.7,0.1-1,0.9-0.7,1.5c1.2,2.1,3.7,6.3,3.9,6.3
		c0.3,0,12.3-2.2,12.3-2.2l-10.3,0.9c-0.6,0.1-1.2-0.2-1.5-0.7l-3-4.2c-0.2-0.2,0-0.5,0.2-0.5C197.3,200.7,209.1,198.5,209.9,197z"
		/>
	<path id="XMLID_265_" class="st18" d="M193.1,201.5c0,0,0,0.1,0.1,0.1c0.1-0.2,0.3-0.3,0.6-0.4l6.6-1.3h0.1c4.2-0.9,8.9-2.1,9.5-3
		l-16.1,3.1C193.1,200.2,192.8,200.9,193.1,201.5z"/>
	<circle id="XMLID_264_" class="st18" cx="199.4" cy="203.1" r="3.1"/>
	<g id="XMLID_257_">
		<circle id="XMLID_263_" class="st42" cx="199.8" cy="203.6" r="2.5"/>
		<path id="XMLID_262_" class="st43" d="M199.8,205.6c0.4,0,0.8-0.1,1.1-0.3c0.6-0.4,0.9-1,0.9-1.7c0-0.6-0.3-1.2-0.7-1.5
			c-0.3-0.3-0.8-0.5-1.3-0.5c-0.2,0-0.3,0-0.5,0.1c-0.5,0.1-0.9,0.4-1.2,0.9c-0.2,0.3-0.3,0.7-0.3,1.1c0,0.3,0.1,0.6,0.2,0.9
			c0.1,0.2,0.2,0.4,0.4,0.5c0.1,0.1,0.2,0.2,0.3,0.3l0,0c0.1,0,0.1,0.1,0.2,0.1C199.1,205.5,199.5,205.6,199.8,205.6z"/>
		<path id="XMLID_261_" class="st44" d="M199.8,206.1c1.4,0,2.5-1.1,2.5-2.5c0-0.9-0.5-1.7-1.2-2.2c0.4,0.4,0.6,1,0.6,1.6
			c0,0.7-0.3,1.3-0.8,1.8c-0.4,0.4-1,0.7-1.6,0.7l0,0h-0.1c-0.5,0-0.9-0.1-1.3-0.4C198.4,205.8,199.1,206.1,199.8,206.1z"/>
		<path id="XMLID_260_" class="st45" d="M199.4,203.4c0.2,0.1,0.4,0.1,0.6,0.1c0.7,0,1.2-0.5,1.2-1.1c0-0.2,0-0.3-0.1-0.4
			c-0.3-0.3-0.8-0.5-1.3-0.5c-0.2,0-0.3,0-0.5,0.1c-0.3,0.2-0.5,0.5-0.5,0.9c0,0.1,0,0.2,0,0.2c0,0.1,0.1,0.3,0.2,0.4
			c-0.1,0.3-0.2,0.8-0.4,1.2c-0.1,0.3-0.2,0.6-0.3,0.7c0.1,0.1,0.3,0.3,0.5,0.4C198.9,205,199,203.9,199.4,203.4z"/>
		<path id="XMLID_259_" class="st46" d="M198.1,204.5c0.2,0,0.4-0.1,0.6-0.2c0.2-0.4,0.3-0.9,0.4-1.2c-0.1-0.1-0.1-0.2-0.2-0.4
			c-0.2-0.1-0.5-0.2-0.8-0.3c-0.2,0.3-0.3,0.7-0.3,1.1C197.8,203.9,197.8,204.2,198.1,204.5C198,204.5,198,204.5,198.1,204.5z"/>
		<path id="XMLID_258_" class="st47" d="M199.3,205.6L199.3,205.6c0.7,0,1.2-0.3,1.7-0.7c0-0.5-0.6-0.9-1.2-0.9
			c-0.7,0-1.2,0.4-1.2,1c0,0.1,0,0.3,0.1,0.4l0,0c0.1,0,0.1,0.1,0.2,0.1C199,205.5,199.2,205.5,199.3,205.6z"/>
	</g>
	<g id="XMLID_328_">
		<path id="XMLID_351_" d="M138.7,198l0.8-1.8h1.1v0.1h-0.1c-0.1,0-0.1,0-0.2,0l-0.1,0.1c0,0,0,0.1,0,0.3v1.8c0,0.1,0,0.2,0,0.3
			c0,0,0,0.1,0.1,0.1c0,0,0.1,0,0.2,0h0.1v0.1h-1.4v-0.1h0.1c0.1,0,0.1,0,0.2,0l0.1-0.1c0,0,0-0.1,0-0.3v-2.1l-1.1,2.5l0,0l-1.1-2.5
			v1.9c0,0.1,0,0.2,0,0.3s0.1,0.1,0.1,0.2c0.1,0,0.2,0.1,0.3,0.1v0.1h-0.9v-0.1l0,0c0.1,0,0.1,0,0.2,0s0.1,0,0.1-0.1s0-0.1,0.1-0.1
			c0,0,0-0.1,0-0.2v-1.8c0-0.1,0-0.2,0-0.3c0,0,0-0.1-0.1-0.1c0,0-0.1,0-0.2,0h-0.1v-0.1h1.1L138.7,198z"/>
		<path id="XMLID_349_" d="M141.8,197.7v0.9c0,0.1,0,0.2,0,0.3c0,0,0,0.1,0.1,0.1c0,0,0.1,0,0.2,0h0.1v0.1h-1.4V199h0.1
			c0.1,0,0.1,0,0.2,0l0.1-0.1c0,0,0-0.1,0-0.3v-1.8c0-0.1,0-0.2,0-0.3c0,0,0-0.1-0.1-0.1c0,0-0.1,0-0.2,0h-0.1v-0.1h1.4v0.1h-0.1
			c-0.1,0-0.1,0-0.2,0l-0.1,0.1c0,0,0,0.1,0,0.3v0.8h1v-0.8c0-0.1,0-0.2,0-0.3c0,0,0-0.1-0.1-0.1c0,0-0.1,0-0.2,0h-0.1v-0.1h1.4v0.1
			h-0.1c-0.1,0-0.1,0-0.2,0l-0.1,0.1c0,0,0,0.1,0,0.3v1.8c0,0.1,0,0.2,0,0.3c0,0,0,0.1,0.1,0.1c0,0,0.1,0,0.2,0h0.1v0.1h-1.4V199
			h0.1c0.1,0,0.1,0,0.2,0l0.1-0.1c0,0,0-0.1,0-0.3v-0.9H141.8z"/>
		<path id="XMLID_347_" d="M145.2,198.2H144v-0.4h1.2V198.2z"/>
		<path id="XMLID_344_" d="M147.3,197.6c0,0.3,0,0.5-0.1,0.8c0,0.1-0.1,0.3-0.2,0.4c-0.1,0.1-0.2,0.2-0.3,0.2
			c-0.1,0.1-0.2,0.1-0.3,0.1s-0.3,0-0.4-0.1c-0.1-0.1-0.2-0.2-0.3-0.3s-0.1-0.2-0.2-0.4c-0.1-0.2-0.1-0.4-0.1-0.6
			c0-0.3,0-0.6,0.1-0.8s0.2-0.4,0.3-0.5s0.3-0.2,0.4-0.2c0.2,0,0.3,0.1,0.4,0.2c0.1,0.1,0.2,0.3,0.3,0.4
			C147.2,197,147.3,197.3,147.3,197.6z M146.6,197.6c0-0.5,0-0.8,0-0.8c0-0.2,0-0.3-0.1-0.4c0,0-0.1-0.1-0.2-0.1c-0.1,0-0.1,0-0.1,0
			c-0.1,0-0.1,0.1-0.1,0.3s0,0.5,0,1.3c0,0.4,0,0.7,0,0.8s0,0.2,0.1,0.2c0,0,0.1,0,0.2,0c0.1,0,0.1,0,0.2-0.1
			c0.1-0.1,0.1-0.2,0.1-0.4L146.6,197.6z"/>
		<path id="XMLID_342_" d="M148.2,199l0.8-2.3h-0.6c-0.2,0-0.4,0-0.5,0.1c-0.1,0-0.1,0.1-0.2,0.2h-0.1l0.2-0.9h1.6l-0.9,2.8
			L148.2,199L148.2,199z"/>
		<path id="XMLID_340_" d="M139.7,199.6L139.7,199.6c-0.1,0.1-0.2,0.1-0.2,0.2c-0.1,0.1-0.2,0.2-0.3,0.5l-0.6,1v0.7
			c0,0.1,0,0.2,0,0.3c0,0,0,0.1,0.1,0.1c0,0,0.1,0,0.2,0h0.2v0.1h-1.6v-0.1h0.1c0.1,0,0.1,0,0.2,0l0.1-0.1c0,0,0-0.1,0-0.3v-0.6
			l-0.7-1.2c-0.1-0.2-0.2-0.4-0.3-0.4s-0.1-0.1-0.2-0.1v-0.1h1.3v0.1l0,0c-0.1,0-0.1,0-0.2,0s0,0,0,0.1c0,0,0.1,0.2,0.2,0.4l0.5,0.9
			l0.5-0.8c0.1-0.2,0.2-0.3,0.2-0.4c0,0,0-0.1-0.1-0.1c0,0-0.1-0.1-0.3-0.1v-0.1L139.7,199.6L139.7,199.6z"/>
		<path id="XMLID_337_" d="M140.8,201.1v0.8c0,0.1,0,0.2,0,0.3l0.1,0.1c0,0,0.1,0,0.3,0v0.1h-1.4v-0.1c0.1,0,0.2,0,0.3,0
			s0.1-0.1,0.1-0.1s0-0.1,0-0.3v-1.8c0-0.1,0-0.2,0-0.3s-0.1-0.1-0.1-0.1s-0.1,0-0.3,0v-0.1h1.3c0.3,0,0.6,0,0.7,0.1
			c0.2,0,0.3,0.1,0.4,0.3c0.1,0.1,0.1,0.3,0.1,0.4c0,0.2-0.1,0.4-0.2,0.5c-0.1,0.1-0.2,0.1-0.4,0.2l0.7,0.9c0.1,0.1,0.1,0.2,0.2,0.2
			c0.1,0,0.1,0.1,0.2,0.1v0.1h-0.9l-0.9-1.3L140.8,201.1L140.8,201.1z M140.8,199.8v1.2h0.1c0.2,0,0.3,0,0.4-0.1
			c0.1,0,0.2-0.1,0.2-0.2s0.1-0.2,0.1-0.4s0-0.4-0.1-0.5s-0.3-0.2-0.5-0.2h-0.2V199.8z"/>
		<path id="XMLID_335_" d="M144.1,199.6v2.3c0,0.2,0,0.3,0,0.3s0,0.1,0.1,0.1c0,0,0.1,0,0.2,0h0.1v0.1H143v-0.1h0.1
			c0.1,0,0.2,0,0.3,0s0.1-0.1,0.1-0.1s0-0.2,0-0.3v-1.4c0-0.1,0-0.2,0-0.2s0-0.1-0.1-0.1h-0.1c-0.1,0-0.2,0-0.3,0.1v-0.1
			L144.1,199.6L144.1,199.6z"/>
		<path id="XMLID_333_" d="M145.5,201L145.5,201c0.2-0.1,0.3-0.2,0.3-0.2c0.1,0,0.1-0.1,0.2-0.2s0.1-0.2,0.1-0.2
			c0-0.1,0-0.2-0.1-0.3s-0.2-0.1-0.3-0.1c-0.2,0-0.4,0.1-0.5,0.3h-0.1c0.1-0.2,0.2-0.4,0.4-0.5s0.3-0.2,0.5-0.2s0.3,0.1,0.5,0.2
			s0.2,0.3,0.2,0.4c0,0.1,0,0.2-0.1,0.3s-0.1,0.2-0.3,0.2c0.2,0.1,0.3,0.2,0.4,0.3s0.1,0.3,0.1,0.4c0,0.3-0.1,0.5-0.3,0.7
			s-0.5,0.3-0.8,0.3c-0.2,0-0.4,0-0.5-0.1s-0.1-0.1-0.1-0.2c0-0.1,0-0.1,0.1-0.2c0,0,0.1-0.1,0.2-0.1h0.1c0,0,0.1,0.1,0.2,0.2
			c0.1,0.1,0.3,0.2,0.4,0.2c0.1,0,0.2,0,0.3-0.1s0.1-0.2,0.1-0.3c0-0.2-0.1-0.4-0.2-0.5C145.9,201.2,145.7,201.1,145.5,201z"/>
		<path id="XMLID_331_" d="M147.6,199.6h1.3l-0.2,0.5h-1.1l-0.1,0.3c0.5,0,0.8,0.1,1.1,0.4c0.2,0.2,0.3,0.4,0.3,0.7
			c0,0.2,0,0.3-0.1,0.5s-0.2,0.3-0.4,0.4c-0.2,0.1-0.4,0.1-0.6,0.1c-0.2,0-0.4,0-0.5-0.1s-0.1-0.1-0.1-0.2c0-0.1,0-0.1,0.1-0.2
			c0,0,0.1-0.1,0.2-0.1c0.1,0,0.1,0,0.2,0c0.1,0,0.1,0.1,0.3,0.2c0.1,0.1,0.2,0.1,0.2,0.1h0.1c0.1,0,0.2,0,0.3-0.1s0.1-0.2,0.1-0.3
			c0-0.2-0.1-0.4-0.4-0.6c-0.2-0.1-0.5-0.2-0.9-0.2c0,0-0.1,0-0.2,0L147.6,199.6z"/>
		<path id="XMLID_329_" d="M149.8,202.5l0.8-2.3H150c-0.2,0-0.4,0-0.5,0.1c-0.1,0-0.1,0.1-0.2,0.2h-0.1l0.2-0.9h1.6l-0.9,2.8
			L149.8,202.5L149.8,202.5z"/>
	</g>
	<g id="XMLID_268_">
		<path id="XMLID_289_" class="st16" d="M207.9,142.5c-0.4,0.2-0.7,0.4-1.1,0.7c-4,2.2-8.6,3-13.2,3.4c-4.8,0.4-9.6,0.5-14.4,0.8
			c-2.9,0.2-5.8,0.4-8.6,0.6c-1.1,0.1-2.2,0.1-3.2,0.1h-47c-1.1,0-2.2-0.1-3.2-0.1l0,0c-2.9-0.2-5.7-0.4-8.6-0.5
			c-3.3-0.2-6.5-0.3-9.8-0.5c-1.5-0.1-3.1-0.2-4.6-0.3c-4.5-0.4-9.1-1.2-13.2-3.4c-0.4-0.2-0.7-0.5-1.1-0.7
			C81,113.4,86.3,92.5,90,79.7c0.6-0.3,1.4-0.4,2.1-0.6c1.1-0.3,2.2-0.5,3.4-0.7l0,0c8.6-1.9,17.6-3.2,26.4-4.1
			c3-0.3,5.9-0.6,8.9-0.8c3.8-0.3,7.5-0.4,11.2-0.5h4c3.6,0.1,7.3,0.3,11,0.5c10.7,0.7,21.9,2.1,32.7,4.3c0.9,0.2,1.8,0.4,2.7,0.6
			c1.1,0.2,2.2,0.5,3.3,0.7c0.8,0.2,1.5,0.3,2.1,0.6C201.5,92.3,206.8,113.2,207.9,142.5z"/>
		<g id="XMLID_256_">
			<path id="XMLID_282_" class="st48" d="M195.5,114.1c-0.8,7.1-5.1,7.7-9.9,10.4c-4.2,2.4-8.5,5.5-10.8,10.3c-1.9,4-2.7,8.7-4.1,13
				c-1.1,0.1-2.2,0.1-3.2,0.1h-47c-1.1,0-2.2-0.1-3.2-0.1l0,0c-2-5.6-3.1-12.5-6.8-16.9c-3.1-3.7-7.5-5.6-11.6-7.9
				c-1.1-0.6-2.2-1.3-3.3-2c-3.8-2.7-3.5-7.2-3.7-11.9c-0.2-5.9-0.4-12-0.3-17.9c0.1-4.3,0.8-8.8,3.2-12c0.2-0.3,0.5-0.6,0.7-0.9
				l0,0c8.6-1.9,17.6-3.2,26.4-4.1c3-0.3,5.9-0.6,8.9-0.8H157c10.7,0.7,21.9,2.1,32.7,4.3c0.9,0.2,1.8,0.4,2.7,0.6
				c1.8,1.9,3.1,4.2,3.3,7C196.3,94.8,196.6,104.5,195.5,114.1z"/>
			<path id="XMLID_276_" class="st49" d="M189.9,79.8v3.1c0,5-4.3,8.4-8.4,6.5L169,83.7c-1.1-0.5-2.3-0.6-3.5-0.3l-16.4,4
				c-1.7,0.4-3.5,0-4.9-1.2C140.4,83,132,76.7,121.9,74c3-0.3,5.9-0.6,8.9-0.8c3.8-0.3,7.5-0.4,11.2-0.5h4c3.6,0.1,7.3,0.3,11,0.5
				c10.7,0.7,21.9,2.1,32.7,4.3C189.8,78.3,189.9,79.1,189.9,79.8z"/>
			<path id="XMLID_277_" class="st50" d="M117.2,147.9L117.2,147.9c-2.9-0.2-5.8-0.4-8.6-0.6c-3.3-0.2-6.5-0.3-9.8-0.5V123
				c4.1,2.3,8.5,4.1,11.6,7.9C114.1,135.3,115.3,142.2,117.2,147.9z"/>
			<path id="XMLID_267_" class="st51" d="M98.9,116.4c0,1,0-29.8,0-29.8s0.6-9.4,10.8-10.3h10C119.7,76.3,98.9,101.2,98.9,116.4z"/>
		</g>
	</g>
	<path id="XMLID_270_" class="st52" d="M152.3,155.9c0,0-7.5,0.7-8.3,0.5c-0.9,0.2-8.3-0.5-8.3-0.5c-10.6-1.8-13.2,0.5-13.2,0.5
		l0.3,3.5c3.4-2.2,11.6-1.3,11.6-1.3c1,0.4,9.6,0.9,9.6,0.9s8.7-0.4,9.6-0.9c0,0,8.2-0.9,11.6,1.3l0.3-3.5
		C165.4,156.5,162.8,154.1,152.3,155.9z"/>
	<path id="XMLID_271_" class="st53" d="M146.3,177.5c-0.1-0.1-0.3-0.1-0.5-0.1h-1.9H142c-0.2,0-0.3,0.1-0.5,0.1l-1.7,1.2
		c-0.2,0.2-0.4,0.4-0.4,0.7v1c0,0.2,0,0.4,0.2,0.5c0.9,1.1,3.2,1.9,4,2.1c0.2,0.1,0.3,0.1,0.5,0c0.8-0.3,3.2-1.1,4-2.1
		c0.1-0.1,0.2-0.3,0.2-0.5v-1c0-0.3-0.1-0.5-0.4-0.7L146.3,177.5z"/>
</g>
</svg>
