<?xml version="1.0" encoding="utf-8"?>
<!-- Generator: Adobe Illustrator 19.0.0, SVG Export Plug-In . SVG Version: 6.00 Build 0)  -->
<svg version="1.1" id="Layer_1" xmlns="http://www.w3.org/2000/svg" xmlns:xlink="http://www.w3.org/1999/xlink" x="0px" y="0px"
	 viewBox="0 0 288 288" style="enable-background:new 0 0 288 288;" xml:space="preserve">
<style type="text/css">
	.st0{fill:#090A0F;}
	.st1{fill:#272B2A;}
	.st2{fill:#232323;}
	.st3{fill:#171717;}
	.st4{fill:#303433;}
	.st5{fill:#212323;}
	.st6{fill:#EF4523;}
	.st7{fill:#697480;}
	.st8{fill:#F58148;}
	.st9{fill:#58596B;}
	.st10{fill:#F47741;}
	.st11{fill:#CDCCCC;}
	.st12{fill:#B3B3B3;}
	.st13{fill:#ABABAB;}
	.st14{fill:#D7D6D6;}
	.st15{fill:#6B6C6C;}
	.st16{fill:#919191;}
	.st17{opacity:0.44;fill:none;stroke:#939393;stroke-linecap:round;stroke-miterlimit:10;}
	.st18{fill:#8F8F8E;}
	.st19{fill:#494A4A;}
	.st20{fill:#323333;}
	.st21{fill:#646969;}
	.st22{fill:#4C4D4D;}
	.st23{fill:#C2C1C1;}
	.st24{fill:#EFEDF1;}
	.st25{fill:#921A1D;}
	.st26{fill:#819499;}
	.st27{fill:#EEDDB8;}
	.st28{fill:#FCC740;}
	.st29{fill:#AE2524;}
	.st30{fill:#231F20;}
	.st31{fill:#DAD6D5;}
	.st32{fill:#77828C;}
	.st33{fill:#444450;}
	.st34{fill:#899196;}
	.st35{fill:#5B6976;}
	.st36{opacity:0.55;fill:#65727C;}
	.st37{fill:url(#XMLID_24_);}
	.st38{fill:url(#XMLID_29_);}
</style>
<path id="XMLID_26_" class="st0" d="M193,273.8C193,273.8,193,273.8,193,273.8l-2.4,1.2l0,0L193,273.8z"/>
<g id="XMLID_1_">
	<rect id="XMLID_614_" x="210" y="82.4" class="st0" width="5.7" height="9.4"/>
	<path id="XMLID_613_" class="st1" d="M221.9,88v15.6h-6.2V82.4h1.7C219.9,82.4,221.9,84.9,221.9,88z"/>
	<path id="XMLID_612_" class="st0" d="M220.7,91.6v12h-5V86h0.5C218.7,86,220.7,88.5,220.7,91.6z"/>
	<path id="XMLID_611_" class="st0" d="M215.7,82.4c0,0-1.9,4-1.8,6.3l0.9,12.5l0.9-4.1V82.4z"/>
	<path id="XMLID_6_" class="st1" d="M223.5,98.9l-7.4-1.9c-1-0.1-1.9,0.5-2.3,1.4c-0.1,0.3-0.2,0.7-0.3,1.1l-0.9,25.2
		c-0.1,1.2,0.6,2.2,1.5,2.7l1.8-4l6.1-2.9l2.7,1.9c0-0.1,0-0.2,0-0.4l1-20.3C225.9,100.3,224.8,99,223.5,98.9z"/>
	<path id="XMLID_608_" class="st0" d="M224.8,122.5c-0.2,1.2-1.1,2-2.1,2.1l-0.8,0.3l-6.5,2.7c-0.4,0-0.8,0-1.2-0.2l1.8-4l6.1-2.9
		L224.8,122.5z"/>
	<polygon id="XMLID_571_" class="st2" points="94.7,215.1 94.7,233.3 97.1,233.3 97.1,214.6 	"/>
	<path id="XMLID_570_" class="st2" d="M82.1,217.8v0.8v13c0,0.9,0.8,1.7,1.7,1.7h0.5v-16L82.1,217.8z"/>
	<polygon id="XMLID_569_" class="st2" points="88.3,216.4 88.3,233.3 90.7,233.3 90.7,216 	"/>
	<polygon id="XMLID_568_" class="st2" points="85.1,217.1 85.1,233.3 87.5,233.3 87.5,216.6 	"/>
	<polygon id="XMLID_567_" class="st2" points="91.5,215.8 91.5,233.3 93.9,233.3 93.9,215.3 	"/>
	<path id="XMLID_566_" class="st2" d="M101.1,233.3h0.5c0.9,0,1.7-0.8,1.7-1.7v-18.3l-2.2,0.5V233.3z"/>
	<polygon id="XMLID_565_" class="st2" points="97.9,214.4 97.9,233.3 100.2,233.3 100.2,213.9 	"/>
	<g id="XMLID_557_">
		<polygon id="XMLID_564_" class="st3" points="93.9,215.3 93.9,209.3 91.5,209.3 91.5,215.8 		"/>
		<polygon id="XMLID_563_" class="st3" points="84.3,209.3 82.1,209.3 82.1,217.8 84.3,217.3 		"/>
		<polygon id="XMLID_562_" class="st3" points="100.2,213.9 100.2,209.3 97.9,209.3 97.9,214.4 		"/>
		<polygon id="XMLID_561_" class="st3" points="87.5,216.6 87.5,209.3 85.1,209.3 85.1,217.1 		"/>
		<polygon id="XMLID_560_" class="st3" points="90.7,216 90.7,209.3 88.3,209.3 88.3,216.4 		"/>
		<polygon id="XMLID_559_" class="st3" points="97.1,214.6 97.1,209.3 94.7,209.3 94.7,215.1 		"/>
		<polygon id="XMLID_558_" class="st3" points="101.1,209.3 101.1,213.7 103.3,213.3 103.3,209.3 		"/>
	</g>
	<polygon id="XMLID_556_" class="st4" points="84.3,217.3 84.3,233.3 85.1,233.3 85.1,217.1 	"/>
	<polygon id="XMLID_555_" class="st4" points="87.5,216.6 87.5,233.3 88.3,233.3 88.3,216.4 	"/>
	<polygon id="XMLID_554_" class="st4" points="90.7,216 90.7,233.3 91.5,233.3 91.5,215.8 	"/>
	<polygon id="XMLID_553_" class="st4" points="93.9,215.3 93.9,233.3 94.7,233.3 94.7,215.1 	"/>
	<polygon id="XMLID_552_" class="st4" points="97.1,214.6 97.1,233.3 97.9,233.3 97.9,214.4 	"/>
	<polygon id="XMLID_551_" class="st4" points="100.2,213.9 100.2,233.3 101.1,233.3 101.1,213.7 	"/>
	<g id="XMLID_544_">
		<polygon id="XMLID_550_" class="st5" points="85.1,217.1 85.1,209.3 84.3,209.3 84.3,217.3 		"/>
		<polygon id="XMLID_549_" class="st5" points="88.3,216.4 88.3,209.3 87.5,209.3 87.5,216.6 		"/>
		<polygon id="XMLID_548_" class="st5" points="91.5,215.8 91.5,209.3 90.7,209.3 90.7,216 		"/>
		<polygon id="XMLID_547_" class="st5" points="94.7,215.1 94.7,209.3 93.9,209.3 93.9,215.3 		"/>
		<polygon id="XMLID_546_" class="st5" points="97.9,214.4 97.9,209.3 97.1,209.3 97.1,214.6 		"/>
		<polygon id="XMLID_545_" class="st5" points="101.1,213.7 101.1,209.3 100.2,209.3 100.2,213.9 		"/>
	</g>
	<polygon id="XMLID_543_" class="st2" points="197.4,215.1 197.4,233.3 199.8,233.3 199.8,214.6 	"/>
	<path id="XMLID_542_" class="st2" d="M184.8,217.8v0.8v13c0,0.9,0.8,1.7,1.7,1.7h0.5v-16L184.8,217.8z"/>
	<polygon id="XMLID_541_" class="st2" points="191.1,216.4 191.1,233.3 193.4,233.3 193.4,216 	"/>
	<polygon id="XMLID_540_" class="st2" points="187.9,217.1 187.9,233.3 190.2,233.3 190.2,216.6 	"/>
	<polygon id="XMLID_539_" class="st2" points="194.3,215.8 194.3,233.3 196.6,233.3 196.6,215.3 	"/>
	<path id="XMLID_538_" class="st2" d="M203.8,233.3h0.5c0.9,0,1.7-0.8,1.7-1.7v-18.3l-2.2,0.5V233.3z"/>
	<polygon id="XMLID_537_" class="st2" points="200.6,214.4 200.6,233.3 203,233.3 203,213.9 	"/>
	<g id="XMLID_529_">
		<polygon id="XMLID_536_" class="st3" points="196.6,215.3 196.6,209.3 194.3,209.3 194.3,215.8 		"/>
		<polygon id="XMLID_535_" class="st3" points="187,209.3 184.8,209.3 184.8,217.8 187,217.3 		"/>
		<polygon id="XMLID_534_" class="st3" points="203,213.9 203,209.3 200.6,209.3 200.6,214.4 		"/>
		<polygon id="XMLID_533_" class="st3" points="190.2,216.6 190.2,209.3 187.9,209.3 187.9,217.1 		"/>
		<polygon id="XMLID_532_" class="st3" points="193.4,216 193.4,209.3 191.1,209.3 191.1,216.4 		"/>
		<polygon id="XMLID_531_" class="st3" points="199.8,214.6 199.8,209.3 197.4,209.3 197.4,215.1 		"/>
		<polygon id="XMLID_530_" class="st3" points="203.8,209.3 203.8,213.7 206.1,213.3 206.1,209.3 		"/>
	</g>
	<polygon id="XMLID_528_" class="st4" points="187,217.3 187,233.3 187.9,233.3 187.9,217.1 	"/>
	<polygon id="XMLID_527_" class="st4" points="190.2,216.6 190.2,233.3 191.1,233.3 191.1,216.4 	"/>
	<polygon id="XMLID_526_" class="st4" points="193.4,216 193.4,233.3 194.3,233.3 194.3,215.8 	"/>
	<polygon id="XMLID_525_" class="st4" points="196.6,215.3 196.6,233.3 197.4,233.3 197.4,215.1 	"/>
	<polygon id="XMLID_524_" class="st4" points="199.8,214.6 199.8,233.3 200.6,233.3 200.6,214.4 	"/>
	<polygon id="XMLID_523_" class="st4" points="203,213.9 203,233.3 203.8,233.3 203.8,213.7 	"/>
	<g id="XMLID_516_">
		<polygon id="XMLID_522_" class="st5" points="187.9,217.1 187.9,209.3 187,209.3 187,217.3 		"/>
		<polygon id="XMLID_521_" class="st5" points="191.1,216.4 191.1,209.3 190.2,209.3 190.2,216.6 		"/>
		<polygon id="XMLID_520_" class="st5" points="194.3,215.8 194.3,209.3 193.4,209.3 193.4,216 		"/>
		<polygon id="XMLID_519_" class="st5" points="197.4,215.1 197.4,209.3 196.6,209.3 196.6,215.3 		"/>
		<polygon id="XMLID_518_" class="st5" points="200.6,214.4 200.6,209.3 199.8,209.3 199.8,214.6 		"/>
		<polygon id="XMLID_517_" class="st5" points="203.8,213.7 203.8,209.3 203,209.3 203,213.9 		"/>
	</g>
	<path id="XMLID_729_" class="st6" d="M211.5,193.9H76.7c0.1-6.9,0.2-14.8,0.3-23.4H77V162h0.1l133.9-1l0,2.1v0l0,1.8l0,1v0l0.1,8
		c0.1,5.7,0.1,11.1,0.2,16.1c0,0,0,0.1,0,0.1c0,0.3,0,0.6,0,0.8C211.5,192,211.5,193,211.5,193.9z"/>
	<path id="XMLID_728_" class="st6" d="M174.2,59.4L174.2,59.4l-60.2,0v0c0-2.6,8.2-4.7,12-4.7h35.1C165,54.7,174.2,56.8,174.2,59.4z
		"/>
	<path id="XMLID_727_" class="st7" d="M210.9,151.6H77.3c0.5-27.4,0.2-57.9,1.3-81l19-3.7l85.1-0.8l26.9,4.4
		C210.7,93.8,210.4,124.2,210.9,151.6z"/>
	<path id="XMLID_726_" class="st6" d="M211.6,198c0-1.3,0-2.5-0.1-3.9l-1.2,3.9l-0.5,1.7c0,0-21.3,3.3-21.7,3.3s-9.9-5-9.9-5H77.9
		l-1.3-4.1c0,1.4,0,2.8,0,4.1c-0.1,11.4,0.4,19.5,0.7,22.3c0,0.5,0.1,0.8,0.1,1c0.4-0.1,0.8-0.3,1.1-0.4c3.4-1.3,8.4-2.4,15.6-3.1
		c4.9-0.5,10.9-0.8,18.2-0.8h63.5c6.6,0,12.2,0.3,16.9,0.7c8.8,0.8,14.4,2.1,18.1,3.6c0-0.1,0-0.5,0.1-1
		C211.1,217.5,211.7,209.4,211.6,198z"/>
	<path id="XMLID_725_" class="st6" d="M209.8,77.7c-0.1-0.5-0.4-0.9-0.6-1.4c-2.3-3.7-9.3-6.3-13.4-6.3H94.4
		c-4.1,0-12.5,2.7-15.3,6.3c-0.4,0.5-0.7,1-0.8,1.6l0-1.7l0.1-5.6c0.3-6.2,11.3-11.1,16.2-11.1h101c4.9,0,13.9,4.9,14.2,11.1
		c0,0.6,0.1,3,0.1,5.4C209.8,76.5,209.8,77.1,209.8,77.7z"/>
	<path id="XMLID_35_" class="st8" d="M209.8,77.3C209.8,77.3,209.8,77.3,209.8,77.3c0-2.3,0-4.6-0.1-5.1
		c-0.3-6.2-9.3-11.1-14.1-11.1h-101c-4.9,0-15.9,4.9-16.2,11.1l-0.1,5.3c0,0,0,0,0,0.1l0-1.7l0.1-5.6c0.3-6.2,11.3-11.1,16.2-11.1
		h101c4.9,0,13.9,4.9,14.1,11.1c0,0.6,0.1,3,0.1,5.4C209.8,76.2,209.8,76.7,209.8,77.3z"/>
	<path id="XMLID_724_" class="st9" d="M209.9,77.2l0-1.1c-0.4-1-1.1-1.9-2-2.8c-3.1-3-8.7-5.1-12.1-5.1H94.4
		c-3.6,0-10.6,2.2-14.1,5.5c-0.9,0.9-1.6,1.8-1.9,2.8c0,0,0,0.1,0,0.1c0,0,0,0,0,0.1v0.6l0,0.2c-0.1,5.1-0.2,10.2-0.3,15.3
		c-0.1,5.2-0.2,10.4-0.2,15.6c-0.1,5.2-0.1,10.4-0.2,15.6c-0.1,5.2-0.1,10.4-0.1,15.6c0,4.1,0,8.1-0.1,12.2c0.6,0,1.2,0,1.8,0
		c0.2-24.3,0.4-48.5,0.8-72.8c0-3,2.2-5,4.7-6.2c1.8-0.9,3.6-1.5,5.6-2c1.3-0.3,2.7-0.6,4.1-0.6c0,0,101.3,0,101.3,0
		c2.2,0,4.4,0.5,6.4,1.4c1,0.4,2,1,2.9,1.6c0.8,0.5,1.7,1.2,2.3,2c0.6,0.9,0.7,2,0.8,3.1c0,1.2,0.1,2.4,0.1,3.5
		c0.1,2.3,0.1,4.6,0.2,6.9c0.1,4.6,0.2,9.2,0.2,13.8c0.1,4.8,0.1,9.6,0.1,14.4c0,4.9,0.1,9.7,0.1,14.6c0,4.8,0.1,9.7,0.2,14.5
		c0,1.9,0.1,3.9,0.1,5.8h1.8C210.5,126.8,210.6,99.4,209.9,77.2z"/>
	<path id="XMLID_723_" class="st0" d="M208.6,78.3l0-1.1c-0.4-0.9-0.9-2.1-1.8-2.9c-3-3-8.6-4.8-12-4.8H95.4
		c-3.6,0-10.6,2.1-13.9,5.4c-0.9,0.9-1.6,1.8-1.9,2.8c0,0,0,0,0,0.1c0,0,0,0,0,0.1v0.6l0,0.2c-0.1,5-0.2,10-0.3,15.1
		c-0.1,5.1-0.2,10.2-0.2,15.4c-0.1,5.1-0.1,10.2-0.2,15.4s-0.1,10.2-0.1,15.4c0,4,0,8-0.1,12c0.6,0,1.2,0,1.8,0
		c0.2-23.9,0.4-47.8,0.8-71.7c0-3,2.1-4.9,4.6-6.1c1.7-0.8,3.6-1.5,5.4-2c1.3-0.3,2.7-0.6,4.1-0.6c0,0,99.4,0,99.4,0
		c2.2,0,4.3,0.5,6.3,1.4c1,0.4,1.9,1,2.8,1.5c0.8,0.5,1.6,1.1,2.2,2c0.6,0.9,0.7,2,0.7,3c0,1.2,0.1,2.3,0.1,3.5
		c0.1,2.3,0.1,4.5,0.2,6.8c0.1,4.5,0.2,9.1,0.2,13.6c0.1,4.7,0.1,9.5,0.1,14.2c0,4.8,0.1,9.6,0.1,14.4c0,4.8,0.1,9.5,0.2,14.3
		c0,1.9,0.1,3.8,0.1,5.7h1.8C209.2,127.1,209.4,100.1,208.6,78.3z"/>
	<path id="XMLID_722_" class="st0" d="M211.1,166.1C211.1,166.1,211.1,166.1,211.1,166.1c-3.6,1.5-9.3,3-18.3,3.8
		c-4.7,0.4-10.3,0.7-16.9,0.7h-63.5c-6.7,0-12.3-0.3-17-0.7c-9-0.8-14.7-2.2-18.4-3.8v0h0c0-0.5,0-1.1,0-1.6c0-0.4,0-0.9,0-1.3
		c0-0.4,0-0.7,0-1.1c0-0.8,0-1.6,0-2.4c0-2.6,0.1-5.3,0.1-8h1.8c0-1,0.1-8.5,0.1-8.5c0,0,0,0,0,0.1c0.1,0.3,0.9,0.9,1.1,1.1
		c0,0,0.1,0.1,0.1,0.1c1.1,1,2.3,1.8,3.5,2.5c3.8,2.1,8.2,3,12.6,3.3c4.6,0.4,9.2,0.5,13.8,0.8c3.8,0.2,7.5,0.6,11.3,0.7h44.9
		c3.8-0.1,7.6-0.5,11.3-0.7c4.6-0.3,9.2-0.4,13.8-0.8c4.3-0.4,8.7-1.2,12.6-3.3c1.3-0.7,2.5-1.5,3.5-2.5c0,0,0.1-0.1,0.1-0.1
		c0.2-0.2,1.1-0.8,1.1-1.1c0,0,0,0.6,0,1.5c0,2.3,0.1,6.3,0.1,7h1.8v0.1c0,2.7,0.1,5.3,0.1,7.9l0,1.4l0,2.1v0h0l0,1.8L211.1,166.1z"
		/>
	<path id="XMLID_721_" class="st4" d="M211.1,166.1L211.1,166.1c-3.6,1.5-9.3,3-18.3,3.8c-4.7,0.4-10.3,0.7-16.9,0.7h-63.5
		c-6.7,0-12.3-0.3-17-0.7c-9-0.8-14.7-2.2-18.3-3.8c0-0.6,0-1.3,0-1.9c0-0.3,0-0.7,0-1c0,0,0,0,0,0c3.6,1.5,9.3,3,18.3,3.8
		c4.7,0.4,10.3,0.7,16.9,0.7h63.5c7.3,0,13.3-0.3,18.2-0.8c8.2-0.8,13.6-2.2,17-3.6h0l0,1.8L211.1,166.1z"/>
	<path id="XMLID_720_" class="st9" d="M211.1,166.1C211.1,166.1,211.1,166.1,211.1,166.1l0-1.9c-0.4,0.2-0.9,0.4-1.4,0.6
		c-5.8,2.1-16,3.9-33.8,3.9h-63.5c-19.4,0-29.7-2.1-35.2-4.4c0,0,0,0,0,0c0,0.6,0,1.3,0,1.9v0l0,0c0-1,0-1.9,0-2.9c0,0,0,0,0.1,0
		c3.6,1.5,9.3,3,18.3,3.7c4.7,0.4,10.3,0.7,16.9,0.7h63.5c7.3,0,13.3-0.3,18.2-0.8c7.2-0.7,12.2-1.8,15.6-3.1c0.5-0.2,1-0.4,1.4-0.5
		c0,0,0,0,0,0v0l0,1.8L211.1,166.1z"/>
	<path id="XMLID_719_" class="st10" d="M210.9,220.3c0,0.5-0.1,0.8-0.1,1c-3.6-1.5-9.3-2.9-18.1-3.6c-4.7-0.4-10.3-0.7-16.9-0.7
		h-63.5c-7.3,0-13.3,0.3-18.2,0.8c-7.2,0.7-12.2,1.8-15.6,3.1c-0.4,0.1-0.8,0.3-1.1,0.4c0-0.2,0-0.5-0.1-1c0.4-0.2,0.8-0.3,1.2-0.5
		c5.8-2.1,16-3.9,33.8-3.9h63.5C195,216,205.3,218,210.9,220.3z"/>
	<path id="XMLID_718_" class="st9" d="M211.1,164.2c-0.4,0.2-0.9,0.4-1.4,0.6v-13.2l1.2,0.1l0.2,11.5L211.1,164.2z"/>
	<path id="XMLID_717_" class="st9" d="M78.7,151.6L78.7,151.6l-0.2,13.1c-0.5-0.1-0.9-0.2-1.4-0.3c0-0.4,0-0.9,0-1.3
		c0-0.4,0-0.7,0-1.1c0-0.8,0-1.6,0-2.4c0-2.6,0.1-5.3,0.1-8H78.7z"/>
	<path id="XMLID_716_" class="st4" d="M189.5,221.3h21.4c-0.4-0.2-0.8-0.3-1.1-0.4c-3.4-1.3-8.4-2.4-15.6-3.1
		c-4.9-0.5-10.9-0.8-18.2-0.8h-31.8h-31.8c-7.3,0-13.3,0.3-18.2,0.8c-7.2,0.7-12.2,1.8-15.6,3.1c-0.4,0.1-0.8,0.3-1.1,0.4h21.4
		c0,0,18.9-0.6,32.5-1.1H157C170.6,220.7,189.5,221.3,189.5,221.3z"/>
	<path id="XMLID_27_" class="st9" d="M210.9,221.3h-7.4c-2.6-0.5-5.7-1-9.4-1.4c-4.9-0.5-10.9-0.8-18.2-0.8h-63.6
		c-7.3,0-13.3,0.3-18.2,0.8c-3.7,0.4-6.8,0.8-9.4,1.4h-7.4c0.4-0.2,0.8-0.3,1.2-0.4c3.4-1.3,8.4-2.4,15.6-3.1
		c4.9-0.5,10.9-0.8,18.2-0.8H176c7.3,0,13.3,0.3,18.2,0.8c7.2,0.7,12.2,1.8,15.6,3.1C210.2,221,210.6,221.1,210.9,221.3z"/>
	<path id="XMLID_715_" class="st11" d="M99,193.9h-4.4l-17.9-3.8l0,3.8v0.1l1.3,4.1l0.5,1.7c0,0,21.3,3.3,21.7,3.3
		c0.2,0,3.4-1.6,6.1-3c0.4-0.2,0.7-0.4,1.1-0.5l-6.8-2.9L99,193.9z"/>
	<path id="XMLID_714_" class="st12" d="M107.4,199.6c-0.4,0.2-0.7,0.3-1.1,0.5c-1.5,0.8-3.2,1.6-4.4,2.2l-1.3-0.6L99,199h-4.4
		l-17.5-3.7l-0.4-1.3V194l0-3.8l17.9,3.8H99l1.6,2.7L107.4,199.6z"/>
	<path id="XMLID_713_" class="st13" d="M115.5,198h-1.1c-2.4,0-4.8,0.5-7,1.4l-6.8-2.9l-0.6-1l-1-1.7h15l0.2,1.7L115.5,198z"/>
	<polygon id="XMLID_712_" class="st14" points="114.2,195.5 100,195.5 99,193.9 114,193.9 	"/>
	<path id="XMLID_711_" class="st13" d="M172.6,198h1.1c2.4,0,4.8,0.5,7,1.4l6.8-2.9l0.6-1l1-1.7h-15l-0.2,1.7L172.6,198z"/>
	<polygon id="XMLID_710_" class="st14" points="173.9,195.5 188.1,195.5 189.1,193.9 174.1,193.9 	"/>
	<path id="XMLID_709_" class="st15" d="M100.5,196.5l2.7,1.2h-3.1l-17.9-3.8l0,3.8v0.1l0.8,2.7c-2.7-0.4-4.6-0.7-4.6-0.7l-0.5-1.7
		l-1.3-4.1v-0.1l0-3.8l17.9,3.8H99L100.5,196.5z"/>
	<path id="XMLID_708_" class="st15" d="M107.4,199.5c-0.4,0.2-0.7,0.3-1.1,0.5c-0.1,0-0.2,0.1-0.3,0.1l-1-1.7L107.4,199.5z"/>
	<polygon id="XMLID_707_" class="st15" points="105,198.5 103.2,197.7 104.6,197.7 	"/>
	<path id="XMLID_706_" class="st16" d="M107.4,199.5c-0.4,0.2-0.7,0.3-1.1,0.5c-2.7,1.4-5.8,3-6.1,3c-0.4,0-21.7-3.3-21.7-3.3
		l-0.5-1.7l-1.3-4.1v-0.1l0-3.8l0.7,0.2l0,2.4v0.1l1.3,4.1l0.5,1.7c0,0,21.3,3.3,21.7,3.3c0.2,0,3-1.4,5.5-2.7L107.4,199.5z"/>
	<path id="XMLID_705_" class="st17" d="M78.4,192.4c2.3,0.6,4.6,1.2,6.8,1.7c1.9,0.5,3.8,1,5.8,1.4c1,0.2,2,0.3,3.1,0.4
		c0.9,0,2-0.3,2.7,0.5c0.4,0.4,0.6,0.9,1.1,1.3c0.5,0.4,1.3,0.6,1.9,0.8c0.8,0.3,2.4,1.2,3.2,1.6"/>
	<g id="XMLID_903_">
		<circle id="XMLID_704_" class="st15" cx="96" cy="198.3" r="2.5"/>
		<path id="XMLID_703_" class="st18" d="M98,198.3c0,0.4-0.1,0.8-0.3,1.1c-0.4,0.6-1,0.9-1.7,0.9c-0.6,0-1.2-0.3-1.5-0.7
			c-0.3-0.3-0.5-0.8-0.5-1.3c0-0.2,0-0.3,0.1-0.5c0.1-0.5,0.4-0.9,0.9-1.2c0.3-0.2,0.7-0.3,1.1-0.3c0.3,0,0.6,0.1,0.9,0.2
			c0.2,0.1,0.4,0.2,0.5,0.4c0.1,0.1,0.2,0.2,0.3,0.3c0,0,0,0,0,0c0,0.1,0.1,0.1,0.1,0.2C97.9,197.6,98,198,98,198.3z"/>
		<path id="XMLID_702_" class="st19" d="M98.5,198.3c0,1.4-1.1,2.5-2.5,2.5c-0.9,0-1.7-0.5-2.2-1.2c0.4,0.4,1,0.6,1.6,0.6
			c0.7,0,1.3-0.3,1.8-0.8c0.4-0.4,0.7-1,0.7-1.6c0,0,0,0,0,0c0,0,0-0.1,0-0.1c0-0.5-0.1-0.9-0.4-1.3
			C98.2,196.9,98.5,197.6,98.5,198.3z"/>
		<path id="XMLID_701_" class="st20" d="M95.9,197.9c0.1,0.2,0.1,0.4,0.1,0.6c0,0.6-0.5,1.2-1.1,1.2c-0.2,0-0.3,0-0.4-0.1
			c-0.3-0.3-0.5-0.8-0.5-1.3c0-0.2,0-0.3,0.1-0.5c0.2-0.3,0.5-0.5,0.9-0.5c0.1,0,0.2,0,0.2,0c0.1,0,0.3,0.1,0.4,0.2
			c0.3-0.1,0.8-0.2,1.2-0.4c0.3-0.1,0.6-0.2,0.7-0.3c0.1,0.1,0.3,0.3,0.4,0.5C97.4,197.4,96.3,197.5,95.9,197.9z"/>
		<path id="XMLID_700_" class="st14" d="M96.9,196.6c0,0.2-0.1,0.4-0.2,0.6c-0.4,0.2-0.9,0.3-1.2,0.4c-0.1-0.1-0.2-0.1-0.4-0.2
			c-0.1-0.2-0.2-0.5-0.3-0.8c0.3-0.2,0.7-0.3,1.1-0.3C96.3,196.3,96.6,196.3,96.9,196.6C96.9,196.5,96.9,196.5,96.9,196.6z"/>
		<path id="XMLID_699_" class="st21" d="M98,197.8C98,197.8,98,197.8,98,197.8c0,0.6-0.3,1.2-0.7,1.6c-0.5,0-0.9-0.5-0.9-1.2
			c0-0.6,0.4-1.2,1-1.2c0.1,0,0.3,0,0.4,0.1c0,0,0,0,0,0c0,0.1,0.1,0.1,0.1,0.2C97.9,197.5,97.9,197.7,98,197.8z"/>
	</g>
	<g id="XMLID_896_">
		<circle id="XMLID_698_" class="st15" cx="90.2" cy="197.2" r="2.5"/>
		<path id="XMLID_697_" class="st18" d="M92.2,197.2c0,0.4-0.1,0.8-0.3,1.1c-0.4,0.6-1,0.9-1.7,0.9c-0.6,0-1.2-0.3-1.5-0.7
			c-0.3-0.3-0.5-0.8-0.5-1.3c0-0.2,0-0.3,0.1-0.5c0.1-0.5,0.4-0.9,0.9-1.2c0.3-0.2,0.7-0.3,1.1-0.3c0.3,0,0.6,0.1,0.9,0.2
			c0.2,0.1,0.4,0.2,0.5,0.4c0.1,0.1,0.2,0.2,0.3,0.3c0,0,0,0,0,0c0,0.1,0.1,0.1,0.1,0.2C92.1,196.5,92.2,196.8,92.2,197.2z"/>
		<path id="XMLID_696_" class="st19" d="M92.7,197.2c0,1.4-1.1,2.5-2.5,2.5c-0.9,0-1.7-0.5-2.2-1.2c0.4,0.4,1,0.6,1.6,0.6
			c0.7,0,1.3-0.3,1.8-0.8c0.4-0.4,0.7-1,0.7-1.6c0,0,0,0,0,0c0,0,0-0.1,0-0.1c0-0.5-0.1-0.9-0.4-1.3
			C92.3,195.7,92.7,196.4,92.7,197.2z"/>
		<path id="XMLID_695_" class="st20" d="M90,196.8c0.1,0.2,0.1,0.4,0.1,0.6c0,0.6-0.5,1.2-1.1,1.2c-0.2,0-0.3,0-0.4-0.1
			c-0.3-0.3-0.5-0.8-0.5-1.3c0-0.2,0-0.3,0.1-0.5c0.2-0.3,0.5-0.5,0.9-0.5c0.1,0,0.2,0,0.2,0c0.1,0,0.3,0.1,0.4,0.2
			c0.3-0.1,0.8-0.2,1.2-0.4c0.3-0.1,0.6-0.2,0.7-0.3c0.1,0.1,0.3,0.3,0.4,0.5C91.5,196.3,90.5,196.4,90,196.8z"/>
		<path id="XMLID_694_" class="st14" d="M91.1,195.4c0,0.2-0.1,0.4-0.2,0.6c-0.4,0.2-0.9,0.3-1.2,0.4c-0.1-0.1-0.2-0.1-0.4-0.2
			c-0.1-0.2-0.2-0.5-0.3-0.8c0.3-0.2,0.7-0.3,1.1-0.3C90.5,195.1,90.8,195.2,91.1,195.4C91.1,195.4,91.1,195.4,91.1,195.4z"/>
		<path id="XMLID_693_" class="st21" d="M92.1,196.7C92.1,196.7,92.1,196.7,92.1,196.7c0,0.6-0.3,1.2-0.7,1.6
			c-0.5,0-0.9-0.5-0.9-1.2c0-0.6,0.4-1.2,1-1.2c0.1,0,0.3,0,0.4,0.1c0,0,0,0,0,0c0,0.1,0.1,0.1,0.1,0.2
			C92,196.4,92.1,196.5,92.1,196.7z"/>
	</g>
	<g id="XMLID_889_">
		<circle id="XMLID_692_" class="st15" cx="84.5" cy="195.8" r="2.5"/>
		<path id="XMLID_691_" class="st18" d="M86.5,195.8c0,0.4-0.1,0.8-0.3,1.1c-0.4,0.6-1,0.9-1.7,0.9c-0.6,0-1.2-0.3-1.5-0.7
			c-0.3-0.3-0.5-0.8-0.5-1.3c0-0.2,0-0.3,0.1-0.5c0.1-0.5,0.4-0.9,0.9-1.2c0.3-0.2,0.7-0.3,1.1-0.3c0.3,0,0.6,0.1,0.9,0.2
			c0.2,0.1,0.4,0.2,0.5,0.4c0.1,0.1,0.2,0.2,0.3,0.3c0,0,0,0,0,0c0,0.1,0.1,0.1,0.1,0.2C86.4,195.1,86.5,195.5,86.5,195.8z"/>
		<path id="XMLID_690_" class="st19" d="M87,195.8c0,1.4-1.1,2.5-2.5,2.5c-0.9,0-1.7-0.5-2.2-1.2c0.4,0.4,1,0.6,1.6,0.6
			c0.7,0,1.3-0.3,1.8-0.8c0.4-0.4,0.7-1,0.7-1.6c0,0,0,0,0,0c0,0,0-0.1,0-0.1c0-0.5-0.1-0.9-0.4-1.3C86.7,194.4,87,195.1,87,195.8z"
			/>
		<path id="XMLID_689_" class="st20" d="M84.3,195.4c0.1,0.2,0.1,0.4,0.1,0.6c0,0.6-0.5,1.2-1.1,1.2c-0.2,0-0.3,0-0.4-0.1
			c-0.3-0.3-0.5-0.8-0.5-1.3c0-0.2,0-0.3,0.1-0.5c0.2-0.3,0.5-0.5,0.9-0.5c0.1,0,0.2,0,0.2,0c0.1,0,0.3,0.1,0.4,0.2
			c0.3-0.1,0.8-0.2,1.2-0.4c0.3-0.1,0.6-0.2,0.7-0.3c0.1,0.1,0.3,0.3,0.4,0.5C85.9,194.9,84.8,195,84.3,195.4z"/>
		<path id="XMLID_688_" class="st14" d="M85.4,194.1c0,0.2-0.1,0.4-0.2,0.6c-0.4,0.2-0.9,0.3-1.2,0.4c-0.1-0.1-0.2-0.1-0.4-0.2
			c-0.1-0.2-0.2-0.5-0.3-0.8c0.3-0.2,0.7-0.3,1.1-0.3C84.8,193.8,85.1,193.8,85.4,194.1C85.4,194,85.4,194,85.4,194.1z"/>
		<path id="XMLID_687_" class="st21" d="M86.4,195.3C86.4,195.3,86.4,195.3,86.4,195.3c0,0.6-0.3,1.2-0.7,1.6
			c-0.5,0-0.9-0.5-0.9-1.2c0-0.6,0.4-1.2,1-1.2c0.1,0,0.3,0,0.4,0.1c0,0,0,0,0,0c0,0.1,0.1,0.1,0.1,0.2
			C86.3,195,86.4,195.2,86.4,195.3z"/>
	</g>
	<g id="XMLID_882_">
		<circle id="XMLID_686_" class="st15" cx="79.9" cy="193.9" r="1.5"/>
		<path id="XMLID_685_" class="st18" d="M79,194.7c-0.2-0.2-0.3-0.4-0.3-0.6c-0.1-0.4,0-0.8,0.3-1.1c0.3-0.3,0.6-0.4,0.9-0.3
			c0.3,0,0.5,0.1,0.7,0.3c0.1,0.1,0.1,0.1,0.2,0.2c0.2,0.3,0.2,0.6,0.1,0.9c0,0.2-0.1,0.4-0.3,0.6c-0.1,0.1-0.3,0.2-0.5,0.3
			c-0.1,0-0.3,0.1-0.4,0.1c-0.1,0-0.2,0-0.2,0c0,0,0,0,0,0c0,0-0.1,0-0.1,0C79.3,195,79.2,194.9,79,194.7z"/>
		<path id="XMLID_684_" class="st19" d="M78.8,194.9c-0.6-0.6-0.6-1.5,0-2.1c0.4-0.4,0.9-0.5,1.4-0.4c-0.3,0-0.7,0.2-0.9,0.4
			c-0.3,0.3-0.4,0.7-0.4,1.1c0,0.4,0.1,0.7,0.4,1c0,0,0,0,0,0c0,0,0,0,0.1,0.1c0.2,0.2,0.4,0.3,0.7,0.4
			C79.6,195.4,79.1,195.2,78.8,194.9z"/>
		<path id="XMLID_683_" class="st20" d="M80.1,194c-0.1,0-0.2-0.1-0.3-0.2c-0.3-0.3-0.3-0.7,0-0.9c0.1-0.1,0.1-0.1,0.2-0.1
			c0.3,0,0.5,0.1,0.7,0.3c0.1,0.1,0.1,0.1,0.2,0.2c0,0.2,0,0.4-0.2,0.6c0,0-0.1,0.1-0.1,0.1c-0.1,0-0.1,0.1-0.2,0.1
			c-0.1,0.1-0.2,0.4-0.3,0.6c-0.1,0.2-0.1,0.3-0.2,0.4c-0.1,0-0.2,0-0.4-0.1C79.7,194.8,80.1,194.4,80.1,194z"/>
		<path id="XMLID_682_" class="st14" d="M80.2,195c-0.1-0.1-0.2-0.2-0.2-0.3c0.1-0.2,0.3-0.5,0.3-0.6c0.1,0,0.2,0,0.2-0.1
			c0.2,0,0.3,0.1,0.4,0.2c0,0.2-0.1,0.4-0.3,0.6C80.6,194.8,80.4,194.9,80.2,195C80.2,195,80.2,195,80.2,195z"/>
		<path id="XMLID_681_" class="st21" d="M79.2,194.9C79.2,194.9,79.2,194.9,79.2,194.9c-0.3-0.3-0.4-0.6-0.4-1
			c0.2-0.2,0.6-0.1,0.9,0.1c0.3,0.3,0.3,0.7,0.1,0.9c-0.1,0.1-0.1,0.1-0.2,0.1c0,0,0,0,0,0c0,0-0.1,0-0.1,0
			C79.4,195,79.3,194.9,79.2,194.9z"/>
	</g>
	<path id="XMLID_680_" class="st22" d="M107.4,199.5c-0.4,0.2-0.7,0.3-1.1,0.5c0,0-0.1,0-0.1,0.1l-6.5-2.8l-1.5-2.7h-4.4l-17-3.6
		l0-0.9l17.9,3.8H99l1.6,2.7L107.4,199.5z"/>
	<path id="XMLID_679_" class="st11" d="M189.2,193.9h4.4l17.9-3.8l0,3.8v0.1l-1.3,4.1l-0.5,1.7c0,0-21.3,3.3-21.7,3.3
		c-0.2,0-3.4-1.6-6.1-3c-0.4-0.2-0.7-0.4-1.1-0.5l6.8-2.9L189.2,193.9z"/>
	<path id="XMLID_678_" class="st12" d="M180.8,199.6c0.4,0.2,0.7,0.3,1.1,0.5c1.5,0.8,3.2,1.6,4.4,2.2l1.3-0.6l1.6-2.7h4.4l17.5-3.7
		l0.4-1.3V194l0-3.8l-17.9,3.8h-4.4l-1.6,2.7L180.8,199.6z"/>
	<path id="XMLID_677_" class="st15" d="M187.6,196.5l-2.7,1.2h3.1l17.9-3.8l0,3.8v0.1l-0.8,2.7c2.7-0.4,4.6-0.7,4.6-0.7l0.5-1.7
		l1.3-4.1v-0.1l0-3.8l-17.9,3.8h-4.4L187.6,196.5z"/>
	<path id="XMLID_676_" class="st15" d="M180.8,199.5c0.4,0.2,0.7,0.3,1.1,0.5c0.1,0,0.2,0.1,0.3,0.1l1-1.7L180.8,199.5z"/>
	<polygon id="XMLID_675_" class="st15" points="183.2,198.5 184.9,197.7 183.6,197.7 	"/>
	<path id="XMLID_674_" class="st16" d="M180.8,199.5c0.4,0.2,0.7,0.3,1.1,0.5c2.7,1.4,5.8,3,6.1,3c0.4,0,21.7-3.3,21.7-3.3l0.5-1.7
		l1.3-4.1v-0.1l0-3.8l-0.7,0.2l0,2.4v0.1l-1.3,4.1l-0.5,1.7c0,0-21.3,3.3-21.7,3.3c-0.2,0-3-1.4-5.5-2.7L180.8,199.5z"/>
	<path id="XMLID_673_" class="st17" d="M209.8,192.4c-2.3,0.6-4.6,1.2-6.8,1.7c-1.9,0.5-3.8,1-5.8,1.4c-1,0.2-2,0.3-3.1,0.4
		c-0.9,0-2-0.3-2.7,0.5c-0.4,0.4-0.6,0.9-1.1,1.3c-0.5,0.4-1.3,0.6-1.9,0.8c-0.8,0.3-2.4,1.2-3.2,1.6"/>
	<g id="XMLID_867_">
		<circle id="XMLID_672_" class="st15" cx="192.2" cy="198.3" r="2.5"/>
		<path id="XMLID_671_" class="st18" d="M190.2,198.3c0,0.4,0.1,0.8,0.3,1.1c0.4,0.6,1,0.9,1.7,0.9c0.6,0,1.2-0.3,1.5-0.7
			c0.3-0.3,0.5-0.8,0.5-1.3c0-0.2,0-0.3-0.1-0.5c-0.1-0.5-0.4-0.9-0.9-1.2c-0.3-0.2-0.7-0.3-1.1-0.3c-0.3,0-0.6,0.1-0.9,0.2
			c-0.2,0.1-0.4,0.2-0.5,0.4c-0.1,0.1-0.2,0.2-0.3,0.3c0,0,0,0,0,0c0,0.1-0.1,0.1-0.1,0.2C190.2,197.6,190.2,198,190.2,198.3z"/>
		<path id="XMLID_670_" class="st19" d="M189.6,198.3c0,1.4,1.1,2.5,2.5,2.5c0.9,0,1.7-0.5,2.2-1.2c-0.4,0.4-1,0.6-1.6,0.6
			c-0.7,0-1.3-0.3-1.8-0.8c-0.4-0.4-0.7-1-0.7-1.6c0,0,0,0,0,0c0,0,0-0.1,0-0.1c0-0.5,0.1-0.9,0.4-1.3
			C190,196.9,189.6,197.6,189.6,198.3z"/>
		<path id="XMLID_669_" class="st20" d="M192.3,197.9c-0.1,0.2-0.1,0.4-0.1,0.6c0,0.6,0.5,1.2,1.1,1.2c0.2,0,0.3,0,0.4-0.1
			c0.3-0.3,0.5-0.8,0.5-1.3c0-0.2,0-0.3-0.1-0.5c-0.2-0.3-0.5-0.5-0.9-0.5c-0.1,0-0.2,0-0.2,0c-0.1,0-0.3,0.1-0.4,0.2
			c-0.3-0.1-0.8-0.2-1.2-0.4c-0.3-0.1-0.6-0.2-0.7-0.3c-0.1,0.1-0.3,0.3-0.4,0.5C190.8,197.4,191.8,197.5,192.3,197.9z"/>
		<path id="XMLID_668_" class="st14" d="M191.3,196.6c0,0.2,0.1,0.4,0.2,0.6c0.4,0.2,0.9,0.3,1.2,0.4c0.1-0.1,0.2-0.1,0.4-0.2
			c0.1-0.2,0.2-0.5,0.3-0.8c-0.3-0.2-0.7-0.3-1.1-0.3C191.9,196.3,191.6,196.3,191.3,196.6C191.3,196.5,191.3,196.5,191.3,196.6z"/>
		<path id="XMLID_667_" class="st21" d="M190.2,197.8C190.2,197.8,190.2,197.8,190.2,197.8c0,0.6,0.3,1.2,0.7,1.6
			c0.5,0,0.9-0.5,0.9-1.2c0-0.6-0.4-1.2-1-1.2c-0.1,0-0.3,0-0.4,0.1c0,0,0,0,0,0c0,0.1-0.1,0.1-0.1,0.2
			C190.3,197.5,190.3,197.7,190.2,197.8z"/>
	</g>
	<g id="XMLID_860_">
		<circle id="XMLID_666_" class="st15" cx="198" cy="197.2" r="2.5"/>
		<path id="XMLID_665_" class="st18" d="M196,197.2c0,0.4,0.1,0.8,0.3,1.1c0.4,0.6,1,0.9,1.7,0.9c0.6,0,1.2-0.3,1.5-0.7
			c0.3-0.3,0.5-0.8,0.5-1.3c0-0.2,0-0.3-0.1-0.5c-0.1-0.5-0.4-0.9-0.9-1.2c-0.3-0.2-0.7-0.3-1.1-0.3c-0.3,0-0.6,0.1-0.9,0.2
			c-0.2,0.1-0.4,0.2-0.5,0.4c-0.1,0.1-0.2,0.2-0.3,0.3c0,0,0,0,0,0c0,0.1-0.1,0.1-0.1,0.2C196.1,196.5,196,196.8,196,197.2z"/>
		<path id="XMLID_664_" class="st19" d="M195.5,197.2c0,1.4,1.1,2.5,2.5,2.5c0.9,0,1.7-0.5,2.2-1.2c-0.4,0.4-1,0.6-1.6,0.6
			c-0.7,0-1.3-0.3-1.8-0.8c-0.4-0.4-0.7-1-0.7-1.6c0,0,0,0,0,0c0,0,0-0.1,0-0.1c0-0.5,0.1-0.9,0.4-1.3
			C195.8,195.7,195.5,196.4,195.5,197.2z"/>
		<path id="XMLID_663_" class="st20" d="M198.2,196.8c-0.1,0.2-0.1,0.4-0.1,0.6c0,0.6,0.5,1.2,1.1,1.2c0.2,0,0.3,0,0.4-0.1
			c0.3-0.3,0.5-0.8,0.5-1.3c0-0.2,0-0.3-0.1-0.5c-0.2-0.3-0.5-0.5-0.9-0.5c-0.1,0-0.2,0-0.2,0c-0.1,0-0.3,0.1-0.4,0.2
			c-0.3-0.1-0.8-0.2-1.2-0.4c-0.3-0.1-0.6-0.2-0.7-0.3c-0.1,0.1-0.3,0.3-0.4,0.5C196.6,196.3,197.7,196.4,198.2,196.8z"/>
		<path id="XMLID_662_" class="st14" d="M197.1,195.4c0,0.2,0.1,0.4,0.2,0.6c0.4,0.2,0.9,0.3,1.2,0.4c0.1-0.1,0.2-0.1,0.4-0.2
			c0.1-0.2,0.2-0.5,0.3-0.8c-0.3-0.2-0.7-0.3-1.1-0.3C197.7,195.1,197.4,195.2,197.1,195.4C197.1,195.4,197.1,195.4,197.1,195.4z"/>
		<path id="XMLID_661_" class="st21" d="M196.1,196.7C196.1,196.7,196.1,196.7,196.1,196.7c0,0.6,0.3,1.2,0.7,1.6
			c0.5,0,0.9-0.5,0.9-1.2c0-0.6-0.4-1.2-1-1.2c-0.1,0-0.3,0-0.4,0.1c0,0,0,0,0,0c0,0.1-0.1,0.1-0.1,0.2
			C196.2,196.4,196.1,196.5,196.1,196.7z"/>
	</g>
	<g id="XMLID_853_">
		<circle id="XMLID_660_" class="st15" cx="203.7" cy="195.8" r="2.5"/>
		<path id="XMLID_659_" class="st18" d="M201.7,195.8c0,0.4,0.1,0.8,0.3,1.1c0.4,0.6,1,0.9,1.7,0.9c0.6,0,1.2-0.3,1.5-0.7
			c0.3-0.3,0.5-0.8,0.5-1.3c0-0.2,0-0.3-0.1-0.5c-0.1-0.5-0.4-0.9-0.9-1.2c-0.3-0.2-0.7-0.3-1.1-0.3c-0.3,0-0.6,0.1-0.9,0.2
			c-0.2,0.1-0.4,0.2-0.5,0.4c-0.1,0.1-0.2,0.2-0.3,0.3c0,0,0,0,0,0c0,0.1-0.1,0.1-0.1,0.2C201.8,195.1,201.7,195.5,201.7,195.8z"/>
		<path id="XMLID_658_" class="st19" d="M201.2,195.8c0,1.4,1.1,2.5,2.5,2.5c0.9,0,1.7-0.5,2.2-1.2c-0.4,0.4-1,0.6-1.6,0.6
			c-0.7,0-1.3-0.3-1.8-0.8c-0.4-0.4-0.7-1-0.7-1.6c0,0,0,0,0,0c0,0,0-0.1,0-0.1c0-0.5,0.1-0.9,0.4-1.3
			C201.5,194.4,201.2,195.1,201.2,195.8z"/>
		<path id="XMLID_657_" class="st20" d="M203.8,195.4c-0.1,0.2-0.1,0.4-0.1,0.6c0,0.6,0.5,1.2,1.1,1.2c0.2,0,0.3,0,0.4-0.1
			c0.3-0.3,0.5-0.8,0.5-1.3c0-0.2,0-0.3-0.1-0.5c-0.2-0.3-0.5-0.5-0.9-0.5c-0.1,0-0.2,0-0.2,0c-0.1,0-0.3,0.1-0.4,0.2
			c-0.3-0.1-0.8-0.2-1.2-0.4c-0.3-0.1-0.6-0.2-0.7-0.3c-0.1,0.1-0.3,0.3-0.4,0.5C202.3,194.9,203.3,195,203.8,195.4z"/>
		<path id="XMLID_656_" class="st14" d="M202.8,194.1c0,0.2,0.1,0.4,0.2,0.6c0.4,0.2,0.9,0.3,1.2,0.4c0.1-0.1,0.2-0.1,0.4-0.2
			c0.1-0.2,0.2-0.5,0.3-0.8c-0.3-0.2-0.7-0.3-1.1-0.3C203.4,193.8,203.1,193.8,202.8,194.1C202.8,194,202.8,194,202.8,194.1z"/>
		<path id="XMLID_655_" class="st21" d="M201.7,195.3C201.7,195.3,201.7,195.3,201.7,195.3c0,0.6,0.3,1.2,0.7,1.6
			c0.5,0,0.9-0.5,0.9-1.2c0-0.6-0.4-1.2-1-1.2c-0.1,0-0.3,0-0.4,0.1c0,0,0,0,0,0c0,0.1-0.1,0.1-0.1,0.2
			C201.8,195,201.8,195.2,201.7,195.3z"/>
	</g>
	<g id="XMLID_846_">
		<circle id="XMLID_654_" class="st15" cx="208.3" cy="193.9" r="1.5"/>
		<path id="XMLID_653_" class="st18" d="M209.2,194.7c0.2-0.2,0.3-0.4,0.3-0.6c0.1-0.4,0-0.8-0.3-1.1c-0.3-0.3-0.6-0.4-0.9-0.3
			c-0.3,0-0.5,0.1-0.7,0.3c-0.1,0.1-0.1,0.1-0.2,0.2c-0.2,0.3-0.2,0.6-0.1,0.9c0,0.2,0.1,0.4,0.3,0.6c0.1,0.1,0.3,0.2,0.5,0.3
			c0.1,0,0.3,0.1,0.4,0.1c0.1,0,0.2,0,0.2,0c0,0,0,0,0,0c0,0,0.1,0,0.1,0C208.9,195,209,194.9,209.2,194.7z"/>
		<path id="XMLID_652_" class="st19" d="M209.4,194.9c0.6-0.6,0.6-1.5,0-2.1c-0.4-0.4-0.9-0.5-1.4-0.4c0.3,0,0.7,0.2,0.9,0.4
			c0.3,0.3,0.4,0.7,0.4,1.1c0,0.4-0.1,0.7-0.4,1c0,0,0,0,0,0c0,0,0,0-0.1,0.1c-0.2,0.2-0.4,0.3-0.7,0.4
			C208.6,195.4,209.1,195.2,209.4,194.9z"/>
		<path id="XMLID_651_" class="st20" d="M208.1,194c0.1,0,0.2-0.1,0.3-0.2c0.3-0.3,0.3-0.7,0-0.9c-0.1-0.1-0.1-0.1-0.2-0.1
			c-0.3,0-0.5,0.1-0.7,0.3c-0.1,0.1-0.1,0.1-0.2,0.2c0,0.2,0,0.4,0.2,0.6c0,0,0.1,0.1,0.1,0.1c0.1,0,0.1,0.1,0.2,0.1
			c0.1,0.1,0.2,0.4,0.3,0.6c0.1,0.2,0.1,0.3,0.2,0.4c0.1,0,0.2,0,0.4-0.1C208.5,194.8,208.1,194.4,208.1,194z"/>
		<path id="XMLID_650_" class="st14" d="M208,195c0.1-0.1,0.2-0.2,0.2-0.3c-0.1-0.2-0.3-0.5-0.3-0.6c-0.1,0-0.2,0-0.2-0.1
			c-0.2,0-0.3,0.1-0.4,0.2c0,0.2,0.1,0.4,0.3,0.6C207.6,194.8,207.8,194.9,208,195C207.9,195,208,195,208,195z"/>
		<path id="XMLID_649_" class="st21" d="M208.9,194.9C208.9,194.9,208.9,194.9,208.9,194.9c0.3-0.3,0.4-0.6,0.4-1
			c-0.2-0.2-0.6-0.1-0.9,0.1c-0.3,0.3-0.3,0.7-0.1,0.9c0.1,0.1,0.1,0.1,0.2,0.1c0,0,0,0,0,0c0,0,0.1,0,0.1,0
			C208.8,195,208.8,194.9,208.9,194.9z"/>
	</g>
	<path id="XMLID_648_" class="st22" d="M180.8,199.5c0.4,0.2,0.7,0.3,1.1,0.5c0,0,0.1,0,0.1,0.1l6.5-2.8l1.5-2.7h4.4l17-3.6l0-0.9
		l-17.9,3.8h-4.4l-1.6,2.7L180.8,199.5z"/>
	<polygon id="XMLID_647_" class="st9" points="100.2,203 105.2,217.1 105.9,216.3 101,202.6 	"/>
	<polygon id="XMLID_646_" class="st9" points="188.1,203 183.1,217.1 182.4,216.3 187.2,202.6 	"/>
	<g id="XMLID_3_">
		<path id="XMLID_49_" class="st4" d="M211.1,170.5l-0.1-4.4v0c-2.7,1.2-6.6,2.2-12.1,3c-1.8,0.3-3.9,0.5-6.1,0.7
			c-4.7,0.4-10.3,0.7-16.9,0.7h-63.5c-6.7,0-12.3-0.3-17-0.7c-3.4-0.3-6.3-0.7-8.8-1.1c-0.8-0.1-1.5-0.3-2.3-0.4
			c-0.5-0.1-0.9-0.2-1.3-0.3c0,0,0,0,0,0c-2.4-0.6-4.4-1.2-5.9-1.9v0h0l-0.1,4.4l0,0l0,1c0,0,17.2,7.7,18.1,7.8l6.9,3.3
			c2,1,3.6,2.5,4.6,4.5l6.4,14.8c1.6,3.2,4.8,5.3,8.5,5.5l22.3,0.9c0.3,0,0.6,0,0.8,0l22.3-0.9c3.6-0.2,6.9-2.3,8.5-5.5l6.4-14.8
			c1-2,2.6-3.6,4.6-4.5l6.9-3.3c0.9-0.1,18.1-7.8,18.1-7.8V170.5L211.1,170.5z"/>
	</g>
	<g id="XMLID_19_">
		<path id="XMLID_48_" class="st0" d="M211.1,170.5l0,1c0,0-17.3,7.7-18.1,7.8l-6.9,3.3c-2,1-3.6,2.5-4.6,4.5l-6.4,14.8
			c-1.6,3.2-4.8,5.3-8.5,5.5l-22.3,0.9c-0.3,0-0.6,0-0.8,0l-22.3-0.9c-3.6-0.2-6.9-2.3-8.5-5.5l-6.4-14.8c-1-2-2.6-3.6-4.5-4.5
			l-6.9-3.3c-0.9-0.1-18.1-7.8-18.1-7.8l0-1l0,0l0.1-4.5h0v0c1.5,0.7,3.5,1.3,5.9,1.9c0,0,0,0,0,0c0.4,0.1,0.9,0.2,1.3,0.3
			c0.7,0.2,1.5,0.3,2.3,0.4c2.5,0.4,5.4,0.8,8.8,1.1c3.7,0.3,7.9,0.5,12.7,0.6v14.7H180v-14.7c4.9-0.1,9.1-0.3,12.8-0.6
			c2.2-0.2,4.3-0.4,6.1-0.7c5.5-0.8,9.4-1.9,12.1-3v0L211.1,170.5L211.1,170.5z"/>
	</g>
	<path id="XMLID_642_" class="st0" d="M79.9,170.2c0,0,13.4,6.7,19.4,8.7l-1.7,1.6l-20.6-10l0-1.7L79.9,170.2z"/>
	<path id="XMLID_641_" class="st0" d="M108.1,170.5l-2.7,2.5c-0.9,0.3-1.9-0.1-2.8-0.2c-1.3-0.1-2.6-0.2-3.9-0.2
		c-6.2-0.5-12.8-0.8-18.5-3.5c-1.1-0.5-2.3-1-3-2c-0.1,0-0.2,0.1-0.2,0.2c0,0,0-1.2,0-1.2c0.1,0,0.2,0.1,0.2,0.1c0,0,0,0,0,0
		c1.5,0.6,3.4,1.2,5.7,1.8c0.4,0.1,0.9,0.2,1.3,0.3c0.7,0.2,1.5,0.3,2.3,0.4c2.5,0.4,5.4,0.8,8.8,1.1
		C99.1,170.2,103.3,170.4,108.1,170.5z"/>
	<path id="XMLID_640_" class="st23" d="M189.3,193.9H99l1.6,2.7l6.8,2.9c2.2-1,4.6-1.5,7-1.5h59.5c2.4,0,4.8,0.5,7,1.5l6.8-2.9
		L189.3,193.9z"/>
	<path id="XMLID_639_" class="st13" d="M189.3,193.9l-1.6,2.7l-6.8,2.9c-2.2-1-4.6-1.5-7-1.5h-59.5c-2.4,0-4.8,0.5-7,1.5l-6.8-2.9
		l-1.6-2.7h0.6l1,1.7l6.8,2.9c2.2-1,4.6-1.5,7-1.5h59.5c2.4,0,4.8,0.5,7,1.5l6.8-2.9l1-1.7H189.3z"/>
	<path id="XMLID_34_" class="st1" d="M187.2,202.7l-4.8,13.6l0.7,0.8c-2.3-0.1-4.7-0.1-7.3-0.1h-63.5c-2.5,0-4.9,0-7.1,0.1l0.7-0.8
		l-4.8-13.6c1.2-0.5,3.3-1.6,5.2-2.6c0.4-0.2,0.7-0.4,1.1-0.5c2.2-1,4.6-1.5,7-1.5h63.8c0,0,1.2,0.6,2.8,1.4
		C183.1,200.6,185.9,202,187.2,202.7L187.2,202.7z"/>
	<polygon id="XMLID_638_" class="st24" points="189.3,193.9 188.4,195.5 100,195.5 99,193.9 	"/>
	<g id="XMLID_4_">
		<path id="XMLID_23_" class="st1" d="M183.3,183.1c-1.2,1-2.2,2.2-2.9,3.6l0,0l0,0l-3,7.1h-67.2l-3-7.1l0,0l0,0
			c-0.7-1.4-1.7-2.6-2.9-3.6H183.3z"/>
	</g>
	<g id="XMLID_637_">
		<path id="XMLID_30_" class="st9" d="M176.5,198.2c-0.1,0-0.3,0-0.4,0l-0.8,1.9c-1.6,3.2-4.8,5.4-8.5,5.5l-22.3,0.9
			c-0.3,0-0.6,0-0.8,0l-22.3-0.9c-3.6-0.2-6.9-2.3-8.5-5.5l-0.8-1.9h0c-0.3,0-0.5,0.1-0.8,0.1h0l1.6,3.7c1.6,3.2,4.8,5.3,8.5,5.5
			l22.3,0.9c0.3,0,0.6,0,0.8,0l22.3-0.9c3.6-0.2,6.9-2.3,8.5-5.5l1.6-3.7C176.7,198.2,176.6,198.2,176.5,198.2z"/>
	</g>
	<g id="XMLID_636_">
		<path id="XMLID_53_" class="st1" d="M121.3,205.6l22.3,0.9c0.3,0,0.6,0,0.8,0l22.3-0.9c3.6-0.2,6.9-2.3,8.5-5.5l0.8-1.9
			c-0.1,0-0.1,0-0.2,0c-0.2,0-0.5-0.1-0.7-0.1c-0.2,0-0.3,0-0.5,0c-0.3,0-0.5,0-0.8,0h-59.5c-0.3,0-0.5,0-0.8,0c-0.3,0-0.5,0-0.7,0
			h0c-0.3,0-0.5,0-0.8,0.1l0.8,1.9C114.5,203.3,117.7,205.4,121.3,205.6z"/>
	</g>
	<path id="XMLID_634_" class="st25" d="M95.4,207.4c0,0-11.8-3-11.8-3c-1.1-0.3-2.9-0.2-3.6,0.8c-0.4,0.5-0.4,1.2-0.3,1.8
		c0.8,4,5.4,4.2,8.7,4.8c0.5,0.1,1,0.3,1.5,0.3c-1.4-0.7-3.1-0.7-4.3-1.7c-1.2-0.9-2.3-1.8-2.1-3.4c0.1-0.6,0.4-1.1,1-1.2
		c0.3-0.1,0.7,0,1,0.1c2.9,0.7,5.8,1,8.8,1.5C94.7,207.3,95.1,207.3,95.4,207.4z"/>
	<g id="XMLID_813_">
		<circle id="XMLID_633_" class="st15" cx="82.2" cy="206.9" r="2.5"/>
		<path id="XMLID_632_" class="st18" d="M82.2,208.9c-0.4,0-0.8-0.1-1.1-0.3c-0.6-0.4-0.9-1-0.9-1.7c0-0.6,0.3-1.2,0.7-1.5
			c0.3-0.3,0.8-0.5,1.3-0.5c0.2,0,0.3,0,0.5,0.1c0.5,0.1,0.9,0.4,1.2,0.9c0.2,0.3,0.3,0.7,0.3,1.1c0,0.3-0.1,0.6-0.2,0.9
			c-0.1,0.2-0.2,0.4-0.4,0.5c-0.1,0.1-0.2,0.2-0.3,0.3c0,0,0,0,0,0c-0.1,0-0.1,0.1-0.2,0.1C82.9,208.8,82.5,208.9,82.2,208.9z"/>
		<path id="XMLID_631_" class="st19" d="M82.2,209.4c-1.4,0-2.5-1.1-2.5-2.5c0-0.9,0.5-1.7,1.2-2.2c-0.4,0.4-0.6,1-0.6,1.6
			c0,0.7,0.3,1.3,0.8,1.8c0.4,0.4,1,0.7,1.6,0.7c0,0,0,0,0,0c0,0,0.1,0,0.1,0c0.5,0,0.9-0.1,1.3-0.4C83.6,209.1,83,209.4,82.2,209.4
			z"/>
		<path id="XMLID_630_" class="st20" d="M82.6,206.7c-0.2,0.1-0.4,0.1-0.6,0.1c-0.7,0-1.2-0.5-1.2-1.1c0-0.2,0-0.3,0.1-0.4
			c0.3-0.3,0.8-0.5,1.3-0.5c0.2,0,0.3,0,0.5,0.1c0.3,0.2,0.5,0.5,0.5,0.9c0,0.1,0,0.2,0,0.2c0,0.1-0.1,0.3-0.2,0.4
			c0.1,0.3,0.2,0.8,0.4,1.2c0.1,0.3,0.2,0.6,0.3,0.7c-0.1,0.1-0.3,0.3-0.5,0.4C83.1,208.3,83,207.2,82.6,206.7z"/>
		<path id="XMLID_629_" class="st14" d="M84,207.8c-0.2,0-0.4-0.1-0.6-0.2c-0.2-0.4-0.3-0.9-0.4-1.2c0.1-0.1,0.1-0.2,0.2-0.4
			c0.2-0.1,0.5-0.2,0.8-0.3c0.2,0.3,0.3,0.7,0.3,1.1C84.2,207.2,84.2,207.5,84,207.8C84,207.8,84,207.8,84,207.8z"/>
		<path id="XMLID_628_" class="st21" d="M82.7,208.8C82.7,208.8,82.7,208.8,82.7,208.8c-0.7,0-1.2-0.3-1.7-0.7
			c0-0.5,0.6-0.9,1.2-0.9c0.7,0,1.2,0.4,1.2,1c0,0.1,0,0.3-0.1,0.4c0,0,0,0,0,0c-0.1,0-0.1,0.1-0.2,0.1
			C83,208.7,82.9,208.8,82.7,208.8z"/>
	</g>
	<circle id="XMLID_515_" class="st26" cx="87.5" cy="208.8" r="1.7"/>
	<circle id="XMLID_514_" class="st27" cx="87.1" cy="208.6" r="1.7"/>
	<path id="XMLID_627_" class="st1" d="M174.7,170.5l-4.2,5.8l2.1,1.1l-4.1,3l6.2,1.5l7.7,1.9l28.8-13.4l-0.1-4.5h0v0
		c-0.1,0-0.2,0.1-0.2,0.1c0,0,0,0,0,0c-1.5,0.6-3.4,1.2-5.6,1.8c0,0,0,0,0,0c-0.4,0.1-0.9,0.2-1.3,0.3c-0.7,0.2-1.5,0.3-2.3,0.4
		c-2.5,0.4-5.4,0.8-8.8,1.1C189.1,170.2,179.5,170.5,174.7,170.5z"/>
	<path id="XMLID_626_" class="st0" d="M208.3,170.2c0,0-13.4,6.7-19.4,8.7l1.7,1.6l20.6-10l0-1.7L208.3,170.2z"/>
	<path id="XMLID_625_" class="st0" d="M180,170.5l2.7,2.5c0.9,0.3,1.9-0.1,2.8-0.2c1.3-0.1,2.6-0.2,3.9-0.2
		c6.2-0.5,12.8-0.8,18.5-3.5c1.1-0.5,2.3-1,3-2c0.1,0,0.2,0.1,0.2,0.2c0,0,0-1.2,0-1.2c-0.1,0-0.2,0.1-0.2,0.1c0,0,0,0,0,0
		c-1.5,0.6-3.4,1.2-5.7,1.8c-0.4,0.1-0.9,0.2-1.3,0.3c-0.7,0.2-1.5,0.3-2.3,0.4c-2.5,0.4-5.4,0.8-8.8,1.1
		C189.1,170.2,184.9,170.4,180,170.5z"/>
	<path id="XMLID_623_" class="st25" d="M192.8,207.4c0,0,11.8-3,11.8-3c1.1-0.3,2.9-0.2,3.6,0.8c0.4,0.5,0.4,1.2,0.3,1.8
		c-0.8,4-5.4,4.2-8.7,4.8c-0.5,0.1-1,0.3-1.5,0.3c1.4-0.7,3.1-0.7,4.3-1.7c1.2-0.9,2.3-1.8,2.1-3.4c-0.1-0.6-0.4-1.1-1-1.2
		c-0.3-0.1-0.7,0-1,0.1c-2.9,0.7-5.8,1-8.8,1.5C193.5,207.3,193.1,207.3,192.8,207.4z"/>
	<g id="XMLID_799_">
		<circle id="XMLID_622_" class="st15" cx="206" cy="206.9" r="2.5"/>
		<path id="XMLID_621_" class="st18" d="M206,208.9c0.4,0,0.8-0.1,1.1-0.3c0.6-0.4,0.9-1,0.9-1.7c0-0.6-0.3-1.2-0.7-1.5
			c-0.3-0.3-0.8-0.5-1.3-0.5c-0.2,0-0.3,0-0.5,0.1c-0.5,0.1-0.9,0.4-1.2,0.9c-0.2,0.3-0.3,0.7-0.3,1.1c0,0.3,0.1,0.6,0.2,0.9
			c0.1,0.2,0.2,0.4,0.4,0.5c0.1,0.1,0.2,0.2,0.3,0.3c0,0,0,0,0,0c0.1,0,0.1,0.1,0.2,0.1C205.3,208.8,205.6,208.9,206,208.9z"/>
		<path id="XMLID_620_" class="st19" d="M206,209.4c1.4,0,2.5-1.1,2.5-2.5c0-0.9-0.5-1.7-1.2-2.2c0.4,0.4,0.6,1,0.6,1.6
			c0,0.7-0.3,1.3-0.8,1.8c-0.4,0.4-1,0.7-1.6,0.7c0,0,0,0,0,0c0,0-0.1,0-0.1,0c-0.5,0-0.9-0.1-1.3-0.4
			C204.5,209.1,205.2,209.4,206,209.4z"/>
		<path id="XMLID_619_" class="st20" d="M205.6,206.7c0.2,0.1,0.4,0.1,0.6,0.1c0.7,0,1.2-0.5,1.2-1.1c0-0.2,0-0.3-0.1-0.4
			c-0.3-0.3-0.8-0.5-1.3-0.5c-0.2,0-0.3,0-0.5,0.1c-0.3,0.2-0.5,0.5-0.5,0.9c0,0.1,0,0.2,0,0.2c0,0.1,0.1,0.3,0.2,0.4
			c-0.1,0.3-0.2,0.8-0.4,1.2c-0.1,0.3-0.2,0.6-0.3,0.7c0.1,0.1,0.3,0.3,0.5,0.4C205.1,208.3,205.2,207.2,205.6,206.7z"/>
		<path id="XMLID_618_" class="st14" d="M204.2,207.8c0.2,0,0.4-0.1,0.6-0.2c0.2-0.4,0.3-0.9,0.4-1.2c-0.1-0.1-0.1-0.2-0.2-0.4
			c-0.2-0.1-0.5-0.2-0.8-0.3c-0.2,0.3-0.3,0.7-0.3,1.1C203.9,207.2,204,207.5,204.2,207.8C204.2,207.8,204.2,207.8,204.2,207.8z"/>
		<path id="XMLID_617_" class="st21" d="M205.5,208.8C205.5,208.8,205.5,208.8,205.5,208.8c0.7,0,1.2-0.3,1.7-0.7
			c0-0.5-0.6-0.9-1.2-0.9c-0.7,0-1.2,0.4-1.2,1c0,0.1,0,0.3,0.1,0.4c0,0,0,0,0,0c0.1,0,0.1,0.1,0.2,0.1
			C205.2,208.7,205.3,208.8,205.5,208.8z"/>
	</g>
	<circle id="XMLID_513_" class="st26" cx="200.6" cy="208.8" r="1.7"/>
	<circle id="XMLID_512_" class="st27" cx="201.1" cy="208.6" r="1.7"/>
	<path id="XMLID_616_" class="st28" d="M164,215.5v0.4h-39.8v-0.4c0-2.6,2.1-4.8,4.7-4.8h30.3C161.9,210.8,164,212.9,164,215.5z"/>
	<path id="XMLID_615_" class="st29" d="M147.3,57.5H141c-1,0-11.9,0.8-11.9,1.9l0,0h30l0,0C159.2,58.4,148.3,57.5,147.3,57.5z"/>
	<g id="XMLID_466_">
		<path id="XMLID_510_" class="st30" d="M132,214.2l0.8-1.9h1.2v0.1h-0.1c-0.1,0-0.2,0-0.2,0c0,0-0.1,0.1-0.1,0.1c0,0,0,0.1,0,0.3
			v1.9c0,0.1,0,0.2,0,0.3c0,0,0,0.1,0.1,0.1s0.1,0,0.2,0h0.1v0.1h-1.5v-0.1h0.1c0.1,0,0.2,0,0.2,0c0,0,0.1-0.1,0.1-0.1
			c0,0,0-0.1,0-0.3v-2.1l-1.1,2.6h-0.1l-1.1-2.6v2c0,0.1,0,0.2,0,0.3c0,0.1,0.1,0.1,0.1,0.2c0.1,0,0.2,0.1,0.3,0.1v0.1h-1v-0.1h0
			c0.1,0,0.1,0,0.2,0c0.1,0,0.1-0.1,0.1-0.1c0,0,0-0.1,0.1-0.2c0,0,0-0.1,0-0.2v-1.8c0-0.1,0-0.2,0-0.3s0-0.1-0.1-0.1
			c0,0-0.1,0-0.2,0H130v-0.1h1.2L132,214.2z"/>
		<path id="XMLID_508_" class="st30" d="M135.2,213.8v0.9c0,0.1,0,0.2,0,0.3c0,0,0,0.1,0.1,0.1c0,0,0.1,0,0.2,0h0.1v0.1h-1.5v-0.1
			h0.1c0.1,0,0.1,0,0.2,0c0,0,0.1-0.1,0.1-0.1c0,0,0-0.1,0-0.3v-1.9c0-0.1,0-0.2,0-0.3c0,0,0-0.1-0.1-0.1c0,0-0.1,0-0.2,0h-0.1v-0.1
			h1.5v0.1h-0.1c-0.1,0-0.1,0-0.2,0c0,0-0.1,0.1-0.1,0.1c0,0,0,0.1,0,0.3v0.8h1v-0.8c0-0.1,0-0.2,0-0.3c0,0,0-0.1-0.1-0.1
			c0,0-0.1,0-0.2,0h-0.1v-0.1h1.5v0.1h-0.1c-0.1,0-0.2,0-0.2,0c0,0-0.1,0.1-0.1,0.1c0,0,0,0.1,0,0.3v1.9c0,0.1,0,0.2,0,0.3
			c0,0,0,0.1,0.1,0.1s0.1,0,0.2,0h0.1v0.1h-1.5v-0.1h0.1c0.1,0,0.2,0,0.2,0c0,0,0.1-0.1,0.1-0.1c0,0,0-0.1,0-0.3v-0.9H135.2z"/>
		<path id="XMLID_506_" class="st30" d="M138.7,214.4h-1.2V214h1.2V214.4z"/>
		<path id="XMLID_501_" class="st30" d="M140.8,213.8c0,0.3,0,0.6-0.1,0.8c0,0.2-0.1,0.3-0.2,0.4c-0.1,0.1-0.2,0.2-0.3,0.2
			c-0.1,0.1-0.2,0.1-0.3,0.1c-0.1,0-0.3,0-0.4-0.1c-0.1-0.1-0.2-0.2-0.3-0.3c-0.1-0.1-0.1-0.2-0.2-0.4c-0.1-0.2-0.1-0.4-0.1-0.7
			c0-0.3,0-0.6,0.1-0.9c0.1-0.2,0.2-0.4,0.3-0.5c0.1-0.1,0.3-0.2,0.5-0.2c0.2,0,0.3,0.1,0.5,0.2s0.3,0.3,0.3,0.5
			C140.8,213.2,140.8,213.4,140.8,213.8z M140.2,213.7c0-0.5,0-0.8,0-0.9c0-0.2,0-0.3-0.1-0.4c0,0-0.1-0.1-0.2-0.1
			c-0.1,0-0.1,0-0.1,0.1c-0.1,0-0.1,0.1-0.1,0.3c0,0.1,0,0.6,0,1.3c0,0.4,0,0.7,0,0.8c0,0.1,0.1,0.2,0.1,0.2c0,0,0.1,0.1,0.2,0.1
			c0.1,0,0.1,0,0.2-0.1c0.1-0.1,0.1-0.2,0.1-0.4L140.2,213.7z"/>
		<path id="XMLID_499_" class="st30" d="M141.8,215.2l0.8-2.4h-0.6c-0.2,0-0.4,0-0.5,0.1c-0.1,0-0.1,0.1-0.2,0.2h-0.1l0.2-0.9h1.7
			l-1,2.9H141.8z"/>
		<path id="XMLID_495_" class="st30" d="M146.6,212.3L146.6,212.3c-0.1,0.1-0.2,0.1-0.2,0.2c-0.1,0.1-0.2,0.2-0.3,0.5l-0.6,1v0.7
			c0,0.1,0,0.2,0,0.3c0,0,0,0.1,0.1,0.1c0,0,0.1,0,0.2,0h0.2v0.1h-1.6v-0.1h0.1c0.1,0,0.2,0,0.2,0c0,0,0.1-0.1,0.1-0.1
			c0,0,0-0.1,0-0.3v-0.6l-0.7-1.2c-0.1-0.2-0.2-0.4-0.3-0.4s-0.1-0.1-0.2-0.1v-0.1h1.4v0.1h-0.1c-0.1,0-0.1,0-0.2,0s0,0,0,0.1
			c0,0.1,0.1,0.2,0.2,0.4l0.5,0.9l0.5-0.9c0.1-0.2,0.2-0.4,0.2-0.4c0,0,0-0.1-0.1-0.1c0,0-0.1-0.1-0.3-0.1v-0.1H146.6z"/>
		<path id="XMLID_479_" class="st30" d="M147.8,213.9v0.8c0,0.2,0,0.3,0,0.3s0.1,0.1,0.1,0.1s0.1,0,0.3,0v0.1h-1.5v-0.1
			c0.1,0,0.2,0,0.3,0c0,0,0.1-0.1,0.1-0.1s0-0.1,0-0.3v-1.9c0-0.2,0-0.3,0-0.3s-0.1-0.1-0.1-0.1c0,0-0.1,0-0.3,0v-0.1h1.3
			c0.3,0,0.6,0,0.8,0.1c0.2,0,0.3,0.1,0.4,0.3c0.1,0.1,0.2,0.3,0.2,0.5c0,0.2-0.1,0.4-0.2,0.5c-0.1,0.1-0.2,0.2-0.4,0.2l0.7,1
			c0.1,0.1,0.2,0.2,0.2,0.2c0.1,0,0.1,0.1,0.2,0.1v0.1h-0.9l-0.9-1.3H147.8z M147.8,212.5v1.3h0.1c0.2,0,0.3,0,0.4-0.1
			c0.1,0,0.2-0.1,0.2-0.2c0.1-0.1,0.1-0.2,0.1-0.4c0-0.2-0.1-0.4-0.2-0.5c-0.1-0.1-0.3-0.2-0.5-0.2H147.8z"/>
		<path id="XMLID_477_" class="st30" d="M151.2,212.3v2.3c0,0.2,0,0.3,0,0.3s0,0.1,0.1,0.1s0.1,0,0.2,0h0.1v0.1h-1.5v-0.1h0.1
			c0.1,0,0.2,0,0.3,0c0.1,0,0.1-0.1,0.1-0.1c0,0,0-0.2,0-0.3v-1.5c0-0.1,0-0.2,0-0.2c0,0,0-0.1-0.1-0.1s-0.1,0-0.1,0
			c-0.1,0-0.2,0-0.3,0.1l0-0.1L151.2,212.3L151.2,212.3z"/>
		<path id="XMLID_472_" class="st30" d="M152.6,213.7L152.6,213.7c0.2-0.1,0.3-0.2,0.3-0.2c0.1,0,0.1-0.1,0.2-0.2
			c0-0.1,0.1-0.2,0.1-0.3c0-0.1,0-0.2-0.1-0.3c-0.1-0.1-0.2-0.1-0.3-0.1c-0.2,0-0.4,0.1-0.5,0.3l-0.1,0c0.1-0.2,0.2-0.4,0.4-0.5
			s0.3-0.2,0.5-0.2c0.2,0,0.4,0.1,0.5,0.2c0.1,0.1,0.2,0.3,0.2,0.4c0,0.1,0,0.2-0.1,0.3s-0.2,0.2-0.3,0.3c0.2,0.1,0.3,0.2,0.4,0.3
			c0.1,0.1,0.1,0.3,0.1,0.4c0,0.3-0.1,0.6-0.3,0.8s-0.5,0.3-0.9,0.3c-0.2,0-0.4,0-0.5-0.1c-0.1-0.1-0.1-0.1-0.1-0.2
			c0-0.1,0-0.1,0.1-0.2c0,0,0.1-0.1,0.2-0.1c0,0,0.1,0,0.1,0c0,0,0.1,0.1,0.2,0.2c0.1,0.1,0.3,0.2,0.4,0.2c0.1,0,0.2,0,0.3-0.1
			c0.1-0.1,0.1-0.2,0.1-0.3c0-0.2-0.1-0.4-0.2-0.5C153,213.9,152.8,213.8,152.6,213.7z"/>
		<path id="XMLID_469_" class="st30" d="M154.7,212.3h1.3l-0.2,0.5h-1.1l-0.1,0.3c0.5,0,0.9,0.1,1.1,0.4c0.2,0.2,0.3,0.4,0.3,0.7
			c0,0.2,0,0.3-0.1,0.5c-0.1,0.2-0.2,0.3-0.4,0.4c-0.2,0.1-0.4,0.1-0.6,0.1c-0.2,0-0.4,0-0.5-0.1c-0.1-0.1-0.1-0.1-0.1-0.2
			c0-0.1,0-0.1,0.1-0.2c0,0,0.1-0.1,0.2-0.1c0.1,0,0.1,0,0.2,0c0.1,0,0.2,0.1,0.3,0.2c0.1,0.1,0.2,0.1,0.2,0.1c0,0,0.1,0,0.1,0
			c0.1,0,0.2,0,0.3-0.1c0.1-0.1,0.1-0.2,0.1-0.3c0-0.2-0.1-0.4-0.4-0.6s-0.6-0.2-0.9-0.2c0,0-0.1,0-0.2,0L154.7,212.3z"/>
		<path id="XMLID_467_" class="st30" d="M157,215.2l0.8-2.4h-0.6c-0.2,0-0.4,0-0.5,0.1c-0.1,0-0.1,0.1-0.2,0.2h-0.1l0.2-0.9h1.7
			l-1,2.9H157z"/>
	</g>
	<rect id="XMLID_22_" x="72.7" y="82.4" class="st0" width="5.7" height="9.4"/>
	<path id="XMLID_21_" class="st1" d="M66.5,88v15.6h6.2V82.4H71C68.5,82.4,66.5,84.9,66.5,88z"/>
	<path id="XMLID_20_" class="st0" d="M67.7,91.6v12h5V86h-0.5C69.7,86,67.7,88.5,67.7,91.6z"/>
	<path id="XMLID_18_" class="st0" d="M72.7,82.4c0,0,1.9,4,1.8,6.3l-0.9,12.5l-0.9-4.1V82.4z"/>
	<path id="XMLID_9_" class="st1" d="M64.9,98.9l7.4-1.9c1-0.1,1.9,0.5,2.3,1.4c0.1,0.3,0.2,0.7,0.3,1.1l0.9,25.2
		c0.1,1.2-0.6,2.2-1.5,2.7l-1.8-4l-6.1-2.9l-2.7,1.9c0-0.1,0-0.2,0-0.4l-1-20.3C62.5,100.3,63.5,99,64.9,98.9z"/>
	<path id="XMLID_7_" class="st0" d="M63.6,122.5c0.2,1.2,1.1,2,2.1,2.1l0.8,0.3l6.5,2.7c0.4,0,0.8,0,1.2-0.2l-1.8-4l-6.1-2.9
		L63.6,122.5z"/>
	<circle id="XMLID_600_" class="st31" cx="133.1" cy="188.8" r="2.3"/>
	<polygon id="XMLID_599_" class="st31" points="142.1,186.5 139.8,191.1 144.4,191.1 	"/>
	<polygon id="XMLID_598_" class="st31" points="155,186.5 152.6,191.1 157.3,191.1 	"/>
	<rect id="XMLID_597_" x="144.6" y="187" class="st31" width="4.9" height="4.1"/>
	<rect id="XMLID_596_" x="150" y="187" class="st31" width="2.3" height="4.1"/>
	<g id="XMLID_744_">
		<path id="XMLID_595_" class="st31" d="M139.9,187.5c-0.4-0.6-1.1-1-1.9-1c-1.3,0-2.3,1-2.3,2.3c0,1.3,1,2.3,2.3,2.3
			c0.8,0,1.5-0.4,1.9-1l-1.9-1.3L139.9,187.5z"/>
		<polygon id="XMLID_594_" class="st31" points="139.9,187.5 139.9,187.5 139.9,187.5 		"/>
		<polygon id="XMLID_593_" class="st31" points="139.9,190.1 139.9,190.1 139.9,190.1 		"/>
	</g>
	<g id="XMLID_738_">
		<path id="XMLID_586_" class="st9" d="M195.7,67.7h-8l0,0c0-1,0.8-1.8,1.8-1.8h4.5C194.9,66,195.7,66.8,195.7,67.7L195.7,67.7z"/>
		<circle id="XMLID_584_" class="st31" cx="192.7" cy="66.9" r="0.8"/>
		<circle id="XMLID_583_" class="st31" cx="190.7" cy="66.9" r="0.8"/>
	</g>
	<g id="XMLID_589_">
		<path id="XMLID_579_" class="st9" d="M102.4,67.7h-8l0,0c0-1,0.8-1.8,1.7-1.8h4.5C101.6,66,102.4,66.8,102.4,67.7L102.4,67.7z"/>
		<circle id="XMLID_578_" class="st31" cx="99.4" cy="66.9" r="0.8"/>
		<circle id="XMLID_576_" class="st31" cx="97.4" cy="66.9" r="0.8"/>
	</g>
	<path id="XMLID_575_" class="st32" d="M203.9,86.8c-0.5-5.8-6.6-9.5-11.3-11.8h-72.8c-10,0-24.5-3.1-31.9,5.8
		c-2.7,3.3-3.6,7.8-3.7,12c-0.1,5.9,0.1,12,0.3,17.9c0.1,4.7-0.2,9.2,4.2,11.9c5.5,3.4,12.6,5.1,17.1,9.9c4.5,4.7,5.7,12.1,8.2,17.9
		c0.1,0.2,0.1,0.3,0.2,0.5c2.5,0.2,4.9,0.4,7.4,0.4h44.9c2.7-0.1,5.4-0.3,8.1-0.5c2-4.8,2.8-9.9,5.3-14.4c2.7-4.8,7.7-7.9,12.5-10.3
		c5.5-2.7,10.4-3.3,11.4-10.4C205.1,106.1,204.7,96.4,203.9,86.8z"/>
	<path id="XMLID_574_" class="st33" d="M121.7,151.6c-2.5-0.1-4.9-0.3-7.4-0.4c3.1,6.8,9.4,12,16.7,13.9c13.6,3.6,33.8,3,41.9-10.3
		c0.7-1.2,1.3-2.4,1.8-3.6c-2.7,0.2-5.4,0.4-8.1,0.5H121.7z"/>
	<path id="XMLID_465_" class="st34" d="M108.5,74.4h81.9c3.9,0,7,3.2,7,7v3.1c0,5-5,8.4-9.6,6.5l-14.4-5.7c-1.3-0.5-2.7-0.6-4-0.3
		l-18.9,4c-2,0.4-4,0-5.6-1.2C139.2,83.8,124.6,74.4,108.5,74.4z"/>
	<path id="XMLID_573_" class="st35" d="M114.5,151.1c-1.4-0.1-2.8-0.2-4.1-0.3c-2.6-0.2-5.2-0.3-7.8-0.4l-10-0.9v-25
		c4.7,2.3,9.8,4.1,13.4,7.9c4.5,4.7,5.7,12.1,8.2,17.9c0.1,0.1,0.1,0.3,0.2,0.5C114.4,150.9,114.4,151,114.5,151.1z"/>
	<path id="XMLID_572_" class="st36" d="M92.6,118c0,1,0-29.8,0-29.8s0.7-9.4,12.5-10.3h11.5C116.5,77.9,92.6,102.7,92.6,118z"/>
	<path id="XMLID_2_" class="st0" d="M188.9,178.9c0,0-6,4.1-7,5.4l0.6,0.3l2.9-2l6.9-3.3L188.9,178.9z"/>
	<path id="XMLID_25_" class="st8" d="M211.3,174.1v0.3c-3.3,1.4-16.5,7.2-17.8,7.5h0c0,0,0,0,0,0l-2.5,1.2l-4.6,2.2
		c-2,1-3.7,2.6-4.7,4.5l-1.8,4.1h-1.2l2.9-6.7c1-2,2.6-3.6,4.6-4.5l4.5-2.2l2.4-1.2c0,0,0,0,0,0h0c1.5-0.4,18-7.8,18-7.8v0h0.1
		L211.3,174.1z"/>
	<path id="XMLID_17_" class="st8" d="M76.8,174.1v0.3c3.3,1.4,16.5,7.2,17.8,7.5h0c0,0,0,0,0,0l2.5,1.2l4.6,2.2c2,1,3.7,2.6,4.7,4.5
		l1.8,4.1h1.2l-2.9-6.7c-1-2-2.6-3.6-4.6-4.5l-4.5-2.2l-2.4-1.2c0,0,0,0,0,0h0c-1.5-0.4-18-7.8-18-7.8v0h-0.1L76.8,174.1z"/>
	<path id="XMLID_12_" class="st9" d="M185.9,176l-5.9,1.4l-3.1,3.7l9.6-4.7l11-2.9l-10.1,3.9c-2.3,1.1-7,8.2-5.5,6.1s6.6-5,6.6-5
		c5.7-2.6,16.5-7.7,17.4-8.1L185.9,176z"/>
	<path id="XMLID_14_" class="st1" d="M113.5,170.5l4.2,5.8l-2.1,1.1l4.1,3l-6.2,1.5l-7.7,1.9L77,170.5l0.1-4.5h0v0
		c0.1,0,0.2,0.1,0.2,0.1c0,0,0,0,0,0c1.5,0.6,3.4,1.2,5.6,1.8c0,0,0,0,0,0c0.4,0.1,0.9,0.2,1.3,0.3c0.7,0.2,1.5,0.3,2.3,0.4
		c2.5,0.4,5.4,0.8,8.8,1.1C99.1,170.2,108.7,170.5,113.5,170.5z"/>
	<path id="XMLID_13_" class="st0" d="M79.9,170.2c0,0,12.9,6.7,18.8,8.7l-1.1,1.6l-20.6-10l0-1.7L79.9,170.2z"/>
	<path id="XMLID_11_" class="st0" d="M108.1,170.5l-2.7,2.5c-0.9,0.3-1.9-0.1-2.8-0.2c-1.3-0.1-2.6-0.2-3.9-0.2
		c-6.2-0.5-12.8-0.8-18.5-3.5c-1.1-0.5-2.3-1-3-2c-0.1,0-0.2,0.1-0.2,0.2c0,0,0-1.2,0-1.2c0.1,0,0.2,0.1,0.2,0.1c0,0,0,0,0,0
		c1.5,0.6,3.4,1.2,5.7,1.8c0.4,0.1,0.9,0.2,1.3,0.3c0.7,0.2,1.5,0.3,2.3,0.4c2.5,0.4,5.4,0.8,8.8,1.1
		C99.1,170.2,103.3,170.4,108.1,170.5z"/>
	<path id="XMLID_10_" class="st9" d="M102.3,176l5.9,1.4l3.1,3.7l-9.6-4.7l-11-2.9l10.1,3.9c2.3,1.1,7,8.2,5.5,6.1s-6.6-5-6.6-5
		c-5.7-2.6-16.5-7.7-17.4-8.1L102.3,176z"/>
	<g id="XMLID_15_">
		<linearGradient id="XMLID_24_" gradientUnits="userSpaceOnUse" x1="144.0913" y1="183.085" x2="144.0913" y2="170.507">
			<stop  offset="0.2634" style="stop-color:#EF4623"/>
			<stop  offset="0.6398" style="stop-color:#F7921E"/>
			<stop  offset="0.6989" style="stop-color:#F5871F"/>
			<stop  offset="1" style="stop-color:#EF4623"/>
		</linearGradient>
		<path id="XMLID_56_" class="st37" d="M180.5,170.9l1.4,1.3c0.6,0.5,0.7,1.1,0.6,1.7l-2.1,8c-0.2,0.7-0.8,1.2-1.5,1.2h-69.5
			c-0.7,0-1.3-0.5-1.5-1.2l-2.1-8c-0.1-0.5,0-1.1,0.4-1.5l1.6-1.5c0.3-0.3,0.7-0.4,1.1-0.4c1.2,0,2.4,0,3.7,0h63.5
			c1.2,0,2.4,0,3.5,0C179.8,170.5,180.2,170.7,180.5,170.9z"/>
	</g>
	<path id="XMLID_16_" class="st0" d="M98.7,178.9c0,0,6,4.1,7,5.4l-0.6,0.3l-2.9-2l-7.4-3.5L98.7,178.9z"/>
	<linearGradient id="XMLID_29_" gradientUnits="userSpaceOnUse" x1="120.1667" y1="176.7903" x2="167.8333" y2="176.7903">
		<stop  offset="0" style="stop-color:#FEEDE3;stop-opacity:0"/>
		<stop  offset="0.1559" style="stop-color:#FFEABF"/>
		<stop  offset="0.8495" style="stop-color:#FFEABF"/>
		<stop  offset="1" style="stop-color:#FEEDE3;stop-opacity:0"/>
	</linearGradient>
	<rect id="XMLID_8_" x="120.2" y="170.5" class="st38" width="47.7" height="12.6"/>
</g>
</svg>
